<?xml version="1.0" standalone="no"?>
<!DOCTYPE svg PUBLIC "-//W3C//DTD SVG 1.1//EN" "http://www.w3.org/Graphics/SVG/1.1/DTD/svg11.dtd" >
<svg xmlns="http://www.w3.org/2000/svg" xmlns:xlink="http://www.w3.org/1999/xlink" version="1.1">
<metadata>
Created by FontForge 20190801 at Sat Nov 15 15:02:41 2014
 By Jimmy Wärting
VW Head was created in collaboration with MetaDesign.
</metadata>
<defs>
<font id="VWHead-Bold" horiz-adv-x="590" >
  <font-face 
    font-family="VW Head Bold"
    font-weight="700"
    font-stretch="normal"
    units-per-em="1000"
    panose-1="2 11 8 3 4 2 0 0 0 3"
    ascent="787"
    descent="-213"
    x-height="482"
    cap-height="680"
    bbox="-200 -221 1133 996"
    underline-thickness="90"
    underline-position="-110"
    stemh="111"
    stemv="138"
    unicode-range="U+000D-FB02"
  />
<missing-glyph horiz-adv-x="513" 
d="M50 0v680h413v-680h-413zM108 58h297v564h-297v-564z" />
    <glyph glyph-name=".notdef" horiz-adv-x="513" 
d="M50 0v680h413v-680h-413zM108 58h297v564h-297v-564z" />
    <glyph glyph-name=".null" horiz-adv-x="0" 
 />
    <glyph glyph-name=".null" horiz-adv-x="0" 
 />
    <glyph glyph-name="CR" unicode="&#xd;" horiz-adv-x="231" 
 />
    <glyph glyph-name="space" unicode=" " horiz-adv-x="231" 
 />
    <glyph glyph-name="exclam" unicode="!" horiz-adv-x="281" 
d="M213 529l-28 -289h-89l-28 289v151h145v-151zM55 71c0 51 33 86 85 86s85 -35 85 -86s-33 -86 -85 -86s-85 35 -85 86z" />
    <glyph glyph-name="quotedbl" unicode="&#x22;" horiz-adv-x="444" 
d="M388 586l-28 -181h-83l-28 181v94h139v-94zM195 586l-28 -181h-83l-28 181v94h139v-94z" />
    <glyph glyph-name="numbersign" unicode="#" horiz-adv-x="727" 
d="M190 0h-106v10l42 149h-95v93h122l49 170h-90v93h116l48 165h106v-10l-45 -155h151l48 165h106v-10l-45 -155h99v-93h-125l-49 -170h93v-93h-120l-45 -159h-106v10l42 149h-151zM311 422l-49 -170h151l49 170h-151z" />
    <glyph glyph-name="dollar" unicode="$" 
d="M53 50l43 109c37 -24 104 -49 163 -56v184l-32 11c-108 36 -162 101 -161 189c0 108 65 187 193 204v79h89v-77c51 -7 115 -22 166 -47l-42 -111c-37 19 -85 33 -124 40v-177c129 -40 190 -95 190 -198c0 -114 -71 -191 -190 -210v-98h-89v94c-76 7 -157 35 -206 64z
M196 499c0 -36 12 -63 65 -82v164c-51 -15 -65 -42 -65 -82zM407 188c0 37 -21 59 -62 78v-165c39 15 62 44 62 87z" />
    <glyph glyph-name="percent" unicode="%" horiz-adv-x="808" 
d="M129 503c0 -72 20 -102 55 -102c39 0 59 30 59 102s-20 104 -59 104c-35 0 -55 -32 -55 -104zM339 503c0 -110 -57 -183 -155 -183c-94 0 -152 73 -152 183c0 112 58 185 152 185c98 0 155 -73 155 -185zM566 175c0 -72 20 -102 55 -102c39 0 59 30 59 102
s-20 104 -59 104c-35 0 -55 -32 -55 -104zM776 175c0 -110 -57 -183 -155 -183c-94 0 -152 73 -152 183c0 112 58 185 152 185c98 0 155 -73 155 -185zM230 0h-104v10l456 670h104v-10z" />
    <glyph glyph-name="ampersand" unicode="&#x26;" horiz-adv-x="743" 
d="M608 370l93 -62c-40 -60 -78 -112 -117 -155l145 -143v-10h-161l-70 70c-73 -57 -148 -85 -231 -85c-136 0 -221 74 -221 185c0 103 93 154 156 189l7 4l-2 2c-33 32 -84 86 -84 154c0 95 79 176 205 176c114 0 198 -81 198 -175c0 -83 -56 -128 -116 -164l-19 -11
l114 -113c32 37 65 82 103 138zM284 104c46 0 89 14 134 47l-132 134l-12 -7c-33 -18 -85 -47 -85 -99c0 -45 33 -75 95 -75zM256 514c0 -25 11 -48 38 -73l17 -18l28 17c36 20 60 41 60 74c0 34 -28 65 -71 65c-47 0 -72 -29 -72 -65z" />
    <glyph glyph-name="quotesingle" unicode="'" horiz-adv-x="251" 
d="M195 586l-28 -181h-83l-28 181v94h139v-94z" />
    <glyph glyph-name="parenleft" unicode="(" horiz-adv-x="288" 
d="M42 251c0 193 62 359 134 465l78 -34c-61 -133 -87 -274 -87 -431s26 -298 87 -431l-78 -34c-72 106 -134 272 -134 465z" />
    <glyph glyph-name="parenright" unicode=")" horiz-adv-x="288" 
d="M246 251c0 -193 -62 -359 -134 -465l-78 34c61 133 87 274 87 431s-26 298 -87 431l78 34c72 -106 134 -272 134 -465z" />
    <glyph glyph-name="asterisk" unicode="*" horiz-adv-x="441" 
d="M185 461l-2 1l-90 -67l-48 84l104 45v2l-104 45l47 84l90 -67l2 1l-12 111h97l-13 -111l2 -1l90 67l48 -84l-104 -44v-2l104 -46l-47 -84l-91 68l-2 -1l13 -113h-97z" />
    <glyph glyph-name="plus" unicode="+" 
d="M347 536v-213h202v-103h-202v-214h-107v214h-201v103h201v213h107z" />
    <glyph glyph-name="comma" unicode="," horiz-adv-x="270" 
d="M15 -161v10l66 293h135v-10l-100 -293h-101z" />
    <glyph glyph-name="hyphen" unicode="-" horiz-adv-x="414" 
d="M352 220h-290v103h290v-103z" />
    <glyph glyph-name="period" unicode="." horiz-adv-x="272" 
d="M51 71c0 51 33 86 85 86s85 -35 85 -86s-33 -86 -85 -86s-85 35 -85 86z" />
    <glyph glyph-name="slash" unicode="/" horiz-adv-x="448" 
d="M141 0h-116v10l282 670h116v-10z" />
    <glyph glyph-name="zero" unicode="0" 
d="M176 340c0 -159 30 -236 119 -236c88 0 117 77 117 236s-29 236 -117 236c-89 0 -119 -77 -119 -236zM557 340c0 -218 -74 -355 -262 -355s-264 137 -264 355s76 355 264 355s262 -137 262 -355z" />
    <glyph glyph-name="one" unicode="1" 
d="M124 505h-12v119l168 56h104v-564h132v-116h-424v116h153v426h-2z" />
    <glyph glyph-name="two" unicode="2" 
d="M243 118v-2h286v-116h-475v100l254 247c40 37 69 74 69 132c0 53 -43 97 -104 97c-64 0 -107 -32 -148 -71l-73 90c37 40 120 100 221 100c146 0 249 -78 249 -216c0 -95 -73 -168 -108 -203z" />
    <glyph glyph-name="three" unicode="3" 
d="M145 285v116h116c79 0 108 37 108 89s-33 86 -108 86c-51 0 -113 -13 -164 -34l-40 108c56 27 137 45 204 45c168 0 253 -72 253 -193c0 -80 -54 -131 -102 -147v-2c68 -24 120 -81 120 -170c0 -120 -94 -198 -271 -198c-100 0 -164 20 -220 51l37 110
c51 -27 107 -42 183 -42c72 0 126 32 126 89c0 62 -33 92 -126 92h-116z" />
    <glyph glyph-name="four" unicode="4" 
d="M344 459h139v-199h77v-116h-77v-144h-139v144h-324v100l192 436h139l-178 -418v-2h171v199z" />
    <glyph glyph-name="five" unicode="5" 
d="M108 306l-17 17l38 357h374v-116h-256l-14 -135c11 1 30 2 44 2c148 0 253 -59 253 -219c0 -144 -108 -227 -284 -227c-48 0 -135 13 -203 37l32 117c60 -25 131 -35 175 -35c90 0 135 40 135 108c0 64 -39 100 -140 100c-43 0 -94 -3 -137 -6z" />
    <glyph glyph-name="six" unicode="6" 
d="M427 680v-10l-157 -230l1 -2c15 7 44 13 75 13c123 0 213 -95 213 -230c0 -129 -92 -236 -260 -236c-173 0 -262 107 -262 236c0 56 13 109 48 165l188 294h154zM414 221c0 76 -44 111 -115 111c-72 0 -117 -35 -117 -111s45 -117 117 -117c71 0 115 41 115 117z" />
    <glyph glyph-name="seven" unicode="7" 
d="M127 0v10l255 552v2h-319v116h470v-100l-260 -580h-146z" />
    <glyph glyph-name="eight" unicode="8" 
d="M295 104c81 0 115 39 115 95s-34 95 -115 95c-84 0 -115 -39 -115 -95s34 -95 115 -95zM295 695c160 0 233 -80 233 -190c0 -81 -41 -125 -88 -146v-2c69 -27 115 -86 115 -173c0 -119 -88 -199 -260 -199s-260 80 -260 199c0 87 46 146 115 173v2c-48 21 -88 65 -88 146
c0 110 73 190 233 190zM295 410c63 0 88 31 88 83s-25 83 -88 83s-88 -31 -88 -83s25 -83 88 -83z" />
    <glyph glyph-name="nine" unicode="9" 
d="M162 0v10l157 230l-1 2c-15 -7 -44 -13 -75 -13c-123 0 -213 95 -213 230c0 129 92 236 260 236c171 0 262 -107 262 -236c0 -56 -13 -109 -48 -165l-188 -294h-154zM175 459c0 -76 44 -111 115 -111c72 0 117 35 117 111s-45 117 -117 117c-71 0 -115 -41 -115 -117z
" />
    <glyph glyph-name="colon" unicode=":" horiz-adv-x="294" 
d="M62 411c0 51 33 86 85 86s85 -35 85 -86s-33 -86 -85 -86s-85 35 -85 86zM62 71c0 51 33 86 85 86s85 -35 85 -86s-33 -86 -85 -86s-85 35 -85 86z" />
    <glyph glyph-name="semicolon" unicode=";" horiz-adv-x="295" 
d="M21 -161v10l66 293h135v-10l-100 -293h-101zM70 411c0 51 33 86 85 86s85 -35 85 -86s-33 -86 -85 -86s-85 35 -85 86z" />
    <glyph glyph-name="less" unicode="&#x3c;" 
d="M534 -4h-10l-500 225v99l500 225h10v-109l-390 -164v-3l390 -164v-109z" />
    <glyph glyph-name="equal" unicode="=" 
d="M530 333h-470v103h470v-103zM530 107h-470v103h470v-103z" />
    <glyph glyph-name="greater" unicode="&#x3e;" 
d="M66 -4h-10v109l390 164v3l-390 164v109h10l500 -225v-99z" />
    <glyph glyph-name="question" unicode="?" horiz-adv-x="504" 
d="M290 240h-109l-6 129c87 26 149 71 149 131c0 39 -31 76 -88 76c-60 0 -101 -32 -140 -71l-71 93c35 40 116 97 211 97c143 0 233 -71 233 -188c0 -112 -100 -173 -166 -205zM150 71c0 51 33 86 85 86s85 -35 85 -86s-33 -86 -85 -86s-85 35 -85 86z" />
    <glyph glyph-name="at" unicode="@" horiz-adv-x="900" 
d="M619 -35l20 -74c-45 -17 -105 -31 -181 -31c-254 0 -415 147 -415 420c0 228 164 435 441 435c244 0 385 -169 385 -373c0 -190 -108 -294 -213 -294c-67 0 -102 25 -123 64h-2c-35 -27 -77 -52 -133 -52c-92 0 -156 71 -156 175c0 131 76 271 208 271
c56 0 88 -26 113 -47h1l23 35h78l-48 -266c-11 -60 -1 -98 47 -98c57 0 118 66 118 211c0 156 -88 294 -299 294c-228 0 -349 -170 -349 -355c0 -211 113 -341 324 -341c65 0 122 15 161 26zM508 183l33 203c-19 17 -46 26 -73 26c-72 0 -116 -79 -116 -171
c0 -51 22 -86 73 -86c27 0 62 12 83 28z" />
    <glyph glyph-name="A" unicode="A" horiz-adv-x="668" 
d="M415 680l250 -680h-153l-45 140h-266l-46 -140h-152l250 680h162zM335 538h-3l-93 -286h189z" />
    <glyph glyph-name="B" unicode="B" horiz-adv-x="652" 
d="M218 294v-178h129c84 0 117 27 117 88s-32 90 -123 90h-123zM79 680h249c165 0 252 -55 252 -184c0 -73 -40 -120 -88 -141v-2c73 -25 117 -75 117 -159c0 -128 -74 -194 -250 -194h-280v680zM218 564v-160h104c80 0 113 19 113 79c0 61 -30 81 -115 81h-102z" />
    <glyph glyph-name="C" unicode="C" horiz-adv-x="605" 
d="M46 340c0 212 117 355 331 355c63 0 130 -15 193 -44l-37 -110c-57 25 -100 35 -156 35c-121 0 -186 -95 -186 -236s65 -236 186 -236c56 0 99 10 156 35l37 -110c-63 -29 -130 -44 -193 -44c-214 0 -331 143 -331 355z" />
    <glyph glyph-name="D" unicode="D" horiz-adv-x="690" 
d="M79 0v680h213c255 0 348 -120 348 -340s-93 -340 -348 -340h-213zM218 116h61c176 0 216 70 216 224s-40 224 -216 224h-61v-448z" />
    <glyph glyph-name="E" unicode="E" 
d="M79 680h456v-116h-317v-163h284v-116h-284v-169h320v-116h-459v680z" />
    <glyph glyph-name="F" unicode="F" horiz-adv-x="571" 
d="M79 680h456v-116h-317v-187h284v-116h-284v-261h-139v680z" />
    <glyph glyph-name="G" unicode="G" horiz-adv-x="686" 
d="M368 365h260v-321c-63 -33 -163 -59 -259 -59c-216 0 -323 146 -323 355c0 191 107 355 343 355c92 0 178 -25 231 -49l-40 -108c-51 21 -119 38 -191 38c-141 0 -198 -95 -198 -236c0 -143 54 -236 184 -236c43 0 82 5 114 18v127l-121 17v99z" />
    <glyph glyph-name="H" unicode="H" horiz-adv-x="722" 
d="M504 0v285h-286v-285h-139v680h139v-279h286v279h139v-680h-139z" />
    <glyph glyph-name="I" unicode="I" horiz-adv-x="297" 
d="M218 680v-680h-139v680h139z" />
    <glyph glyph-name="J" unicode="J" horiz-adv-x="482" 
d="M7 56l63 100c31 -28 61 -52 114 -52c63 0 85 52 85 112v464h139v-473c0 -148 -84 -222 -224 -222c-81 0 -137 35 -177 71z" />
    <glyph glyph-name="K" unicode="K" horiz-adv-x="643" 
d="M220 304h-2v-304h-139v680h139v-329h2l248 329h154v-10l-260 -337l273 -323v-10h-162z" />
    <glyph glyph-name="L" unicode="L" horiz-adv-x="533" 
d="M79 680h139v-564h293v-116h-432v680z" />
    <glyph glyph-name="M" unicode="M" horiz-adv-x="842" 
d="M420 316h2l207 364h134v-680h-139v442h-2l-146 -271h-110l-146 271h-2v-442h-139v680h134z" />
    <glyph glyph-name="N" unicode="N" horiz-adv-x="736" 
d="M515 211h3v469h139v-680h-147l-289 469h-3v-469h-139v680h147z" />
    <glyph glyph-name="O" unicode="O" horiz-adv-x="749" 
d="M192 340c0 -134 48 -236 183 -236c134 0 182 102 182 236s-48 236 -182 236c-135 0 -183 -102 -183 -236zM702 340c0 -198 -102 -355 -327 -355c-227 0 -328 157 -328 355s101 355 328 355c225 0 327 -157 327 -355z" />
    <glyph glyph-name="P" unicode="P" horiz-adv-x="596" 
d="M218 0h-139v680h259c165 0 229 -95 229 -225c0 -131 -66 -226 -229 -226h-120v-229zM218 564v-219h110c68 0 94 46 94 110s-26 109 -94 109h-110z" />
    <glyph glyph-name="Q" unicode="Q" horiz-adv-x="749" 
d="M702 340c0 -120 -38 -226 -118 -290l148 -72l-62 -115l-238 126c-19 -3 -37 -4 -57 -4c-227 0 -328 157 -328 355s101 355 328 355c225 0 327 -157 327 -355zM192 340c0 -134 48 -236 183 -236c134 0 182 102 182 236s-48 236 -182 236c-135 0 -183 -102 -183 -236z" />
    <glyph glyph-name="R" unicode="R" horiz-adv-x="664" 
d="M218 0h-139v680h287c161 0 236 -74 236 -205c0 -104 -49 -173 -149 -197l186 -262v-16h-152l-182 269h-87v-269zM218 385h141c63 0 98 35 98 90s-35 89 -98 89h-141v-179z" />
    <glyph glyph-name="S" unicode="S" horiz-adv-x="561" 
d="M38 50l43 109c42 -26 126 -57 188 -57c75 0 112 29 112 86c0 44 -25 62 -96 86l-73 24c-108 35 -161 102 -161 189c0 124 85 208 247 208c55 0 138 -17 201 -49l-42 -111c-49 24 -116 43 -159 43c-75 0 -105 -31 -105 -79c0 -35 15 -61 70 -78l71 -23
c128 -40 189 -95 189 -198c0 -134 -97 -215 -254 -215c-84 0 -175 33 -231 65z" />
    <glyph glyph-name="T" unicode="T" horiz-adv-x="568" 
d="M23 680h522v-116h-192v-564h-139v564h-191v116z" />
    <glyph glyph-name="U" unicode="U" horiz-adv-x="706" 
d="M71 680h139v-401c0 -100 38 -175 143 -175c104 0 143 75 143 175v401h139v-401c0 -186 -86 -294 -282 -294c-198 0 -282 109 -282 294v401z" />
    <glyph glyph-name="V" unicode="V" horiz-adv-x="661" 
d="M655 680v-10l-240 -670h-169l-240 670v10h151l173 -534h3l171 534h151z" />
    <glyph glyph-name="W" unicode="W" horiz-adv-x="1014" 
d="M995 680v-10l-185 -670h-165l-137 527h-1l-137 -527h-166l-185 670v10h149l115 -530h2l141 530h162l141 -530h2l114 530h150z" />
    <glyph glyph-name="X" unicode="X" horiz-adv-x="624" 
d="M21 680h151l139 -256h2l140 256h150v-10l-192 -329l192 -331v-10h-152l-138 257h-2l-138 -257h-152v10l191 331l-191 329v10z" />
    <glyph glyph-name="Y" unicode="Y" horiz-adv-x="604" 
d="M-3 680h152l151 -280h2l151 280h152v-10l-234 -396v-274h-139v274l-235 396v10z" />
    <glyph glyph-name="Z" unicode="Z" horiz-adv-x="587" 
d="M58 680h483v-100l-333 -462v-2h333v-116h-504v100l332 462v2h-311v116z" />
    <glyph glyph-name="bracketleft" unicode="[" horiz-adv-x="335" 
d="M70 700h232v-73l-117 -23v-706l117 -23v-73h-232v898z" />
    <glyph glyph-name="backslash" unicode="\" horiz-adv-x="448" 
d="M423 0h-116l-282 670v10h116l282 -670v-10z" />
    <glyph glyph-name="bracketright" unicode="]" horiz-adv-x="335" 
d="M33 700h232v-898h-232v73l117 23v706l-117 23v73z" />
    <glyph glyph-name="asciicircum" unicode="^" horiz-adv-x="504" 
d="M492 382v-10h-133l-112 203h-4l-112 -203h-133v10l184 318h126z" />
    <glyph glyph-name="underscore" unicode="_" horiz-adv-x="504" 
d="M443 -113h-382v93h382v-93z" />
    <glyph glyph-name="grave" unicode="`" 
d="M184 704v9h142l79 -136v-10h-118z" />
    <glyph glyph-name="a" unicode="a" horiz-adv-x="543" 
d="M467 302v-197c0 -15 1 -18 16 -18h35v-92c-21 -4 -41 -7 -70 -7c-52 0 -79 20 -96 57h-2c-32 -27 -96 -60 -155 -60c-108 0 -163 64 -163 152c0 107 68 158 238 158h65v22c0 60 -53 69 -82 69c-53 0 -113 -14 -160 -35l-32 103c51 23 124 43 199 43
c139 0 207 -71 207 -195zM335 208h-51c-89 0 -123 -23 -123 -59c0 -40 23 -58 64 -58c35 0 82 13 110 33v84z" />
    <glyph glyph-name="b" unicode="b" horiz-adv-x="586" 
d="M198 357v-232c27 -16 62 -29 97 -29c80 0 115 59 115 145s-35 145 -115 145c-35 0 -70 -13 -97 -29zM63 700h135v-253h2c29 21 70 50 137 50c139 0 211 -116 211 -256s-72 -256 -211 -256c-71 0 -118 34 -153 58h-2l-19 -43h-100v700z" />
    <glyph glyph-name="c" unicode="c" horiz-adv-x="479" 
d="M38 241c0 156 92 256 256 256c59 0 118 -17 150 -29l-27 -103c-28 9 -64 21 -107 21c-73 0 -134 -40 -134 -145s59 -145 134 -145c43 0 79 12 107 21l27 -103c-32 -12 -91 -29 -150 -29c-164 0 -256 100 -256 256z" />
    <glyph glyph-name="d" unicode="d" horiz-adv-x="587" 
d="M389 125v232c-27 16 -62 29 -97 29c-80 0 -115 -59 -115 -145s35 -145 115 -145c35 0 70 13 97 29zM389 700h135v-700h-100l-19 43h-2c-35 -25 -81 -58 -153 -58c-139 0 -211 116 -211 256s72 256 211 256c67 0 108 -29 137 -50h2v253z" />
    <glyph glyph-name="e" unicode="e" horiz-adv-x="539" 
d="M496 202h-322c5 -68 49 -109 121 -109c56 0 107 13 154 30l31 -97c-48 -23 -118 -41 -195 -41c-167 0 -248 115 -248 257c0 137 84 255 241 255c156 0 225 -95 225 -208c0 -31 -4 -70 -7 -87zM174 286h205c1 5 1 10 1 15c0 54 -25 98 -101 98c-68 0 -102 -55 -105 -113z
" />
    <glyph glyph-name="f" unicode="f" horiz-adv-x="381" 
d="M240 0h-135v379h-85v73l85 30v64c0 111 65 159 164 159c27 0 65 -3 86 -7v-111c-19 4 -48 7 -65 7c-36 0 -50 -10 -50 -54v-58h120v-103h-120v-379z" />
    <glyph glyph-name="g" unicode="g" horiz-adv-x="586" 
d="M388 132v224c-27 16 -62 30 -97 30c-80 0 -114 -56 -114 -142s34 -139 114 -139c35 0 70 12 97 27zM523 482v-451c0 -162 -91 -244 -249 -244c-79 0 -142 22 -189 47l39 99c40 -21 90 -35 150 -35c79 0 114 28 114 108v36h-2c-29 -21 -69 -48 -137 -48
c-139 0 -210 110 -210 250s71 253 210 253c72 0 113 -34 149 -59h2l18 44h105z" />
    <glyph glyph-name="h" unicode="h" horiz-adv-x="581" 
d="M523 0h-135v290c0 61 -27 96 -86 96c-49 0 -84 -26 -104 -46v-340h-135v700h135v-258h2c26 24 80 55 144 55c115 0 179 -78 179 -194v-303z" />
    <glyph glyph-name="i" unicode="i" horiz-adv-x="261" 
d="M198 0h-135v482h135v-482zM53 640c0 43 31 74 78 74c48 0 79 -31 79 -74s-31 -74 -79 -74c-47 0 -78 31 -78 74z" />
    <glyph glyph-name="j" unicode="j" horiz-adv-x="261" 
d="M63 482h135v-513c0 -125 -58 -182 -173 -182c-21 0 -49 3 -70 7v109c17 -4 34 -5 53 -5c39 0 55 19 55 63v521zM53 640c0 43 31 74 78 74c48 0 79 -31 79 -74s-31 -74 -79 -74c-47 0 -78 31 -78 74z" />
    <glyph glyph-name="k" unicode="k" horiz-adv-x="538" 
d="M200 223h-2v-223h-135v700h135v-435h2l169 217h147v-10l-183 -224l192 -238v-10h-153z" />
    <glyph glyph-name="l" unicode="l" horiz-adv-x="290" 
d="M61 700h135v-592c0 -15 1 -18 16 -18h53v-92c-21 -4 -51 -7 -80 -7c-92 0 -124 45 -124 141v568z" />
    <glyph glyph-name="m" unicode="m" horiz-adv-x="905" 
d="M63 482h107l17 -47h3c28 25 78 62 155 62c71 0 118 -27 147 -74h2c30 25 77 74 176 74c117 0 177 -77 177 -193v-304h-135v290c0 63 -20 96 -84 96c-48 0 -85 -27 -109 -46c3 -11 4 -24 4 -36v-304h-135v290c0 61 -21 96 -85 96c-48 0 -82 -24 -105 -41v-345h-135v482z
" />
    <glyph glyph-name="n" unicode="n" horiz-adv-x="581" 
d="M63 482h108l18 -47h2c28 25 78 62 154 62c113 0 178 -77 178 -193v-304h-135v290c0 63 -27 96 -86 96c-46 0 -83 -25 -104 -41v-345h-135v482z" />
    <glyph glyph-name="o" unicode="o" horiz-adv-x="583" 
d="M175 241c0 -97 47 -145 116 -145c71 0 117 48 117 145s-46 145 -117 145c-69 0 -116 -48 -116 -145zM546 241c0 -140 -87 -256 -255 -256c-165 0 -254 116 -254 256s89 256 254 256c168 0 255 -116 255 -256z" />
    <glyph glyph-name="p" unicode="p" horiz-adv-x="586" 
d="M198 357v-232c25 -16 62 -29 97 -29c80 0 114 59 114 145s-34 145 -114 145c-35 0 -72 -13 -97 -29zM63 482h99l19 -43h2c33 25 83 58 154 58c139 0 210 -116 210 -256s-71 -256 -210 -256c-68 0 -106 29 -137 50h-2v-233h-135v680z" />
    <glyph glyph-name="q" unicode="q" horiz-adv-x="586" 
d="M388 125v232c-25 16 -62 29 -97 29c-80 0 -114 -59 -114 -145s34 -145 114 -145c35 0 72 13 97 29zM523 482v-680h-135v233h-2c-31 -21 -69 -50 -137 -50c-139 0 -210 116 -210 256s71 256 210 256c72 0 119 -34 154 -58h2l19 43h99z" />
    <glyph glyph-name="r" unicode="r" horiz-adv-x="378" 
d="M63 482h109l19 -58h2c18 31 58 73 122 73c17 0 36 -3 48 -6l-12 -113c-15 3 -36 4 -48 4c-56 0 -88 -26 -105 -47v-335h-135v482z" />
    <glyph glyph-name="s" unicode="s" horiz-adv-x="468" 
d="M32 31l40 97c47 -24 102 -41 155 -41s76 16 76 47c0 29 -23 40 -66 51l-63 15c-67 16 -131 54 -131 142c0 95 75 155 200 155c73 0 124 -12 180 -35l-37 -96c-43 16 -92 29 -139 29c-51 0 -73 -15 -73 -44c0 -28 22 -38 62 -49l61 -15c77 -19 137 -59 137 -144
c0 -100 -80 -158 -203 -158c-83 0 -142 17 -199 46z" />
    <glyph glyph-name="t" unicode="t" horiz-adv-x="415" 
d="M109 594h135v-112h138v-103h-138v-228c0 -35 18 -55 57 -55c23 0 55 7 78 14v-110c-20 -5 -66 -15 -113 -15c-107 0 -157 44 -157 141v253h-88v73l88 30v112z" />
    <glyph glyph-name="u" unicode="u" horiz-adv-x="575" 
d="M58 482h135v-290c0 -63 23 -96 82 -96c45 0 81 25 102 41v345h135v-482h-109l-18 47h-2c-27 -24 -75 -62 -150 -62c-115 0 -175 77 -175 193v304z" />
    <glyph glyph-name="v" unicode="v" horiz-adv-x="538" 
d="M527 482v-10l-185 -472h-146l-185 472v10h136l121 -345h2l121 345h136z" />
    <glyph glyph-name="w" unicode="w" horiz-adv-x="840" 
d="M822 482v-10l-144 -472h-147l-110 347h-2l-110 -347h-147l-144 472v10h135l89 -334h2l103 334h146l103 -334h2l89 334h135z" />
    <glyph glyph-name="x" unicode="x" horiz-adv-x="539" 
d="M271 168h-2l-103 -168h-145v10l153 231l-153 231v10h145l103 -169h2l102 169h145v-10l-153 -231l153 -231v-10h-145z" />
    <glyph glyph-name="y" unicode="y" horiz-adv-x="530" 
d="M519 482v-10l-207 -531c-43 -108 -109 -154 -193 -154c-32 0 -56 4 -79 9v107c23 -4 51 -5 62 -5c43 0 67 14 82 53l20 54l-194 467v10h140l116 -328h3l110 328h140z" />
    <glyph glyph-name="z" unicode="z" horiz-adv-x="472" 
d="M49 482h382v-71l-232 -306v-2h232v-103h-397v71l231 306v2h-216v103z" />
    <glyph glyph-name="braceleft" unicode="{" horiz-adv-x="367" 
d="M24 203v96c51 0 89 27 89 79v132c0 119 37 190 185 190h36v-73c-78 0 -106 -41 -106 -108v-138c0 -79 -25 -118 -86 -129v-2c61 -11 86 -50 86 -129v-138c0 -67 28 -108 106 -108v-73h-36c-148 0 -185 71 -185 190v132c0 52 -38 79 -89 79z" />
    <glyph glyph-name="bar" unicode="|" horiz-adv-x="229" 
d="M159 700v-898h-89v898h89z" />
    <glyph glyph-name="braceright" unicode="}" horiz-adv-x="367" 
d="M343 299v-96c-51 0 -89 -27 -89 -79v-132c0 -119 -37 -190 -185 -190h-36v73c78 0 106 41 106 108v138c0 79 25 118 86 129v2c-61 11 -86 50 -86 129v138c0 67 -28 108 -106 108v73h36c148 0 185 -71 185 -190v-132c0 -52 38 -79 89 -79z" />
    <glyph glyph-name="asciitilde" unicode="~" horiz-adv-x="559" 
d="M93 222l-48 63c31 44 71 65 130 65c85 0 144 -55 218 -55c33 0 50 5 71 24l48 -63c-32 -44 -72 -64 -129 -64c-78 0 -145 55 -219 55c-35 0 -54 -8 -71 -25z" />
    <glyph glyph-name="uni00A0" unicode="&#xa0;" horiz-adv-x="231" 
 />
    <glyph glyph-name="exclamdown" unicode="&#xa1;" horiz-adv-x="268" 
d="M61 -47l28 289h89l28 -289v-151h-145v151zM219 411c0 -51 -33 -86 -85 -86s-85 35 -85 86s33 86 85 86s85 -35 85 -86z" />
    <glyph glyph-name="cent" unicode="&#xa2;" 
d="M395 578v-85c41 -5 79 -16 103 -25l-27 -103c-21 7 -49 15 -76 19v-286c27 4 55 12 76 19l27 -103c-24 -9 -62 -20 -103 -25v-85h-89v84c-139 16 -214 113 -214 253c0 138 75 237 214 253v84h89zM230 241c0 -74 32 -115 76 -133v265c-44 -18 -76 -60 -76 -132z" />
    <glyph glyph-name="sterling" unicode="&#xa3;" 
d="M443 283h-165c3 -19 4 -37 4 -56c0 -44 -24 -82 -51 -109v-2h293v-116h-456v96c52 29 69 65 69 106c0 27 -3 53 -7 81h-72v103h58c-3 28 -5 58 -5 93c0 145 78 216 235 216c63 0 136 -18 193 -45l-37 -110c-49 21 -100 36 -156 36c-59 0 -90 -31 -90 -97
c0 -33 3 -62 7 -93h180v-103z" />
    <glyph glyph-name="currency" unicode="&#xa4;" horiz-adv-x="599" 
d="M484 270c0 -33 -6 -64 -21 -91l94 -92l-73 -74l-93 93c-25 -14 -57 -21 -94 -21c-35 0 -66 6 -91 19l-90 -91l-74 74l90 90c-15 27 -21 58 -21 93s7 66 22 94l-91 91l74 73l91 -92c25 13 55 19 90 19c36 0 67 -7 92 -21l95 94l73 -73l-94 -94c14 -26 21 -56 21 -91z
M224 270c0 -60 30 -88 73 -88c44 0 74 28 74 88s-30 88 -74 88c-43 0 -73 -28 -73 -88z" />
    <glyph glyph-name="yen" unicode="&#xa5;" 
d="M550 124h-184v-124h-139v124h-187v103h187v66h-187v103h128l-156 274v10h152l131 -260h2l131 260h152v-10l-156 -274h126v-103h-184v-66h184v-103z" />
    <glyph glyph-name="brokenbar" unicode="&#xa6;" horiz-adv-x="237" 
d="M74 134h89v-332h-89v332zM163 368h-89v332h89v-332z" />
    <glyph glyph-name="section" unicode="&#xa7;" horiz-adv-x="579" 
d="M342 298l-117 44c-20 -12 -30 -37 -30 -60c0 -27 11 -54 54 -70l115 -44c23 15 30 39 30 59c0 36 -21 59 -52 71zM449 136v-2c60 -32 83 -81 83 -130c0 -121 -101 -184 -245 -184c-92 0 -180 27 -240 54l43 119c56 -27 126 -58 194 -58s106 17 106 52c0 28 -14 44 -78 68
l-116 43c-93 35 -139 74 -139 157c0 55 36 96 83 119v2c-51 27 -83 75 -83 136c0 115 89 183 243 183c64 0 137 -8 205 -37l-42 -113c-55 23 -113 35 -164 35c-71 0 -100 -24 -100 -56c0 -26 13 -45 70 -64l97 -34c121 -43 166 -89 166 -164c0 -57 -36 -100 -83 -126z" />
    <glyph glyph-name="dieresis" unicode="&#xa8;" 
d="M106 640c0 43 31 74 78 74c48 0 79 -31 79 -74s-31 -74 -79 -74c-47 0 -78 31 -78 74zM326 640c0 43 31 74 78 74c48 0 79 -31 79 -74s-31 -74 -79 -74c-47 0 -78 31 -78 74z" />
    <glyph glyph-name="copyright" unicode="&#xa9;" horiz-adv-x="802" 
d="M46 340c0 201 154 355 355 355s355 -154 355 -355s-154 -355 -355 -355s-355 154 -355 355zM117 340c0 -163 128 -287 291 -287c162 0 277 124 277 287s-121 287 -284 287s-284 -124 -284 -287zM214 340c0 117 68 195 193 195c36 0 77 -8 113 -24l-24 -72
c-35 16 -57 20 -89 20c-57 0 -98 -48 -98 -119s41 -119 98 -119c32 0 54 4 89 20l24 -72c-36 -16 -77 -24 -113 -24c-125 0 -193 78 -193 195z" />
    <glyph glyph-name="ordfeminine" unicode="&#xaa;" horiz-adv-x="435" 
d="M259 478h-46c-32 0 -50 -11 -50 -32s11 -31 34 -31s47 10 62 19v44zM357 350h-73l-15 27h-1c-19 -16 -57 -36 -96 -36c-75 0 -107 43 -107 96c0 68 50 101 138 101h56v9c0 25 -12 37 -51 37c-36 0 -73 -8 -106 -20l-20 75c35 12 82 24 131 24c93 0 144 -50 144 -129v-184
zM357 196h-283v87h283v-87z" />
    <glyph glyph-name="guillemotleft" unicode="&#xab;" horiz-adv-x="542" 
d="M34 264v12l161 219l83 -49l-107 -177l108 -176l-84 -48zM255 264v12l161 219l83 -49l-107 -177l108 -176l-84 -48z" />
    <glyph glyph-name="logicalnot" unicode="&#xac;" 
d="M455 99v121h-417v103h510v-224h-93z" />
    <glyph glyph-name="uni00AD" unicode="&#xad;" horiz-adv-x="414" 
d="M352 220h-290v103h290v-103z" />
    <glyph glyph-name="registered" unicode="&#xae;" horiz-adv-x="548" 
d="M46 561c0 130 99 229 228 229s228 -99 228 -229c0 -129 -99 -228 -228 -228s-228 99 -228 228zM101 561c0 -99 77 -176 178 -176c99 0 168 77 168 176s-73 176 -173 176s-173 -77 -173 -176zM239 455h-55v218h99c56 0 81 -26 81 -69c0 -32 -17 -56 -49 -65l60 -79v-5h-63
l-53 80h-20v-80zM239 579h41c20 0 29 11 29 24c0 15 -9 24 -29 24h-41v-48z" />
    <glyph glyph-name="macron" unicode="&#xaf;" 
d="M440 579h-290v103h290v-103z" />
    <glyph glyph-name="degree" unicode="&#xb0;" horiz-adv-x="441" 
d="M140 528c0 -51 33 -78 81 -78c49 0 80 27 80 78c0 47 -31 77 -80 77c-48 0 -81 -30 -81 -77zM44 528c0 103 72 167 177 167s176 -63 176 -167c0 -105 -71 -170 -176 -170s-177 65 -177 170z" />
    <glyph glyph-name="plusminus" unicode="&#xb1;" 
d="M348 626v-193h202v-103h-202v-144h-107v144h-201v103h201v193h107zM40 103h510v-103h-510v103z" />
    <glyph glyph-name="twosuperior" unicode="&#xb2;" horiz-adv-x="328" 
d="M159 526v-2h141v-76h-275v70l147 117c19 15 26 30 26 50c0 24 -16 44 -44 44c-33 0 -54 -19 -77 -42l-53 60c22 25 66 61 135 61c76 0 136 -40 136 -117c0 -49 -29 -83 -68 -112z" />
    <glyph glyph-name="threesuperior" unicode="&#xb3;" horiz-adv-x="324" 
d="M78 585v77h69c31 0 45 10 45 33c0 19 -11 34 -50 34c-29 0 -65 -6 -90 -17l-26 73c31 12 70 23 119 23c92 0 143 -36 143 -100c0 -49 -29 -71 -56 -75v-1c39 -12 66 -39 66 -88c0 -63 -45 -104 -158 -104c-48 0 -91 11 -123 27l24 75c24 -12 63 -22 98 -22
c43 0 63 12 63 37c0 23 -15 28 -54 28h-70z" />
    <glyph glyph-name="acute" unicode="&#xb4;" 
d="M405 713v-9l-103 -137h-118v10l79 136h142z" />
    <glyph glyph-name="mu" unicode="&#xb5;" horiz-adv-x="577" 
d="M203 -198h-135v680h135v-290c0 -63 23 -96 82 -96c45 0 81 25 102 41v345h135v-482h-109l-18 47h-2c-27 -25 -75 -62 -133 -62c-21 0 -44 7 -57 16v-199z" />
    <glyph glyph-name="paragraph" unicode="&#xb6;" horiz-adv-x="600" 
d="M213 -198v526c-102 0 -185 62 -185 175c0 112 83 177 185 177h357v-85h-95v-793h-88v793h-85v-793h-89z" />
    <glyph glyph-name="periodcentered" unicode="&#xb7;" horiz-adv-x="278" 
d="M54 291c0 51 33 86 85 86s85 -35 85 -86s-33 -86 -85 -86s-85 35 -85 86z" />
    <glyph glyph-name="cedilla" unicode="&#xb8;" 
d="M232 -94l-4 6l37 95h80l-23 -52c43 -7 69 -32 69 -73c0 -59 -43 -95 -118 -95c-31 0 -56 5 -75 12l14 63c15 -5 31 -8 43 -8c23 0 35 8 35 25c0 25 -33 27 -58 27z" />
    <glyph glyph-name="onesuperior" unicode="&#xb9;" horiz-adv-x="261" 
d="M25 658h-9v84l130 58h70v-352h-92v254h-2z" />
    <glyph glyph-name="ordmasculine" unicode="&#xba;" horiz-adv-x="439" 
d="M150 502c0 -61 32 -78 69 -78c39 0 69 17 69 78c0 60 -30 78 -69 78c-37 0 -69 -18 -69 -78zM388 502c0 -88 -60 -161 -169 -161c-107 0 -169 73 -169 161s62 161 169 161c109 0 169 -73 169 -161zM360 196h-283v87h283v-87z" />
    <glyph glyph-name="guillemotright" unicode="&#xbb;" horiz-adv-x="543" 
d="M288 276v-12l-161 -219l-83 49l107 177l-108 176l84 48zM509 276v-12l-161 -219l-83 49l107 177l-108 176l84 48z" />
    <glyph glyph-name="onequarter" unicode="&#xbc;" horiz-adv-x="755" 
d="M196 0h-104v10l456 670h104v-10zM590 244h91v-93h42v-76h-42v-75h-91v75h-172v68l90 209h93l-81 -200v-1h70v93zM39 538h-9v84l130 58h70v-352h-92v254h-2z" />
    <glyph glyph-name="onehalf" unicode="&#xbd;" horiz-adv-x="774" 
d="M593 78v-2h141v-76h-275v70l147 117c19 15 26 30 26 50c0 24 -16 44 -44 44c-33 0 -54 -19 -77 -42l-53 60c22 25 66 61 135 61c76 0 136 -40 136 -117c0 -49 -29 -83 -68 -112zM196 0h-104v10l456 670h104v-10zM39 538h-9v84l130 58h70v-352h-92v254h-2z" />
    <glyph glyph-name="threequarters" unicode="&#xbe;" horiz-adv-x="796" 
d="M238 0h-104v10l456 670h104v-10zM632 244h91v-93h42v-76h-42v-75h-91v75h-172v68l90 209h93l-81 -200v-1h70v93zM94 462v77h69c31 0 45 10 45 33c0 19 -11 34 -50 34c-29 0 -65 -6 -90 -17l-26 73c31 12 70 23 119 23c92 0 143 -36 143 -100c0 -49 -29 -71 -56 -75v-1
c39 -12 66 -39 66 -88c0 -63 -45 -104 -158 -104c-48 0 -91 11 -123 27l24 75c24 -12 63 -22 98 -22c43 0 63 12 63 37c0 23 -15 28 -54 28h-70z" />
    <glyph glyph-name="questiondown" unicode="&#xbf;" horiz-adv-x="501" 
d="M212 242h109l6 -129c-87 -29 -149 -69 -149 -131c0 -41 31 -76 88 -76c60 0 101 32 140 71l71 -93c-37 -40 -114 -97 -211 -97c-143 0 -233 71 -233 188c0 112 100 173 166 205zM352 411c0 -51 -33 -86 -85 -86s-85 35 -85 86s33 86 85 86s85 -35 85 -86z" />
    <glyph glyph-name="Agrave" unicode="&#xc0;" horiz-adv-x="668" 
d="M415 680l250 -680h-153l-45 140h-266l-46 -140h-152l250 680h162zM335 538h-3l-93 -286h189zM198 887v9h152l59 -136v-10h-128z" />
    <glyph glyph-name="Aacute" unicode="&#xc1;" horiz-adv-x="668" 
d="M415 680l250 -680h-153l-45 140h-266l-46 -140h-152l250 680h162zM335 538h-3l-93 -286h189zM471 896v-9l-83 -137h-128v10l59 136h152z" />
    <glyph glyph-name="Acircumflex" unicode="&#xc2;" horiz-adv-x="668" 
d="M415 680l250 -680h-153l-45 140h-266l-46 -140h-152l250 680h162zM335 538h-3l-93 -286h189zM398 896l111 -136v-10h-112l-63 79l-62 -79h-112v10l111 136h127z" />
    <glyph glyph-name="Atilde" unicode="&#xc3;" horiz-adv-x="668" 
d="M415 680l250 -680h-153l-45 140h-266l-46 -140h-152l250 680h162zM335 538h-3l-93 -286h189zM187 761l-27 70c21 37 62 66 106 66c64 0 96 -45 149 -45c27 0 51 14 67 34l27 -68c-23 -43 -66 -67 -105 -67c-59 0 -104 45 -150 45c-29 0 -48 -12 -67 -35z" />
    <glyph glyph-name="Adieresis" unicode="&#xc4;" horiz-adv-x="668" 
d="M415 680l250 -680h-153l-45 140h-266l-46 -140h-152l250 680h162zM335 538h-3l-93 -286h189zM125 819c0 43 31 74 78 74c48 0 79 -31 79 -74s-31 -74 -79 -74c-47 0 -78 31 -78 74zM386 819c0 43 31 74 78 74c48 0 79 -31 79 -74s-31 -74 -79 -74c-47 0 -78 31 -78 74z
" />
    <glyph glyph-name="Aring" unicode="&#xc5;" horiz-adv-x="666" 
d="M211 751c0 69 50 112 122 112s121 -43 121 -112c0 -36 -20 -70 -47 -89l257 -661h-153l-45 140h-266l-46 -140h-152l256 660c-27 19 -47 53 -47 90zM334 539h-3l-93 -286h189zM291 751c0 -25 17 -39 42 -39s41 14 41 39c0 24 -16 39 -41 39s-42 -15 -42 -39z" />
    <glyph glyph-name="AE" unicode="&#xc6;" horiz-adv-x="958" 
d="M-19 0v10l403 670h519v-116h-317v-163h284v-116h-284v-169h320v-116h-459v140h-234l-83 -140h-149zM447 544h-3l-167 -292h170v292z" />
    <glyph glyph-name="Ccedilla" unicode="&#xc7;" horiz-adv-x="606" 
d="M288 -94l-4 6l30 78c-174 24 -267 161 -267 350c0 212 117 355 331 355c63 0 130 -15 193 -44l-37 -110c-57 25 -100 35 -156 35c-121 0 -186 -95 -186 -236s65 -236 186 -236c56 0 99 10 156 35l37 -110c-59 -27 -120 -41 -180 -44l-13 -30c43 -7 69 -32 69 -73
c0 -59 -43 -95 -118 -95c-31 0 -56 5 -75 12l14 63c15 -5 31 -8 43 -8c23 0 35 8 35 25c0 25 -33 27 -58 27z" />
    <glyph glyph-name="Egrave" unicode="&#xc8;" 
d="M79 680h456v-116h-317v-163h284v-116h-284v-169h320v-116h-459v680zM169 887v9h152l59 -136v-10h-128z" />
    <glyph glyph-name="Eacute" unicode="&#xc9;" 
d="M79 680h456v-116h-317v-163h284v-116h-284v-169h320v-116h-459v680zM457 896v-9l-83 -137h-128v10l59 136h152z" />
    <glyph glyph-name="Ecircumflex" unicode="&#xca;" 
d="M79 680h456v-116h-317v-163h284v-116h-284v-169h320v-116h-459v680zM373 896l111 -136v-10h-112l-63 79l-62 -79h-112v10l111 136h127z" />
    <glyph glyph-name="Edieresis" unicode="&#xcb;" 
d="M79 680h456v-116h-317v-163h284v-116h-284v-169h320v-116h-459v680zM96 819c0 43 31 74 78 74c48 0 79 -31 79 -74s-31 -74 -79 -74c-47 0 -78 31 -78 74zM357 819c0 43 31 74 78 74c48 0 79 -31 79 -74s-31 -74 -79 -74c-47 0 -78 31 -78 74z" />
    <glyph glyph-name="Igrave" unicode="&#xcc;" horiz-adv-x="297" 
d="M218 680v-680h-139v680h139zM6 887v9h152l59 -136v-10h-128z" />
    <glyph glyph-name="Iacute" unicode="&#xcd;" horiz-adv-x="297" 
d="M218 680v-680h-139v680h139zM295 896v-9l-83 -137h-128v10l59 136h152z" />
    <glyph glyph-name="Icircumflex" unicode="&#xce;" horiz-adv-x="297" 
d="M218 680v-680h-139v680h139zM212 896l111 -136v-10h-112l-63 79l-62 -79h-112v10l111 136h127z" />
    <glyph glyph-name="Idieresis" unicode="&#xcf;" horiz-adv-x="297" 
d="M218 680v-680h-139v680h139zM-62 819c0 43 31 74 78 74c48 0 79 -31 79 -74s-31 -74 -79 -74c-47 0 -78 31 -78 74zM199 819c0 43 31 74 78 74c48 0 79 -31 79 -74s-31 -74 -79 -74c-47 0 -78 31 -78 74z" />
    <glyph glyph-name="Eth" unicode="&#xd0;" horiz-adv-x="705" 
d="M94 0v277h-48v116h48v287h213c255 0 348 -120 348 -340s-93 -340 -348 -340h-213zM233 116h61c176 0 216 70 216 224s-40 224 -216 224h-61v-171h113v-116h-113v-161z" />
    <glyph glyph-name="Ntilde" unicode="&#xd1;" horiz-adv-x="736" 
d="M515 211h3v469h139v-680h-147l-289 469h-3v-469h-139v680h147zM216 761l-27 70c21 37 62 66 106 66c64 0 96 -45 149 -45c27 0 51 14 67 34l27 -68c-23 -43 -66 -67 -105 -67c-59 0 -104 45 -150 45c-29 0 -48 -12 -67 -35z" />
    <glyph glyph-name="Ograve" unicode="&#xd2;" horiz-adv-x="749" 
d="M192 340c0 -134 48 -236 183 -236c134 0 182 102 182 236s-48 236 -182 236c-135 0 -183 -102 -183 -236zM702 340c0 -198 -102 -355 -327 -355c-227 0 -328 157 -328 355s101 355 328 355c225 0 327 -157 327 -355zM248 887v9h152l59 -136v-10h-128z" />
    <glyph glyph-name="Oacute" unicode="&#xd3;" horiz-adv-x="749" 
d="M192 340c0 -134 48 -236 183 -236c134 0 182 102 182 236s-48 236 -182 236c-135 0 -183 -102 -183 -236zM702 340c0 -198 -102 -355 -327 -355c-227 0 -328 157 -328 355s101 355 328 355c225 0 327 -157 327 -355zM519 896v-9l-83 -137h-128v10l59 136h152z" />
    <glyph glyph-name="Ocircumflex" unicode="&#xd4;" horiz-adv-x="749" 
d="M192 340c0 -134 48 -236 183 -236c134 0 182 102 182 236s-48 236 -182 236c-135 0 -183 -102 -183 -236zM702 340c0 -198 -102 -355 -327 -355c-227 0 -328 157 -328 355s101 355 328 355c225 0 327 -157 327 -355zM445 896l111 -136v-10h-112l-63 79l-62 -79h-112v10
l111 136h127z" />
    <glyph glyph-name="Otilde" unicode="&#xd5;" horiz-adv-x="749" 
d="M192 340c0 -134 48 -236 183 -236c134 0 182 102 182 236s-48 236 -182 236c-135 0 -183 -102 -183 -236zM702 340c0 -198 -102 -355 -327 -355c-227 0 -328 157 -328 355s101 355 328 355c225 0 327 -157 327 -355zM230 761l-27 70c21 37 62 66 106 66
c64 0 96 -45 149 -45c27 0 51 14 67 34l27 -68c-23 -43 -66 -67 -105 -67c-59 0 -104 45 -150 45c-29 0 -48 -12 -67 -35z" />
    <glyph glyph-name="Odieresis" unicode="&#xd6;" horiz-adv-x="749" 
d="M192 340c0 -134 48 -236 183 -236c134 0 182 102 182 236s-48 236 -182 236c-135 0 -183 -102 -183 -236zM702 340c0 -198 -102 -355 -327 -355c-227 0 -328 157 -328 355s101 355 328 355c225 0 327 -157 327 -355zM168 819c0 43 31 74 78 74c48 0 79 -31 79 -74
s-31 -74 -79 -74c-47 0 -78 31 -78 74zM429 819c0 43 31 74 78 74c48 0 79 -31 79 -74s-31 -74 -79 -74c-47 0 -78 31 -78 74z" />
    <glyph glyph-name="multiply" unicode="&#xd7;" 
d="M130 509l164 -165l166 165l73 -73l-166 -165l166 -165l-73 -73l-166 165l-164 -165l-73 73l164 165l-164 165z" />
    <glyph glyph-name="Oslash" unicode="&#xd8;" horiz-adv-x="749" 
d="M173 -32l-78 51l40 59c-60 64 -88 157 -88 262c0 198 101 355 328 355c63 0 114 -12 158 -33l35 53l77 -52l-38 -55c64 -65 95 -160 95 -268c0 -198 -102 -355 -327 -355c-67 0 -122 14 -167 37zM557 340c0 59 -10 110 -31 150l-247 -363c27 -15 57 -23 96 -23
c134 0 182 102 182 236zM192 340c0 -55 6 -102 25 -141l244 358c-23 12 -51 19 -86 19c-135 0 -183 -102 -183 -236z" />
    <glyph glyph-name="Ugrave" unicode="&#xd9;" horiz-adv-x="706" 
d="M71 680h139v-401c0 -100 38 -175 143 -175c104 0 143 75 143 175v401h139v-401c0 -186 -86 -294 -282 -294c-198 0 -282 109 -282 294v401zM215 887v9h152l59 -136v-10h-128z" />
    <glyph glyph-name="Uacute" unicode="&#xda;" horiz-adv-x="706" 
d="M71 680h139v-401c0 -100 38 -175 143 -175c104 0 143 75 143 175v401h139v-401c0 -186 -86 -294 -282 -294c-198 0 -282 109 -282 294v401zM499 896v-9l-83 -137h-128v10l59 136h152z" />
    <glyph glyph-name="Ucircumflex" unicode="&#xdb;" horiz-adv-x="706" 
d="M71 680h139v-401c0 -100 38 -175 143 -175c104 0 143 75 143 175v401h139v-401c0 -186 -86 -294 -282 -294c-198 0 -282 109 -282 294v401zM416 896l111 -136v-10h-112l-63 79l-62 -79h-112v10l111 136h127z" />
    <glyph glyph-name="Udieresis" unicode="&#xdc;" horiz-adv-x="706" 
d="M71 680h139v-401c0 -100 38 -175 143 -175c104 0 143 75 143 175v401h139v-401c0 -186 -86 -294 -282 -294c-198 0 -282 109 -282 294v401zM143 819c0 43 31 74 78 74c48 0 79 -31 79 -74s-31 -74 -79 -74c-47 0 -78 31 -78 74zM404 819c0 43 31 74 78 74
c48 0 79 -31 79 -74s-31 -74 -79 -74c-47 0 -78 31 -78 74z" />
    <glyph glyph-name="Yacute" unicode="&#xdd;" horiz-adv-x="604" 
d="M-3 680h152l151 -280h2l151 280h152v-10l-234 -396v-274h-139v274l-235 396v10zM444 896v-9l-83 -137h-128v10l59 136h152z" />
    <glyph glyph-name="Thorn" unicode="&#xde;" horiz-adv-x="603" 
d="M218 0h-139v680h139v-106h120c165 0 229 -95 229 -225c0 -131 -66 -226 -229 -226h-120v-123zM218 458v-219h110c68 0 94 46 94 110s-26 109 -94 109h-110z" />
    <glyph glyph-name="germandbls" unicode="&#xdf;" horiz-adv-x="628" 
d="M63 0v457c0 165 100 248 251 248c129 0 225 -68 225 -192c0 -79 -36 -119 -79 -138v-2c67 -24 131 -78 131 -178c0 -144 -91 -210 -262 -210c-23 0 -43 1 -55 4v110c17 -3 38 -3 55 -3c85 0 124 34 124 109c0 69 -44 103 -133 103h-27v103h26c51 0 82 32 82 93
c0 56 -36 90 -100 90c-61 0 -103 -37 -103 -134v-460h-135z" />
    <glyph glyph-name="agrave" unicode="&#xe0;" horiz-adv-x="543" 
d="M467 302v-197c0 -15 1 -18 16 -18h35v-92c-21 -4 -41 -7 -70 -7c-52 0 -79 20 -96 57h-2c-32 -27 -96 -60 -155 -60c-108 0 -163 64 -163 152c0 107 68 158 238 158h65v22c0 60 -53 69 -82 69c-53 0 -113 -14 -160 -35l-32 103c51 23 124 43 199 43
c139 0 207 -71 207 -195zM335 208h-51c-89 0 -123 -23 -123 -59c0 -40 23 -58 64 -58c35 0 82 13 110 33v84zM138 704v9h142l79 -136v-10h-118z" />
    <glyph glyph-name="aacute" unicode="&#xe1;" horiz-adv-x="543" 
d="M467 302v-197c0 -15 1 -18 16 -18h35v-92c-21 -4 -41 -7 -70 -7c-52 0 -79 20 -96 57h-2c-32 -27 -96 -60 -155 -60c-108 0 -163 64 -163 152c0 107 68 158 238 158h65v22c0 60 -53 69 -82 69c-53 0 -113 -14 -160 -35l-32 103c51 23 124 43 199 43
c139 0 207 -71 207 -195zM335 208h-51c-89 0 -123 -23 -123 -59c0 -40 23 -58 64 -58c35 0 82 13 110 33v84zM434 713v-9l-103 -137h-118v10l79 136h142z" />
    <glyph glyph-name="acircumflex" unicode="&#xe2;" horiz-adv-x="543" 
d="M467 302v-197c0 -15 1 -18 16 -18h35v-92c-21 -4 -41 -7 -70 -7c-52 0 -79 20 -96 57h-2c-32 -27 -96 -60 -155 -60c-108 0 -163 64 -163 152c0 107 68 158 238 158h65v22c0 60 -53 69 -82 69c-53 0 -113 -14 -160 -35l-32 103c51 23 124 43 199 43
c139 0 207 -71 207 -195zM335 208h-51c-89 0 -123 -23 -123 -59c0 -40 23 -58 64 -58c35 0 82 13 110 33v84zM363 713l91 -136v-10h-112l-53 69l-52 -69h-112v10l91 136h147z" />
    <glyph glyph-name="atilde" unicode="&#xe3;" horiz-adv-x="543" 
d="M467 302v-197c0 -15 1 -18 16 -18h35v-92c-21 -4 -41 -7 -70 -7c-52 0 -79 20 -96 57h-2c-32 -27 -96 -60 -155 -60c-108 0 -163 64 -163 152c0 107 68 158 238 158h65v22c0 60 -53 69 -82 69c-53 0 -113 -14 -160 -35l-32 103c51 23 124 43 199 43
c139 0 207 -71 207 -195zM335 208h-51c-89 0 -123 -23 -123 -59c0 -40 23 -58 64 -58c35 0 82 13 110 33v84zM141 577l-27 70c21 37 62 66 106 66c64 0 96 -45 149 -45c27 0 51 14 67 34l27 -68c-23 -43 -66 -67 -105 -67c-59 0 -104 45 -150 45c-29 0 -48 -12 -67 -35z" />
    <glyph glyph-name="adieresis" unicode="&#xe4;" horiz-adv-x="543" 
d="M467 302v-197c0 -15 1 -18 16 -18h35v-92c-21 -4 -41 -7 -70 -7c-52 0 -79 20 -96 57h-2c-32 -27 -96 -60 -155 -60c-108 0 -163 64 -163 152c0 107 68 158 238 158h65v22c0 60 -53 69 -82 69c-53 0 -113 -14 -160 -35l-32 103c51 23 124 43 199 43
c139 0 207 -71 207 -195zM335 208h-51c-89 0 -123 -23 -123 -59c0 -40 23 -58 64 -58c35 0 82 13 110 33v84zM100 640c0 43 31 74 78 74c48 0 79 -31 79 -74s-31 -74 -79 -74c-47 0 -78 31 -78 74zM320 640c0 43 31 74 78 74c48 0 79 -31 79 -74s-31 -74 -79 -74
c-47 0 -78 31 -78 74z" />
    <glyph glyph-name="aring" unicode="&#xe5;" horiz-adv-x="543" 
d="M467 302v-197c0 -15 1 -18 16 -18h35v-92c-21 -4 -41 -7 -70 -7c-52 0 -79 20 -96 57h-2c-32 -27 -96 -60 -155 -60c-108 0 -163 64 -163 152c0 107 68 158 238 158h65v22c0 60 -53 69 -82 69c-53 0 -113 -14 -160 -35l-32 103c51 23 124 43 199 43
c139 0 207 -71 207 -195zM335 208h-51c-89 0 -123 -23 -123 -59c0 -40 23 -58 64 -58c35 0 82 13 110 33v84zM248 643c0 -25 17 -39 42 -39s41 14 41 39c0 24 -16 39 -41 39s-42 -15 -42 -39zM168 643c0 69 50 112 122 112s121 -43 121 -112c0 -71 -49 -113 -121 -113
s-122 42 -122 113z" />
    <glyph glyph-name="ae" unicode="&#xe6;" horiz-adv-x="831" 
d="M788 202h-314c7 -69 45 -109 118 -109c55 0 102 13 149 30l31 -97c-48 -23 -113 -41 -190 -41c-88 0 -142 35 -183 86c-40 -43 -91 -86 -198 -86s-169 64 -169 152c0 111 83 156 216 156h90v24c0 70 -62 69 -92 69c-53 0 -106 -14 -153 -35l-32 103c51 23 117 43 192 43
c72 0 127 -24 163 -65c36 37 91 65 159 65c156 0 220 -95 220 -208c0 -31 -4 -70 -7 -87zM472 286h199c1 5 1 10 1 15c0 54 -23 98 -98 98c-68 0 -99 -55 -102 -113zM340 206h-88c-66 0 -94 -21 -94 -60c0 -37 22 -57 63 -57c60 0 119 46 119 117z" />
    <glyph glyph-name="ccedilla" unicode="&#xe7;" horiz-adv-x="479" 
d="M208 -94l-4 6l30 79c-125 21 -196 118 -196 250c0 152 92 256 256 256c59 0 118 -17 150 -29l-27 -103c-28 9 -70 21 -101 21c-73 0 -140 -40 -140 -145s67 -145 140 -145c31 0 73 12 101 21l27 -103c-29 -11 -80 -25 -133 -28l-13 -31c43 -7 69 -32 69 -73
c0 -59 -43 -95 -118 -95c-31 0 -56 5 -75 12l14 63c15 -5 31 -8 43 -8c23 0 35 8 35 25c0 25 -33 27 -58 27z" />
    <glyph glyph-name="egrave" unicode="&#xe8;" horiz-adv-x="539" 
d="M496 202h-322c5 -68 49 -109 121 -109c56 0 107 13 154 30l31 -97c-48 -23 -118 -41 -195 -41c-167 0 -248 115 -248 257c0 137 84 255 241 255c156 0 225 -95 225 -208c0 -31 -4 -70 -7 -87zM174 286h205c1 5 1 10 1 15c0 54 -25 98 -101 98c-68 0 -102 -55 -105 -113z
M139 704v9h142l79 -136v-10h-118z" />
    <glyph glyph-name="eacute" unicode="&#xe9;" horiz-adv-x="539" 
d="M496 202h-322c5 -68 49 -109 121 -109c56 0 107 13 154 30l31 -97c-48 -23 -118 -41 -195 -41c-167 0 -248 115 -248 257c0 137 84 255 241 255c156 0 225 -95 225 -208c0 -31 -4 -70 -7 -87zM174 286h205c1 5 1 10 1 15c0 54 -25 98 -101 98c-68 0 -102 -55 -105 -113z
M443 713v-9l-103 -137h-118v10l79 136h142z" />
    <glyph glyph-name="ecircumflex" unicode="&#xea;" horiz-adv-x="539" 
d="M496 202h-322c5 -68 49 -109 121 -109c56 0 107 13 154 30l31 -97c-48 -23 -118 -41 -195 -41c-167 0 -248 115 -248 257c0 137 84 255 241 255c156 0 225 -95 225 -208c0 -31 -4 -70 -7 -87zM174 286h205c1 5 1 10 1 15c0 54 -25 98 -101 98c-68 0 -102 -55 -105 -113z
M357 713l91 -136v-10h-112l-53 69l-52 -69h-112v10l91 136h147z" />
    <glyph glyph-name="edieresis" unicode="&#xeb;" horiz-adv-x="539" 
d="M496 202h-322c5 -68 49 -109 121 -109c56 0 107 13 154 30l31 -97c-48 -23 -118 -41 -195 -41c-167 0 -248 115 -248 257c0 137 84 255 241 255c156 0 225 -95 225 -208c0 -31 -4 -70 -7 -87zM174 286h205c1 5 1 10 1 15c0 54 -25 98 -101 98c-68 0 -102 -55 -105 -113z
M95 640c0 43 31 74 78 74c48 0 79 -31 79 -74s-31 -74 -79 -74c-47 0 -78 31 -78 74zM315 640c0 43 31 74 78 74c48 0 79 -31 79 -74s-31 -74 -79 -74c-47 0 -78 31 -78 74z" />
    <glyph glyph-name="igrave" unicode="&#xec;" horiz-adv-x="261" 
d="M198 0h-135v482h135v-482zM-26 704v9h142l79 -136v-10h-118z" />
    <glyph glyph-name="iacute" unicode="&#xed;" horiz-adv-x="261" 
d="M198 0h-135v482h135v-482zM288 713v-9l-103 -137h-118v10l79 136h142z" />
    <glyph glyph-name="icircumflex" unicode="&#xee;" horiz-adv-x="261" 
d="M198 0h-135v482h135v-482zM204 713l91 -136v-10h-112l-53 69l-52 -69h-112v10l91 136h147z" />
    <glyph glyph-name="idieresis" unicode="&#xef;" horiz-adv-x="261" 
d="M198 0h-135v482h135v-482zM-58 640c0 43 31 74 78 74c48 0 79 -31 79 -74s-31 -74 -79 -74c-47 0 -78 31 -78 74zM162 640c0 43 31 74 78 74c48 0 79 -31 79 -74s-31 -74 -79 -74c-47 0 -78 31 -78 74z" />
    <glyph glyph-name="eth" unicode="&#xf0;" horiz-adv-x="593" 
d="M471 604l-62 -17c69 -88 145 -223 145 -336c0 -154 -87 -266 -259 -266c-169 0 -257 111 -257 251c0 145 89 245 221 245c44 0 89 -16 115 -34l1 2c-13 25 -43 74 -72 105l-116 -32l-21 72l83 23c-21 23 -46 53 -69 73v10h133l40 -47l99 23zM175 236
c0 -86 40 -139 120 -139c83 0 122 52 122 139c0 85 -39 133 -122 133c-80 0 -120 -48 -120 -133z" />
    <glyph glyph-name="ntilde" unicode="&#xf1;" horiz-adv-x="581" 
d="M63 482h108l18 -47h2c28 25 78 62 154 62c113 0 178 -77 178 -193v-304h-135v290c0 63 -27 96 -86 96c-46 0 -83 -25 -104 -41v-345h-135v482zM145 577l-27 70c21 37 62 66 106 66c64 0 96 -45 149 -45c27 0 51 14 67 34l27 -68c-23 -43 -66 -67 -105 -67
c-59 0 -104 45 -150 45c-29 0 -48 -12 -67 -35z" />
    <glyph glyph-name="ograve" unicode="&#xf2;" horiz-adv-x="583" 
d="M175 241c0 -97 47 -145 116 -145c71 0 117 48 117 145s-46 145 -117 145c-69 0 -116 -48 -116 -145zM546 241c0 -140 -87 -256 -255 -256c-165 0 -254 116 -254 256s89 256 254 256c168 0 255 -116 255 -256zM133 704v9h142l79 -136v-10h-118z" />
    <glyph glyph-name="oacute" unicode="&#xf3;" horiz-adv-x="583" 
d="M175 241c0 -97 47 -145 116 -145c71 0 117 48 117 145s-46 145 -117 145c-69 0 -116 -48 -116 -145zM546 241c0 -140 -87 -256 -255 -256c-165 0 -254 116 -254 256s89 256 254 256c168 0 255 -116 255 -256zM452 713v-9l-103 -137h-118v10l79 136h142z" />
    <glyph glyph-name="ocircumflex" unicode="&#xf4;" horiz-adv-x="583" 
d="M175 241c0 -97 47 -145 116 -145c71 0 117 48 117 145s-46 145 -117 145c-69 0 -116 -48 -116 -145zM546 241c0 -140 -87 -256 -255 -256c-165 0 -254 116 -254 256s89 256 254 256c168 0 255 -116 255 -256zM364 713l91 -136v-10h-112l-53 69l-52 -69h-112v10l91 136
h147z" />
    <glyph glyph-name="otilde" unicode="&#xf5;" horiz-adv-x="583" 
d="M175 241c0 -97 47 -145 116 -145c71 0 117 48 117 145s-46 145 -117 145c-69 0 -116 -48 -116 -145zM546 241c0 -140 -87 -256 -255 -256c-165 0 -254 116 -254 256s89 256 254 256c168 0 255 -116 255 -256zM143 577l-27 70c21 37 62 66 106 66c64 0 96 -45 149 -45
c27 0 51 14 67 34l27 -68c-23 -43 -66 -67 -105 -67c-59 0 -104 45 -150 45c-29 0 -48 -12 -67 -35z" />
    <glyph glyph-name="odieresis" unicode="&#xf6;" horiz-adv-x="583" 
d="M175 241c0 -97 47 -145 116 -145c71 0 117 48 117 145s-46 145 -117 145c-69 0 -116 -48 -116 -145zM546 241c0 -140 -87 -256 -255 -256c-165 0 -254 116 -254 256s89 256 254 256c168 0 255 -116 255 -256zM103 640c0 43 31 74 78 74c48 0 79 -31 79 -74
s-31 -74 -79 -74c-47 0 -78 31 -78 74zM323 640c0 43 31 74 78 74c48 0 79 -31 79 -74s-31 -74 -79 -74c-47 0 -78 31 -78 74z" />
    <glyph glyph-name="divide" unicode="&#xf7;" 
d="M40 323h510v-103h-510v103zM210 71c0 51 33 86 85 86s85 -35 85 -86s-33 -86 -85 -86s-85 35 -85 86zM210 477c0 51 33 86 85 86s85 -35 85 -86s-33 -86 -85 -86s-85 35 -85 86z" />
    <glyph glyph-name="oslash" unicode="&#xf8;" horiz-adv-x="583" 
d="M125 -34l-67 57l36 45c-39 47 -57 106 -57 173c0 140 89 256 254 256c49 0 92 -9 127 -28l35 44l69 -54l-35 -44c39 -47 59 -106 59 -174c0 -140 -87 -256 -255 -256c-51 0 -93 10 -129 29zM415 246c0 27 -3 51 -10 70l-176 -217c17 -7 36 -11 58 -11
c78 0 128 52 128 158zM168 236c0 -27 2 -49 9 -68l174 215c-16 7 -35 11 -56 11c-77 0 -127 -52 -127 -158z" />
    <glyph glyph-name="ugrave" unicode="&#xf9;" horiz-adv-x="575" 
d="M58 482h135v-290c0 -63 23 -96 82 -96c45 0 81 25 102 41v345h135v-482h-109l-18 47h-2c-27 -24 -75 -62 -150 -62c-115 0 -175 77 -175 193v304zM127 704v9h142l79 -136v-10h-118z" />
    <glyph glyph-name="uacute" unicode="&#xfa;" horiz-adv-x="575" 
d="M58 482h135v-290c0 -63 23 -96 82 -96c45 0 81 25 102 41v345h135v-482h-109l-18 47h-2c-27 -24 -75 -62 -150 -62c-115 0 -175 77 -175 193v304zM450 713v-9l-103 -137h-118v10l79 136h142z" />
    <glyph glyph-name="ucircumflex" unicode="&#xfb;" horiz-adv-x="575" 
d="M58 482h135v-290c0 -63 23 -96 82 -96c45 0 81 25 102 41v345h135v-482h-109l-18 47h-2c-27 -24 -75 -62 -150 -62c-115 0 -175 77 -175 193v304zM359 713l91 -136v-10h-112l-53 69l-52 -69h-112v10l91 136h147z" />
    <glyph glyph-name="udieresis" unicode="&#xfc;" horiz-adv-x="575" 
d="M58 482h135v-290c0 -63 23 -96 82 -96c45 0 81 25 102 41v345h135v-482h-109l-18 47h-2c-27 -24 -75 -62 -150 -62c-115 0 -175 77 -175 193v304zM101 640c0 43 31 74 78 74c48 0 79 -31 79 -74s-31 -74 -79 -74c-47 0 -78 31 -78 74zM321 640c0 43 31 74 78 74
c48 0 79 -31 79 -74s-31 -74 -79 -74c-47 0 -78 31 -78 74z" />
    <glyph glyph-name="yacute" unicode="&#xfd;" horiz-adv-x="530" 
d="M519 482v-10l-207 -531c-43 -108 -109 -154 -193 -154c-32 0 -56 4 -79 9v107c23 -4 51 -5 62 -5c43 0 67 14 82 53l20 54l-194 467v10h140l116 -328h3l110 328h140zM426 713v-9l-103 -137h-118v10l79 136h142z" />
    <glyph glyph-name="thorn" unicode="&#xfe;" horiz-adv-x="586" 
d="M198 357v-232c25 -16 62 -29 97 -29c79 0 115 59 115 145s-35 145 -115 145c-35 0 -70 -13 -97 -29zM63 -198v898h135v-253h2c29 21 70 50 137 50c140 0 210 -116 210 -256s-71 -256 -210 -256c-68 0 -106 29 -137 50h-2v-233h-135z" />
    <glyph glyph-name="ydieresis" unicode="&#xff;" horiz-adv-x="530" 
d="M519 482v-10l-207 -531c-43 -108 -109 -154 -193 -154c-32 0 -56 4 -79 9v107c23 -4 51 -5 62 -5c43 0 67 14 82 53l20 54l-194 467v10h140l116 -328h3l110 328h140zM79 640c0 43 31 74 78 74c48 0 79 -31 79 -74s-31 -74 -79 -74c-47 0 -78 31 -78 74zM299 640
c0 43 31 74 78 74c48 0 79 -31 79 -74s-31 -74 -79 -74c-47 0 -78 31 -78 74z" />
    <glyph glyph-name="Amacron" unicode="&#x100;" horiz-adv-x="668" 
d="M415 680l250 -680h-153l-45 140h-266l-46 -140h-152l250 680h162zM335 538h-3l-93 -286h189zM479 759h-290v103h290v-103z" />
    <glyph glyph-name="amacron" unicode="&#x101;" horiz-adv-x="543" 
d="M467 302v-197c0 -15 1 -18 16 -18h35v-92c-21 -4 -41 -7 -70 -7c-52 0 -79 20 -96 57h-2c-32 -27 -96 -60 -155 -60c-108 0 -163 64 -163 152c0 107 68 158 238 158h65v22c0 60 -53 69 -82 69c-53 0 -113 -14 -160 -35l-32 103c51 23 124 43 199 43
c139 0 207 -71 207 -195zM335 208h-51c-89 0 -123 -23 -123 -59c0 -40 23 -58 64 -58c35 0 82 13 110 33v84zM433 579h-290v103h290v-103z" />
    <glyph glyph-name="Abreve" unicode="&#x102;" horiz-adv-x="668" 
d="M415 680l250 -680h-153l-45 140h-266l-46 -140h-152l250 680h162zM335 538h-3l-93 -286h189zM333 858c56 0 98 7 133 34l42 -64c-35 -51 -90 -77 -175 -77c-84 0 -138 26 -173 77l42 64c35 -25 78 -34 131 -34z" />
    <glyph glyph-name="abreve" unicode="&#x103;" horiz-adv-x="543" 
d="M467 302v-197c0 -15 1 -18 16 -18h35v-92c-21 -4 -41 -7 -70 -7c-52 0 -79 20 -96 57h-2c-32 -27 -96 -60 -155 -60c-108 0 -163 64 -163 152c0 107 68 158 238 158h65v22c0 60 -53 69 -82 69c-53 0 -113 -14 -160 -35l-32 103c51 23 124 43 199 43
c139 0 207 -71 207 -195zM335 208h-51c-89 0 -123 -23 -123 -59c0 -40 23 -58 64 -58c35 0 82 13 110 33v84zM288 674c56 0 98 7 133 34l42 -64c-35 -51 -90 -77 -175 -77c-84 0 -138 26 -173 77l42 64c35 -25 78 -34 131 -34z" />
    <glyph glyph-name="Aogonek" unicode="&#x104;" horiz-adv-x="668" 
d="M559 -213c-75 0 -116 44 -116 103c0 51 30 86 69 110l-45 140h-266l-46 -140h-152l250 680h162l250 -680c-88 -16 -118 -57 -118 -86c0 -31 14 -40 41 -40c20 0 41 9 53 18l11 -80c-21 -13 -62 -25 -93 -25zM335 538h-3l-93 -286h189z" />
    <glyph glyph-name="aogonek" unicode="&#x105;" horiz-adv-x="543" 
d="M467 302v-197c0 -15 1 -18 16 -18h35v-92c-32 -13 -93 -49 -93 -86c0 -27 14 -35 41 -35c20 0 41 9 53 18l11 -80c-21 -13 -62 -25 -93 -25c-76 0 -116 43 -116 103c0 46 36 86 70 110c-18 9 -30 25 -39 45h-2c-32 -27 -96 -60 -155 -60c-108 0 -163 64 -163 152
c0 107 68 158 238 158h65v22c0 60 -53 69 -82 69c-53 0 -113 -14 -160 -35l-32 103c51 23 124 43 199 43c139 0 207 -71 207 -195zM335 208h-51c-89 0 -123 -23 -123 -59c0 -40 23 -58 64 -58c35 0 82 13 110 33v84z" />
    <glyph glyph-name="Cacute" unicode="&#x106;" horiz-adv-x="605" 
d="M46 340c0 212 117 355 331 355c63 0 130 -15 193 -44l-37 -110c-57 25 -100 35 -156 35c-121 0 -186 -95 -186 -236s65 -236 186 -236c56 0 99 10 156 35l37 -110c-63 -29 -130 -44 -193 -44c-214 0 -331 143 -331 355zM507 896v-9l-83 -137h-128v10l59 136h152z" />
    <glyph glyph-name="cacute" unicode="&#x107;" horiz-adv-x="479" 
d="M38 241c0 156 92 256 256 256c59 0 118 -17 150 -29l-27 -103c-28 9 -64 21 -107 21c-73 0 -134 -40 -134 -145s59 -145 134 -145c43 0 79 12 107 21l27 -103c-32 -12 -91 -29 -150 -29c-164 0 -256 100 -256 256zM448 713v-9l-103 -137h-118v10l79 136h142z" />
    <glyph glyph-name="Ccircumflex" unicode="&#x108;" horiz-adv-x="605" 
d="M46 340c0 212 117 355 331 355c63 0 130 -15 193 -44l-37 -110c-57 25 -100 35 -156 35c-121 0 -186 -95 -186 -236s65 -236 186 -236c56 0 99 10 156 35l37 -110c-63 -29 -130 -44 -193 -44c-214 0 -331 143 -331 355zM434 896l111 -136v-10h-112l-63 79l-62 -79h-112
v10l111 136h127z" />
    <glyph glyph-name="ccircumflex" unicode="&#x109;" horiz-adv-x="479" 
d="M38 241c0 156 92 256 256 256c59 0 118 -17 150 -29l-27 -103c-28 9 -64 21 -107 21c-73 0 -134 -40 -134 -145s59 -145 134 -145c43 0 79 12 107 21l27 -103c-32 -12 -91 -29 -150 -29c-164 0 -256 100 -256 256zM351 713l91 -136v-10h-112l-53 69l-52 -69h-112v10
l91 136h147z" />
    <glyph glyph-name="Cdotaccent" unicode="&#x10a;" horiz-adv-x="605" 
d="M46 340c0 212 117 355 331 355c63 0 130 -15 193 -44l-37 -110c-57 25 -100 35 -156 35c-121 0 -186 -95 -186 -236s65 -236 186 -236c56 0 99 10 156 35l37 -110c-63 -29 -130 -44 -193 -44c-214 0 -331 143 -331 355zM295 819c0 43 31 74 78 74c48 0 79 -31 79 -74
s-31 -74 -79 -74c-47 0 -78 31 -78 74z" />
    <glyph glyph-name="cdotaccent" unicode="&#x10b;" horiz-adv-x="479" 
d="M38 241c0 156 92 256 256 256c59 0 118 -17 150 -29l-27 -103c-28 9 -64 21 -107 21c-73 0 -134 -40 -134 -145s59 -145 134 -145c43 0 79 12 107 21l27 -103c-32 -12 -91 -29 -150 -29c-164 0 -256 100 -256 256zM199 640c0 43 31 74 78 74c48 0 79 -31 79 -74
s-31 -74 -79 -74c-47 0 -78 31 -78 74z" />
    <glyph glyph-name="Ccaron" unicode="&#x10c;" horiz-adv-x="605" 
d="M46 340c0 212 117 355 331 355c63 0 130 -15 193 -44l-37 -110c-57 25 -100 35 -156 35c-121 0 -186 -95 -186 -236s65 -236 186 -236c56 0 99 10 156 35l37 -110c-63 -29 -130 -44 -193 -44c-214 0 -331 143 -331 355zM305 750l-111 136v10h112l63 -79l62 79h112v-10
l-111 -136h-127z" />
    <glyph glyph-name="ccaron" unicode="&#x10d;" horiz-adv-x="479" 
d="M38 241c0 156 92 256 256 256c59 0 118 -17 150 -29l-27 -103c-28 9 -64 21 -107 21c-73 0 -134 -40 -134 -145s59 -145 134 -145c43 0 79 12 107 21l27 -103c-32 -12 -91 -29 -150 -29c-164 0 -256 100 -256 256zM204 567l-91 136v10h112l53 -69l52 69h112v-10l-91 -136
h-147z" />
    <glyph glyph-name="Dcaron" unicode="&#x10e;" horiz-adv-x="690" 
d="M79 0v680h213c255 0 348 -120 348 -340s-93 -340 -348 -340h-213zM218 116h61c176 0 216 70 216 224s-40 224 -216 224h-61v-448zM261 750l-111 136v10h112l63 -79l62 79h112v-10l-111 -136h-127z" />
    <glyph glyph-name="dcaron" unicode="&#x10f;" horiz-adv-x="587" 
d="M389 125v232c-27 16 -62 29 -97 29c-80 0 -115 -59 -115 -145s35 -145 115 -145c35 0 70 13 97 29zM389 700h135v-700h-100l-19 43h-2c-35 -25 -81 -58 -153 -58c-139 0 -211 116 -211 256s72 256 211 256c67 0 108 -29 137 -50h2v253zM564 514v10l25 156h135v-10
l-59 -156h-101z" />
    <glyph glyph-name="Dcroat" unicode="&#x110;" horiz-adv-x="705" 
d="M94 0v277h-48v116h48v287h213c255 0 348 -120 348 -340s-93 -340 -348 -340h-213zM233 116h61c176 0 216 70 216 224s-40 224 -216 224h-61v-171h113v-116h-113v-161z" />
    <glyph glyph-name="dcroat" unicode="&#x111;" horiz-adv-x="587" 
d="M574 541h-50v-541h-100l-19 43h-2c-35 -25 -81 -58 -153 -58c-139 0 -211 116 -211 256s72 256 211 256c67 0 108 -29 137 -50h2v94h-105v103h105v56h135v-56h50v-103zM389 125v232c-27 16 -62 29 -97 29c-80 0 -115 -59 -115 -145s35 -145 115 -145c35 0 70 13 97 29z
" />
    <glyph glyph-name="Emacron" unicode="&#x112;" 
d="M79 680h456v-116h-317v-163h284v-116h-284v-169h320v-116h-459v680zM455 759h-290v103h290v-103z" />
    <glyph glyph-name="emacron" unicode="&#x113;" horiz-adv-x="539" 
d="M496 202h-322c5 -68 49 -109 121 -109c56 0 107 13 154 30l31 -97c-48 -23 -118 -41 -195 -41c-167 0 -248 115 -248 257c0 137 84 255 241 255c156 0 225 -95 225 -208c0 -31 -4 -70 -7 -87zM174 286h205c1 5 1 10 1 15c0 54 -25 98 -101 98c-68 0 -102 -55 -105 -113z
M428 579h-290v103h290v-103z" />
    <glyph glyph-name="Ebreve" unicode="&#x114;" 
d="M79 680h456v-116h-317v-163h284v-116h-284v-169h320v-116h-459v680zM314 858c56 0 98 7 133 34l42 -64c-35 -51 -90 -77 -175 -77c-84 0 -138 26 -173 77l42 64c35 -25 78 -34 131 -34z" />
    <glyph glyph-name="ebreve" unicode="&#x115;" horiz-adv-x="539" 
d="M496 202h-322c5 -68 49 -109 121 -109c56 0 107 13 154 30l31 -97c-48 -23 -118 -41 -195 -41c-167 0 -248 115 -248 257c0 137 84 255 241 255c156 0 225 -95 225 -208c0 -31 -4 -70 -7 -87zM174 286h205c1 5 1 10 1 15c0 54 -25 98 -101 98c-68 0 -102 -55 -105 -113z
M287 674c56 0 98 7 133 34l42 -64c-35 -51 -90 -77 -175 -77c-84 0 -138 26 -173 77l42 64c35 -25 78 -34 131 -34z" />
    <glyph glyph-name="Edotaccent" unicode="&#x116;" 
d="M79 680h456v-116h-317v-163h284v-116h-284v-169h320v-116h-459v680zM236 819c0 43 31 74 78 74c48 0 79 -31 79 -74s-31 -74 -79 -74c-47 0 -78 31 -78 74z" />
    <glyph glyph-name="edotaccent" unicode="&#x117;" horiz-adv-x="539" 
d="M496 202h-322c5 -68 49 -109 121 -109c56 0 107 13 154 30l31 -97c-48 -23 -118 -41 -195 -41c-167 0 -248 115 -248 257c0 137 84 255 241 255c156 0 225 -95 225 -208c0 -31 -4 -70 -7 -87zM174 286h205c1 5 1 10 1 15c0 54 -25 98 -101 98c-68 0 -102 -55 -105 -113z
M205 640c0 43 31 74 78 74c48 0 79 -31 79 -74s-31 -74 -79 -74c-47 0 -78 31 -78 74z" />
    <glyph glyph-name="Eogonek" unicode="&#x118;" 
d="M469 -213c-75 0 -116 44 -116 103c0 50 40 86 78 110h-352v680h456v-116h-317v-163h284v-116h-284v-169h320v-116c-41 -16 -81 -56 -81 -86c0 -31 14 -40 41 -40c20 0 41 9 53 18l11 -80c-21 -13 -62 -25 -93 -25z" />
    <glyph glyph-name="eogonek" unicode="&#x119;" horiz-adv-x="539" 
d="M312 -16v2c-8 -1 -18 -1 -27 -1c-167 0 -248 115 -248 257c0 137 84 255 241 255c156 0 225 -95 225 -208c0 -31 -4 -70 -7 -87h-322c5 -68 49 -109 121 -109c56 0 107 13 154 30l31 -97c-11 -5 -20 -11 -31 -16c-48 -24 -82 -50 -82 -91c0 -30 14 -45 41 -45
c20 0 41 9 53 18l11 -80c-21 -13 -62 -25 -93 -25c-75 0 -116 44 -116 103c0 39 21 69 49 94zM174 286h205c1 5 1 10 1 15c0 54 -25 98 -101 98c-68 0 -102 -55 -105 -113z" />
    <glyph glyph-name="Ecaron" unicode="&#x11a;" 
d="M79 680h456v-116h-317v-163h284v-116h-284v-169h320v-116h-459v680zM253 750l-111 136v10h112l63 -79l62 79h112v-10l-111 -136h-127z" />
    <glyph glyph-name="ecaron" unicode="&#x11b;" horiz-adv-x="539" 
d="M496 202h-322c5 -68 49 -109 121 -109c56 0 107 13 154 30l31 -97c-48 -23 -118 -41 -195 -41c-167 0 -248 115 -248 257c0 137 84 255 241 255c156 0 225 -95 225 -208c0 -31 -4 -70 -7 -87zM174 286h205c1 5 1 10 1 15c0 54 -25 98 -101 98c-68 0 -102 -55 -105 -113z
M210 567l-91 136v10h112l53 -69l52 69h112v-10l-91 -136h-147z" />
    <glyph glyph-name="Gcircumflex" unicode="&#x11c;" horiz-adv-x="686" 
d="M368 365h260v-321c-63 -33 -163 -59 -259 -59c-216 0 -323 146 -323 355c0 191 107 355 343 355c92 0 178 -25 231 -49l-40 -108c-51 21 -119 38 -191 38c-141 0 -198 -95 -198 -236c0 -143 54 -236 184 -236c43 0 82 5 114 18v127l-121 17v99zM432 896l111 -136v-10
h-112l-63 79l-62 -79h-112v10l111 136h127z" />
    <glyph glyph-name="gcircumflex" unicode="&#x11d;" horiz-adv-x="586" 
d="M388 132v224c-27 16 -62 30 -97 30c-80 0 -114 -56 -114 -142s34 -139 114 -139c35 0 70 12 97 27zM523 482v-451c0 -162 -91 -244 -249 -244c-79 0 -142 22 -189 47l39 99c40 -21 90 -35 150 -35c79 0 114 28 114 108v36h-2c-29 -21 -69 -48 -137 -48
c-139 0 -210 110 -210 250s71 253 210 253c72 0 113 -34 149 -59h2l18 44h105zM376 713l91 -136v-10h-112l-53 69l-52 -69h-112v10l91 136h147z" />
    <glyph glyph-name="Gbreve" unicode="&#x11e;" horiz-adv-x="686" 
d="M368 365h260v-321c-63 -33 -163 -59 -259 -59c-216 0 -323 146 -323 355c0 191 107 355 343 355c92 0 178 -25 231 -49l-40 -108c-51 21 -119 38 -191 38c-141 0 -198 -95 -198 -236c0 -143 54 -236 184 -236c43 0 82 5 114 18v127l-121 17v99zM370 858c56 0 98 7 133 34
l42 -64c-35 -51 -90 -77 -175 -77c-84 0 -138 26 -173 77l42 64c35 -25 78 -34 131 -34z" />
    <glyph glyph-name="gbreve" unicode="&#x11f;" horiz-adv-x="586" 
d="M388 132v224c-27 16 -62 30 -97 30c-80 0 -114 -56 -114 -142s34 -139 114 -139c35 0 70 12 97 27zM523 482v-451c0 -162 -91 -244 -249 -244c-79 0 -142 22 -189 47l39 99c40 -21 90 -35 150 -35c79 0 114 28 114 108v36h-2c-29 -21 -69 -48 -137 -48
c-139 0 -210 110 -210 250s71 253 210 253c72 0 113 -34 149 -59h2l18 44h105zM302 674c56 0 98 7 133 34l42 -64c-35 -51 -90 -77 -175 -77c-84 0 -138 26 -173 77l42 64c35 -25 78 -34 131 -34z" />
    <glyph glyph-name="Gdotaccent" unicode="&#x120;" horiz-adv-x="686" 
d="M368 365h260v-321c-63 -33 -163 -59 -259 -59c-216 0 -323 146 -323 355c0 191 107 355 343 355c92 0 178 -25 231 -49l-40 -108c-51 21 -119 38 -191 38c-141 0 -198 -95 -198 -236c0 -143 54 -236 184 -236c43 0 82 5 114 18v127l-121 17v99zM291 819c0 43 31 74 78 74
c48 0 79 -31 79 -74s-31 -74 -79 -74c-47 0 -78 31 -78 74z" />
    <glyph glyph-name="gdotaccent" unicode="&#x121;" horiz-adv-x="586" 
d="M388 132v224c-27 16 -62 30 -97 30c-80 0 -114 -56 -114 -142s34 -139 114 -139c35 0 70 12 97 27zM523 482v-451c0 -162 -91 -244 -249 -244c-79 0 -142 22 -189 47l39 99c40 -21 90 -35 150 -35c79 0 114 28 114 108v36h-2c-29 -21 -69 -48 -137 -48
c-139 0 -210 110 -210 250s71 253 210 253c72 0 113 -34 149 -59h2l18 44h105zM224 640c0 43 31 74 78 74c48 0 79 -31 79 -74s-31 -74 -79 -74c-47 0 -78 31 -78 74z" />
    <glyph glyph-name="Gcommaaccent" unicode="&#x122;" horiz-adv-x="686" 
d="M368 365h260v-321c-63 -33 -163 -59 -259 -59c-216 0 -323 146 -323 355c0 191 107 355 343 355c92 0 178 -25 231 -49l-40 -108c-51 21 -119 38 -191 38c-141 0 -198 -95 -198 -236c0 -143 54 -236 184 -236c43 0 82 5 114 18v127l-121 17v99zM279 -218v10l25 156h135
v-10l-59 -156h-101z" />
    <glyph glyph-name="gcommaaccent" unicode="&#x123;" horiz-adv-x="586" 
d="M388 132v224c-27 16 -62 30 -97 30c-80 0 -114 -56 -114 -142s34 -139 114 -139c35 0 70 12 97 27zM523 482v-451c0 -162 -91 -244 -249 -244c-79 0 -142 22 -189 47l39 99c40 -21 90 -35 150 -35c79 0 114 28 114 108v36h-2c-29 -21 -69 -48 -137 -48
c-139 0 -210 110 -210 250s71 253 210 253c72 0 113 -34 149 -59h2l18 44h105zM394 723v-10l-25 -156h-135v10l59 156h101z" />
    <glyph glyph-name="Hcircumflex" unicode="&#x124;" horiz-adv-x="722" 
d="M504 0v285h-286v-285h-139v680h139v-279h286v279h139v-680h-139zM424 896l111 -136v-10h-112l-63 79l-62 -79h-112v10l111 136h127z" />
    <glyph glyph-name="hcircumflex" unicode="&#x125;" horiz-adv-x="581" 
d="M523 0h-135v290c0 61 -27 96 -86 96c-49 0 -84 -26 -104 -46v-340h-135v700h135v-258h2c26 24 80 55 144 55c115 0 179 -78 179 -194v-303zM358 896l111 -136v-10h-112l-63 79l-62 -79h-112v10l111 136h127z" />
    <glyph glyph-name="Hbar" unicode="&#x126;" horiz-adv-x="754" 
d="M520 0v285h-286v-285h-139v493h-50v106h50v81h139v-81h286v81h139v-81h50v-106h-50v-493h-139zM234 401h286v92h-286v-92z" />
    <glyph glyph-name="hbar" unicode="&#x127;" horiz-adv-x="581" 
d="M303 540h-105v-98h2c26 24 80 55 144 55c115 0 179 -78 179 -194v-303h-135v290c0 61 -27 96 -86 96c-49 0 -84 -26 -104 -46v-340h-135v540h-50v103h50v57h135v-57h105v-103z" />
    <glyph glyph-name="Itilde" unicode="&#x128;" horiz-adv-x="297" 
d="M218 680v-680h-139v680h139zM2 761l-27 70c21 37 62 66 106 66c64 0 96 -45 149 -45c27 0 51 14 67 34l27 -68c-23 -43 -66 -67 -105 -67c-59 0 -104 45 -150 45c-29 0 -48 -12 -67 -35z" />
    <glyph glyph-name="itilde" unicode="&#x129;" horiz-adv-x="261" 
d="M198 0h-135v482h135v-482zM-17 577l-27 70c21 37 62 66 106 66c64 0 96 -45 149 -45c27 0 51 14 67 34l27 -68c-23 -43 -66 -67 -105 -67c-59 0 -104 45 -150 45c-29 0 -48 -12 -67 -35z" />
    <glyph glyph-name="Imacron" unicode="&#x12a;" horiz-adv-x="297" 
d="M218 680v-680h-139v680h139zM292 759h-290v103h290v-103z" />
    <glyph glyph-name="imacron" unicode="&#x12b;" horiz-adv-x="261" 
d="M198 0h-135v482h135v-482zM276 579h-290v103h290v-103z" />
    <glyph glyph-name="Ibreve" unicode="&#x12c;" horiz-adv-x="297" 
d="M218 680v-680h-139v680h139zM149 858c56 0 98 7 133 34l42 -64c-35 -51 -90 -77 -175 -77c-84 0 -138 26 -173 77l42 64c35 -25 78 -34 131 -34z" />
    <glyph glyph-name="ibreve" unicode="&#x12d;" horiz-adv-x="261" 
d="M198 0h-135v482h135v-482zM130 674c56 0 98 7 133 34l42 -64c-35 -51 -90 -77 -175 -77c-84 0 -138 26 -173 77l42 64c35 -25 78 -34 131 -34z" />
    <glyph glyph-name="Iogonek" unicode="&#x12e;" horiz-adv-x="297" 
d="M126 -213c-75 0 -116 44 -116 103c0 51 30 86 69 110v680h139v-680c-74 -16 -104 -57 -104 -86c0 -31 14 -40 41 -40c20 0 41 9 53 18l11 -80c-21 -13 -62 -25 -93 -25z" />
    <glyph glyph-name="iogonek" unicode="&#x12f;" horiz-adv-x="261" 
d="M108 -213c-75 0 -116 44 -116 103c0 52 32 87 71 112v480h135v-482c-72 -16 -102 -57 -102 -86c0 -31 14 -40 41 -40c20 0 41 9 53 18l11 -80c-21 -13 -62 -25 -93 -25zM53 640c0 43 31 74 78 74c48 0 79 -31 79 -74s-31 -74 -79 -74c-47 0 -78 31 -78 74z" />
    <glyph glyph-name="Idotaccent" unicode="&#x130;" horiz-adv-x="297" 
d="M218 680v-680h-139v680h139zM70 819c0 43 31 74 78 74c48 0 79 -31 79 -74s-31 -74 -79 -74c-47 0 -78 31 -78 74z" />
    <glyph glyph-name="dotlessi" unicode="&#x131;" horiz-adv-x="261" 
d="M198 0h-135v482h135v-482z" />
    <glyph glyph-name="IJ" unicode="&#x132;" horiz-adv-x="779" 
d="M218 680v-680h-139v680h139zM304 56l63 100c31 -28 61 -52 114 -52c63 0 85 52 85 112v464h139v-473c0 -148 -84 -222 -224 -222c-81 0 -137 35 -177 71z" />
    <glyph glyph-name="ij" unicode="&#x133;" horiz-adv-x="522" 
d="M198 0h-135v482h135v-482zM53 640c0 43 31 74 78 74c48 0 79 -31 79 -74s-31 -74 -79 -74c-47 0 -78 31 -78 74zM324 482h135v-513c0 -125 -58 -182 -173 -182c-21 0 -49 3 -70 7v109c17 -4 34 -5 53 -5c39 0 55 19 55 63v521zM314 640c0 43 31 74 78 74
c48 0 79 -31 79 -74s-31 -74 -79 -74c-47 0 -78 31 -78 74z" />
    <glyph glyph-name="Jcircumflex" unicode="&#x134;" horiz-adv-x="482" 
d="M7 56l63 100c31 -28 61 -52 114 -52c63 0 85 52 85 112v464h139v-473c0 -148 -84 -222 -224 -222c-81 0 -137 35 -177 71zM401 896l111 -136v-10h-112l-63 79l-62 -79h-112v10l111 136h127z" />
    <glyph glyph-name="jcircumflex" unicode="&#x135;" horiz-adv-x="261" 
d="M63 482h135v-513c0 -125 -58 -182 -173 -182c-21 0 -49 3 -70 7v109c17 -4 34 -5 53 -5c39 0 55 19 55 63v521zM204 713l91 -136v-10h-112l-53 69l-52 -69h-112v10l91 136h147z" />
    <glyph glyph-name="Kcommaaccent" unicode="&#x136;" horiz-adv-x="643" 
d="M220 304h-2v-304h-139v680h139v-329h2l248 329h154v-10l-260 -337l273 -323v-10h-162zM230 -218v10l25 156h135v-10l-59 -156h-101z" />
    <glyph glyph-name="kcommaaccent" unicode="&#x137;" horiz-adv-x="538" 
d="M200 223h-2v-223h-135v700h135v-435h2l169 217h147v-10l-183 -224l192 -238v-10h-153zM179 -218v10l25 156h135v-10l-59 -156h-101z" />
    <glyph glyph-name="kgreenlandic" unicode="&#x138;" horiz-adv-x="538" 
d="M199 211h-2v-211h-133v482h133v-230h2l171 230h145v-7l-188 -237l197 -231v-7h-149z" />
    <glyph glyph-name="Lacute" unicode="&#x139;" horiz-adv-x="533" 
d="M79 680h139v-564h293v-116h-432v680zM295 896v-9l-83 -137h-128v10l59 136h152z" />
    <glyph glyph-name="lacute" unicode="&#x13a;" horiz-adv-x="290" 
d="M61 700h135v-592c0 -15 1 -18 16 -18h53v-92c-21 -4 -51 -7 -80 -7c-92 0 -124 45 -124 141v568zM275 896v-9l-83 -137h-128v10l59 136h152z" />
    <glyph glyph-name="Lcommaaccent" unicode="&#x13b;" horiz-adv-x="533" 
d="M79 680h139v-564h293v-116h-432v680zM208 -218v10l25 156h135v-10l-59 -156h-101z" />
    <glyph glyph-name="lcommaaccent" unicode="&#x13c;" horiz-adv-x="290" 
d="M61 700h135v-592c0 -15 1 -18 16 -18h53v-92c-21 -4 -51 -7 -80 -7c-92 0 -124 45 -124 141v568zM71 -218v10l25 156h135v-10l-59 -156h-101z" />
    <glyph glyph-name="Lcaron" unicode="&#x13d;" horiz-adv-x="534" 
d="M79 680h139v-564h293v-116h-432v680zM305 514v10l25 156h135v-10l-59 -156h-101z" />
    <glyph glyph-name="lcaron" unicode="&#x13e;" horiz-adv-x="285" 
d="M61 700h135v-592c0 -15 1 -18 16 -18h53v-92c-21 -4 -51 -7 -80 -7c-92 0 -124 45 -124 141v568zM238 514v10l25 156h135v-10l-59 -156h-101z" />
    <glyph glyph-name="Ldot" unicode="&#x13f;" horiz-adv-x="553" 
d="M79 680h139v-564h293v-116h-432v680zM328 361c0 51 33 86 85 86s85 -35 85 -86s-33 -86 -85 -86s-85 35 -85 86z" />
    <glyph glyph-name="ldot" unicode="&#x140;" horiz-adv-x="427" 
d="M61 700h135v-592c0 -15 1 -18 16 -18h53v-92c-21 -4 -51 -7 -80 -7c-92 0 -124 45 -124 141v568zM258 361c0 51 33 86 85 86s85 -35 85 -86s-33 -86 -85 -86s-85 35 -85 86z" />
    <glyph glyph-name="Lslash" unicode="&#x141;" horiz-adv-x="563" 
d="M109 680h139v-253l121 61h10v-119l-131 -66v-187h293v-116h-432v234l-56 -28h-10v119l66 33v322z" />
    <glyph glyph-name="lslash" unicode="&#x142;" horiz-adv-x="334" 
d="M92 700h135v-274l79 40h10v-119l-89 -45v-194c0 -15 1 -18 16 -18h53v-92c-21 -4 -51 -7 -80 -7c-92 0 -124 45 -124 141v102l-60 -30h-10v119l70 35v342z" />
    <glyph glyph-name="Nacute" unicode="&#x143;" horiz-adv-x="736" 
d="M515 211h3v469h139v-680h-147l-289 469h-3v-469h-139v680h147zM510 896v-9l-83 -137h-128v10l59 136h152z" />
    <glyph glyph-name="nacute" unicode="&#x144;" horiz-adv-x="581" 
d="M63 482h108l18 -47h2c28 25 78 62 154 62c113 0 178 -77 178 -193v-304h-135v290c0 63 -27 96 -86 96c-46 0 -83 -25 -104 -41v-345h-135v482zM459 713v-9l-103 -137h-118v10l79 136h142z" />
    <glyph glyph-name="Ncommaaccent" unicode="&#x145;" horiz-adv-x="736" 
d="M515 211h3v469h139v-680h-147l-289 469h-3v-469h-139v680h147zM275 -218v10l25 156h135v-10l-59 -156h-101z" />
    <glyph glyph-name="ncommaaccent" unicode="&#x146;" horiz-adv-x="581" 
d="M63 482h108l18 -47h2c28 25 78 62 154 62c113 0 178 -77 178 -193v-304h-135v290c0 63 -27 96 -86 96c-46 0 -83 -25 -104 -41v-345h-135v482zM197 -218v10l25 156h135v-10l-59 -156h-101z" />
    <glyph glyph-name="Ncaron" unicode="&#x147;" horiz-adv-x="736" 
d="M515 211h3v469h139v-680h-147l-289 469h-3v-469h-139v680h147zM307 750l-111 136v10h112l63 -79l62 79h112v-10l-111 -136h-127z" />
    <glyph glyph-name="ncaron" unicode="&#x148;" horiz-adv-x="581" 
d="M63 482h108l18 -47h2c28 25 78 62 154 62c113 0 178 -77 178 -193v-304h-135v290c0 63 -27 96 -86 96c-46 0 -83 -25 -104 -41v-345h-135v482zM225 567l-91 136v10h112l53 -69l52 69h112v-10l-91 -136h-147z" />
    <glyph glyph-name="napostrophe" unicode="&#x149;" horiz-adv-x="581" 
d="M63 482h108l18 -47h2c28 25 78 62 154 62c113 0 178 -77 178 -193v-304h-135v290c0 63 -27 96 -86 96c-46 0 -83 -25 -104 -41v-345h-135v482zM-44 514v10l25 156h135v-10l-59 -156h-101z" />
    <glyph glyph-name="Eng" unicode="&#x14a;" horiz-adv-x="736" 
d="M515 221h3v459h139v-711c0 -125 -58 -182 -173 -182c-21 0 -49 3 -70 7v118c17 -4 34 -5 53 -5c39 0 51 13 51 57v36l-297 469h-3v-469h-139v680h147z" />
    <glyph glyph-name="eng" unicode="&#x14b;" horiz-adv-x="581" 
d="M63 482h108l18 -47h2c28 25 78 62 154 62c113 0 178 -77 178 -193v-335c0 -125 -58 -182 -173 -182c-21 0 -49 3 -70 7v109c17 -4 34 -5 53 -5c39 0 55 19 55 63v329c0 63 -27 96 -86 96c-46 0 -83 -25 -104 -41v-345h-135v482z" />
    <glyph glyph-name="Omacron" unicode="&#x14c;" horiz-adv-x="749" 
d="M192 340c0 -134 48 -236 183 -236c134 0 182 102 182 236s-48 236 -182 236c-135 0 -183 -102 -183 -236zM702 340c0 -198 -102 -355 -327 -355c-227 0 -328 157 -328 355s101 355 328 355c225 0 327 -157 327 -355zM520 759h-290v103h290v-103z" />
    <glyph glyph-name="omacron" unicode="&#x14d;" horiz-adv-x="583" 
d="M175 241c0 -97 47 -145 116 -145c71 0 117 48 117 145s-46 145 -117 145c-69 0 -116 -48 -116 -145zM546 241c0 -140 -87 -256 -255 -256c-165 0 -254 116 -254 256s89 256 254 256c168 0 255 -116 255 -256zM435 579h-290v103h290v-103z" />
    <glyph glyph-name="Obreve" unicode="&#x14e;" horiz-adv-x="749" 
d="M192 340c0 -134 48 -236 183 -236c134 0 182 102 182 236s-48 236 -182 236c-135 0 -183 -102 -183 -236zM702 340c0 -198 -102 -355 -327 -355c-227 0 -328 157 -328 355s101 355 328 355c225 0 327 -157 327 -355zM376 858c56 0 98 7 133 34l42 -64
c-35 -51 -90 -77 -175 -77c-84 0 -138 26 -173 77l42 64c35 -25 78 -34 131 -34z" />
    <glyph glyph-name="obreve" unicode="&#x14f;" horiz-adv-x="583" 
d="M175 241c0 -97 47 -145 116 -145c71 0 117 48 117 145s-46 145 -117 145c-69 0 -116 -48 -116 -145zM546 241c0 -140 -87 -256 -255 -256c-165 0 -254 116 -254 256s89 256 254 256c168 0 255 -116 255 -256zM289 674c56 0 98 7 133 34l42 -64c-35 -51 -90 -77 -175 -77
c-84 0 -138 26 -173 77l42 64c35 -25 78 -34 131 -34z" />
    <glyph glyph-name="Ohungarumlaut" unicode="&#x150;" horiz-adv-x="749" 
d="M192 340c0 -134 48 -236 183 -236c134 0 182 102 182 236s-48 236 -182 236c-135 0 -183 -102 -183 -236zM702 340c0 -198 -102 -355 -327 -355c-227 0 -328 157 -328 355s101 355 328 355c225 0 327 -157 327 -355zM439 896v-10l-103 -136h-118v10l79 136h142zM649 896
v-10l-103 -136h-118v10l79 136h142z" />
    <glyph glyph-name="ohungarumlaut" unicode="&#x151;" horiz-adv-x="583" 
d="M175 241c0 -97 47 -145 116 -145c71 0 117 48 117 145s-46 145 -117 145c-69 0 -116 -48 -116 -145zM546 241c0 -140 -87 -256 -255 -256c-165 0 -254 116 -254 256s89 256 254 256c168 0 255 -116 255 -256zM344 713v-9l-103 -137h-118v10l79 136h142zM554 713v-9
l-103 -137h-118v10l79 136h142z" />
    <glyph glyph-name="OE" unicode="&#x152;" horiz-adv-x="995" 
d="M375 695c41 0 79 -5 112 -15h453v-116h-317v-163h284v-116h-284v-169h320v-116h-457c-33 -9 -70 -15 -111 -15c-227 0 -328 157 -328 355s101 355 328 355zM375 104c47 0 82 8 109 23v426c-28 15 -62 23 -109 23c-135 0 -183 -102 -183 -236s48 -236 183 -236z" />
    <glyph glyph-name="oe" unicode="&#x153;" horiz-adv-x="911" 
d="M869 202h-322c5 -68 49 -109 121 -109c56 0 107 13 154 30l31 -97c-48 -23 -118 -41 -195 -41c-80 0 -141 37 -182 80c-43 -44 -105 -80 -185 -80c-165 0 -254 116 -254 256s89 256 254 256c81 0 142 -37 185 -81c41 44 99 81 175 81c156 0 225 -95 225 -208
c0 -31 -4 -70 -7 -87zM175 241c0 -97 47 -145 116 -145c71 0 117 48 117 145s-46 145 -117 145c-69 0 -116 -48 -116 -145zM547 286h205c1 5 1 10 1 15c0 54 -25 98 -101 98c-68 0 -102 -55 -105 -113z" />
    <glyph glyph-name="Racute" unicode="&#x154;" horiz-adv-x="664" 
d="M218 0h-139v680h287c161 0 236 -74 236 -205c0 -104 -49 -173 -149 -197l186 -262v-16h-152l-182 269h-87v-269zM218 385h141c63 0 98 35 98 90s-35 89 -98 89h-141v-179zM453 896v-9l-83 -137h-128v10l59 136h152z" />
    <glyph glyph-name="racute" unicode="&#x155;" horiz-adv-x="378" 
d="M63 482h109l19 -58h2c18 31 58 73 122 73c17 0 36 -3 48 -6l-12 -113c-15 3 -36 4 -48 4c-56 0 -88 -26 -105 -47v-335h-135v482zM351 713v-9l-103 -137h-118v10l79 136h142z" />
    <glyph glyph-name="Rcommaaccent" unicode="&#x156;" horiz-adv-x="664" 
d="M218 0h-139v680h287c161 0 236 -74 236 -205c0 -104 -49 -173 -149 -197l186 -262v-16h-152l-182 269h-87v-269zM218 385h141c63 0 98 35 98 90s-35 89 -98 89h-141v-179zM235 -218v10l25 156h135v-10l-59 -156h-101z" />
    <glyph glyph-name="rcommaaccent" unicode="&#x157;" horiz-adv-x="378" 
d="M63 482h109l19 -58h2c18 31 58 73 122 73c17 0 36 -3 48 -6l-12 -113c-15 3 -36 4 -48 4c-56 0 -88 -26 -105 -47v-335h-135v482zM40 -218v10l25 156h135v-10l-59 -156h-101z" />
    <glyph glyph-name="Rcaron" unicode="&#x158;" horiz-adv-x="664" 
d="M218 0h-139v680h287c161 0 236 -74 236 -205c0 -104 -49 -173 -149 -197l186 -262v-16h-152l-182 269h-87v-269zM218 385h141c63 0 98 35 98 90s-35 89 -98 89h-141v-179zM251 750l-111 136v10h112l63 -79l62 79h112v-10l-111 -136h-127z" />
    <glyph glyph-name="rcaron" unicode="&#x159;" horiz-adv-x="378" 
d="M63 482h109l19 -58h2c18 31 58 73 122 73c17 0 36 -3 48 -6l-12 -113c-15 3 -36 4 -48 4c-56 0 -88 -26 -105 -47v-335h-135v482zM133 567l-91 136v10h112l53 -69l52 69h112v-10l-91 -136h-147z" />
    <glyph glyph-name="Sacute" unicode="&#x15a;" horiz-adv-x="561" 
d="M38 50l43 109c42 -26 126 -57 188 -57c75 0 112 29 112 86c0 44 -25 62 -96 86l-73 24c-108 35 -161 102 -161 189c0 124 85 208 247 208c55 0 138 -17 201 -49l-42 -111c-49 24 -116 43 -159 43c-75 0 -105 -31 -105 -79c0 -35 15 -61 70 -78l71 -23
c128 -40 189 -95 189 -198c0 -134 -97 -215 -254 -215c-84 0 -175 33 -231 65zM428 896v-9l-83 -137h-128v10l59 136h152z" />
    <glyph glyph-name="sacute" unicode="&#x15b;" horiz-adv-x="468" 
d="M32 31l40 97c47 -24 102 -41 155 -41s76 16 76 47c0 29 -23 40 -66 51l-63 15c-67 16 -131 54 -131 142c0 95 75 155 200 155c73 0 124 -12 180 -35l-37 -96c-43 16 -92 29 -139 29c-51 0 -73 -15 -73 -44c0 -28 22 -38 62 -49l61 -15c77 -19 137 -59 137 -144
c0 -100 -80 -158 -203 -158c-83 0 -142 17 -199 46zM384 713v-9l-103 -137h-118v10l79 136h142z" />
    <glyph glyph-name="Scircumflex" unicode="&#x15c;" horiz-adv-x="561" 
d="M38 50l43 109c42 -26 126 -57 188 -57c75 0 112 29 112 86c0 44 -25 62 -96 86l-73 24c-108 35 -161 102 -161 189c0 124 85 208 247 208c55 0 138 -17 201 -49l-42 -111c-49 24 -116 43 -159 43c-75 0 -105 -31 -105 -79c0 -35 15 -61 70 -78l71 -23
c128 -40 189 -95 189 -198c0 -134 -97 -215 -254 -215c-84 0 -175 33 -231 65zM343 896l111 -136v-10h-112l-63 79l-62 -79h-112v10l111 136h127z" />
    <glyph glyph-name="scircumflex" unicode="&#x15d;" horiz-adv-x="468" 
d="M32 31l40 97c47 -24 102 -41 155 -41s76 16 76 47c0 29 -23 40 -66 51l-63 15c-67 16 -131 54 -131 142c0 95 75 155 200 155c73 0 124 -12 180 -35l-37 -96c-43 16 -92 29 -139 29c-51 0 -73 -15 -73 -44c0 -28 22 -38 62 -49l61 -15c77 -19 137 -59 137 -144
c0 -100 -80 -158 -203 -158c-83 0 -142 17 -199 46zM306 713l91 -136v-10h-112l-53 69l-52 -69h-112v10l91 136h147z" />
    <glyph glyph-name="Scedilla" unicode="&#x15e;" horiz-adv-x="561" 
d="M208 -94l-4 6l29 75c-73 8 -148 35 -195 63l43 109c42 -26 126 -57 188 -57c75 0 112 29 112 86c0 44 -25 62 -96 86l-73 24c-108 35 -161 102 -161 189c0 124 85 208 247 208c55 0 138 -17 201 -49l-42 -111c-49 24 -116 43 -159 43c-75 0 -105 -31 -105 -79
c0 -35 15 -61 70 -78l71 -23c128 -40 189 -95 189 -198c0 -121 -79 -199 -211 -212l-14 -33c43 -7 69 -32 69 -73c0 -59 -43 -95 -118 -95c-31 0 -56 5 -75 12l14 63c15 -5 31 -8 43 -8c23 0 35 8 35 25c0 25 -33 27 -58 27z" />
    <glyph glyph-name="scedilla" unicode="&#x15f;" horiz-adv-x="469" 
d="M166 -94l-4 6l29 75c-63 4 -111 20 -159 44l40 97c47 -24 102 -41 155 -41s76 16 76 47c0 29 -23 40 -66 51l-63 15c-67 16 -131 54 -131 142c0 95 75 155 200 155c73 0 124 -12 180 -35l-37 -96c-43 16 -92 29 -139 29c-51 0 -73 -15 -73 -44c0 -28 22 -38 62 -49
l61 -15c77 -19 137 -59 137 -144c0 -89 -64 -145 -164 -156l-14 -32c43 -7 69 -32 69 -73c0 -59 -43 -95 -118 -95c-31 0 -56 5 -75 12l14 63c15 -5 31 -8 43 -8c23 0 35 8 35 25c0 25 -33 27 -58 27z" />
    <glyph glyph-name="Scaron" unicode="&#x160;" horiz-adv-x="561" 
d="M38 50l43 109c42 -26 126 -57 188 -57c75 0 112 29 112 86c0 44 -25 62 -96 86l-73 24c-108 35 -161 102 -161 189c0 124 85 208 247 208c55 0 138 -17 201 -49l-42 -111c-49 24 -116 43 -159 43c-75 0 -105 -31 -105 -79c0 -35 15 -61 70 -78l71 -23
c128 -40 189 -95 189 -198c0 -134 -97 -215 -254 -215c-84 0 -175 33 -231 65zM218 750l-111 136v10h112l63 -79l62 79h112v-10l-111 -136h-127z" />
    <glyph glyph-name="scaron" unicode="&#x161;" horiz-adv-x="468" 
d="M32 31l40 97c47 -24 102 -41 155 -41s76 16 76 47c0 29 -23 40 -66 51l-63 15c-67 16 -131 54 -131 142c0 95 75 155 200 155c73 0 124 -12 180 -35l-37 -96c-43 16 -92 29 -139 29c-51 0 -73 -15 -73 -44c0 -28 22 -38 62 -49l61 -15c77 -19 137 -59 137 -144
c0 -100 -80 -158 -203 -158c-83 0 -142 17 -199 46zM160 567l-91 136v10h112l53 -69l52 69h112v-10l-91 -136h-147z" />
    <glyph glyph-name="Tcommaaccent" unicode="&#x162;" horiz-adv-x="568" 
d="M211 -94l-4 6l37 88h-30v564h-191v116h522v-116h-192v-564h-29l-23 -45c43 -7 69 -32 69 -73c0 -59 -43 -95 -118 -95c-31 0 -56 5 -75 12l14 63c15 -5 31 -8 43 -8c23 0 35 8 35 25c0 25 -33 27 -58 27z" />
    <glyph glyph-name="tcommaaccent" unicode="&#x163;" horiz-adv-x="415" 
d="M157 -94l-4 6l33 85c-53 19 -77 61 -77 129v253h-88v73l88 30v112h135v-112h138v-103h-138v-228c0 -35 18 -55 57 -55c23 0 55 7 78 14v-110c-21 -5 -70 -15 -119 -15l-13 -30c43 -7 69 -32 69 -73c0 -59 -43 -95 -118 -95c-31 0 -56 5 -75 12l14 63c15 -5 31 -8 43 -8
c23 0 35 8 35 25c0 25 -33 27 -58 27z" />
    <glyph glyph-name="Tcaron" unicode="&#x164;" horiz-adv-x="568" 
d="M23 680h522v-116h-192v-564h-139v564h-191v116zM218 750l-111 136v10h112l63 -79l62 79h112v-10l-111 -136h-127z" />
    <glyph glyph-name="tcaron" unicode="&#x165;" horiz-adv-x="415" 
d="M109 594h135v-112h138v-103h-138v-228c0 -35 18 -55 57 -55c23 0 55 7 78 14v-110c-20 -5 -66 -15 -113 -15c-107 0 -157 44 -157 141v253h-88v73l88 30v112zM316 514v10l25 156h135v-10l-59 -156h-101z" />
    <glyph glyph-name="Tbar" unicode="&#x166;" horiz-adv-x="568" 
d="M469 308h-116v-308h-139v308h-115v106h115v150h-191v116h522v-116h-192v-150h116v-106z" />
    <glyph glyph-name="tbar" unicode="&#x167;" horiz-adv-x="416" 
d="M333 209h-88v-58c0 -35 18 -55 57 -55c23 0 55 7 78 14v-110c-20 -5 -66 -15 -113 -15c-107 0 -157 44 -157 141v83h-67v103h67v67h-88v73l88 30v112h135v-112h138v-103h-138v-67h88v-103z" />
    <glyph glyph-name="Utilde" unicode="&#x168;" horiz-adv-x="706" 
d="M71 680h139v-401c0 -100 38 -175 143 -175c104 0 143 75 143 175v401h139v-401c0 -186 -86 -294 -282 -294c-198 0 -282 109 -282 294v401zM205 761l-27 70c21 37 62 66 106 66c64 0 96 -45 149 -45c27 0 51 14 67 34l27 -68c-23 -43 -66 -67 -105 -67
c-59 0 -104 45 -150 45c-29 0 -48 -12 -67 -35z" />
    <glyph glyph-name="utilde" unicode="&#x169;" horiz-adv-x="575" 
d="M58 482h135v-290c0 -63 23 -96 82 -96c45 0 81 25 102 41v345h135v-482h-109l-18 47h-2c-27 -24 -75 -62 -150 -62c-115 0 -175 77 -175 193v304zM140 577l-27 70c21 37 62 66 106 66c64 0 96 -45 149 -45c27 0 51 14 67 34l27 -68c-23 -43 -66 -67 -105 -67
c-59 0 -104 45 -150 45c-29 0 -48 -12 -67 -35z" />
    <glyph glyph-name="Umacron" unicode="&#x16a;" horiz-adv-x="706" 
d="M71 680h139v-401c0 -100 38 -175 143 -175c104 0 143 75 143 175v401h139v-401c0 -186 -86 -294 -282 -294c-198 0 -282 109 -282 294v401zM498 759h-290v103h290v-103z" />
    <glyph glyph-name="umacron" unicode="&#x16b;" horiz-adv-x="575" 
d="M58 482h135v-290c0 -63 23 -96 82 -96c45 0 81 25 102 41v345h135v-482h-109l-18 47h-2c-27 -24 -75 -62 -150 -62c-115 0 -175 77 -175 193v304zM435 579h-290v103h290v-103z" />
    <glyph glyph-name="Ubreve" unicode="&#x16c;" horiz-adv-x="706" 
d="M71 680h139v-401c0 -100 38 -175 143 -175c104 0 143 75 143 175v401h139v-401c0 -186 -86 -294 -282 -294c-198 0 -282 109 -282 294v401zM351 858c56 0 98 7 133 34l42 -64c-35 -51 -90 -77 -175 -77c-84 0 -138 26 -173 77l42 64c35 -25 78 -34 131 -34z" />
    <glyph glyph-name="ubreve" unicode="&#x16d;" horiz-adv-x="575" 
d="M58 482h135v-290c0 -63 23 -96 82 -96c45 0 81 25 102 41v345h135v-482h-109l-18 47h-2c-27 -24 -75 -62 -150 -62c-115 0 -175 77 -175 193v304zM288 674c56 0 98 7 133 34l42 -64c-35 -51 -90 -77 -175 -77c-84 0 -138 26 -173 77l42 64c35 -25 78 -34 131 -34z" />
    <glyph glyph-name="Uring" unicode="&#x16e;" horiz-adv-x="706" 
d="M71 680h139v-401c0 -100 38 -175 143 -175c104 0 143 75 143 175v401h139v-401c0 -186 -86 -294 -282 -294c-198 0 -282 109 -282 294v401zM311 834c0 -25 17 -39 42 -39s41 14 41 39c0 24 -16 39 -41 39s-42 -15 -42 -39zM231 834c0 69 50 112 122 112s121 -43 121 -112
c0 -71 -49 -113 -121 -113s-122 42 -122 113z" />
    <glyph glyph-name="uring" unicode="&#x16f;" horiz-adv-x="575" 
d="M58 482h135v-290c0 -63 23 -96 82 -96c45 0 81 25 102 41v345h135v-482h-109l-18 47h-2c-27 -24 -75 -62 -150 -62c-115 0 -175 77 -175 193v304zM243 643c0 -25 17 -39 42 -39s41 14 41 39c0 24 -16 39 -41 39s-42 -15 -42 -39zM163 643c0 69 50 112 122 112
s121 -43 121 -112c0 -71 -49 -113 -121 -113s-122 42 -122 113z" />
    <glyph glyph-name="Uhungarumlaut" unicode="&#x170;" horiz-adv-x="706" 
d="M71 680h139v-401c0 -100 38 -175 143 -175c104 0 143 75 143 175v401h139v-401c0 -186 -86 -294 -282 -294c-198 0 -282 109 -282 294v401zM407 896v-10l-103 -136h-118v10l79 136h142zM617 896v-10l-103 -136h-118v10l79 136h142z" />
    <glyph glyph-name="uhungarumlaut" unicode="&#x171;" horiz-adv-x="575" 
d="M58 482h135v-290c0 -63 23 -96 82 -96c45 0 81 25 102 41v345h135v-482h-109l-18 47h-2c-27 -24 -75 -62 -150 -62c-115 0 -175 77 -175 193v304zM343 713v-9l-103 -137h-118v10l79 136h142zM553 713v-9l-103 -137h-118v10l79 136h142z" />
    <glyph glyph-name="Uogonek" unicode="&#x172;" horiz-adv-x="708" 
d="M377 -213c-74 0 -117 44 -117 103c0 47 23 74 55 97c-171 13 -243 119 -243 292v401h139v-401c0 -100 38 -175 143 -175c104 0 143 75 143 175v401h139v-401c0 -167 -68 -271 -224 -290c-31 -7 -47 -39 -47 -71c0 -29 14 -44 41 -44c20 0 41 9 53 18l11 -80
c-21 -13 -62 -25 -93 -25z" />
    <glyph glyph-name="uogonek" unicode="&#x173;" horiz-adv-x="575" 
d="M439 -213c-75 0 -116 44 -116 103c0 51 41 86 79 111l-17 46h-2c-27 -24 -75 -62 -150 -62c-115 0 -175 77 -175 193v304h135v-290c0 -63 23 -96 82 -96c45 0 81 25 102 41v345h135v-482c-45 -16 -85 -57 -85 -89c0 -25 14 -37 41 -37c20 0 41 9 53 18l11 -80
c-21 -13 -62 -25 -93 -25z" />
    <glyph glyph-name="Wcircumflex" unicode="&#x174;" horiz-adv-x="1014" 
d="M995 680v-10l-185 -670h-165l-137 527h-1l-137 -527h-166l-185 670v10h149l115 -530h2l141 530h162l141 -530h2l114 530h150zM572 896l111 -136v-10h-112l-63 79l-62 -79h-112v10l111 136h127z" />
    <glyph glyph-name="wcircumflex" unicode="&#x175;" horiz-adv-x="840" 
d="M822 482v-10l-144 -472h-147l-110 347h-2l-110 -347h-147l-144 472v10h135l89 -334h2l103 334h146l103 -334h2l89 334h135zM494 713l91 -136v-10h-112l-53 69l-52 -69h-112v10l91 136h147z" />
    <glyph glyph-name="Ycircumflex" unicode="&#x176;" horiz-adv-x="604" 
d="M-3 680h152l151 -280h2l151 280h152v-10l-234 -396v-274h-139v274l-235 396v10zM366 896l111 -136v-10h-112l-63 79l-62 -79h-112v10l111 136h127z" />
    <glyph glyph-name="ycircumflex" unicode="&#x177;" horiz-adv-x="530" 
d="M519 482v-10l-207 -531c-43 -108 -109 -154 -193 -154c-32 0 -56 4 -79 9v107c23 -4 51 -5 62 -5c43 0 67 14 82 53l20 54l-194 467v10h140l116 -328h3l110 328h140zM341 713l91 -136v-10h-112l-53 69l-52 -69h-112v10l91 136h147z" />
    <glyph glyph-name="Ydieresis" unicode="&#x178;" horiz-adv-x="604" 
d="M-3 680h152l151 -280h2l151 280h152v-10l-234 -396v-274h-139v274l-235 396v10zM93 819c0 43 31 74 78 74c48 0 79 -31 79 -74s-31 -74 -79 -74c-47 0 -78 31 -78 74zM354 819c0 43 31 74 78 74c48 0 79 -31 79 -74s-31 -74 -79 -74c-47 0 -78 31 -78 74z" />
    <glyph glyph-name="Zacute" unicode="&#x179;" horiz-adv-x="587" 
d="M58 680h483v-100l-333 -462v-2h333v-116h-504v100l332 462v2h-311v116zM435 896v-9l-83 -137h-128v10l59 136h152z" />
    <glyph glyph-name="zacute" unicode="&#x17a;" horiz-adv-x="472" 
d="M49 482h382v-71l-232 -306v-2h232v-103h-397v71l231 306v2h-216v103zM397 713v-9l-103 -137h-118v10l79 136h142z" />
    <glyph glyph-name="Zdotaccent" unicode="&#x17b;" horiz-adv-x="587" 
d="M58 680h483v-100l-333 -462v-2h333v-116h-504v100l332 462v2h-311v116zM226 819c0 43 31 74 78 74c48 0 79 -31 79 -74s-31 -74 -79 -74c-47 0 -78 31 -78 74z" />
    <glyph glyph-name="zdotaccent" unicode="&#x17c;" horiz-adv-x="472" 
d="M49 482h382v-71l-232 -306v-2h232v-103h-397v71l231 306v2h-216v103zM163 640c0 43 31 74 78 74c48 0 79 -31 79 -74s-31 -74 -79 -74c-47 0 -78 31 -78 74z" />
    <glyph glyph-name="Zcaron" unicode="&#x17d;" horiz-adv-x="587" 
d="M58 680h483v-100l-333 -462v-2h333v-116h-504v100l332 462v2h-311v116zM235 750l-111 136v10h112l63 -79l62 79h112v-10l-111 -136h-127z" />
    <glyph glyph-name="zcaron" unicode="&#x17e;" horiz-adv-x="472" 
d="M49 482h382v-71l-232 -306v-2h232v-103h-397v71l231 306v2h-216v103zM168 567l-91 136v10h112l53 -69l52 69h112v-10l-91 -136h-147z" />
    <glyph glyph-name="florin" unicode="&#x192;" 
d="M234 285h-90l18 101h90l26 150c19 112 82 159 182 159c27 0 69 -3 90 -7l-15 -111c-17 4 -47 7 -64 7c-36 0 -52 -10 -59 -54l-25 -144h110l-18 -101h-110l-60 -339c-20 -112 -82 -159 -182 -159c-27 0 -69 3 -89 7l15 111c17 -4 46 -7 62 -7c36 0 52 10 60 54z" />
    <glyph glyph-name="Aringacute" unicode="&#x1fa;" horiz-adv-x="666" 
d="M211 751c0 69 50 112 122 112s121 -43 121 -112c0 -36 -20 -70 -47 -89l257 -661h-153l-45 140h-266l-46 -140h-152l256 660c-27 19 -47 53 -47 90zM334 539h-3l-93 -286h189zM291 751c0 -25 17 -39 42 -39s41 14 41 39c0 24 -16 39 -41 39s-42 -15 -42 -39zM476 996v-7
l-79 -103h-122v8l56 102h145z" />
    <glyph glyph-name="aringacute" unicode="&#x1fb;" horiz-adv-x="543" 
d="M248 634c0 -25 17 -34 42 -34s41 9 41 34c0 24 -16 34 -41 34s-42 -10 -42 -34zM168 634c0 69 50 107 122 107s121 -38 121 -107c0 -71 -49 -108 -121 -108s-122 37 -122 108zM434 880v-7l-79 -103h-122v8l56 102h145zM467 302v-197c0 -15 1 -18 16 -18h35v-92
c-21 -4 -41 -7 -70 -7c-52 0 -79 20 -96 57h-2c-32 -27 -96 -60 -155 -60c-108 0 -163 64 -163 152c0 107 68 158 238 158h65v22c0 60 -53 69 -82 69c-53 0 -113 -14 -160 -35l-32 103c51 23 124 43 199 43c139 0 207 -71 207 -195zM335 208h-51c-89 0 -123 -23 -123 -59
c0 -40 23 -58 64 -58c35 0 82 13 110 33v84z" />
    <glyph glyph-name="AEacute" unicode="&#x1fc;" horiz-adv-x="958" 
d="M-19 0v10l403 670h519v-116h-317v-163h284v-116h-284v-169h320v-116h-459v140h-234l-83 -140h-149zM447 544h-3l-167 -292h170v292zM780 896v-9l-83 -137h-128v10l59 136h152z" />
    <glyph glyph-name="aeacute" unicode="&#x1fd;" horiz-adv-x="831" 
d="M788 202h-314c7 -69 45 -109 118 -109c55 0 102 13 149 30l31 -97c-48 -23 -113 -41 -190 -41c-88 0 -142 35 -183 86c-40 -43 -91 -86 -198 -86s-169 64 -169 152c0 111 83 156 216 156h90v24c0 70 -62 69 -92 69c-53 0 -106 -14 -153 -35l-32 103c51 23 117 43 192 43
c72 0 127 -24 163 -65c36 37 91 65 159 65c156 0 220 -95 220 -208c0 -31 -4 -70 -7 -87zM472 286h199c1 5 1 10 1 15c0 54 -23 98 -98 98c-68 0 -99 -55 -102 -113zM340 206h-88c-66 0 -94 -21 -94 -60c0 -37 22 -57 63 -57c60 0 119 46 119 117zM588 713v-9l-103 -137
h-118v10l79 136h142z" />
    <glyph glyph-name="Oslashacute" unicode="&#x1fe;" horiz-adv-x="749" 
d="M173 -32l-78 51l40 59c-60 64 -88 157 -88 262c0 198 101 355 328 355c63 0 114 -12 158 -33l35 53l77 -52l-38 -55c64 -65 95 -160 95 -268c0 -198 -102 -355 -327 -355c-67 0 -122 14 -167 37zM557 340c0 59 -10 110 -31 150l-247 -363c27 -15 57 -23 96 -23
c134 0 182 102 182 236zM192 340c0 -55 6 -102 25 -141l244 358c-23 12 -51 19 -86 19c-135 0 -183 -102 -183 -236zM519 896v-9l-83 -137h-128v10l59 136h152z" />
    <glyph glyph-name="oslashacute" unicode="&#x1ff;" horiz-adv-x="583" 
d="M125 -34l-67 57l36 45c-39 47 -57 106 -57 173c0 140 89 256 254 256c49 0 92 -9 127 -28l35 44l69 -54l-35 -44c39 -47 59 -106 59 -174c0 -140 -87 -256 -255 -256c-51 0 -93 10 -129 29zM415 246c0 27 -3 51 -10 70l-176 -217c17 -7 36 -11 58 -11
c78 0 128 52 128 158zM168 236c0 -27 2 -49 9 -68l174 215c-16 7 -35 11 -56 11c-77 0 -127 -52 -127 -158zM452 713v-9l-103 -137h-118v10l79 136h142z" />
    <glyph glyph-name="Scommaaccent" unicode="&#x218;" horiz-adv-x="561" 
d="M38 50l43 109c42 -26 126 -57 188 -57c75 0 112 29 112 86c0 44 -25 62 -96 86l-73 24c-108 35 -161 102 -161 189c0 124 85 208 247 208c55 0 138 -17 201 -49l-42 -111c-49 24 -116 43 -159 43c-75 0 -105 -31 -105 -79c0 -35 15 -61 70 -78l71 -23
c128 -40 189 -95 189 -198c0 -134 -97 -215 -254 -215c-84 0 -175 33 -231 65zM194 -218v10l25 156h135v-10l-59 -156h-101z" />
    <glyph glyph-name="scommaaccent" unicode="&#x219;" horiz-adv-x="468" 
d="M32 31l40 97c47 -24 102 -41 155 -41s76 16 76 47c0 29 -23 40 -66 51l-63 15c-67 16 -131 54 -131 142c0 95 75 155 200 155c73 0 124 -12 180 -35l-37 -96c-43 16 -92 29 -139 29c-51 0 -73 -15 -73 -44c0 -28 22 -38 62 -49l61 -15c77 -19 137 -59 137 -144
c0 -100 -80 -158 -203 -158c-83 0 -142 17 -199 46zM154 -218v10l25 156h135v-10l-59 -156h-101z" />
    <glyph glyph-name="uni021A" unicode="&#x21a;" horiz-adv-x="568" 
d="M23 680h522v-116h-192v-564h-139v564h-191v116zM189 -218v10l25 156h135v-10l-59 -156h-101z" />
    <glyph glyph-name="uni021B" unicode="&#x21b;" horiz-adv-x="415" 
d="M109 594h135v-112h138v-103h-138v-228c0 -35 18 -55 57 -55c23 0 55 7 78 14v-110c-20 -5 -66 -15 -113 -15c-107 0 -157 44 -157 141v253h-88v73l88 30v112zM137 -218v10l25 156h135v-10l-59 -156h-101z" />
    <glyph glyph-name="dotlessj" unicode="&#x237;" horiz-adv-x="261" 
d="M63 482h135v-513c0 -125 -58 -182 -173 -182c-21 0 -49 3 -70 7v109c17 -4 34 -5 53 -5c39 0 55 19 55 63v521z" />
    <glyph glyph-name="circumflex" unicode="&#x2c6;" 
d="M368 713l91 -136v-10h-112l-53 69l-52 -69h-112v10l91 136h147z" />
    <glyph glyph-name="caron" unicode="&#x2c7;" 
d="M221 567l-91 136v10h112l53 -69l52 69h112v-10l-91 -136h-147z" />
    <glyph glyph-name="uni02C9" unicode="&#x2c9;" 
d="M440 589h-290v103h290v-103z" />
    <glyph glyph-name="breve" unicode="&#x2d8;" 
d="M294 674c56 0 98 7 133 34l42 -64c-35 -51 -90 -77 -175 -77c-84 0 -138 26 -173 77l42 64c35 -25 78 -34 131 -34z" />
    <glyph glyph-name="dotaccent" unicode="&#x2d9;" 
d="M217 640c0 43 31 74 78 74c48 0 79 -31 79 -74s-31 -74 -79 -74c-47 0 -78 31 -78 74z" />
    <glyph glyph-name="ring" unicode="&#x2da;" 
d="M253 643c0 -25 17 -39 42 -39s41 14 41 39c0 24 -16 39 -41 39s-42 -15 -42 -39zM173 643c0 69 50 112 122 112s121 -43 121 -112c0 -71 -49 -113 -121 -113s-122 42 -122 113z" />
    <glyph glyph-name="ogonek" unicode="&#x2db;" 
d="M306 -213c-75 0 -116 44 -116 103c0 75 69 116 126 140l48 -24c-31 -13 -70 -60 -70 -92c0 -31 14 -40 41 -40c20 0 41 9 53 18l11 -80c-21 -13 -62 -25 -93 -25z" />
    <glyph glyph-name="tilde" unicode="&#x2dc;" 
d="M147 577l-27 70c21 37 62 66 106 66c64 0 96 -45 149 -45c27 0 51 14 67 34l27 -68c-23 -43 -66 -67 -105 -67c-59 0 -104 45 -150 45c-29 0 -48 -12 -67 -35z" />
    <glyph glyph-name="hungarumlaut" unicode="&#x2dd;" 
d="M300 713v-9l-103 -137h-118v10l79 136h142zM510 713v-9l-103 -137h-118v10l79 136h142z" />
    <glyph glyph-name="tonos" unicode="&#x384;" 
d="M411 725v-9l-56 -157h-116v10l32 156h140z" />
    <glyph glyph-name="dieresistonos" unicode="&#x385;" 
d="M59 606c0 43 31 74 78 74c48 0 79 -31 79 -74s-31 -74 -79 -74c-47 0 -78 31 -78 74zM414 606c0 43 31 74 78 74c48 0 79 -31 79 -74s-31 -74 -79 -74c-47 0 -78 31 -78 74zM405 710v-9l-53 -167h-113v10l29 166h137z" />
    <glyph glyph-name="Alphatonos" unicode="&#x386;" horiz-adv-x="709" 
d="M456 680l250 -680h-153l-45 140h-266l-46 -140h-152l250 680h162zM376 538h-3l-93 -286h189zM211 680v-9l-53 -157h-118v10l29 156h142z" />
    <glyph glyph-name="anoteleia" unicode="&#x387;" horiz-adv-x="278" 
d="M54 291c0 51 33 86 85 86s85 -35 85 -86s-33 -86 -85 -86s-85 35 -85 86z" />
    <glyph glyph-name="Epsilontonos" unicode="&#x388;" horiz-adv-x="725" 
d="M214 680h456v-116h-317v-163h284v-116h-284v-169h320v-116h-459v680zM178 680v-9l-53 -157h-118v10l29 156h142z" />
    <glyph glyph-name="Etatonos" unicode="&#x389;" horiz-adv-x="857" 
d="M639 0v285h-286v-285h-139v680h139v-279h286v279h139v-680h-139zM178 680v-9l-53 -157h-118v10l29 156h142z" />
    <glyph glyph-name="Iotatonos" unicode="&#x38a;" horiz-adv-x="432" 
d="M353 680v-680h-139v680h139zM178 680v-9l-53 -157h-118v10l29 156h142z" />
    <glyph glyph-name="Omicrontonos" unicode="&#x38c;" horiz-adv-x="858" 
d="M301 340c0 -134 48 -236 183 -236c134 0 182 102 182 236s-48 236 -182 236c-135 0 -183 -102 -183 -236zM811 340c0 -198 -102 -355 -327 -355c-227 0 -328 157 -328 355s101 355 328 355c225 0 327 -157 327 -355zM182 680v-9l-53 -157h-118v10l29 156h142z" />
    <glyph glyph-name="Upsilontonos" unicode="&#x38e;" horiz-adv-x="841" 
d="M234 680h152l151 -280h2l151 280h152v-10l-234 -396v-274h-139v274l-235 396v10zM190 680v-9l-53 -157h-118v10l29 156h142z" />
    <glyph glyph-name="Omegatonos" unicode="&#x38f;" horiz-adv-x="883" 
d="M165 0v116h142c-72 40 -138 128 -138 268c0 154 101 311 328 311c225 0 328 -157 328 -311c0 -138 -66 -227 -139 -268h142v-116h-288v102c82 53 139 125 139 263c0 109 -48 211 -182 211c-135 0 -183 -102 -183 -211c0 -138 57 -210 139 -263v-102h-288zM184 680v-9
l-53 -157h-118v10l29 156h142z" />
    <glyph glyph-name="iotadieresistonos" unicode="&#x390;" horiz-adv-x="303" 
d="M64 482h135v-339c0 -31 14 -47 43 -47c12 0 27 2 43 7v-110c-19 -4 -50 -8 -82 -8c-89 0 -139 46 -139 146v351zM-106 606c0 43 31 74 78 74c48 0 79 -31 79 -74s-31 -74 -79 -74c-47 0 -78 31 -78 74zM249 606c0 43 31 74 78 74c48 0 79 -31 79 -74s-31 -74 -79 -74
c-47 0 -78 31 -78 74zM240 710v-9l-53 -167h-113v10l29 166h137z" />
    <glyph glyph-name="Alpha" unicode="&#x391;" horiz-adv-x="668" 
d="M415 680l250 -680h-153l-45 140h-266l-46 -140h-152l250 680h162zM335 538h-3l-93 -286h189z" />
    <glyph glyph-name="Beta" unicode="&#x392;" horiz-adv-x="652" 
d="M218 294v-178h129c84 0 117 27 117 88s-32 90 -123 90h-123zM79 680h249c165 0 252 -55 252 -184c0 -73 -40 -120 -88 -141v-2c73 -25 117 -75 117 -159c0 -128 -74 -194 -250 -194h-280v680zM218 564v-160h104c80 0 113 19 113 79c0 61 -30 81 -115 81h-102z" />
    <glyph glyph-name="Gamma" unicode="&#x393;" horiz-adv-x="533" 
d="M218 0h-139v680h432v-116h-293v-564z" />
    <glyph glyph-name="uni0394" unicode="&#x394;" horiz-adv-x="666" 
d="M662 5v-5h-658v5l248 675h162zM334 538h-3l-145 -422h295z" />
    <glyph glyph-name="Epsilon" unicode="&#x395;" 
d="M79 680h456v-116h-317v-163h284v-116h-284v-169h320v-116h-459v680z" />
    <glyph glyph-name="Zeta" unicode="&#x396;" horiz-adv-x="587" 
d="M58 680h483v-100l-333 -462v-2h333v-116h-504v100l332 462v2h-311v116z" />
    <glyph glyph-name="Eta" unicode="&#x397;" horiz-adv-x="722" 
d="M504 0v285h-286v-285h-139v680h139v-279h286v279h139v-680h-139z" />
    <glyph glyph-name="Theta" unicode="&#x398;" horiz-adv-x="748" 
d="M492 285h-240v116h240v-116zM192 340c0 -134 48 -236 183 -236c134 0 182 102 182 236s-48 236 -182 236c-135 0 -183 -102 -183 -236zM702 340c0 -198 -102 -355 -327 -355c-227 0 -328 157 -328 355s101 355 328 355c225 0 327 -157 327 -355z" />
    <glyph glyph-name="Iota" unicode="&#x399;" horiz-adv-x="297" 
d="M218 680v-680h-139v680h139z" />
    <glyph glyph-name="Kappa" unicode="&#x39a;" horiz-adv-x="643" 
d="M220 304h-2v-304h-139v680h139v-329h2l248 329h154v-10l-260 -337l273 -323v-10h-162z" />
    <glyph glyph-name="Lambda" unicode="&#x39b;" horiz-adv-x="650" 
d="M323 523l-167 -523h-152l240 680h162l240 -680h-153l-167 523h-3z" />
    <glyph glyph-name="Mu" unicode="&#x39c;" horiz-adv-x="842" 
d="M420 316h2l207 364h134v-680h-139v442h-2l-146 -271h-110l-146 271h-2v-442h-139v680h134z" />
    <glyph glyph-name="Nu" unicode="&#x39d;" horiz-adv-x="736" 
d="M515 211h3v469h139v-680h-147l-289 469h-3v-469h-139v680h147z" />
    <glyph glyph-name="Xi" unicode="&#x39e;" horiz-adv-x="587" 
d="M54 124h479v-124h-479v124zM497 281h-410v124h410v-124zM530 556h-476v124h476v-124z" />
    <glyph glyph-name="Omicron" unicode="&#x39f;" horiz-adv-x="749" 
d="M192 340c0 -134 48 -236 183 -236c134 0 182 102 182 236s-48 236 -182 236c-135 0 -183 -102 -183 -236zM702 340c0 -198 -102 -355 -327 -355c-227 0 -328 157 -328 355s101 355 328 355c225 0 327 -157 327 -355z" />
    <glyph glyph-name="Pi" unicode="&#x3a0;" horiz-adv-x="722" 
d="M504 0v564h-286v-564h-139v680h564v-680h-139z" />
    <glyph glyph-name="Rho" unicode="&#x3a1;" horiz-adv-x="596" 
d="M218 0h-139v680h259c165 0 229 -95 229 -225c0 -131 -66 -226 -229 -226h-120v-229zM218 564v-219h110c68 0 94 46 94 110s-26 109 -94 109h-110z" />
    <glyph glyph-name="Sigma" unicode="&#x3a3;" horiz-adv-x="599" 
d="M40 0v103l174 243l-158 230v104h494v-116h-338l153 -214l-170 -234h355v-116h-510z" />
    <glyph glyph-name="Tau" unicode="&#x3a4;" horiz-adv-x="568" 
d="M23 680h522v-116h-192v-564h-139v564h-191v116z" />
    <glyph glyph-name="Upsilon" unicode="&#x3a5;" horiz-adv-x="604" 
d="M-3 680h152l151 -280h2l151 280h152v-10l-234 -396v-274h-139v274l-235 396v10z" />
    <glyph glyph-name="Phi" unicode="&#x3a6;" horiz-adv-x="820" 
d="M481 680v-60c221 -19 306 -131 306 -280s-85 -261 -306 -280v-60h-139v59c-224 19 -310 130 -310 281c0 150 86 261 310 280v60h139zM177 340c0 -91 36 -160 165 -176v352c-129 -16 -165 -87 -165 -176zM642 340c0 90 -36 159 -161 175v-351c125 19 161 85 161 176z" />
    <glyph glyph-name="Chi" unicode="&#x3a7;" horiz-adv-x="624" 
d="M21 680h151l139 -256h2l140 256h150v-10l-192 -329l192 -331v-10h-152l-138 257h-2l-138 -257h-152v10l191 331l-191 329v10z" />
    <glyph glyph-name="Psi" unicode="&#x3a8;" horiz-adv-x="762" 
d="M451 680v-411c89 5 123 51 123 163v248h139v-248c0 -179 -78 -274 -262 -282v-150h-139v150c-185 5 -263 104 -263 282v248h139v-248c0 -113 33 -158 124 -163v411h139z" />
    <glyph glyph-name="uni03A9" unicode="&#x3a9;" horiz-adv-x="771" 
d="M54 0v116h142c-72 40 -138 128 -138 268c0 154 101 311 328 311c225 0 328 -157 328 -311c0 -138 -66 -227 -139 -268h142v-116h-288v102c82 53 139 125 139 263c0 109 -48 211 -182 211c-135 0 -183 -102 -183 -211c0 -138 57 -210 139 -263v-102h-288z" />
    <glyph glyph-name="Iotadieresis" unicode="&#x3aa;" horiz-adv-x="297" 
d="M218 680v-680h-139v680h139zM-62 819c0 43 31 74 78 74c48 0 79 -31 79 -74s-31 -74 -79 -74c-47 0 -78 31 -78 74zM199 819c0 43 31 74 78 74c48 0 79 -31 79 -74s-31 -74 -79 -74c-47 0 -78 31 -78 74z" />
    <glyph glyph-name="Upsilondieresis" unicode="&#x3ab;" horiz-adv-x="604" 
d="M-3 680h152l151 -280h2l151 280h152v-10l-234 -396v-274h-139v274l-235 396v10zM93 819c0 43 31 74 78 74c48 0 79 -31 79 -74s-31 -74 -79 -74c-47 0 -78 31 -78 74zM354 819c0 43 31 74 78 74c48 0 79 -31 79 -74s-31 -74 -79 -74c-47 0 -78 31 -78 74z" />
    <glyph glyph-name="alphatonos" unicode="&#x3ac;" horiz-adv-x="621" 
d="M516 242l68 -242h-135l-14 83h-2c-21 -45 -74 -98 -165 -98c-136 0 -230 100 -230 256s94 256 230 256c91 0 144 -53 165 -98h2l14 83h135zM396 241c-24 86 -64 145 -119 145c-60 0 -101 -54 -101 -145s41 -145 101 -145c55 0 95 59 119 145zM430 725v-9l-56 -157h-116
v10l32 156h140z" />
    <glyph glyph-name="epsilontonos" unicode="&#x3ad;" horiz-adv-x="495" 
d="M385 294v-103h-136c-51 0 -73 -14 -73 -45s27 -50 99 -50c57 0 126 12 170 31l23 -105c-49 -21 -114 -37 -193 -37c-171 0 -237 59 -237 144c0 64 31 103 87 122v2c-43 16 -70 49 -70 106c0 87 64 140 221 140c60 0 129 -14 178 -33l-26 -103c-45 15 -109 25 -153 25
c-64 0 -83 -20 -83 -48c0 -29 18 -46 65 -46h128zM405 725v-9l-56 -157h-116v10l32 156h140z" />
    <glyph glyph-name="etatonos" unicode="&#x3ae;" horiz-adv-x="581" 
d="M63 482h108l18 -47h2c28 25 78 62 154 62c113 0 178 -77 178 -193v-502h-135v488c0 63 -27 96 -86 96c-46 0 -83 -25 -104 -41v-345h-135v482zM433 725v-9l-56 -157h-116v10l32 156h140z" />
    <glyph glyph-name="iotatonos" unicode="&#x3af;" horiz-adv-x="303" 
d="M64 482h135v-339c0 -31 14 -47 43 -47c12 0 27 2 43 7v-110c-19 -4 -50 -8 -82 -8c-89 0 -139 46 -139 146v351zM249 725v-9l-56 -157h-116v10l32 156h140z" />
    <glyph glyph-name="upsilondieresistonos" unicode="&#x3b0;" horiz-adv-x="565" 
d="M192 482v-269c0 -79 30 -117 97 -117c57 0 97 43 97 143c0 80 -18 159 -43 243h138c21 -75 40 -143 40 -243c0 -177 -87 -254 -232 -254c-153 0 -232 81 -232 213v284h135zM380 725v-9l-56 -157h-116v10l32 156h140z" />
    <glyph glyph-name="alpha" unicode="&#x3b1;" horiz-adv-x="621" 
d="M516 242l68 -242h-135l-14 83h-2c-21 -45 -74 -98 -165 -98c-136 0 -230 100 -230 256s94 256 230 256c91 0 144 -53 165 -98h2l14 83h135zM396 241c-24 86 -64 145 -119 145c-60 0 -101 -54 -101 -145s41 -145 101 -145c55 0 95 59 119 145z" />
    <glyph glyph-name="beta" unicode="&#x3b2;" horiz-adv-x="587" 
d="M200 23h-2v-221h-135v671c0 161 79 232 231 232c129 0 205 -78 205 -191c0 -73 -46 -122 -89 -141v-2c66 -18 141 -75 141 -176c0 -144 -100 -210 -224 -210c-52 0 -98 15 -127 38zM198 476v-349c21 -19 57 -31 104 -31c72 0 111 34 111 109c0 64 -42 105 -133 105h-30
v103h29c51 0 82 31 82 92c0 49 -25 89 -80 89c-51 0 -83 -26 -83 -118z" />
    <glyph glyph-name="gamma" unicode="&#x3b3;" horiz-adv-x="534" 
d="M327 -198h-135v201l-180 469v10h136l111 -345h2c59 112 97 211 121 345h136v-10c-31 -149 -99 -307 -191 -474v-196z" />
    <glyph glyph-name="delta" unicode="&#x3b4;" horiz-adv-x="580" 
d="M436 696v-111c-19 4 -55 9 -78 9c-36 0 -78 -9 -78 -45c0 -72 265 -131 265 -338c0 -109 -88 -226 -260 -226c-160 0 -249 116 -249 232c0 115 66 189 161 236c-27 27 -52 59 -52 100c0 105 93 152 192 152c28 0 78 -6 99 -9zM407 211c0 84 -61 131 -125 176
c-62 -41 -108 -92 -108 -172c0 -71 46 -119 111 -119c76 0 122 48 122 115z" />
    <glyph glyph-name="epsilon" unicode="&#x3b5;" horiz-adv-x="495" 
d="M385 294v-103h-136c-51 0 -73 -14 -73 -45s27 -50 99 -50c57 0 126 12 170 31l23 -105c-49 -21 -114 -37 -193 -37c-171 0 -237 59 -237 144c0 64 31 103 87 122v2c-43 16 -70 49 -70 106c0 87 64 140 221 140c60 0 129 -14 178 -33l-26 -103c-45 15 -109 25 -153 25
c-64 0 -83 -20 -83 -48c0 -29 18 -46 65 -46h128z" />
    <glyph glyph-name="zeta" unicode="&#x3b6;" horiz-adv-x="466" 
d="M53 700h402v-87c-210 -237 -285 -318 -285 -386c0 -133 252 -90 252 -269c0 -57 -40 -109 -88 -144l-91 64c24 19 41 44 41 64c0 91 -252 74 -252 267c0 119 95 204 255 386v2h-234v103z" />
    <glyph glyph-name="eta" unicode="&#x3b7;" horiz-adv-x="581" 
d="M63 482h108l18 -47h2c28 25 78 62 154 62c113 0 178 -77 178 -193v-502h-135v488c0 63 -27 96 -86 96c-46 0 -83 -25 -104 -41v-345h-135v482z" />
    <glyph glyph-name="theta" unicode="&#x3b8;" horiz-adv-x="587" 
d="M542 345c0 -219 -66 -360 -248 -360c-183 0 -250 141 -250 360s67 360 250 360c182 0 248 -141 248 -360zM294 594c-74 0 -110 -74 -115 -201h228c-5 127 -39 201 -113 201zM294 96c73 0 107 72 112 198h-227c8 -126 39 -198 115 -198z" />
    <glyph glyph-name="iota" unicode="&#x3b9;" horiz-adv-x="303" 
d="M64 482h135v-339c0 -31 14 -47 43 -47c12 0 27 2 43 7v-110c-19 -4 -50 -8 -82 -8c-89 0 -139 46 -139 146v351z" />
    <glyph glyph-name="kappa" unicode="&#x3ba;" horiz-adv-x="534" 
d="M198 211h-2v-211h-133v482h133v-230h2l171 230h145v-7l-188 -237l197 -231v-7h-149z" />
    <glyph glyph-name="lambda" unicode="&#x3bb;" horiz-adv-x="531" 
d="M519 10v-10h-140l-110 328h-3l-116 -328h-140v10l194 467l-26 71c-12 32 -27 46 -59 46c-11 0 -29 -2 -42 -5v107c15 4 27 9 66 9c66 0 120 -31 149 -111z" />
    <glyph glyph-name="uni03BC" unicode="&#x3bc;" horiz-adv-x="580" 
d="M198 -198h-135v680h135v-290c0 -63 23 -96 82 -96c45 0 81 25 102 41v345h135v-482h-109l-18 47h-2c-27 -25 -75 -62 -133 -62c-21 0 -44 7 -57 16v-199z" />
    <glyph glyph-name="nu" unicode="&#x3bd;" horiz-adv-x="536" 
d="M519 482v-10c-31 -152 -90 -303 -185 -472h-146l-175 472v10h136l111 -345h2c59 112 97 211 121 345h136z" />
    <glyph glyph-name="xi" unicode="&#x3be;" horiz-adv-x="484" 
d="M127 595v2h-104v103h437v-103h-137c-87 0 -127 -39 -127 -98c0 -61 39 -101 128 -101h76v-103h-74c-109 0 -150 -30 -150 -92c0 -123 280 -72 280 -242c0 -57 -42 -112 -93 -147l-91 64c23 18 46 44 46 64c0 90 -280 54 -280 247c0 89 54 140 129 164v2
c-52 16 -109 63 -109 132c0 48 26 88 69 108z" />
    <glyph glyph-name="omicron" unicode="&#x3bf;" horiz-adv-x="583" 
d="M175 241c0 -97 47 -145 116 -145c71 0 117 48 117 145s-46 145 -117 145c-69 0 -116 -48 -116 -145zM546 241c0 -140 -87 -256 -255 -256c-165 0 -254 116 -254 256s89 256 254 256c168 0 255 -116 255 -256z" />
    <glyph glyph-name="pi" unicode="&#x3c0;" horiz-adv-x="620" 
d="M2 482h603v-103h-96v-236c0 -31 14 -47 43 -47c12 0 27 2 43 7v-110c-19 -4 -50 -8 -82 -8c-89 0 -139 46 -139 146v248h-139v-379h-135v379h-98v103z" />
    <glyph glyph-name="rho" unicode="&#x3c1;" horiz-adv-x="581" 
d="M191 267v-137c21 -19 60 -34 97 -34c86 0 117 59 117 145s-31 145 -117 145c-60 0 -97 -43 -97 -119zM191 -198h-135v462c0 160 99 233 232 233c178 0 255 -116 255 -256s-77 -256 -224 -256c-59 0 -99 20 -126 45h-2v-228z" />
    <glyph glyph-name="sigma1" unicode="&#x3c2;" horiz-adv-x="465" 
d="M444 468l-27 -103c-28 11 -61 21 -108 21c-72 0 -132 -40 -132 -152c0 -140 246 -89 246 -273c0 -57 -40 -112 -88 -147l-91 64c24 19 41 44 41 64c0 88 -247 53 -247 298c0 156 92 257 256 257c59 0 118 -17 150 -29z" />
    <glyph glyph-name="sigma" unicode="&#x3c3;" horiz-adv-x="601" 
d="M473 379v-2c47 -29 73 -97 73 -162c0 -117 -87 -230 -255 -230c-165 0 -254 112 -254 249s89 248 254 248h277v-103h-95zM175 234c0 -93 47 -138 116 -138c71 0 117 45 117 138c0 94 -46 137 -117 137c-69 0 -116 -43 -116 -137z" />
    <glyph glyph-name="tau" unicode="&#x3c4;" horiz-adv-x="487" 
d="M20 482h437v-103h-162v-228c0 -35 8 -55 47 -55c23 0 55 7 78 14v-110c-20 -5 -66 -15 -113 -15c-107 0 -147 44 -147 141v253h-140v103z" />
    <glyph glyph-name="upsilon" unicode="&#x3c5;" horiz-adv-x="565" 
d="M192 482v-269c0 -79 30 -117 97 -117c57 0 97 43 97 143c0 80 -18 159 -43 243h138c21 -75 40 -143 40 -243c0 -177 -87 -254 -232 -254c-153 0 -232 81 -232 213v284h135z" />
    <glyph glyph-name="phi" unicode="&#x3c6;" horiz-adv-x="724" 
d="M96 482h139c-37 -80 -59 -163 -59 -237c0 -86 31 -135 116 -148v183c0 145 65 217 188 217c151 0 206 -133 206 -241c0 -140 -73 -242 -259 -263v-191h-135v189c-182 19 -251 122 -251 254c0 94 25 164 55 237zM427 268v-170c88 16 121 64 121 158c0 69 -21 130 -65 130
c-40 0 -56 -33 -56 -118z" />
    <glyph glyph-name="chi" unicode="&#x3c7;" horiz-adv-x="531" 
d="M8 482h140l118 -246h1l119 246h139v-10l-173 -329l173 -331v-10h-141l-117 247h-1l-117 -247h-141v10l172 331l-172 329v10z" />
    <glyph glyph-name="psi" unicode="&#x3c8;" horiz-adv-x="740" 
d="M440 700v-607c64 0 123 45 123 146c0 80 -21 159 -48 243h139c24 -75 44 -143 44 -243c0 -176 -97 -251 -258 -251v-186h-135v186c-164 0 -248 79 -248 210v284h135v-274c0 -87 41 -115 113 -115v607h135z" />
    <glyph glyph-name="omega" unicode="&#x3c9;" horiz-adv-x="825" 
d="M567 482h144c37 -75 73 -143 73 -243c0 -177 -83 -254 -220 -254c-75 0 -124 47 -151 99h-2c-25 -52 -76 -99 -151 -99c-137 0 -219 77 -219 254c0 100 36 168 73 243h144v-10c-49 -80 -82 -154 -82 -233c0 -100 35 -143 84 -143c51 0 85 38 85 117v146h135v-152
c0 -75 36 -111 84 -111c51 0 85 43 85 143c0 79 -33 153 -82 233v10z" />
    <glyph glyph-name="iotadieresis" unicode="&#x3ca;" horiz-adv-x="303" 
d="M64 482h135v-339c0 -31 14 -47 43 -47c12 0 27 2 43 7v-110c-19 -4 -50 -8 -82 -8c-89 0 -139 46 -139 146v351zM-54 640c0 43 31 74 78 74c48 0 79 -31 79 -74s-31 -74 -79 -74c-47 0 -78 31 -78 74zM166 640c0 43 31 74 78 74c48 0 79 -31 79 -74s-31 -74 -79 -74
c-47 0 -78 31 -78 74z" />
    <glyph glyph-name="upsilondieresis" unicode="&#x3cb;" horiz-adv-x="565" 
d="M192 482v-269c0 -79 30 -117 97 -117c57 0 97 43 97 143c0 80 -18 159 -43 243h138c21 -75 40 -143 40 -243c0 -177 -87 -254 -232 -254c-153 0 -232 81 -232 213v284h135zM89 640c0 43 31 74 78 74c48 0 79 -31 79 -74s-31 -74 -79 -74c-47 0 -78 31 -78 74zM309 640
c0 43 31 74 78 74c48 0 79 -31 79 -74s-31 -74 -79 -74c-47 0 -78 31 -78 74z" />
    <glyph glyph-name="omicrontonos" unicode="&#x3cc;" horiz-adv-x="583" 
d="M175 241c0 -97 47 -145 116 -145c71 0 117 48 117 145s-46 145 -117 145c-69 0 -116 -48 -116 -145zM546 241c0 -140 -87 -256 -255 -256c-165 0 -254 116 -254 256s89 256 254 256c168 0 255 -116 255 -256zM413 725v-9l-56 -157h-116v10l32 156h140z" />
    <glyph glyph-name="upsilontonos" unicode="&#x3cd;" horiz-adv-x="565" 
d="M192 482v-269c0 -79 30 -117 97 -117c57 0 97 43 97 143c0 80 -18 159 -43 243h138c21 -75 40 -143 40 -243c0 -177 -87 -254 -232 -254c-153 0 -232 81 -232 213v284h135zM392 725v-9l-56 -157h-116v10l32 156h140z" />
    <glyph glyph-name="omegatonos" unicode="&#x3ce;" horiz-adv-x="825" 
d="M567 482h144c37 -75 73 -143 73 -243c0 -177 -83 -254 -220 -254c-75 0 -124 47 -151 99h-2c-25 -52 -76 -99 -151 -99c-137 0 -219 77 -219 254c0 100 36 168 73 243h144v-10c-49 -80 -82 -154 -82 -233c0 -100 35 -143 84 -143c51 0 85 38 85 117v146h135v-152
c0 -75 36 -111 84 -111c51 0 85 43 85 143c0 79 -33 153 -82 233v10zM535 725v-9l-56 -157h-116v10l32 156h140z" />
    <glyph glyph-name="uni0400" unicode="&#x400;" 
d="M79 680h456v-116h-317v-163h284v-116h-284v-169h320v-116h-459v680zM169 887v9h152l59 -136v-10h-128z" />
    <glyph glyph-name="uni0401" unicode="&#x401;" 
d="M79 680h456v-116h-317v-163h284v-116h-284v-169h320v-116h-459v680zM96 819c0 43 31 74 78 74c48 0 79 -31 79 -74s-31 -74 -79 -74c-47 0 -78 31 -78 74zM357 819c0 43 31 74 78 74c48 0 79 -31 79 -74s-31 -74 -79 -74c-47 0 -78 31 -78 74z" />
    <glyph glyph-name="uni0402" unicode="&#x402;" horiz-adv-x="707" 
d="M514 -140l-104 77c56 64 124 162 124 255c0 62 -27 114 -112 114c-43 0 -84 -8 -124 -19v-287h-139v564h-137v116h472v-116h-196v-161c39 11 92 19 145 19c156 0 236 -95 236 -230c0 -138 -103 -262 -165 -332z" />
    <glyph glyph-name="uni0403" unicode="&#x403;" horiz-adv-x="557" 
d="M79 680h456v-116h-317v-564h-139v680zM452 896v-9l-83 -137h-128v10l59 136h152z" />
    <glyph glyph-name="uni0404" unicode="&#x404;" horiz-adv-x="604" 
d="M46 340c0 212 117 355 331 355c63 0 130 -15 193 -44l-37 -110c-57 25 -100 35 -156 35c-104 0 -166 -70 -182 -178h267v-116h-267c16 -109 78 -178 182 -178c56 0 99 10 156 35l37 -110c-63 -29 -130 -44 -193 -44c-214 0 -331 143 -331 355z" />
    <glyph glyph-name="uni0405" unicode="&#x405;" horiz-adv-x="561" 
d="M38 50l43 109c42 -26 126 -57 188 -57c75 0 112 29 112 86c0 44 -25 62 -96 86l-73 24c-108 35 -161 102 -161 189c0 124 85 208 247 208c55 0 138 -17 201 -49l-42 -111c-49 24 -116 43 -159 43c-75 0 -105 -31 -105 -79c0 -35 15 -61 70 -78l71 -23
c128 -40 189 -95 189 -198c0 -134 -97 -215 -254 -215c-84 0 -175 33 -231 65z" />
    <glyph glyph-name="uni0406" unicode="&#x406;" horiz-adv-x="297" 
d="M218 680v-680h-139v680h139z" />
    <glyph glyph-name="uni0407" unicode="&#x407;" horiz-adv-x="297" 
d="M218 680v-680h-139v680h139zM-62 819c0 43 31 74 78 74c48 0 79 -31 79 -74s-31 -74 -79 -74c-47 0 -78 31 -78 74zM199 819c0 43 31 74 78 74c48 0 79 -31 79 -74s-31 -74 -79 -74c-47 0 -78 31 -78 74z" />
    <glyph glyph-name="uni0408" unicode="&#x408;" horiz-adv-x="482" 
d="M7 56l63 100c31 -28 61 -52 114 -52c63 0 85 52 85 112v464h139v-473c0 -148 -84 -222 -224 -222c-81 0 -137 35 -177 71z" />
    <glyph glyph-name="uni0409" unicode="&#x409;" horiz-adv-x="1009" 
d="M151 680h445v-250h141c157 0 237 -75 237 -216c0 -139 -80 -214 -237 -214h-280v564h-177l-13 -208c-20 -320 -95 -366 -256 -366v119c72 0 115 21 126 255zM596 314v-198h131c72 0 102 37 102 98c0 63 -29 100 -102 100h-131z" />
    <glyph glyph-name="uni040A" unicode="&#x40a;" horiz-adv-x="1027" 
d="M475 680h139v-250h141c157 0 237 -75 237 -216c0 -139 -80 -214 -237 -214h-280v314h-257v-314h-139v680h139v-250h257v250zM614 314v-198h131c72 0 102 37 102 98c0 63 -29 100 -102 100h-131z" />
    <glyph glyph-name="uni040B" unicode="&#x40b;" horiz-adv-x="721" 
d="M676 0h-139v255c0 61 -30 95 -105 95c-57 0 -107 -15 -134 -26v-324h-139v564h-137v116h472v-116h-196v-126c40 15 97 29 173 29c129 0 205 -78 205 -194v-273z" />
    <glyph glyph-name="uni040C" unicode="&#x40c;" horiz-adv-x="643" 
d="M220 304h-2v-304h-139v680h139v-329h2l248 329h154v-10l-260 -337l273 -323v-10h-162zM477 896v-9l-83 -137h-128v10l59 136h152z" />
    <glyph glyph-name="uni040D" unicode="&#x40d;" horiz-adv-x="726" 
d="M218 201h3l269 479h157v-680h-139v479h-3l-269 -479h-157v680h139v-479zM219 887v9h152l59 -136v-10h-128z" />
    <glyph glyph-name="uni040E" unicode="&#x40e;" horiz-adv-x="569" 
d="M567 680v-10l-212 -505c-56 -133 -114 -165 -239 -165h-42v116h31c62 0 90 6 114 62l10 25l-217 467v10h153l129 -326h3l123 326h147zM297 858c56 0 98 7 133 34l42 -64c-35 -51 -90 -77 -175 -77c-84 0 -138 26 -173 77l42 64c35 -25 78 -34 131 -34z" />
    <glyph glyph-name="uni040F" unicode="&#x40f;" horiz-adv-x="712" 
d="M407 -141h-101l-12 141h-215v680h139v-564h276v564h139v-680h-215z" />
    <glyph glyph-name="uni0410" unicode="&#x410;" horiz-adv-x="668" 
d="M415 680l250 -680h-153l-45 140h-266l-46 -140h-152l250 680h162zM335 538h-3l-93 -286h189z" />
    <glyph glyph-name="uni0411" unicode="&#x411;" horiz-adv-x="634" 
d="M79 680h465v-116h-326v-134h141c157 0 237 -75 237 -216c0 -139 -80 -214 -237 -214h-280v680zM218 314v-198h131c72 0 102 37 102 98c0 63 -29 100 -102 100h-131z" />
    <glyph glyph-name="uni0412" unicode="&#x412;" horiz-adv-x="652" 
d="M218 294v-178h129c84 0 117 27 117 88s-32 90 -123 90h-123zM79 680h249c165 0 252 -55 252 -184c0 -73 -40 -120 -88 -141v-2c73 -25 117 -75 117 -159c0 -128 -74 -194 -250 -194h-280v680zM218 564v-160h104c80 0 113 19 113 79c0 61 -30 81 -115 81h-102z" />
    <glyph glyph-name="uni0413" unicode="&#x413;" horiz-adv-x="557" 
d="M79 680h456v-116h-317v-564h-139v680z" />
    <glyph glyph-name="uni0414" unicode="&#x414;" horiz-adv-x="730" 
d="M126 -141h-101l-20 257h62c50 64 72 154 80 293l14 271h455v-564h78l-20 -257h-101l-10 141h-428zM221 116h256v448h-189l-10 -156c-8 -141 -23 -237 -57 -292z" />
    <glyph glyph-name="uni0415" unicode="&#x415;" 
d="M79 680h456v-116h-317v-163h284v-116h-284v-169h320v-116h-459v680z" />
    <glyph glyph-name="uni0416" unicode="&#x416;" horiz-adv-x="990" 
d="M425 304h-2l-253 -304h-162v10l274 324l-261 336v10h156l246 -329h2v329h140v-329h2l246 329h156v-10l-261 -336l274 -324v-10h-162l-253 304h-2v-304h-140v304z" />
    <glyph glyph-name="uni0417" unicode="&#x417;" horiz-adv-x="560" 
d="M131 285v116h116c79 0 108 37 108 89s-33 86 -108 86c-51 0 -113 -13 -164 -34l-40 108c56 27 137 45 204 45c168 0 253 -72 253 -193c0 -80 -54 -131 -102 -147v-2c68 -24 120 -81 120 -170c0 -120 -94 -198 -271 -198c-100 0 -164 20 -220 51l37 110
c51 -27 107 -42 183 -42c72 0 126 32 126 89c0 62 -33 92 -126 92h-116z" />
    <glyph glyph-name="uni0418" unicode="&#x418;" horiz-adv-x="726" 
d="M218 201h3l269 479h157v-680h-139v479h-3l-269 -479h-157v680h139v-479z" />
    <glyph glyph-name="uni0419" unicode="&#x419;" horiz-adv-x="726" 
d="M370 858c56 0 98 7 133 34l42 -64c-35 -51 -90 -77 -175 -77c-84 0 -138 26 -173 77l42 64c35 -25 78 -34 131 -34zM218 201h3l269 479h157v-680h-139v479h-3l-269 -479h-157v680h139v-479z" />
    <glyph glyph-name="uni041A" unicode="&#x41a;" horiz-adv-x="643" 
d="M220 304h-2v-304h-139v680h139v-329h2l248 329h154v-10l-260 -337l273 -323v-10h-162z" />
    <glyph glyph-name="uni041B" unicode="&#x41b;" horiz-adv-x="715" 
d="M497 0v564h-217l-13 -208c-20 -320 -95 -366 -256 -366v119c72 0 115 21 126 255l14 316h485v-680h-139z" />
    <glyph glyph-name="uni041C" unicode="&#x41c;" horiz-adv-x="842" 
d="M420 316h2l207 364h134v-680h-139v442h-2l-146 -271h-110l-146 271h-2v-442h-139v680h134z" />
    <glyph glyph-name="uni041D" unicode="&#x41d;" horiz-adv-x="722" 
d="M504 0v285h-286v-285h-139v680h139v-279h286v279h139v-680h-139z" />
    <glyph glyph-name="uni041E" unicode="&#x41e;" horiz-adv-x="749" 
d="M192 340c0 -134 48 -236 183 -236c134 0 182 102 182 236s-48 236 -182 236c-135 0 -183 -102 -183 -236zM702 340c0 -198 -102 -355 -327 -355c-227 0 -328 157 -328 355s101 355 328 355c225 0 327 -157 327 -355z" />
    <glyph glyph-name="uni041F" unicode="&#x41f;" horiz-adv-x="722" 
d="M504 0v564h-286v-564h-139v680h564v-680h-139z" />
    <glyph glyph-name="uni0420" unicode="&#x420;" horiz-adv-x="596" 
d="M218 0h-139v680h259c165 0 229 -95 229 -225c0 -131 -66 -226 -229 -226h-120v-229zM218 564v-219h110c68 0 94 46 94 110s-26 109 -94 109h-110z" />
    <glyph glyph-name="uni0421" unicode="&#x421;" horiz-adv-x="605" 
d="M46 340c0 212 117 355 331 355c63 0 130 -15 193 -44l-37 -110c-57 25 -100 35 -156 35c-121 0 -186 -95 -186 -236s65 -236 186 -236c56 0 99 10 156 35l37 -110c-63 -29 -130 -44 -193 -44c-214 0 -331 143 -331 355z" />
    <glyph glyph-name="uni0422" unicode="&#x422;" horiz-adv-x="568" 
d="M23 680h522v-116h-192v-564h-139v564h-191v116z" />
    <glyph glyph-name="uni0423" unicode="&#x423;" horiz-adv-x="569" 
d="M567 680v-10l-212 -505c-56 -133 -114 -165 -239 -165h-42v116h31c62 0 90 6 114 62l10 25l-217 467v10h153l129 -326h3l123 326h147z" />
    <glyph glyph-name="uni0424" unicode="&#x424;" horiz-adv-x="820" 
d="M481 680v-60c221 -19 306 -131 306 -280s-85 -261 -306 -280v-60h-139v59c-224 19 -310 130 -310 281c0 150 86 261 310 280v60h139zM177 340c0 -91 36 -160 165 -176v352c-129 -16 -165 -87 -165 -176zM642 340c0 90 -36 159 -161 175v-351c125 19 161 85 161 176z" />
    <glyph glyph-name="uni0425" unicode="&#x425;" horiz-adv-x="624" 
d="M21 680h151l139 -256h2l140 256h150v-10l-192 -329l192 -331v-10h-152l-138 257h-2l-138 -257h-152v10l191 331l-191 329v10z" />
    <glyph glyph-name="uni0426" unicode="&#x426;" horiz-adv-x="747" 
d="M691 -141h-101l-10 141h-501v680h139v-564h276v564h139v-564h78z" />
    <glyph glyph-name="uni0427" unicode="&#x427;" horiz-adv-x="649" 
d="M53 680h139v-285c0 -61 30 -95 105 -95c56 0 109 13 134 26v354h139v-680h-139v212c-40 -15 -97 -29 -173 -29c-129 0 -205 78 -205 194v303z" />
    <glyph glyph-name="uni0428" unicode="&#x428;" horiz-adv-x="1027" 
d="M948 0h-869v680h139v-564h226v564h139v-564h226v564h139v-680z" />
    <glyph glyph-name="uni0429" unicode="&#x429;" horiz-adv-x="1062" 
d="M1006 -141h-101l-10 141h-816v680h139v-564h226v564h139v-564h226v564h139v-564h78z" />
    <glyph glyph-name="uni042A" unicode="&#x42a;" horiz-adv-x="704" 
d="M22 564v116h269v-250h141c157 0 237 -75 237 -216c0 -139 -80 -214 -237 -214h-280v564h-130zM291 314v-198h131c72 0 102 37 102 98c0 63 -29 100 -102 100h-131z" />
    <glyph glyph-name="uni042B" unicode="&#x42b;" horiz-adv-x="884" 
d="M805 680v-680h-139v680h139zM79 680h139v-250h141c157 0 237 -75 237 -216c0 -139 -80 -214 -237 -214h-280v680zM218 314v-198h131c72 0 102 37 102 98c0 63 -29 100 -102 100h-131z" />
    <glyph glyph-name="uni042C" unicode="&#x42c;" horiz-adv-x="631" 
d="M79 680h139v-250h141c157 0 237 -75 237 -216c0 -139 -80 -214 -237 -214h-280v680zM218 314v-198h131c72 0 102 37 102 98c0 63 -29 100 -102 100h-131z" />
    <glyph glyph-name="uni042D" unicode="&#x42d;" horiz-adv-x="605" 
d="M559 340c0 -212 -117 -355 -331 -355c-63 0 -130 15 -193 44l37 110c57 -25 100 -35 156 -35c104 0 166 69 182 178h-267v116h267c-16 108 -78 178 -182 178c-56 0 -99 -10 -156 -35l-37 110c63 29 130 44 193 44c214 0 331 -143 331 -355z" />
    <glyph glyph-name="uni042E" unicode="&#x42e;" horiz-adv-x="1062" 
d="M506 340c0 -134 48 -236 183 -236c134 0 182 102 182 236s-48 236 -182 236c-135 0 -183 -102 -183 -236zM1016 340c0 -198 -102 -355 -327 -355c-206 0 -307 128 -326 300h-145v-285h-139v680h139v-279h146c19 168 123 294 325 294c225 0 327 -157 327 -355z" />
    <glyph glyph-name="uni042F" unicode="&#x42f;" horiz-adv-x="663" 
d="M584 0h-139v257h-88l-186 -257h-147v16l186 250c-100 24 -149 99 -149 203c0 129 76 211 236 211h287v-680zM304 373h141v191h-141c-63 0 -98 -40 -98 -95s35 -96 98 -96z" />
    <glyph glyph-name="uni0430" unicode="&#x430;" horiz-adv-x="543" 
d="M467 302v-197c0 -15 1 -18 16 -18h35v-92c-21 -4 -41 -7 -70 -7c-52 0 -79 20 -96 57h-2c-32 -27 -96 -60 -155 -60c-108 0 -163 64 -163 152c0 107 68 158 238 158h65v22c0 60 -53 69 -82 69c-53 0 -113 -14 -160 -35l-32 103c51 23 124 43 199 43
c139 0 207 -71 207 -195zM335 208h-51c-89 0 -123 -23 -123 -59c0 -40 23 -58 64 -58c35 0 82 13 110 33v84z" />
    <glyph glyph-name="uni0431" unicode="&#x431;" horiz-adv-x="596" 
d="M178 388h4c31 35 86 63 158 63c138 0 216 -95 216 -230c0 -129 -85 -236 -253 -236c-172 0 -255 107 -255 288c0 269 62 380 215 412c76 16 224 21 268 29v-122c-40 -11 -166 -11 -228 -22c-102 -19 -122 -79 -125 -182zM418 221c0 76 -44 119 -115 119
c-72 0 -117 -43 -117 -119s45 -125 117 -125c70 0 115 49 115 125z" />
    <glyph glyph-name="uni0432" unicode="&#x432;" horiz-adv-x="535" 
d="M194 203v-107h97c57 0 72 24 72 53s-15 54 -72 54h-97zM63 482h236c107 0 175 -39 175 -130c0 -59 -31 -88 -67 -105v-1c49 -15 89 -50 89 -110c0 -95 -66 -136 -187 -136h-246v482zM194 389v-101h75c61 0 72 23 72 50c0 26 -10 51 -72 51h-75z" />
    <glyph glyph-name="uni0433" unicode="&#x433;" horiz-adv-x="445" 
d="M63 482h363v-103h-232v-379h-131v482z" />
    <glyph glyph-name="uni0434" unicode="&#x434;" horiz-adv-x="608" 
d="M124 -120h-91l-20 225h54c36 42 48 124 53 198l9 179h390v-377h55l-19 -225h-91l-13 120h-316zM212 105h176v274h-137l-5 -74c-5 -79 -15 -159 -34 -200z" />
    <glyph glyph-name="uni0435" unicode="&#x435;" horiz-adv-x="539" 
d="M497 202h-322c5 -68 49 -109 121 -109c56 0 107 13 154 30l31 -97c-48 -23 -118 -41 -195 -41c-167 0 -248 115 -248 257c0 137 84 255 241 255c156 0 225 -95 225 -208c0 -31 -4 -70 -7 -87zM175 286h205c1 5 1 10 1 15c0 54 -25 98 -101 98c-68 0 -102 -55 -105 -113z
" />
    <glyph glyph-name="uni0436" unicode="&#x436;" horiz-adv-x="812" 
d="M339 211h-2l-177 -211h-149v7l197 231l-188 237v7h145l172 -228h2v228h134v-228h2l172 228h145v-7l-188 -237l197 -231v-7h-149l-177 211h-2v-211h-134v211z" />
    <glyph glyph-name="uni0437" unicode="&#x437;" horiz-adv-x="486" 
d="M108 191v103h123c47 0 62 15 62 46c0 28 -19 48 -79 48c-40 0 -107 -9 -147 -25l-26 103c47 19 116 33 172 33c153 0 217 -53 217 -140c0 -57 -26 -90 -69 -106v-2c55 -19 86 -58 86 -122c0 -85 -64 -144 -232 -144c-77 0 -141 16 -188 37l23 105c41 -19 109 -31 165 -31
c68 0 94 19 94 50s-21 45 -70 45h-131z" />
    <glyph glyph-name="uni0438" unicode="&#x438;" horiz-adv-x="588" 
d="M194 180h3l180 302h148v-482h-131v302h-3l-180 -302h-148v482h131v-302z" />
    <glyph glyph-name="uni0439" unicode="&#x439;" horiz-adv-x="588" 
d="M194 180h3l180 302h148v-482h-131v302h-3l-180 -302h-148v482h131v-302zM297 674c56 0 98 7 133 34l42 -64c-35 -51 -90 -77 -175 -77c-84 0 -138 26 -173 77l42 64c35 -25 78 -34 131 -34z" />
    <glyph glyph-name="uni043A" unicode="&#x43a;" horiz-adv-x="534" 
d="M198 211h-2v-211h-133v482h133v-230h2l171 230h145v-7l-188 -237l197 -231v-7h-149z" />
    <glyph glyph-name="uni043B" unicode="&#x43b;" horiz-adv-x="595" 
d="M400 0v379h-148l-11 -134c-16 -207 -86 -252 -221 -252v109c54 0 91 22 99 154l12 226h401v-482h-132z" />
    <glyph glyph-name="uni043C" unicode="&#x43c;" horiz-adv-x="684" 
d="M341 231h2l151 251h127v-482h-131v276h-2l-93 -161h-107l-92 161h-2v-276h-131v482h127z" />
    <glyph glyph-name="uni043D" unicode="&#x43d;" horiz-adv-x="582" 
d="M388 0v188h-194v-188h-131v482h131v-189h194v189h131v-482h-131z" />
    <glyph glyph-name="uni043E" unicode="&#x43e;" horiz-adv-x="583" 
d="M175 241c0 -97 47 -145 116 -145c71 0 117 48 117 145s-46 145 -117 145c-69 0 -116 -48 -116 -145zM546 241c0 -140 -87 -256 -255 -256c-165 0 -254 116 -254 256s89 256 254 256c168 0 255 -116 255 -256z" />
    <glyph glyph-name="uni043F" unicode="&#x43f;" horiz-adv-x="582" 
d="M388 0v379h-194v-379h-131v482h456v-482h-131z" />
    <glyph glyph-name="uni0440" unicode="&#x440;" horiz-adv-x="586" 
d="M198 357v-232c25 -16 62 -29 97 -29c80 0 114 59 114 145s-34 145 -114 145c-35 0 -72 -13 -97 -29zM63 482h99l19 -43h2c33 25 83 58 154 58c139 0 210 -116 210 -256s-71 -256 -210 -256c-68 0 -106 29 -137 50h-2v-233h-135v680z" />
    <glyph glyph-name="uni0441" unicode="&#x441;" horiz-adv-x="479" 
d="M38 241c0 156 92 256 256 256c59 0 118 -17 150 -29l-27 -103c-28 9 -64 21 -107 21c-73 0 -134 -40 -134 -145s59 -145 134 -145c43 0 79 12 107 21l27 -103c-32 -12 -91 -29 -150 -29c-164 0 -256 100 -256 256z" />
    <glyph glyph-name="uni0442" unicode="&#x442;" horiz-adv-x="459" 
d="M20 482h419v-103h-145v-379h-131v379h-143v103z" />
    <glyph glyph-name="uni0443" unicode="&#x443;" horiz-adv-x="530" 
d="M519 482v-10l-207 -531c-43 -108 -109 -154 -193 -154c-32 0 -56 4 -79 9v107c23 -4 51 -5 62 -5c43 0 67 14 82 53l20 54l-194 467v10h140l116 -328h3l110 328h140z" />
    <glyph glyph-name="uni0444" unicode="&#x444;" horiz-adv-x="865" 
d="M500 367v-252c25 -12 52 -19 83 -19c80 0 104 59 104 145s-24 145 -104 145c-31 0 -58 -7 -83 -19zM365 115v252c-25 12 -52 19 -83 19c-80 0 -104 -59 -104 -145s24 -145 104 -145c31 0 58 7 83 19zM500 465h2c31 19 66 32 123 32c140 0 200 -116 200 -256
s-60 -256 -200 -256c-64 0 -93 17 -123 36h-2v-219h-135v219h-2c-30 -19 -59 -36 -123 -36c-140 0 -200 116 -200 256s60 256 200 256c57 0 92 -12 123 -32h2v235h135v-235z" />
    <glyph glyph-name="uni0445" unicode="&#x445;" horiz-adv-x="539" 
d="M271 168h-2l-103 -168h-145v10l153 231l-153 231v10h145l103 -169h2l102 169h145v-10l-153 -231l153 -231v-10h-145z" />
    <glyph glyph-name="uni0446" unicode="&#x446;" horiz-adv-x="609" 
d="M561 -120h-91l-13 120h-394v482h131v-380h186v380h132v-380h69z" />
    <glyph glyph-name="uni0447" unicode="&#x447;" horiz-adv-x="520" 
d="M41 482h131v-198c0 -28 19 -48 67 -48c43 0 70 6 87 17v229h131v-482h-131v152c-33 -15 -71 -22 -127 -22c-101 0 -158 66 -158 144v208z" />
    <glyph glyph-name="uni0448" unicode="&#x448;" horiz-adv-x="815" 
d="M752 0h-689v482h131v-380h148v380h131v-380h147v380h132v-482z" />
    <glyph glyph-name="uni0449" unicode="&#x449;" horiz-adv-x="849" 
d="M801 -120h-91l-13 120h-634v482h131v-380h148v380h131v-380h147v380h132v-380h69z" />
    <glyph glyph-name="uni044A" unicode="&#x44a;" horiz-adv-x="568" 
d="M23 379v103h226v-161h100c128 0 190 -55 190 -162s-62 -159 -190 -159h-231v379h-95zM249 217v-115h92c50 0 60 32 60 57s-10 58 -60 58h-92z" />
    <glyph glyph-name="uni044B" unicode="&#x44b;" horiz-adv-x="739" 
d="M63 482h131v-162h100c128 0 190 -54 190 -161s-62 -159 -190 -159h-231v482zM194 217v-115h92c50 0 60 32 60 57s-10 58 -60 58h-92zM676 0h-135v482h135v-482z" />
    <glyph glyph-name="uni044C" unicode="&#x44c;" horiz-adv-x="513" 
d="M63 482h131v-162h100c128 0 190 -54 190 -161s-62 -159 -190 -159h-231v482zM194 217v-115h92c50 0 60 32 60 57s-10 58 -60 58h-92z" />
    <glyph glyph-name="uni044D" unicode="&#x44d;" horiz-adv-x="489" 
d="M451 241c0 -149 -92 -252 -263 -252c-51 0 -106 9 -155 32l35 103c44 -17 75 -26 120 -26c61 0 106 34 121 89h-189v106h189c-15 55 -58 92 -121 92c-45 0 -76 -10 -120 -27l-35 104c49 21 104 31 155 31c171 0 263 -103 263 -252z" />
    <glyph glyph-name="uni044E" unicode="&#x44e;" horiz-adv-x="845" 
d="M808 241c0 -140 -87 -256 -255 -256c-143 0 -231 88 -250 203h-109v-188h-131v482h131v-189h109c19 116 105 204 250 204c168 0 255 -116 255 -256zM437 241c0 -97 47 -145 116 -145c71 0 117 48 117 145s-46 145 -117 145c-69 0 -116 -48 -116 -145z" />
    <glyph glyph-name="uni044F" unicode="&#x44f;" horiz-adv-x="548" 
d="M485 0h-131v159h-53l-139 -159h-138v11l139 157c-79 21 -112 81 -112 153c0 93 56 161 193 161h241v-482zM354 262v117h-103c-43 0 -62 -27 -62 -58s19 -59 62 -59h103z" />
    <glyph glyph-name="uni0450" unicode="&#x450;" horiz-adv-x="539" 
d="M497 202h-322c5 -68 49 -109 121 -109c56 0 107 13 154 30l31 -97c-48 -23 -118 -41 -195 -41c-167 0 -248 115 -248 257c0 137 84 255 241 255c156 0 225 -95 225 -208c0 -31 -4 -70 -7 -87zM175 286h205c1 5 1 10 1 15c0 54 -25 98 -101 98c-68 0 -102 -55 -105 -113z
M140 704v9h142l79 -136v-10h-118z" />
    <glyph glyph-name="uni0451" unicode="&#x451;" horiz-adv-x="539" 
d="M497 202h-322c5 -68 49 -109 121 -109c56 0 107 13 154 30l31 -97c-48 -23 -118 -41 -195 -41c-167 0 -248 115 -248 257c0 137 84 255 241 255c156 0 225 -95 225 -208c0 -31 -4 -70 -7 -87zM175 286h205c1 5 1 10 1 15c0 54 -25 98 -101 98c-68 0 -102 -55 -105 -113z
M96 640c0 43 31 74 78 74c48 0 79 -31 79 -74s-31 -74 -79 -74c-47 0 -78 31 -78 74zM316 640c0 43 31 74 78 74c48 0 79 -31 79 -74s-31 -74 -79 -74c-47 0 -78 31 -78 74z" />
    <glyph glyph-name="uni0452" unicode="&#x452;" horiz-adv-x="572" 
d="M198 0h-135v540h-50v103h50v57h135v-57h105v-103h-105v-98h2c26 24 80 55 144 55c115 0 182 -79 182 -242c0 -143 -44 -287 -100 -412l-111 51c45 108 73 244 73 361c0 96 -29 131 -86 131c-49 0 -84 -26 -104 -46v-340z" />
    <glyph glyph-name="uni0453" unicode="&#x453;" horiz-adv-x="445" 
d="M63 482h363v-103h-232v-379h-131v482zM399 713v-9l-103 -137h-118v10l79 136h142z" />
    <glyph glyph-name="uni0454" unicode="&#x454;" horiz-adv-x="487" 
d="M38 241c0 149 92 252 263 252c51 0 106 -10 155 -31l-35 -104c-44 17 -75 27 -120 27c-63 0 -106 -37 -121 -92h189v-106h-189c15 -55 60 -89 121 -89c45 0 76 9 120 26l35 -103c-49 -23 -104 -32 -155 -32c-171 0 -263 103 -263 252z" />
    <glyph glyph-name="uni0455" unicode="&#x455;" horiz-adv-x="468" 
d="M32 31l40 97c47 -24 102 -41 155 -41s76 16 76 47c0 29 -23 40 -66 51l-63 15c-67 16 -131 54 -131 142c0 95 75 155 200 155c73 0 124 -12 180 -35l-37 -96c-43 16 -92 29 -139 29c-51 0 -73 -15 -73 -44c0 -28 22 -38 62 -49l61 -15c77 -19 137 -59 137 -144
c0 -100 -80 -158 -203 -158c-83 0 -142 17 -199 46z" />
    <glyph glyph-name="uni0456" unicode="&#x456;" horiz-adv-x="261" 
d="M198 0h-135v482h135v-482zM53 640c0 43 31 74 78 74c48 0 79 -31 79 -74s-31 -74 -79 -74c-47 0 -78 31 -78 74z" />
    <glyph glyph-name="uni0457" unicode="&#x457;" horiz-adv-x="261" 
d="M198 0h-135v482h135v-482zM-58 640c0 43 31 74 78 74c48 0 79 -31 79 -74s-31 -74 -79 -74c-47 0 -78 31 -78 74zM162 640c0 43 31 74 78 74c48 0 79 -31 79 -74s-31 -74 -79 -74c-47 0 -78 31 -78 74z" />
    <glyph glyph-name="uni0458" unicode="&#x458;" horiz-adv-x="261" 
d="M63 482h135v-513c0 -125 -58 -182 -173 -182c-21 0 -49 3 -70 7v109c17 -4 34 -5 53 -5c39 0 55 19 55 63v521zM53 640c0 43 31 74 78 74c48 0 79 -31 79 -74s-31 -74 -79 -74c-47 0 -78 31 -78 74z" />
    <glyph glyph-name="uni0459" unicode="&#x459;" horiz-adv-x="815" 
d="M131 482h365v-162h100c128 0 190 -54 190 -161s-62 -159 -190 -159h-231v379h-113l-11 -134c-16 -207 -86 -252 -221 -252v109c54 0 91 22 99 154zM496 217v-115h92c50 0 60 32 60 57s-10 58 -60 58h-92z" />
    <glyph glyph-name="uni045A" unicode="&#x45a;" horiz-adv-x="821" 
d="M371 482h131v-162h100c128 0 190 -54 190 -161s-62 -159 -190 -159h-231v217h-177v-217h-131v482h131v-162h177v162zM502 217v-115h92c50 0 60 32 60 57s-10 58 -60 58h-92z" />
    <glyph glyph-name="uni045B" unicode="&#x45b;" horiz-adv-x="581" 
d="M303 540h-105v-98h2c26 24 80 55 144 55c115 0 179 -78 179 -194v-303h-135v290c0 61 -27 96 -86 96c-49 0 -84 -26 -104 -46v-340h-135v540h-50v103h50v57h135v-57h105v-103z" />
    <glyph glyph-name="uni045C" unicode="&#x45c;" horiz-adv-x="534" 
d="M198 211h-2v-211h-133v482h133v-230h2l171 230h145v-7l-188 -237l197 -231v-7h-149zM439 713v-9l-103 -137h-118v10l79 136h142z" />
    <glyph glyph-name="uni045D" unicode="&#x45d;" horiz-adv-x="588" 
d="M194 180h3l180 302h148v-482h-131v302h-3l-180 -302h-148v482h131v-302zM148 704v9h142l79 -136v-10h-118z" />
    <glyph glyph-name="uni045E" unicode="&#x45e;" horiz-adv-x="530" 
d="M519 482v-10l-207 -531c-43 -108 -109 -154 -193 -154c-32 0 -56 4 -79 9v107c23 -4 51 -5 62 -5c43 0 67 14 82 53l20 54l-194 467v10h140l116 -328h3l110 328h140zM273 674c56 0 98 7 133 34l42 -64c-35 -51 -90 -77 -175 -77c-84 0 -138 26 -173 77l42 64
c35 -25 78 -34 131 -34z" />
    <glyph glyph-name="uni045F" unicode="&#x45f;" horiz-adv-x="575" 
d="M334 -120h-91l-14 120h-166v482h131v-380h186v380h132v-482h-165z" />
    <glyph glyph-name="uni0462" unicode="&#x462;" horiz-adv-x="714" 
d="M166 680h139v-50h194v-116h-194v-84h141c157 0 237 -75 237 -216c0 -139 -80 -214 -237 -214h-280v514h-139v116h139v50zM305 314v-198h131c72 0 102 37 102 98c0 63 -29 100 -102 100h-131z" />
    <glyph glyph-name="uni0463" unicode="&#x463;" horiz-adv-x="564" 
d="M118 701h131v-219h159v-103h-159v-59h100c128 0 190 -54 190 -161s-62 -159 -190 -159h-231v379h-95v103h95v219zM249 217v-115h92c50 0 60 32 60 57s-10 58 -60 58h-92z" />
    <glyph glyph-name="uni0472" unicode="&#x472;" horiz-adv-x="748" 
d="M702 340c0 -198 -102 -355 -327 -355c-227 0 -328 157 -328 355s101 355 328 355c225 0 327 -157 327 -355zM375 104c117 0 166 76 179 184h-359c11 -108 64 -184 180 -184zM375 576c-116 0 -167 -74 -180 -178h358c-13 104 -64 178 -178 178z" />
    <glyph glyph-name="uni0473" unicode="&#x473;" horiz-adv-x="583" 
d="M546 241c0 -140 -87 -256 -255 -256c-165 0 -254 116 -254 256s89 256 254 256c168 0 255 -116 255 -256zM291 96c57 0 99 32 112 97h-224c14 -65 53 -97 112 -97zM291 386c-56 0 -99 -32 -112 -96h224c-13 64 -53 96 -112 96z" />
    <glyph glyph-name="uni0474" unicode="&#x474;" horiz-adv-x="679" 
d="M662 695v-119c-39 0 -58 -17 -73 -61l-174 -515h-169l-240 670v10h151l173 -534h3l134 412c32 95 78 137 195 137z" />
    <glyph glyph-name="uni0475" unicode="&#x475;" horiz-adv-x="553" 
d="M530 493v-108c-28 0 -43 -17 -52 -44l-119 -341h-169l-178 475v7h145l117 -354h3l86 257c24 68 61 108 167 108z" />
    <glyph glyph-name="uni0490" unicode="&#x490;" horiz-adv-x="554" 
d="M410 821h108l17 -257h-317v-564h-139v680h314z" />
    <glyph glyph-name="uni0491" unicode="&#x491;" horiz-adv-x="443" 
d="M323 588h93l10 -209h-232v-379h-131v482h243z" />
    <glyph glyph-name="uni0E3F" unicode="&#xe3f;" 
d="M336 770v-92c121 -9 189 -65 189 -182c0 -73 -35 -120 -76 -141v-2c64 -25 101 -75 101 -159c0 -127 -61 -189 -214 -194v-108h-78v108h-187v680h187v90h78zM408 204c0 55 -19 81 -72 88v-175c51 5 72 31 72 87zM208 294v-178h50v178h-50zM208 564v-160h50v160h-50z
M394 483c0 51 -19 72 -58 79v-156c39 7 58 26 58 77z" />
    <glyph glyph-name="Wgrave" unicode="&#x1e80;" horiz-adv-x="1014" 
d="M995 680v-10l-185 -670h-165l-137 527h-1l-137 -527h-166l-185 670v10h149l115 -530h2l141 530h162l141 -530h2l114 530h150zM363 887v9h152l59 -136v-10h-128z" />
    <glyph glyph-name="wgrave" unicode="&#x1e81;" horiz-adv-x="840" 
d="M822 482v-10l-144 -472h-147l-110 347h-2l-110 -347h-147l-144 472v10h135l89 -334h2l103 334h146l103 -334h2l89 334h135zM259 704v9h142l79 -136v-10h-118z" />
    <glyph glyph-name="Wacute" unicode="&#x1e82;" horiz-adv-x="1014" 
d="M995 680v-10l-185 -670h-165l-137 527h-1l-137 -527h-166l-185 670v10h149l115 -530h2l141 530h162l141 -530h2l114 530h150zM653 896v-9l-83 -137h-128v10l59 136h152z" />
    <glyph glyph-name="wacute" unicode="&#x1e83;" horiz-adv-x="840" 
d="M822 482v-10l-144 -472h-147l-110 347h-2l-110 -347h-147l-144 472v10h135l89 -334h2l103 334h146l103 -334h2l89 334h135zM580 713v-9l-103 -137h-118v10l79 136h142z" />
    <glyph glyph-name="Wdieresis" unicode="&#x1e84;" horiz-adv-x="1014" 
d="M995 680v-10l-185 -670h-165l-137 527h-1l-137 -527h-166l-185 670v10h149l115 -530h2l141 530h162l141 -530h2l114 530h150zM299 819c0 43 31 74 78 74c48 0 79 -31 79 -74s-31 -74 -79 -74c-47 0 -78 31 -78 74zM560 819c0 43 31 74 78 74c48 0 79 -31 79 -74
s-31 -74 -79 -74c-47 0 -78 31 -78 74z" />
    <glyph glyph-name="wdieresis" unicode="&#x1e85;" horiz-adv-x="840" 
d="M822 482v-10l-144 -472h-147l-110 347h-2l-110 -347h-147l-144 472v10h135l89 -334h2l103 334h146l103 -334h2l89 334h135zM232 640c0 43 31 74 78 74c48 0 79 -31 79 -74s-31 -74 -79 -74c-47 0 -78 31 -78 74zM452 640c0 43 31 74 78 74c48 0 79 -31 79 -74
s-31 -74 -79 -74c-47 0 -78 31 -78 74z" />
    <glyph glyph-name="uni1E9E" unicode="&#x1e9e;" horiz-adv-x="696" 
d="M71 0v381c0 187 82 314 285 314c88 0 168 -33 235 -70v-97l-110 -137v-2c112 -13 179 -81 179 -189c0 -132 -94 -215 -235 -215c-53 0 -88 5 -120 10v116c24 -4 59 -10 94 -10c77 0 114 36 114 100c0 52 -30 95 -102 95h-73v88l124 164c-28 15 -70 27 -113 27
c-91 0 -139 -65 -139 -186v-389h-139z" />
    <glyph glyph-name="Ygrave" unicode="&#x1ef2;" horiz-adv-x="604" 
d="M-3 680h152l151 -280h2l151 280h152v-10l-234 -396v-274h-139v274l-235 396v10zM154 887v9h152l59 -136v-10h-128z" />
    <glyph glyph-name="ygrave" unicode="&#x1ef3;" horiz-adv-x="530" 
d="M519 482v-10l-207 -531c-43 -108 -109 -154 -193 -154c-32 0 -56 4 -79 9v107c23 -4 51 -5 62 -5c43 0 67 14 82 53l20 54l-194 467v10h140l116 -328h3l110 328h140zM107 704v9h142l79 -136v-10h-118z" />
    <glyph glyph-name="endash" unicode="&#x2013;" horiz-adv-x="584" 
d="M522 220h-460v103h460v-103z" />
    <glyph glyph-name="emdash" unicode="&#x2014;" horiz-adv-x="920" 
d="M858 220h-796v103h796v-103z" />
    <glyph glyph-name="quoteleft" unicode="&#x2018;" horiz-adv-x="280" 
d="M242 680v-10l-66 -293h-135v10l100 293h101z" />
    <glyph glyph-name="quoteright" unicode="&#x2019;" horiz-adv-x="277" 
d="M47 377v10l66 293h135v-10l-100 -293h-101z" />
    <glyph glyph-name="quotesinglbase" unicode="&#x201a;" horiz-adv-x="270" 
d="M15 -161v10l66 293h135v-10l-100 -293h-101z" />
    <glyph glyph-name="quotedblleft" unicode="&#x201c;" horiz-adv-x="489" 
d="M451 680v-10l-66 -293h-135v10l100 293h101zM242 680v-10l-66 -293h-135v10l100 293h101z" />
    <glyph glyph-name="quotedblright" unicode="&#x201d;" horiz-adv-x="487" 
d="M47 377v10l66 293h135v-10l-100 -293h-101zM257 377v10l66 293h135v-10l-100 -293h-101z" />
    <glyph glyph-name="quotedblbase" unicode="&#x201e;" horiz-adv-x="480" 
d="M15 -161v10l66 293h135v-10l-100 -293h-101zM225 -161v10l66 293h135v-10l-100 -293h-101z" />
    <glyph glyph-name="dagger" unicode="&#x2020;" horiz-adv-x="463" 
d="M27 482h161v218h89v-218h159v-85h-159v-595h-89v595h-161v85z" />
    <glyph glyph-name="daggerdbl" unicode="&#x2021;" horiz-adv-x="494" 
d="M43 482h161v218h89v-218h158v-85h-158v-292h158v-85h-158v-218h-89v218h-161v85h161v292h-161v85z" />
    <glyph glyph-name="bullet" unicode="&#x2022;" horiz-adv-x="376" 
d="M75 291c0 67 44 114 113 114s113 -47 113 -114s-44 -114 -113 -114s-113 47 -113 114z" />
    <glyph glyph-name="ellipsis" unicode="&#x2026;" horiz-adv-x="775" 
d="M51 71c0 51 33 86 85 86s85 -35 85 -86s-33 -86 -85 -86s-85 35 -85 86zM303 71c0 51 33 86 85 86s85 -35 85 -86s-33 -86 -85 -86s-85 35 -85 86zM554 71c0 51 33 86 85 86s85 -35 85 -86s-33 -86 -85 -86s-85 35 -85 86z" />
    <glyph glyph-name="perthousand" unicode="&#x2030;" horiz-adv-x="1163" 
d="M923 175c0 -72 20 -102 55 -102c39 0 59 30 59 102s-20 104 -59 104c-35 0 -55 -32 -55 -104zM1133 175c0 -110 -57 -183 -155 -183c-94 0 -152 73 -152 183c0 112 58 185 152 185c98 0 155 -73 155 -185zM130 503c0 -72 20 -102 55 -102c39 0 59 30 59 102
s-20 104 -59 104c-35 0 -55 -32 -55 -104zM340 503c0 -110 -57 -183 -155 -183c-94 0 -152 73 -152 183c0 112 58 185 152 185c98 0 155 -73 155 -185zM567 175c0 -72 20 -102 55 -102c39 0 59 30 59 102s-20 104 -59 104c-35 0 -55 -32 -55 -104zM777 175
c0 -110 -57 -183 -155 -183c-94 0 -152 73 -152 183c0 112 58 185 152 185c98 0 155 -73 155 -185zM231 0h-104v10l456 670h104v-10z" />
    <glyph glyph-name="guilsinglleft" unicode="&#x2039;" horiz-adv-x="321" 
d="M34 264v12l161 219l83 -49l-107 -177l108 -176l-84 -48z" />
    <glyph glyph-name="guilsinglright" unicode="&#x203a;" horiz-adv-x="322" 
d="M288 276v-12l-161 -219l-83 49l107 177l-108 176l84 48z" />
    <glyph glyph-name="fraction" unicode="&#x2044;" horiz-adv-x="160" 
d="M-96 0h-104v10l456 670h104v-10z" />
    <glyph glyph-name="zerosuperior" unicode="&#x2070;" horiz-adv-x="359" 
d="M123 623c0 -72 20 -102 55 -102c39 0 59 30 59 102s-20 104 -59 104c-35 0 -55 -32 -55 -104zM333 623c0 -110 -57 -183 -155 -183c-94 0 -152 73 -152 183c0 112 58 185 152 185c98 0 155 -73 155 -185z" />
    <glyph glyph-name="foursuperior" unicode="&#x2074;" horiz-adv-x="340" 
d="M187 692h91v-93h42v-76h-42v-75h-91v75h-172v68l90 209h93l-81 -200v-1h70v93z" />
    <glyph glyph-name="fivesuperior" unicode="&#x2075;" horiz-adv-x="314" 
d="M54 595l-12 13l18 192h216v-77h-135l-4 -45h16c80 0 136 -31 136 -115c0 -76 -55 -123 -159 -123c-18 0 -70 1 -115 17l21 81c31 -13 66 -18 99 -18c42 0 56 15 56 42c0 23 -15 38 -58 38c-27 0 -54 -2 -79 -5z" />
    <glyph glyph-name="sixsuperior" unicode="&#x2076;" horiz-adv-x="331" 
d="M256 800v-5l-93 -119v-1c11 3 29 7 48 7c52 0 104 -38 104 -114s-57 -128 -144 -128c-104 0 -148 64 -148 128c0 23 4 52 31 91l96 141h106zM219 566c0 31 -17 47 -48 47c-33 0 -52 -16 -52 -47c0 -32 19 -47 52 -47c31 0 48 15 48 47z" />
    <glyph glyph-name="sevensuperior" unicode="&#x2077;" horiz-adv-x="303" 
d="M43 448v5l147 269v1h-172v77h272v-71l-149 -281h-98z" />
    <glyph glyph-name="eightsuperior" unicode="&#x2078;" horiz-adv-x="344" 
d="M172 515c41 0 54 18 54 41s-13 40 -54 40c-43 0 -55 -17 -55 -40s14 -41 55 -41zM172 808c79 0 132 -39 132 -98c0 -43 -27 -66 -54 -77v-1c40 -12 69 -39 69 -87c0 -64 -59 -105 -147 -105c-89 0 -147 41 -147 105c0 48 31 75 70 87v1c-28 11 -55 34 -55 77
c0 59 52 98 132 98zM172 667c31 0 45 15 45 36c0 20 -14 36 -45 36s-43 -16 -43 -36c0 -21 12 -36 43 -36z" />
    <glyph glyph-name="ninesuperior" unicode="&#x2079;" horiz-adv-x="331" 
d="M75 448v6l93 118v1c-11 -4 -28 -7 -47 -7c-53 0 -105 39 -105 114c0 77 58 128 146 128c101 0 146 -64 146 -128c0 -23 -4 -52 -31 -91l-96 -141h-106zM113 681c0 -31 17 -46 49 -46s50 15 50 46c0 32 -18 49 -50 49s-49 -17 -49 -49z" />
    <glyph glyph-name="plussuperior" unicode="&#x207a;" horiz-adv-x="265" 
d="M170 733v-67h68v-77h-68v-67h-77v67h-66v77h66v67h77z" />
    <glyph glyph-name="minussuperior" unicode="&#x207b;" horiz-adv-x="287" 
d="M249 589h-211v77h211v-77z" />
    <glyph glyph-name="parenleftsuperior" unicode="&#x207d;" horiz-adv-x="179" 
d="M21 623c0 113 48 198 85 254l56 -29c-31 -67 -55 -132 -55 -225c0 -92 24 -157 55 -225l-56 -28c-37 56 -85 141 -85 253z" />
    <glyph glyph-name="parenrightsuperior" unicode="&#x207e;" horiz-adv-x="179" 
d="M158 623c0 -112 -48 -197 -85 -253l-56 28c31 68 55 133 55 225c0 93 -24 158 -55 225l56 29c37 -56 85 -141 85 -254z" />
    <glyph glyph-name="zeroinferior" unicode="&#x2080;" horiz-adv-x="359" 
d="M123 55c0 -72 20 -102 55 -102c39 0 59 30 59 102s-20 104 -59 104c-35 0 -55 -32 -55 -104zM333 55c0 -110 -57 -183 -155 -183c-94 0 -152 73 -152 183c0 112 58 185 152 185c98 0 155 -73 155 -185z" />
    <glyph glyph-name="oneinferior" unicode="&#x2081;" horiz-adv-x="261" 
d="M24 90h-9v84l130 58h70v-352h-92v254h-2z" />
    <glyph glyph-name="twoinferior" unicode="&#x2082;" horiz-adv-x="328" 
d="M159 -42v-2h141v-76h-275v70l147 117c19 15 26 30 26 50c0 24 -16 44 -44 44c-33 0 -54 -19 -77 -42l-53 60c22 25 66 61 135 61c76 0 136 -40 136 -117c0 -49 -29 -83 -68 -112z" />
    <glyph glyph-name="threeinferior" unicode="&#x2083;" horiz-adv-x="324" 
d="M78 17v77h69c31 0 45 10 45 33c0 19 -11 34 -50 34c-29 0 -65 -6 -90 -17l-26 73c31 12 70 23 119 23c92 0 143 -36 143 -100c0 -49 -29 -71 -56 -75v-1c39 -12 66 -39 66 -88c0 -63 -45 -104 -158 -104c-48 0 -91 11 -123 27l24 75c24 -12 63 -22 98 -22
c43 0 63 12 63 37c0 23 -15 28 -54 28h-70z" />
    <glyph glyph-name="fourinferior" unicode="&#x2084;" horiz-adv-x="340" 
d="M187 124h91v-93h42v-76h-42v-75h-91v75h-172v68l90 209h93l-81 -200v-1h70v93z" />
    <glyph glyph-name="fiveinferior" unicode="&#x2085;" horiz-adv-x="313" 
d="M53 27l-12 13l18 192h216v-77h-135l-4 -45h16c80 0 136 -31 136 -115c0 -76 -55 -123 -159 -123c-18 0 -70 1 -115 17l21 81c31 -13 66 -18 99 -18c42 0 56 15 56 42c0 23 -15 38 -58 38c-27 0 -54 -2 -79 -5z" />
    <glyph glyph-name="sixinferior" unicode="&#x2086;" horiz-adv-x="332" 
d="M256 232v-5l-93 -119v-1c11 3 29 7 48 7c52 0 104 -38 104 -114s-57 -128 -144 -128c-104 0 -148 64 -148 128c0 23 4 52 31 91l96 141h106zM219 -2c0 31 -17 47 -48 47c-33 0 -52 -16 -52 -47c0 -32 19 -47 52 -47c31 0 48 15 48 47z" />
    <glyph glyph-name="seveninferior" unicode="&#x2087;" horiz-adv-x="302" 
d="M42 -120v5l147 269v1h-172v77h272v-71l-149 -281h-98z" />
    <glyph glyph-name="eightinferior" unicode="&#x2088;" horiz-adv-x="344" 
d="M172 -53c41 0 54 18 54 41s-13 40 -54 40c-43 0 -55 -17 -55 -40s14 -41 55 -41zM172 240c79 0 132 -39 132 -98c0 -43 -27 -66 -54 -77v-1c40 -12 69 -39 69 -87c0 -64 -59 -105 -147 -105c-89 0 -147 41 -147 105c0 48 31 75 70 87v1c-28 11 -55 34 -55 77
c0 59 52 98 132 98zM172 99c31 0 45 15 45 36c0 20 -14 36 -45 36s-43 -16 -43 -36c0 -21 12 -36 43 -36z" />
    <glyph glyph-name="nineinferior" unicode="&#x2089;" horiz-adv-x="332" 
d="M76 -120v6l93 118v1c-11 -4 -28 -7 -47 -7c-53 0 -105 39 -105 114c0 77 58 128 146 128c101 0 146 -64 146 -128c0 -23 -4 -52 -31 -91l-96 -141h-106zM114 113c0 -31 17 -46 49 -46s50 15 50 46c0 32 -18 49 -50 49s-49 -17 -49 -49z" />
    <glyph glyph-name="parenleftinferior" unicode="&#x208d;" horiz-adv-x="180" 
d="M22 55c0 113 48 198 85 254l56 -29c-31 -67 -55 -132 -55 -225c0 -92 24 -157 55 -225l-56 -28c-37 56 -85 141 -85 253z" />
    <glyph glyph-name="parenrightinferior" unicode="&#x208e;" horiz-adv-x="180" 
d="M158 55c0 -112 -48 -197 -85 -253l-56 28c31 68 55 133 55 225c0 93 -24 158 -55 225l56 29c37 -56 85 -141 85 -254z" />
    <glyph glyph-name="uni20A1" unicode="&#x20a1;" 
d="M511 770l-18 -95c21 -7 41 -15 62 -24l-37 -110c-17 7 -32 13 -47 18l-85 -455c44 3 83 12 132 35l37 -110c-61 -29 -129 -44 -190 -44h-2l-18 -93h-68l19 99c-17 3 -33 7 -48 11l-20 -110h-69l26 139c-96 59 -147 168 -147 309c0 193 95 327 272 351l15 79h68l-15 -75
c17 -1 32 -2 49 -5l15 80h69zM356 576l-84 -447c15 -8 29 -16 46 -20l87 465c-13 1 -27 2 -40 2h-9zM183 340c0 -60 10 -111 33 -150l68 368c-67 -35 -101 -113 -101 -218z" />
    <glyph glyph-name="lira" unicode="&#x20a4;" horiz-adv-x="569" 
d="M438 207h-163c-7 -36 -26 -66 -49 -89v-2h293v-116h-456v96c53 29 69 60 69 101v10h-79v103h68l-8 62h-60v103h53v12c0 145 78 208 235 208c63 0 136 -18 193 -45l-37 -110c-49 21 -100 36 -156 36c-59 0 -90 -22 -90 -89v-12h187v-103h-177l9 -62h168v-103z" />
    <glyph glyph-name="uni20A6" unicode="&#x20a6;" horiz-adv-x="683" 
d="M659 218h-49v-218h-195l-85 218h-131v-218h-127v218h-48v89h48v69h-48v89h48v215h196l83 -215h132v215h127v-215h49v-89h-49v-69h49v-89zM385 376l26 -69h75l-2 69h-99zM268 376h-73l3 -69h97zM491 101h3l-5 117h-43zM189 579h-3l5 -114h42z" />
    <glyph glyph-name="rupee" unicode="&#x20a8;" 
d="M518 405h-75c-16 -91 -79 -150 -193 -161l237 -228v-16h-160l-260 261v86h112c71 0 110 19 121 58h-248l30 101h218c-11 39 -52 58 -121 58h-127l30 116h466l-30 -101h-141v-2c35 -21 52 -46 61 -71h110z" />
    <glyph glyph-name="uni20AA" unicode="&#x20aa;" horiz-adv-x="750" 
d="M520 194h-119v227c0 113 -26 143 -121 143h-92v-564h-139v680h231c196 0 240 -81 240 -262v-224zM567 681h139v-419c0 -181 -63 -262 -260 -262h-211v486h119v-370h92c95 0 121 30 121 143v422z" />
    <glyph glyph-name="dong" unicode="&#x20ab;" 
d="M544 568h-44v-438h-107l-13 27h-2c-33 -20 -74 -39 -139 -39c-128 0 -198 94 -198 209c0 113 70 208 198 208c61 0 97 -16 124 -31h2v64h-96v88h96v44h135v-44h44v-88zM365 243v166c-23 9 -52 17 -83 17c-70 0 -103 -36 -103 -99c0 -65 33 -101 103 -101
c31 0 60 10 83 17zM499 0h-425v88h425v-88z" />
    <glyph glyph-name="Euro" unicode="&#x20ac;" 
d="M432 204h-190c29 -65 80 -100 144 -100c51 0 90 8 145 35l37 -110c-59 -29 -122 -44 -182 -44c-156 0 -252 83 -288 219h-82l31 101h34c-1 12 -1 24 -1 35s0 22 1 35h-65l30 101h52c36 136 132 219 288 219c60 0 123 -15 182 -44l-37 -110c-55 27 -94 35 -145 35
c-64 0 -118 -36 -145 -100h264l-29 -101h-257c-1 -13 -1 -24 -1 -35s0 -23 1 -35h242z" />
    <glyph glyph-name="uni20AD" unicode="&#x20ad;" 
d="M537 283h-146l182 -273v-10h-160l-169 283h-27v-283h-139v283h-53v103h53v294h139v-294h27l163 294h155v-10l-174 -284h149v-103z" />
    <glyph glyph-name="uni20AE" unicode="&#x20ae;" 
d="M461 326v-89l-97 -34v-203h-139v156l-96 -33v89l96 33v61l-96 -33v89l96 33v169h-191v116h522v-116h-192v-122l97 34v-89l-97 -34v-61z" />
    <glyph glyph-name="uni20B1" unicode="&#x20b1;" 
d="M568 305h-66c-32 -97 -108 -156 -231 -156h-49v-149h-139v305h-48v86h48v49h-48v86h48v154h188c124 0 200 -58 232 -154h65v-86h-50c1 -7 1 -18 1 -25s0 -17 -1 -24h50v-86zM380 415c0 7 0 18 -1 25h-161v-49h161c1 7 1 17 1 24zM218 263h49c38 0 66 15 85 44h-134v-44z
M218 566v-42h133c-19 27 -45 42 -84 42h-49z" />
    <glyph glyph-name="uni20B2" unicode="&#x20b2;" 
d="M341 770v-75c73 -3 149 -25 189 -49l-37 -108c-39 20 -91 37 -152 38v-472c21 3 50 7 69 18v133l-39 11v99h168v-321c-48 -31 -123 -54 -198 -58v-94h-82v98c-144 24 -222 162 -222 350c0 167 71 314 222 348v82h82zM183 340c0 -116 24 -199 76 -226v448
c-52 -31 -76 -111 -76 -222z" />
    <glyph glyph-name="uni20B4" unicode="&#x20b4;" 
d="M542 207h-330c-1 -7 -2 -12 -2 -19c0 -57 31 -86 99 -86c53 0 138 31 175 57l40 -109c-51 -32 -143 -65 -215 -65c-151 0 -232 81 -232 200c0 7 0 15 1 22h-35v98h104c19 15 37 31 52 42l42 30h-198v98h330c3 7 2 15 2 24c0 48 -30 79 -95 79c-36 0 -103 -19 -148 -43
l-40 111c63 32 141 49 188 49c154 0 228 -85 228 -197c0 -8 -1 -16 -2 -23h36v-98h-106c-16 -13 -37 -31 -56 -43l-44 -29h206v-98z" />
    <glyph glyph-name="uni20B5" unicode="&#x20b5;" 
d="M380 770v-75c56 -3 119 -17 175 -44l-37 -110c-51 23 -91 32 -138 35v-472c47 3 87 12 138 35l37 -110c-56 -27 -119 -41 -175 -44v-93h-88v99c-166 30 -255 161 -255 349c0 186 89 319 255 349v81h88zM182 340c0 -111 38 -191 110 -222v444c-72 -31 -110 -113 -110 -222
z" />
    <glyph glyph-name="afii61289" unicode="&#x2113;" horiz-adv-x="385" 
d="M326 110l29 -84c-33 -28 -76 -41 -119 -41c-72 0 -117 41 -117 128v107c-8 -8 -40 -34 -58 -47l-41 74c33 24 82 67 99 86v215c0 116 54 167 130 167c71 0 112 -47 112 -134c0 -104 -55 -204 -154 -297v-147c0 -38 17 -57 44 -57c25 0 51 11 75 30zM271 569
c0 39 -16 52 -33 52c-19 0 -31 -12 -31 -55v-167c41 44 64 113 64 170z" />
    <glyph glyph-name="afii61352" unicode="&#x2116;" horiz-adv-x="1106" 
d="M515 211h3v469h139v-680h-147l-289 469h-3v-469h-139v680h147zM828 502c0 -61 32 -78 69 -78c39 0 69 17 69 78c0 60 -30 78 -69 78c-37 0 -69 -18 -69 -78zM1066 502c0 -88 -60 -161 -169 -161c-107 0 -169 73 -169 161s62 161 169 161c109 0 169 -73 169 -161z
M1038 196h-283v87h283v-87z" />
    <glyph glyph-name="uni2117" unicode="&#x2117;" horiz-adv-x="802" 
d="M46 340c0 201 154 355 355 355s355 -154 355 -355s-154 -355 -355 -355s-355 154 -355 355zM117 340c0 -163 128 -287 291 -287c162 0 277 124 277 287s-121 287 -284 287s-284 -124 -284 -287zM371 153h-91v374h152c97 0 133 -57 133 -129s-37 -129 -133 -129h-61v-116z
M371 453v-110h50c36 0 49 19 49 55c0 37 -13 55 -49 55h-50z" />
    <glyph glyph-name="trademark" unicode="&#x2122;" horiz-adv-x="738" 
d="M54 700h245v-64h-82v-216h-80v216h-83v64zM507 557h1l73 143h87v-280h-81v172h-1l-45 -115h-66l-46 115h-1v-172h-79v280h88z" />
    <glyph glyph-name="Omega" unicode="&#x2126;" horiz-adv-x="774" 
d="M55 0v116h142c-72 40 -138 128 -138 268c0 154 101 311 328 311c225 0 328 -157 328 -311c0 -138 -66 -227 -139 -268h142v-116h-288v102c82 53 139 125 139 263c0 109 -48 211 -182 211c-135 0 -183 -102 -183 -211c0 -138 57 -210 139 -263v-102h-288z" />
    <glyph glyph-name="estimated" unicode="&#x212e;" horiz-adv-x="656" 
d="M540 133l37 -27c-63 -87 -135 -121 -242 -121c-172 0 -284 137 -284 305c0 170 112 302 284 302c168 0 282 -120 287 -292l-7 -10h-445v-201c43 -41 101 -62 165 -62c83 0 154 29 205 106zM501 330v161c-47 44 -105 63 -166 63c-64 0 -122 -19 -165 -63v-161h331z" />
    <glyph glyph-name="onethird" unicode="&#x2153;" horiz-adv-x="773" 
d="M196 0h-104v10l456 670h104v-10zM516 137v77h69c31 0 45 10 45 33c0 19 -11 34 -50 34c-29 0 -65 -6 -90 -17l-26 73c31 12 70 23 119 23c92 0 143 -36 143 -100c0 -49 -29 -71 -56 -75v-1c39 -12 66 -39 66 -88c0 -63 -45 -104 -158 -104c-48 0 -91 11 -123 27l24 75
c24 -12 63 -22 98 -22c43 0 63 12 63 37c0 23 -15 28 -54 28h-70zM39 538h-9v84l130 58h70v-352h-92v254h-2z" />
    <glyph glyph-name="twothirds" unicode="&#x2154;" horiz-adv-x="824" 
d="M248 0h-104v10l456 670h104v-10zM568 137v77h69c31 0 45 10 45 33c0 19 -11 34 -50 34c-29 0 -65 -6 -90 -17l-26 73c31 12 70 23 119 23c92 0 143 -36 143 -100c0 -49 -29 -71 -56 -75v-1c39 -12 66 -39 66 -88c0 -63 -45 -104 -158 -104c-48 0 -91 11 -123 27l24 75
c24 -12 63 -22 98 -22c43 0 63 12 63 37c0 23 -15 28 -54 28h-70zM176 404v-2h141v-76h-275v70l147 117c19 15 26 30 26 50c0 24 -16 44 -44 44c-33 0 -54 -19 -77 -42l-53 60c22 25 66 61 135 61c76 0 136 -40 136 -117c0 -49 -29 -83 -68 -112z" />
    <glyph glyph-name="oneeighth" unicode="&#x215b;" horiz-adv-x="773" 
d="M39 538h-9v84l130 58h70v-352h-92v254h-2zM196 0h-104v10l456 670h104v-10zM592 67c41 0 54 18 54 41s-13 40 -54 40c-43 0 -55 -17 -55 -40s14 -41 55 -41zM592 360c79 0 132 -39 132 -98c0 -43 -27 -66 -54 -77v-1c40 -12 69 -39 69 -87c0 -64 -59 -105 -147 -105
c-89 0 -147 41 -147 105c0 48 31 75 70 87v1c-28 11 -55 34 -55 77c0 59 52 98 132 98zM592 219c31 0 45 15 45 36c0 20 -14 36 -45 36s-43 -16 -43 -36c0 -21 12 -36 43 -36z" />
    <glyph glyph-name="threeeighths" unicode="&#x215c;" horiz-adv-x="813" 
d="M237 0h-104v10l456 670h104v-10zM633 67c41 0 54 18 54 41s-13 40 -54 40c-43 0 -55 -17 -55 -40s14 -41 55 -41zM633 360c79 0 132 -39 132 -98c0 -43 -27 -66 -54 -77v-1c40 -12 69 -39 69 -87c0 -64 -59 -105 -147 -105c-89 0 -147 41 -147 105c0 48 31 75 70 87v1
c-28 11 -55 34 -55 77c0 59 52 98 132 98zM633 219c31 0 45 15 45 36c0 20 -14 36 -45 36s-43 -16 -43 -36c0 -21 12 -36 43 -36zM94 462v77h69c31 0 45 10 45 33c0 19 -11 34 -50 34c-29 0 -65 -6 -90 -17l-26 73c31 12 70 23 119 23c92 0 143 -36 143 -100
c0 -49 -29 -71 -56 -75v-1c39 -12 66 -39 66 -88c0 -63 -45 -104 -158 -104c-48 0 -91 11 -123 27l24 75c24 -12 63 -22 98 -22c43 0 63 12 63 37c0 23 -15 28 -54 28h-70z" />
    <glyph glyph-name="fiveeighths" unicode="&#x215d;" horiz-adv-x="796" 
d="M220 0h-104v10l456 670h104v-10zM616 67c41 0 54 18 54 41s-13 40 -54 40c-43 0 -55 -17 -55 -40s14 -41 55 -41zM616 360c79 0 132 -39 132 -98c0 -43 -27 -66 -54 -77v-1c40 -12 69 -39 69 -87c0 -64 -59 -105 -147 -105c-89 0 -147 41 -147 105c0 48 31 75 70 87v1
c-28 11 -55 34 -55 77c0 59 52 98 132 98zM616 219c31 0 45 15 45 36c0 20 -14 36 -45 36s-43 -16 -43 -36c0 -21 12 -36 43 -36zM70 475l-12 13l18 192h216v-77h-135l-4 -45h16c80 0 136 -31 136 -115c0 -76 -55 -123 -159 -123c-18 0 -70 1 -115 17l21 81
c31 -13 66 -18 99 -18c42 0 56 15 56 42c0 23 -15 38 -58 38c-27 0 -54 -2 -79 -5z" />
    <glyph glyph-name="seveneighths" unicode="&#x215e;" horiz-adv-x="754" 
d="M178 0h-104v10l456 670h104v-10zM574 67c41 0 54 18 54 41s-13 40 -54 40c-43 0 -55 -17 -55 -40s14 -41 55 -41zM574 360c79 0 132 -39 132 -98c0 -43 -27 -66 -54 -77v-1c40 -12 69 -39 69 -87c0 -64 -59 -105 -147 -105c-89 0 -147 41 -147 105c0 48 31 75 70 87v1
c-28 11 -55 34 -55 77c0 59 52 98 132 98zM574 219c31 0 45 15 45 36c0 20 -14 36 -45 36s-43 -16 -43 -36c0 -21 12 -36 43 -36zM63 328v5l147 269v1h-172v77h272v-71l-149 -281h-98z" />
    <glyph glyph-name="arrowleft" unicode="&#x2190;" horiz-adv-x="892" 
d="M40 339l380 380l89 -89l-248 -232h631v-118h-631l248 -232l-89 -89z" />
    <glyph glyph-name="arrowup" unicode="&#x2191;" horiz-adv-x="892" 
d="M465 763l380 -380l-89 -89l-232 249v-631h-119l1 631l-232 -249l-89 89z" />
    <glyph glyph-name="arrowright" unicode="&#x2192;" horiz-adv-x="892" 
d="M892 339l-380 -380l-89 89l248 232h-631v118h631l-248 232l89 89z" />
    <glyph glyph-name="arrowdown" unicode="&#x2193;" horiz-adv-x="892" 
d="M465 -88l-380 380l89 89l232 -249v631h119l-1 -631l232 249l89 -89z" />
    <glyph glyph-name="uni2196" unicode="&#x2196;" horiz-adv-x="888" 
d="M159 662h538v-126l-339 11l446 -445l-85 -85l-446 447l12 -340h-126v538z" />
    <glyph glyph-name="uni2197" unicode="&#x2197;" horiz-adv-x="888" 
d="M804 662v-538h-126l11 339l-445 -446l-85 85l447 446l-340 -11v125h538z" />
    <glyph glyph-name="uni2198" unicode="&#x2198;" horiz-adv-x="888" 
d="M804 18h-538v126l339 -11l-446 445l85 85l446 -447l-12 340h126v-538z" />
    <glyph glyph-name="uni2199" unicode="&#x2199;" horiz-adv-x="888" 
d="M159 18v538h126l-11 -339l445 446l85 -85l-447 -446l340 12v-126h-538z" />
    <glyph glyph-name="partialdiff" unicode="&#x2202;" horiz-adv-x="604" 
d="M158 582l18 118c252 0 380 -148 380 -369c0 -203 -103 -346 -281 -346c-154 0 -243 112 -243 246c0 164 103 250 215 250c100 0 145 -45 172 -74l2 2c-18 111 -109 170 -263 173zM416 292c-27 33 -70 71 -129 71c-71 0 -110 -55 -110 -132c0 -72 42 -128 109 -128
c81 0 125 82 130 189z" />
    <glyph glyph-name="Delta" unicode="&#x2206;" horiz-adv-x="708" 
d="M683 5v-5h-658v5l248 675h162zM355 538h-3l-145 -422h295z" />
    <glyph glyph-name="product" unicode="&#x220f;" horiz-adv-x="714" 
d="M500 -198v782h-286v-782h-139v898h564v-898h-139z" />
    <glyph glyph-name="summation" unicode="&#x2211;" horiz-adv-x="608" 
d="M32 -198v103l274 353l-258 338v104h509v-116h-353l253 -322l-270 -344h385v-116h-540z" />
    <glyph glyph-name="minus" unicode="&#x2212;" 
d="M40 323h510v-103h-510v103z" />
    <glyph glyph-name="uni2215" unicode="&#x2215;" horiz-adv-x="560" 
d="M104 0h-104v10l456 670h104v-10z" />
    <glyph glyph-name="uni2219" unicode="&#x2219;" horiz-adv-x="278" 
d="M54 291c0 51 33 86 85 86s85 -35 85 -86s-33 -86 -85 -86s-85 35 -85 86z" />
    <glyph glyph-name="radical" unicode="&#x221a;" horiz-adv-x="640" 
d="M8 212v10h127l121 -280h2l260 738h124l-313 -878h-140z" />
    <glyph glyph-name="infinity" unicode="&#x221e;" horiz-adv-x="743" 
d="M538 113c-61 0 -101 19 -165 88c-66 -68 -110 -88 -169 -88c-89 0 -155 65 -155 158s65 157 157 157c57 0 97 -18 166 -89c70 72 106 89 165 89c89 0 157 -61 157 -157c0 -93 -65 -158 -156 -158zM528 211c36 0 57 27 57 60c0 31 -21 59 -57 59c-25 0 -47 -16 -86 -60
c40 -43 61 -59 86 -59zM216 211c24 0 48 17 85 60c-39 43 -60 59 -85 59c-37 0 -58 -27 -58 -59c0 -35 21 -60 58 -60z" />
    <glyph glyph-name="integral" unicode="&#x222b;" horiz-adv-x="520" 
d="M141 -48l103 584c20 112 82 159 182 159c27 0 69 -3 90 -7l-15 -111c-17 4 -47 7 -64 7c-36 0 -51 -10 -59 -54l-103 -584c-20 -112 -82 -159 -182 -159c-27 0 -69 3 -89 7l15 111c17 -4 46 -7 62 -7c36 0 52 10 60 54z" />
    <glyph glyph-name="approxequal" unicode="&#x2248;" 
d="M88 335l-48 63c31 44 71 65 130 65c86 0 184 -55 258 -55c33 0 50 5 71 24l48 -63c-32 -44 -72 -64 -129 -64c-77 0 -185 55 -259 55c-35 0 -54 -8 -71 -25zM88 110l-48 63c31 44 71 65 130 65c86 0 184 -55 258 -55c33 0 50 5 71 24l48 -63c-32 -44 -72 -64 -129 -64
c-77 0 -185 55 -259 55c-35 0 -54 -8 -71 -25z" />
    <glyph glyph-name="notequal" unicode="&#x2260;" 
d="M237 0h-110v10l41 97h-109v103h152l52 123h-204v103h248l44 105h110v-10l-40 -95h108v-103h-152l-52 -123h204v-103h-247z" />
    <glyph glyph-name="lessequal" unicode="&#x2264;" 
d="M544 136h-10l-500 195v99l500 195h10v-109l-380 -134v-3l380 -134v-109zM34 103h510v-103h-510v103z" />
    <glyph glyph-name="greaterequal" unicode="&#x2265;" 
d="M55 136h-10v109l380 134v3l-380 134v109h10l500 -195v-99zM45 103h510v-103h-510v103z" />
    <glyph glyph-name="lozenge" unicode="&#x25ca;" horiz-adv-x="581" 
d="M241 0l-215 327l212 353h101l216 -333l-211 -347h-103zM294 126l127 214l-133 213l-128 -221z" />
    <glyph glyph-name="whitecircle" unicode="&#x25cb;" horiz-adv-x="800" 
d="M60 340c0 193 147 340 340 340s340 -147 340 -340s-147 -340 -340 -340s-340 147 -340 340zM125 340c0 -156 118 -276 275 -276c156 0 274 120 274 276s-118 276 -274 276c-157 0 -275 -120 -275 -276z" />
    <glyph glyph-name="blackcircle" unicode="&#x25cf;" horiz-adv-x="800" 
d="M60 341c0 192 147 339 339 339c193 0 341 -147 341 -339c0 -193 -148 -341 -341 -341c-192 0 -339 148 -339 341z" />
    <glyph glyph-name="uni25DC" unicode="&#x25dc;" horiz-adv-x="340" 
d="M340 680v-64c-157 0 -275 -120 -275 -276h-65c0 193 147 340 340 340z" />
    <glyph glyph-name="uni25DD" unicode="&#x25dd;" horiz-adv-x="340" 
d="M0 616v64c193 0 340 -147 340 -340h-66c0 156 -118 276 -274 276z" />
    <glyph glyph-name="uni25DE" unicode="&#x25de;" horiz-adv-x="340" 
d="M0 0v64c156 0 274 120 274 276h66c0 -193 -147 -340 -340 -340z" />
    <glyph glyph-name="uni25DF" unicode="&#x25df;" horiz-adv-x="340" 
d="M340 64v-64c-193 0 -340 147 -340 340h65c0 -156 118 -276 275 -276z" />
    <glyph glyph-name="commaaccent" unicode="&#xf6c3;" 
d="M215 -218v10l25 156h135v-10l-59 -156h-101z" />
    <glyph glyph-name="commainferior" unicode="&#xf6e1;" horiz-adv-x="191" 
d="M11 -221v8l39 215h111v-8l-67 -215h-83z" />
    <glyph glyph-name="commasuperior" unicode="&#xf6e2;" horiz-adv-x="192" 
d="M11 346v8l39 215h111v-8l-67 -215h-83z" />
    <glyph glyph-name="hypheninferior" unicode="&#xf6e5;" horiz-adv-x="267" 
d="M229 21h-191v77h191v-77z" />
    <glyph glyph-name="hyphensuperior" unicode="&#xf6e6;" horiz-adv-x="267" 
d="M229 589h-191v77h191v-77z" />
    <glyph glyph-name="periodinferior" unicode="&#xf6e7;" horiz-adv-x="188" 
d="M28 -62c0 40 26 68 66 68s66 -28 66 -68c0 -39 -26 -66 -66 -66s-66 27 -66 66z" />
    <glyph glyph-name="periodsuperior" unicode="&#xf6e8;" horiz-adv-x="190" 
d="M29 506c0 40 26 68 66 68s66 -28 66 -68c0 -39 -26 -66 -66 -66s-66 27 -66 66z" />
    <glyph glyph-name="uniF8FF" unicode="&#xf8ff;" horiz-adv-x="559" 
d="M73 0v680h413v-680h-413zM131 58h297v564h-297v-564z" />
    <glyph glyph-name="fi" unicode="&#xfb01;" horiz-adv-x="643" 
d="M580 0h-135v379h-205v-379h-135v379h-85v73l85 30v64c0 111 65 159 164 159c27 0 65 -3 86 -7v-111c-19 4 -48 7 -65 7c-36 0 -50 -10 -50 -54v-58h340v-482zM435 630c0 43 31 74 78 74c48 0 79 -31 79 -74s-31 -74 -79 -74c-47 0 -78 31 -78 74z" />
    <glyph glyph-name="fl" unicode="&#xfb02;" horiz-adv-x="672" 
d="M240 0h-135v379h-85v73l85 30v64c0 111 65 159 164 159c27 0 65 -3 86 -7v-111c-19 4 -48 7 -65 7c-36 0 -50 -10 -50 -54v-58h120v-103h-120v-379zM443 700h135v-592c0 -15 1 -18 16 -18h53v-92c-21 -4 -51 -7 -80 -7c-92 0 -124 45 -124 141v568z" />
    <glyph glyph-name="zero.lf" horiz-adv-x="648" 
d="M196 340c0 -149 31 -236 129 -236c97 0 127 87 127 236s-30 236 -127 236c-98 0 -129 -87 -129 -236zM597 340c0 -218 -77 -355 -272 -355c-197 0 -274 137 -274 355s77 355 274 355c195 0 272 -137 272 -355z" />
    <glyph glyph-name="one.lf" horiz-adv-x="407" 
d="M40 491h-12v119l196 70h104v-680h-139v542h-2z" />
    <glyph glyph-name="two.lf" horiz-adv-x="569" 
d="M233 118v-2h286v-116h-475v100l254 247c40 37 69 74 69 132c0 53 -43 97 -104 97c-64 0 -107 -32 -148 -71l-73 90c37 40 120 100 221 100c146 0 249 -78 249 -216c0 -95 -73 -168 -108 -203z" />
    <glyph glyph-name="three.lf" horiz-adv-x="573" 
d="M137 285v116h116c79 0 108 37 108 89s-33 86 -108 86c-51 0 -113 -13 -164 -34l-40 108c56 27 137 45 204 45c168 0 253 -72 253 -193c0 -80 -54 -131 -102 -147v-2c68 -24 120 -81 120 -170c0 -120 -94 -198 -271 -198c-100 0 -164 20 -220 51l37 110
c51 -27 107 -42 183 -42c72 0 126 32 126 89c0 62 -33 92 -126 92h-116z" />
    <glyph glyph-name="four.lf" horiz-adv-x="627" 
d="M364 459h139v-199h90v-116h-90v-144h-139v144h-337v100l212 436h143l-198 -418v-2h180v199z" />
    <glyph glyph-name="five.lf" horiz-adv-x="560" 
d="M94 306l-17 17l38 357h374v-116h-256l-14 -135c11 1 30 2 44 2c148 0 253 -59 253 -219c0 -144 -108 -227 -284 -227c-48 0 -135 13 -203 37l32 117c60 -25 131 -35 175 -35c90 0 135 40 135 108c0 64 -39 100 -140 100c-43 0 -94 -3 -137 -6z" />
    <glyph glyph-name="six.lf" horiz-adv-x="591" 
d="M428 680v-10l-157 -230l1 -2c15 7 44 13 75 13c123 0 213 -95 213 -230c0 -129 -92 -236 -260 -236c-173 0 -262 107 -262 236c0 56 13 109 48 165l188 294h154zM415 221c0 76 -44 111 -115 111c-72 0 -117 -35 -117 -111s45 -117 117 -117c71 0 115 41 115 117z" />
    <glyph glyph-name="seven.lf" horiz-adv-x="522" 
d="M93 0v10l255 552v2h-319v116h470v-100l-260 -580h-146z" />
    <glyph glyph-name="eight.lf" horiz-adv-x="616" 
d="M308 104c81 0 115 39 115 95s-34 95 -115 95c-84 0 -115 -39 -115 -95s34 -95 115 -95zM308 695c160 0 233 -80 233 -190c0 -81 -41 -125 -88 -146v-2c69 -27 115 -86 115 -173c0 -119 -88 -199 -260 -199s-260 80 -260 199c0 87 46 146 115 173v2c-48 21 -88 65 -88 146
c0 110 73 190 233 190zM308 410c63 0 88 31 88 83s-25 83 -88 83s-88 -31 -88 -83s25 -83 88 -83z" />
    <glyph glyph-name="nine.lf" horiz-adv-x="591" 
d="M163 0v10l157 230l-1 2c-15 -7 -44 -13 -75 -13c-123 0 -213 95 -213 230c0 129 92 236 260 236c171 0 262 -107 262 -236c0 -56 -13 -109 -48 -165l-188 -294h-154zM176 459c0 -76 44 -111 115 -111c72 0 117 35 117 111s-45 117 -117 117c-71 0 -115 -41 -115 -117z
" />
    <glyph glyph-name="a.alt" horiz-adv-x="525" 
d="M332 208h-69c-67 0 -95 -21 -95 -60c0 -37 19 -57 60 -57c37 0 79 16 104 33v84zM467 0h-100l-19 43h-2c-32 -27 -92 -58 -151 -58c-108 0 -163 64 -163 152c0 111 83 158 216 158h84v18c0 70 -56 73 -86 73c-53 0 -109 -14 -156 -35l-32 103c51 23 120 43 195 43
c139 0 214 -75 214 -199v-298z" />
    <glyph glyph-name="agrave.alt" horiz-adv-x="525" 
d="M332 208h-69c-67 0 -95 -21 -95 -60c0 -37 19 -57 60 -57c37 0 79 16 104 33v84zM467 0h-100l-19 43h-2c-32 -27 -92 -58 -151 -58c-108 0 -163 64 -163 152c0 111 83 158 216 158h84v18c0 70 -56 73 -86 73c-53 0 -109 -14 -156 -35l-32 103c51 23 120 43 195 43
c139 0 214 -75 214 -199v-298zM112 704v9h142l79 -136v-10h-118z" />
    <glyph glyph-name="aacute.alt" horiz-adv-x="525" 
d="M332 208h-69c-67 0 -95 -21 -95 -60c0 -37 19 -57 60 -57c37 0 79 16 104 33v84zM467 0h-100l-19 43h-2c-32 -27 -92 -58 -151 -58c-108 0 -163 64 -163 152c0 111 83 158 216 158h84v18c0 70 -56 73 -86 73c-53 0 -109 -14 -156 -35l-32 103c51 23 120 43 195 43
c139 0 214 -75 214 -199v-298zM419 713v-9l-103 -137h-118v10l79 136h142z" />
    <glyph glyph-name="acircumflex.alt" horiz-adv-x="525" 
d="M332 208h-69c-67 0 -95 -21 -95 -60c0 -37 19 -57 60 -57c37 0 79 16 104 33v84zM467 0h-100l-19 43h-2c-32 -27 -92 -58 -151 -58c-108 0 -163 64 -163 152c0 111 83 158 216 158h84v18c0 70 -56 73 -86 73c-53 0 -109 -14 -156 -35l-32 103c51 23 120 43 195 43
c139 0 214 -75 214 -199v-298zM342 713l91 -136v-10h-112l-53 69l-52 -69h-112v10l91 136h147z" />
    <glyph glyph-name="atilde.alt" horiz-adv-x="525" 
d="M332 208h-69c-67 0 -95 -21 -95 -60c0 -37 19 -57 60 -57c37 0 79 16 104 33v84zM467 0h-100l-19 43h-2c-32 -27 -92 -58 -151 -58c-108 0 -163 64 -163 152c0 111 83 158 216 158h84v18c0 70 -56 73 -86 73c-53 0 -109 -14 -156 -35l-32 103c51 23 120 43 195 43
c139 0 214 -75 214 -199v-298zM122 577l-27 70c21 37 62 66 106 66c64 0 96 -45 149 -45c27 0 51 14 67 34l27 -68c-23 -43 -66 -67 -105 -67c-59 0 -104 45 -150 45c-29 0 -48 -12 -67 -35z" />
    <glyph glyph-name="adieresis.alt" horiz-adv-x="525" 
d="M332 208h-69c-67 0 -95 -21 -95 -60c0 -37 19 -57 60 -57c37 0 79 16 104 33v84zM467 0h-100l-19 43h-2c-32 -27 -92 -58 -151 -58c-108 0 -163 64 -163 152c0 111 83 158 216 158h84v18c0 70 -56 73 -86 73c-53 0 -109 -14 -156 -35l-32 103c51 23 120 43 195 43
c139 0 214 -75 214 -199v-298zM81 640c0 43 31 74 78 74c48 0 79 -31 79 -74s-31 -74 -79 -74c-47 0 -78 31 -78 74zM301 640c0 43 31 74 78 74c48 0 79 -31 79 -74s-31 -74 -79 -74c-47 0 -78 31 -78 74z" />
    <glyph glyph-name="aring.alt" horiz-adv-x="525" 
d="M332 208h-69c-67 0 -95 -21 -95 -60c0 -37 19 -57 60 -57c37 0 79 16 104 33v84zM467 0h-100l-19 43h-2c-32 -27 -92 -58 -151 -58c-108 0 -163 64 -163 152c0 111 83 158 216 158h84v18c0 70 -56 73 -86 73c-53 0 -109 -14 -156 -35l-32 103c51 23 120 43 195 43
c139 0 214 -75 214 -199v-298zM227 643c0 -25 17 -39 42 -39s41 14 41 39c0 24 -16 39 -41 39s-42 -15 -42 -39zM147 643c0 69 50 112 122 112s121 -43 121 -112c0 -71 -49 -113 -121 -113s-122 42 -122 113z" />
    <glyph glyph-name="amacron.alt" horiz-adv-x="525" 
d="M332 208h-69c-67 0 -95 -21 -95 -60c0 -37 19 -57 60 -57c37 0 79 16 104 33v84zM467 0h-100l-19 43h-2c-32 -27 -92 -58 -151 -58c-108 0 -163 64 -163 152c0 111 83 158 216 158h84v18c0 70 -56 73 -86 73c-53 0 -109 -14 -156 -35l-32 103c51 23 120 43 195 43
c139 0 214 -75 214 -199v-298zM414 579h-290v103h290v-103z" />
    <glyph glyph-name="abreve.alt" horiz-adv-x="525" 
d="M332 208h-69c-67 0 -95 -21 -95 -60c0 -37 19 -57 60 -57c37 0 79 16 104 33v84zM467 0h-100l-19 43h-2c-32 -27 -92 -58 -151 -58c-108 0 -163 64 -163 152c0 111 83 158 216 158h84v18c0 70 -56 73 -86 73c-53 0 -109 -14 -156 -35l-32 103c51 23 120 43 195 43
c139 0 214 -75 214 -199v-298zM268 674c56 0 98 7 133 34l42 -64c-35 -51 -90 -77 -175 -77c-84 0 -138 26 -173 77l42 64c35 -25 78 -34 131 -34z" />
    <glyph glyph-name="aogonek.alt" horiz-adv-x="525" 
d="M407 -213c-75 0 -116 44 -116 103c0 53 34 89 74 114l-17 39h-2c-32 -27 -92 -58 -151 -58c-108 0 -163 64 -163 152c0 111 83 158 216 158h84v18c0 70 -56 73 -86 73c-53 0 -109 -14 -156 -35l-32 103c51 23 120 43 195 43c139 0 214 -75 214 -199v-298
c-43 -16 -72 -57 -72 -86c0 -31 14 -40 41 -40c20 0 41 9 53 18l11 -80c-21 -13 -62 -25 -93 -25zM332 208h-69c-67 0 -95 -21 -95 -60c0 -37 19 -57 60 -57c37 0 79 16 104 33v84z" />
    <glyph glyph-name="aringacute.alt" horiz-adv-x="525" 
d="M235 634c0 -25 17 -34 42 -34s41 9 41 34c0 24 -16 34 -41 34s-42 -10 -42 -34zM155 634c0 69 50 107 122 107s121 -38 121 -107c0 -71 -49 -108 -121 -108s-122 37 -122 108zM332 208h-69c-67 0 -95 -21 -95 -60c0 -37 19 -57 60 -57c37 0 79 16 104 33v84zM467 0h-100
l-19 43h-2c-32 -27 -92 -58 -151 -58c-108 0 -163 64 -163 152c0 111 83 158 216 158h84v18c0 70 -56 73 -86 73c-53 0 -109 -14 -156 -35l-32 103c51 23 120 43 195 43c139 0 214 -75 214 -199v-298zM422 880v-7l-79 -103h-122v8l56 102h145z" />
    <glyph glyph-name="uni0444.alt" horiz-adv-x="720" 
d="M38 241c0 126 72 231 254 250v209h135v-211c187 -21 255 -123 255 -248s-68 -227 -255 -248v-191h-135v189c-182 19 -254 123 -254 250zM176 241c0 -80 31 -141 116 -154v307c-85 -13 -116 -74 -116 -153zM544 241c0 78 -30 136 -117 152v-305c87 16 117 75 117 153z" />
    <glyph glyph-name="Euro.alt" horiz-adv-x="614" 
d="M440 204h-188c29 -65 80 -100 144 -100c51 0 90 8 145 35l37 -110c-59 -29 -122 -44 -182 -44c-156 0 -252 83 -288 219h-67v101h50c-1 12 -1 24 -1 35s0 22 1 35h-50v101h67c36 136 132 219 288 219c60 0 123 -15 182 -44l-37 -110c-55 27 -94 35 -145 35
c-64 0 -118 -36 -145 -100h189v-101h-211c-1 -13 -1 -24 -1 -35s0 -23 1 -35h211v-101z" />
    <glyph glyph-name="rupee.alt" 
d="M523 405h-75c-16 -91 -79 -150 -193 -161l237 -228v-16h-160l-260 261v86h112c71 0 110 19 121 58h-233l-1 101h234c-11 39 -52 58 -121 58h-112l-1 116h452v-101h-141v-2c35 -21 52 -46 61 -71h80v-101z" />
    <glyph glyph-name="registered.alt" horiz-adv-x="802" 
d="M46 340c0 201 154 355 355 355s355 -154 355 -355s-154 -355 -355 -355s-355 154 -355 355zM117 340c0 -163 128 -287 291 -287c162 0 277 124 277 287s-121 287 -284 287s-284 -124 -284 -287zM336 153h-91v374h171c97 0 138 -44 138 -116c0 -56 -26 -96 -82 -111
l102 -138v-9h-100l-97 141h-41v-141zM336 368h76c35 0 47 19 47 43s-12 42 -47 42h-76v-85z" />
    <glyph glyph-name="uniEA04" unicode="&#xea04;" horiz-adv-x="1000" 
d="M69 -96v861h861v-861h-861zM589 298v-188h115v469h-115v-188h-176v188h-116v-469h116v188h176z" />
    <glyph glyph-name="uniEA05" unicode="&#xea05;" horiz-adv-x="1000" 
d="M69 -96v861h861v-861h-861zM287 344c0 -147 84 -245 236 -245c45 0 94 11 138 30l-30 92c-43 -19 -68 -25 -108 -25c-64 0 -114 48 -114 148s50 149 114 149c40 0 65 -6 108 -26l30 92c-44 20 -93 30 -138 30c-152 0 -236 -99 -236 -245z" />
    <glyph glyph-name="uniEA06" unicode="&#xea06;" horiz-adv-x="1000" 
d="M69 -96v861h861v-861h-861zM349 233l-29 -92c41 -21 106 -42 174 -42c100 0 180 57 180 156c0 73 -44 110 -135 138l-52 16c-35 11 -43 22 -43 41c0 27 17 45 58 45c33 0 80 -9 119 -28l30 92c-55 24 -112 30 -149 30c-108 0 -177 -55 -177 -147c0 -59 27 -107 115 -136
l54 -17c49 -16 61 -25 61 -48c0 -31 -21 -47 -64 -47c-47 0 -109 20 -142 39z" />
    <glyph glyph-name="uniEA01" unicode="&#xea01;" horiz-adv-x="1000" 
d="M69 -96v861h861v-861h-861zM142 -23h715v715h-715v-715zM589 110v188h-176v-188h-116v469h116v-188h176v188h115v-469h-115z" />
    <glyph glyph-name="uniEA02" unicode="&#xea02;" horiz-adv-x="1000" 
d="M69 -96v861h861v-861h-861zM142 -23h715v715h-715v-715zM287 344c0 146 84 245 236 245c45 0 94 -10 138 -30l-30 -92c-43 20 -68 26 -108 26c-64 0 -114 -49 -114 -149s50 -148 114 -148c40 0 65 6 108 25l30 -92c-44 -19 -93 -30 -138 -30c-152 0 -236 98 -236 245z
" />
    <glyph glyph-name="uniEA03" unicode="&#xea03;" horiz-adv-x="1000" 
d="M69 -96v861h861v-861h-861zM142 -23h715v715h-715v-715zM320 141l29 92c33 -19 95 -39 142 -39c43 0 64 16 64 47c0 23 -12 32 -61 48l-54 17c-88 29 -115 77 -115 136c0 92 69 147 177 147c37 0 94 -6 149 -30l-30 -92c-39 19 -86 28 -119 28c-41 0 -58 -18 -58 -45
c0 -19 8 -30 43 -41l52 -16c91 -28 135 -65 135 -138c0 -99 -80 -156 -180 -156c-68 0 -133 21 -174 42z" />
    <glyph glyph-name="guillemotleft.case" horiz-adv-x="565" 
d="M45 335v12l161 219l83 -49l-107 -177l108 -176l-84 -48zM266 335v12l161 219l83 -49l-107 -177l108 -176l-84 -48z" />
    <glyph glyph-name="bracketleft.case" horiz-adv-x="341" 
d="M75 790h232v-73l-117 -23v-706l117 -23v-73h-232v898z" />
    <glyph glyph-name="guilsinglright.case" horiz-adv-x="343" 
d="M298 347v-12l-161 -219l-83 49l107 177l-108 176l84 48z" />
    <glyph glyph-name="bar.case" horiz-adv-x="239" 
d="M164 790v-898h-89v898h89z" />
    <glyph glyph-name="periodcentered.case" horiz-adv-x="286" 
d="M58 340c0 51 33 86 85 86s85 -35 85 -86s-33 -86 -85 -86s-85 35 -85 86z" />
    <glyph glyph-name="bullet.case" horiz-adv-x="372" 
d="M73 340c0 67 44 114 113 114s113 -47 113 -114s-44 -114 -113 -114s-113 47 -113 114z" />
    <glyph glyph-name="emdash.case" horiz-adv-x="928" 
d="M862 291h-796v103h796v-103z" />
    <glyph glyph-name="bracketright.case" horiz-adv-x="341" 
d="M34 790h232v-898h-232v73l117 23v706l-117 23v73z" />
    <glyph glyph-name="endash.case" horiz-adv-x="592" 
d="M526 291h-460v103h460v-103z" />
    <glyph glyph-name="hyphen.case" horiz-adv-x="422" 
d="M356 289h-290v103h290v-103z" />
    <glyph glyph-name="guillemotright.case" horiz-adv-x="564" 
d="M298 347v-12l-161 -219l-83 49l107 177l-108 176l84 48zM519 347v-12l-161 -219l-83 49l107 177l-108 176l84 48z" />
    <glyph glyph-name="parenleft.case" horiz-adv-x="294" 
d="M45 341c0 193 62 359 134 465l78 -34c-61 -133 -87 -274 -87 -431s26 -298 87 -431l-78 -34c-72 106 -134 272 -134 465z" />
    <glyph glyph-name="guilsinglleft.case" horiz-adv-x="344" 
d="M45 335v12l161 219l83 -49l-107 -177l108 -176l-84 -48z" />
    <glyph glyph-name="braceright.case" horiz-adv-x="367" 
d="M345 389v-96c-51 0 -89 -27 -89 -79v-132c0 -119 -37 -190 -185 -190h-36v73c78 0 106 41 106 108v138c0 79 25 118 86 129v2c-61 11 -86 50 -86 129v138c0 67 -28 108 -106 108v73h36c148 0 185 -71 185 -190v-132c0 -52 38 -79 89 -79z" />
    <glyph glyph-name="braceleft.case" horiz-adv-x="367" 
d="M22 293v96c51 0 89 27 89 79v132c0 119 37 190 185 190h36v-73c-78 0 -106 -41 -106 -108v-138c0 -79 -25 -118 -86 -129v-2c61 -11 86 -50 86 -129v-138c0 -67 28 -108 106 -108v-73h-36c-148 0 -185 71 -185 190v132c0 52 -38 79 -89 79z" />
    <glyph glyph-name="parenright.case" horiz-adv-x="294" 
d="M249 341c0 -193 -62 -359 -134 -465l-78 34c61 133 87 274 87 431s-26 298 -87 431l78 34c72 -106 134 -272 134 -465z" />
    <glyph glyph-name="minus.case" horiz-adv-x="800" 
d="M622 290h-445v93h445v-93z" />
    <glyph glyph-name="zero.num" horiz-adv-x="359" 
d="M123 503c0 -72 20 -102 55 -102c39 0 59 30 59 102s-20 104 -59 104c-35 0 -55 -32 -55 -104zM333 503c0 -110 -57 -183 -155 -183c-94 0 -152 73 -152 183c0 112 58 185 152 185c98 0 155 -73 155 -185z" />
    <glyph glyph-name="one.num" horiz-adv-x="261" 
d="M25 538h-9v84l130 58h70v-352h-92v254h-2z" />
    <glyph glyph-name="two.num" horiz-adv-x="328" 
d="M159 406v-2h141v-76h-275v70l147 117c19 15 26 30 26 50c0 24 -16 44 -44 44c-33 0 -54 -19 -77 -42l-53 60c22 25 66 61 135 61c76 0 136 -40 136 -117c0 -49 -29 -83 -68 -112z" />
    <glyph glyph-name="three.num" horiz-adv-x="324" 
d="M78 465v77h69c31 0 45 10 45 33c0 19 -11 34 -50 34c-29 0 -65 -6 -90 -17l-26 73c31 12 70 23 119 23c92 0 143 -36 143 -100c0 -49 -29 -71 -56 -75v-1c39 -12 66 -39 66 -88c0 -63 -45 -104 -158 -104c-48 0 -91 11 -123 27l24 75c24 -12 63 -22 98 -22
c43 0 63 12 63 37c0 23 -15 28 -54 28h-70z" />
    <glyph glyph-name="four.num" horiz-adv-x="340" 
d="M187 572h91v-93h42v-76h-42v-75h-91v75h-172v68l90 209h93l-81 -200v-1h70v93z" />
    <glyph glyph-name="five.num" horiz-adv-x="314" 
d="M54 475l-12 13l18 192h216v-77h-135l-4 -45h16c80 0 136 -31 136 -115c0 -76 -55 -123 -159 -123c-18 0 -70 1 -115 17l21 81c31 -13 66 -18 99 -18c42 0 56 15 56 42c0 23 -15 38 -58 38c-27 0 -54 -2 -79 -5z" />
    <glyph glyph-name="six.num" horiz-adv-x="331" 
d="M256 680v-5l-93 -119v-1c11 3 29 7 48 7c52 0 104 -38 104 -114s-57 -128 -144 -128c-104 0 -148 64 -148 128c0 23 4 52 31 91l96 141h106zM219 446c0 31 -17 47 -48 47c-33 0 -52 -16 -52 -47c0 -32 19 -47 52 -47c31 0 48 15 48 47z" />
    <glyph glyph-name="seven.num" horiz-adv-x="303" 
d="M43 328v5l147 269v1h-172v77h272v-71l-149 -281h-98z" />
    <glyph glyph-name="eight.num" horiz-adv-x="344" 
d="M172 395c41 0 54 18 54 41s-13 40 -54 40c-43 0 -55 -17 -55 -40s14 -41 55 -41zM172 688c79 0 132 -39 132 -98c0 -43 -27 -66 -54 -77v-1c40 -12 69 -39 69 -87c0 -64 -59 -105 -147 -105c-89 0 -147 41 -147 105c0 48 31 75 70 87v1c-28 11 -55 34 -55 77
c0 59 52 98 132 98zM172 547c31 0 45 15 45 36c0 20 -14 36 -45 36s-43 -16 -43 -36c0 -21 12 -36 43 -36z" />
    <glyph glyph-name="nine.num" horiz-adv-x="331" 
d="M75 328v6l93 118v1c-11 -4 -28 -7 -47 -7c-53 0 -105 39 -105 114c0 77 58 128 146 128c101 0 146 -64 146 -128c0 -23 -4 -52 -31 -91l-96 -141h-106zM113 561c0 -31 17 -46 49 -46s50 15 50 46c0 32 -18 49 -50 49s-49 -17 -49 -49z" />
    <glyph glyph-name="comma.num" horiz-adv-x="192" 
d="M11 226v8l39 215h111v-8l-67 -215h-83z" />
    <glyph glyph-name="plus.num" horiz-adv-x="265" 
d="M170 613v-67h68v-77h-68v-67h-77v67h-66v77h66v67h77z" />
    <glyph glyph-name="hyphen.num" horiz-adv-x="267" 
d="M229 469h-191v77h191v-77z" />
    <glyph glyph-name="minus.num" horiz-adv-x="287" 
d="M249 469h-211v77h211v-77z" />
    <glyph glyph-name="parenleft.num" horiz-adv-x="179" 
d="M21 503c0 113 48 198 85 254l56 -29c-31 -67 -55 -132 -55 -225c0 -92 24 -157 55 -225l-56 -28c-37 56 -85 141 -85 253z" />
    <glyph glyph-name="period.num" horiz-adv-x="190" 
d="M29 386c0 40 26 68 66 68s66 -28 66 -68c0 -39 -26 -66 -66 -66s-66 27 -66 66z" />
    <glyph glyph-name="parenright.num" horiz-adv-x="179" 
d="M158 503c0 -112 -48 -197 -85 -253l-56 28c31 68 55 133 55 225c0 93 -24 158 -55 225l56 29c37 -56 85 -141 85 -254z" />
    <glyph glyph-name="zero.denom" horiz-adv-x="359" 
d="M123 175c0 -72 20 -102 55 -102c39 0 59 30 59 102s-20 104 -59 104c-35 0 -55 -32 -55 -104zM333 175c0 -110 -57 -183 -155 -183c-94 0 -152 73 -152 183c0 112 58 185 152 185c98 0 155 -73 155 -185z" />
    <glyph glyph-name="one.denom" horiz-adv-x="261" 
d="M24 210h-9v84l130 58h70v-352h-92v254h-2z" />
    <glyph glyph-name="two.denom" horiz-adv-x="328" 
d="M159 78v-2h141v-76h-275v70l147 117c19 15 26 30 26 50c0 24 -16 44 -44 44c-33 0 -54 -19 -77 -42l-53 60c22 25 66 61 135 61c76 0 136 -40 136 -117c0 -49 -29 -83 -68 -112z" />
    <glyph glyph-name="three.denom" horiz-adv-x="324" 
d="M78 137v77h69c31 0 45 10 45 33c0 19 -11 34 -50 34c-29 0 -65 -6 -90 -17l-26 73c31 12 70 23 119 23c92 0 143 -36 143 -100c0 -49 -29 -71 -56 -75v-1c39 -12 66 -39 66 -88c0 -63 -45 -104 -158 -104c-48 0 -91 11 -123 27l24 75c24 -12 63 -22 98 -22
c43 0 63 12 63 37c0 23 -15 28 -54 28h-70z" />
    <glyph glyph-name="four.denom" horiz-adv-x="340" 
d="M187 244h91v-93h42v-76h-42v-75h-91v75h-172v68l90 209h93l-81 -200v-1h70v93z" />
    <glyph glyph-name="five.denom" horiz-adv-x="313" 
d="M53 147l-12 13l18 192h216v-77h-135l-4 -45h16c80 0 136 -31 136 -115c0 -76 -55 -123 -159 -123c-18 0 -70 1 -115 17l21 81c31 -13 66 -18 99 -18c42 0 56 15 56 42c0 23 -15 38 -58 38c-27 0 -54 -2 -79 -5z" />
    <glyph glyph-name="six.denom" horiz-adv-x="332" 
d="M256 352v-5l-93 -119v-1c11 3 29 7 48 7c52 0 104 -38 104 -114s-57 -128 -144 -128c-104 0 -148 64 -148 128c0 23 4 52 31 91l96 141h106zM219 118c0 31 -17 47 -48 47c-33 0 -52 -16 -52 -47c0 -32 19 -47 52 -47c31 0 48 15 48 47z" />
    <glyph glyph-name="seven.denom" horiz-adv-x="302" 
d="M42 0v5l147 269v1h-172v77h272v-71l-149 -281h-98z" />
    <glyph glyph-name="eight.denom" horiz-adv-x="344" 
d="M172 67c41 0 54 18 54 41s-13 40 -54 40c-43 0 -55 -17 -55 -40s14 -41 55 -41zM172 360c79 0 132 -39 132 -98c0 -43 -27 -66 -54 -77v-1c40 -12 69 -39 69 -87c0 -64 -59 -105 -147 -105c-89 0 -147 41 -147 105c0 48 31 75 70 87v1c-28 11 -55 34 -55 77
c0 59 52 98 132 98zM172 219c31 0 45 15 45 36c0 20 -14 36 -45 36s-43 -16 -43 -36c0 -21 12 -36 43 -36z" />
    <glyph glyph-name="nine.denom" horiz-adv-x="332" 
d="M76 0v6l93 118v1c-11 -4 -28 -7 -47 -7c-53 0 -105 39 -105 114c0 77 58 128 146 128c101 0 146 -64 146 -128c0 -23 -4 -52 -31 -91l-96 -141h-106zM114 233c0 -31 17 -46 49 -46s50 15 50 46c0 32 -18 49 -50 49s-49 -17 -49 -49z" />
    <glyph glyph-name="comma.denom" horiz-adv-x="191" 
d="M11 -101v8l39 215h111v-8l-67 -215h-83z" />
    <glyph glyph-name="plus.denom" horiz-adv-x="263" 
d="M169 285v-67h68v-77h-68v-67h-77v67h-66v77h66v67h77z" />
    <glyph glyph-name="parenright.denom" horiz-adv-x="180" 
d="M158 175c0 -112 -48 -197 -85 -253l-56 28c31 68 55 133 55 225c0 93 -24 158 -55 225l56 29c37 -56 85 -141 85 -254z" />
    <glyph glyph-name="hyphen.denom" horiz-adv-x="267" 
d="M229 141h-191v77h191v-77z" />
    <glyph glyph-name="minus.denom" horiz-adv-x="287" 
d="M249 141h-211v77h211v-77z" />
    <glyph glyph-name="parenleft.denom" horiz-adv-x="180" 
d="M22 175c0 113 48 198 85 254l56 -29c-31 -67 -55 -132 -55 -225c0 -92 24 -157 55 -225l-56 -28c-37 56 -85 141 -85 253z" />
    <glyph glyph-name="period.denom" horiz-adv-x="188" 
d="M28 58c0 40 26 68 66 68s66 -28 66 -68c0 -39 -26 -66 -66 -66s-66 27 -66 66z" />
    <glyph glyph-name="minusinferior" horiz-adv-x="287" 
d="M249 21h-211v77h211v-77z" />
    <glyph glyph-name="plusinferior" horiz-adv-x="263" 
d="M169 165v-67h68v-77h-68v-67h-77v67h-66v77h66v67h77z" />
    <glyph glyph-name="commaaccent.alt" 
d="M375 723v-10l-25 -156h-135v10l59 156h101z" />
    <glyph glyph-name="caron.alt" 
d="M215 514v10l25 156h135v-10l-59 -156h-101z" />
    <glyph glyph-name="commaaccent.cap" 
d="M215 -218v10l25 156h135v-10l-59 -156h-101z" />
    <glyph glyph-name="grave.cap" 
d="M189 887v9h152l59 -136v-10h-128z" />
    <glyph glyph-name="acute.cap" 
d="M400 896v-9l-83 -137h-128v10l59 136h152z" />
    <glyph glyph-name="circumflex.cap" 
d="M358 896l111 -136v-10h-112l-63 79l-62 -79h-112v10l111 136h127z" />
    <glyph glyph-name="caron.cap" 
d="M231 750l-111 136v10h112l63 -79l62 79h112v-10l-111 -136h-127z" />
    <glyph glyph-name="tilde.cap" 
d="M147 761l-27 70c21 37 62 66 106 66c64 0 96 -45 149 -45c27 0 51 14 67 34l27 -68c-23 -43 -66 -67 -105 -67c-59 0 -104 45 -150 45c-29 0 -48 -12 -67 -35z" />
    <glyph glyph-name="dieresis.cap" 
d="M86 819c0 43 31 74 78 74c48 0 79 -31 79 -74s-31 -74 -79 -74c-47 0 -78 31 -78 74zM347 819c0 43 31 74 78 74c48 0 79 -31 79 -74s-31 -74 -79 -74c-47 0 -78 31 -78 74z" />
    <glyph glyph-name="macron.cap" 
d="M440 759h-290v103h290v-103z" />
    <glyph glyph-name="tonos.cap" 
d="M405 680v-9l-53 -157h-118v10l29 156h142z" />
    <glyph glyph-name="breve.cap" 
d="M294 858c56 0 98 7 133 34l42 -64c-35 -51 -90 -77 -175 -77c-84 0 -138 26 -173 77l42 64c35 -25 78 -34 131 -34z" />
    <glyph glyph-name="ring.cap" 
d="M253 834c0 -25 17 -39 42 -39s41 14 41 39c0 24 -16 39 -41 39s-42 -15 -42 -39zM173 834c0 69 50 112 122 112s121 -43 121 -112c0 -71 -49 -113 -121 -113s-122 42 -122 113z" />
    <glyph glyph-name="hungarumlaut.cap" 
d="M300 896v-10l-103 -136h-118v10l79 136h142zM510 896v-10l-103 -136h-118v10l79 136h142z" />
    <glyph glyph-name="dotaccent.cap" 
d="M216 819c0 43 31 74 78 74c48 0 79 -31 79 -74s-31 -74 -79 -74c-47 0 -78 31 -78 74z" />
    </font>
</defs>
</svg>
