<?xml version="1.0" standalone="no"?>
<!DOCTYPE svg PUBLIC "-//W3C//DTD SVG 1.1//EN" "http://www.w3.org/Graphics/SVG/1.1/DTD/svg11.dtd" >
<svg xmlns="http://www.w3.org/2000/svg" xmlns:xlink="http://www.w3.org/1999/xlink" version="1.1">
<metadata>
Created by FontForge 20190801 at Sat Nov 15 15:02:41 2014
 By Jimmy Wärting
VW Head was created in collaboration with MetaDesign.
</metadata>
<defs>
<font id="VWHead" horiz-adv-x="590" >
  <font-face 
    font-family="VW Head"
    font-weight="400"
    font-stretch="normal"
    units-per-em="1000"
    panose-1="2 11 5 3 4 2 0 0 0 3"
    ascent="787"
    descent="-213"
    x-height="482"
    cap-height="680"
    bbox="-202 -221 1076 961"
    underline-thickness="70"
    underline-position="-110"
    stemh="79"
    stemv="92"
    unicode-range="U+000D-FB02"
  />
<missing-glyph horiz-adv-x="513" 
d="M50 0v680h413v-680h-413zM108 58h297v564h-297v-564z" />
    <glyph glyph-name=".notdef" horiz-adv-x="513" 
d="M50 0v680h413v-680h-413zM108 58h297v564h-297v-564z" />
    <glyph glyph-name=".null" horiz-adv-x="0" 
 />
    <glyph glyph-name=".null" horiz-adv-x="0" 
 />
    <glyph glyph-name="CR" unicode="&#xd;" horiz-adv-x="251" 
 />
    <glyph glyph-name="space" unicode=" " horiz-adv-x="251" 
 />
    <glyph glyph-name="exclam" unicode="!" horiz-adv-x="264" 
d="M178 509l-17 -299h-58l-17 299v171h92v-171zM69 50c0 39 25 65 64 65s63 -26 63 -65s-24 -65 -63 -65s-64 26 -64 65z" />
    <glyph glyph-name="quotedbl" unicode="&#x22;" horiz-adv-x="382" 
d="M313 580l-17 -176h-58l-17 176v100h92v-100zM161 580l-17 -176h-58l-17 176v100h92v-100z" />
    <glyph glyph-name="numbersign" unicode="#" horiz-adv-x="689" 
d="M174 0h-83v10l45 163h-95v74h116l53 189h-97v74h118l48 170h83v-10l-45 -160h149l48 170h82v-10l-45 -160h97v-74h-118l-53 -189h99v-74h-120l-48 -173h-83v10l46 163h-149zM296 436l-53 -189h149l53 189h-149z" />
    <glyph glyph-name="dollar" unicode="$" 
d="M73 59l41 73c43 -35 92 -56 153 -61v236l-21 8c-100 35 -158 95 -158 184c0 101 64 177 179 193v78h70v-77c61 -7 126 -31 162 -54l-37 -74c-39 23 -82 38 -125 43v-228c111 -42 177 -96 177 -195c0 -100 -70 -180 -177 -196v-97h-70v94c-84 7 -147 38 -194 73zM181 506
c0 -48 17 -79 86 -103v205c-60 -13 -86 -51 -86 -102zM421 179c0 55 -24 77 -84 104v-212c51 12 84 45 84 108z" />
    <glyph glyph-name="percent" unicode="%" horiz-adv-x="777" 
d="M116 509c0 -79 24 -116 69 -116s69 37 69 116c0 77 -24 116 -69 116c-44 0 -69 -39 -69 -116zM327 509c0 -101 -49 -177 -142 -177s-142 76 -142 177s49 177 142 177s142 -76 142 -177zM523 169c0 -79 24 -116 69 -116s69 37 69 116c0 77 -24 116 -69 116
c-44 0 -69 -39 -69 -116zM734 169c0 -101 -49 -177 -142 -177s-142 76 -142 177s49 177 142 177s142 -76 142 -177zM205 0h-76v10l447 670h76v-10z" />
    <glyph glyph-name="ampersand" unicode="&#x26;" horiz-adv-x="699" 
d="M570 342l70 -44c-35 -59 -68 -111 -102 -154l134 -134v-10h-105l-82 83c-65 -64 -136 -98 -224 -98c-136 0 -208 78 -208 178c0 92 75 147 137 182l24 14l-9 9c-47 47 -83 98 -83 155c0 87 69 172 185 172c109 0 183 -85 183 -171c0 -75 -52 -120 -106 -153l-44 -27
l141 -141c29 38 58 84 89 139zM264 70c59 0 112 23 163 72l-157 160l-25 -15c-59 -37 -97 -71 -97 -124c0 -54 41 -93 116 -93zM216 521c0 -30 13 -64 62 -113l7 -8l49 28c39 23 61 54 61 93c0 48 -28 89 -88 89c-65 0 -91 -40 -91 -89z" />
    <glyph glyph-name="quotesingle" unicode="'" horiz-adv-x="230" 
d="M161 580l-17 -176h-58l-17 176v100h92v-100z" />
    <glyph glyph-name="parenleft" unicode="(" horiz-adv-x="285" 
d="M52 251c0 194 56 346 125 465l65 -30c-64 -133 -95 -279 -95 -436s31 -303 95 -436l-65 -30c-69 119 -125 270 -125 467z" />
    <glyph glyph-name="parenright" unicode=")" horiz-adv-x="285" 
d="M233 251c0 -198 -57 -347 -126 -467l-64 30c64 133 95 279 95 436s-31 303 -95 436l64 30c69 -119 126 -270 126 -465z" />
    <glyph glyph-name="asterisk" unicode="*" horiz-adv-x="427" 
d="M184 484l-1 1l-91 -61l-35 61l96 50v2l-96 50l34 62l90 -61l2 1l-5 111h70l-7 -111l2 -1l91 61l35 -61l-96 -50v-2l96 -50l-34 -62l-93 62l-1 -1l7 -112h-70z" />
    <glyph glyph-name="plus" unicode="+" 
d="M332 521v-214h201v-74h-201v-215h-77v215h-199v74h199v214h77z" />
    <glyph glyph-name="comma" unicode="," horiz-adv-x="255" 
d="M41 -161v10l41 253h103v-10l-73 -253h-71z" />
    <glyph glyph-name="hyphen" unicode="-" horiz-adv-x="409" 
d="M337 233h-265v74h265v-74z" />
    <glyph glyph-name="period" unicode="." horiz-adv-x="254" 
d="M63 50c0 39 25 65 64 65s64 -26 64 -65s-25 -65 -64 -65s-64 26 -64 65z" />
    <glyph glyph-name="slash" unicode="/" horiz-adv-x="403" 
d="M114 0h-83v10l259 670h82v-10z" />
    <glyph glyph-name="zero" unicode="0" 
d="M132 340c0 -169 39 -270 164 -270s162 101 162 270s-37 270 -162 270s-164 -101 -164 -270zM553 340c0 -218 -74 -355 -257 -355c-184 0 -259 137 -259 355s75 355 259 355c183 0 257 -137 257 -355z" />
    <glyph glyph-name="one" unicode="1" 
d="M135 541h-13v81l162 58h76v-597h141v-83h-389v83h156v500h-2z" />
    <glyph glyph-name="two" unicode="2" 
d="M200 85v-2h313v-83h-442v73l252 251c45 45 88 91 88 158c0 72 -50 128 -135 128c-79 0 -123 -28 -164 -64l-43 64c40 35 103 85 207 85c131 0 230 -85 230 -213c0 -88 -45 -146 -108 -206z" />
    <glyph glyph-name="three" unicode="3" 
d="M156 305v83h121c89 0 126 50 126 111s-42 111 -126 111c-63 0 -116 -12 -173 -35l-28 75c52 28 130 45 202 45c141 0 220 -74 220 -190c0 -74 -49 -133 -95 -152v-2c65 -25 112 -85 112 -169c0 -119 -102 -197 -244 -197c-88 0 -162 20 -213 51l32 75
c59 -29 115 -41 180 -41c82 0 150 41 150 118c0 65 -34 117 -149 117h-115z" />
    <glyph glyph-name="four" unicode="4" 
d="M364 227v253h92v-253h98v-83h-98v-144h-92v144h-336v70l208 466h93l-199 -451v-2h234z" />
    <glyph glyph-name="five" unicode="5" 
d="M117 328l-9 11l42 341h341v-83h-267l-23 -181c19 1 45 2 70 2c145 0 245 -61 245 -211c0 -146 -108 -222 -264 -222c-59 0 -141 19 -188 40l24 80c53 -23 108 -35 164 -35c102 0 169 39 169 137c0 82 -47 126 -162 126c-42 0 -102 -2 -142 -5z" />
    <glyph glyph-name="six" unicode="6" 
d="M383 680v-10l-168 -251l2 -2c19 15 61 28 105 28c131 0 220 -91 220 -227c0 -131 -89 -233 -243 -233c-156 0 -244 102 -244 233c0 64 22 130 55 183l174 279h99zM447 218c0 92 -59 142 -148 142c-92 0 -149 -50 -149 -142c0 -89 57 -148 149 -148c89 0 148 59 148 148z
" />
    <glyph glyph-name="seven" unicode="7" 
d="M175 0v10l239 585v2h-337v83h437v-70l-242 -610h-97z" />
    <glyph glyph-name="eight" unicode="8" 
d="M295 70c104 0 151 50 151 122s-47 122 -151 122c-108 0 -152 -50 -152 -122s48 -122 152 -122zM295 695c152 0 220 -82 220 -190c0 -79 -44 -123 -88 -146v-2c65 -29 114 -89 114 -170c0 -117 -82 -202 -246 -202s-247 85 -247 202c0 81 50 141 115 170v2
c-44 23 -89 67 -89 146c0 108 68 190 221 190zM295 397c83 0 125 38 125 106s-42 107 -125 107c-84 0 -126 -39 -126 -107s42 -106 126 -106z" />
    <glyph glyph-name="nine" unicode="9" 
d="M207 0v10l168 251l-2 2c-19 -15 -61 -28 -105 -28c-131 0 -220 91 -220 227c0 131 89 233 243 233c156 0 244 -102 244 -233c0 -64 -22 -131 -55 -183l-174 -279h-99zM143 462c0 -92 59 -142 148 -142c92 0 149 50 149 142c0 89 -57 148 -149 148
c-89 0 -148 -59 -148 -148z" />
    <glyph glyph-name="colon" unicode=":" horiz-adv-x="272" 
d="M72 432c0 39 25 65 64 65s64 -26 64 -65s-25 -65 -64 -65s-64 26 -64 65zM72 50c0 39 25 65 64 65s64 -26 64 -65s-25 -65 -64 -65s-64 26 -64 65z" />
    <glyph glyph-name="semicolon" unicode=";" horiz-adv-x="287" 
d="M52 -161v10l41 253h103v-10l-73 -253h-71zM89 432c0 39 25 65 64 65s64 -26 64 -65s-25 -65 -64 -65s-64 26 -64 65z" />
    <glyph glyph-name="less" unicode="&#x3c;" 
d="M521 25h-9l-468 211v69l468 211h9v-84l-381 -160v-3l381 -160v-84z" />
    <glyph glyph-name="equal" unicode="=" 
d="M513 343h-437v74h437v-74zM513 126h-437v74h437v-74z" />
    <glyph glyph-name="greater" unicode="&#x3e;" 
d="M77 25h-9v84l381 160v3l-381 160v84h9l468 -211v-69z" />
    <glyph glyph-name="question" unicode="?" horiz-adv-x="463" 
d="M246 210h-71l-1 138c91 35 152 70 152 153c0 58 -41 109 -112 109c-56 0 -106 -25 -145 -54l-40 66c39 31 108 73 185 73c126 0 207 -76 207 -194c0 -107 -86 -166 -163 -201zM145 50c0 39 25 65 64 65s63 -26 63 -65s-24 -65 -63 -65s-64 26 -64 65z" />
    <glyph glyph-name="at" unicode="@" horiz-adv-x="882" 
d="M598 -40l21 -60c-43 -20 -114 -40 -190 -40c-225 0 -376 159 -376 404c0 240 152 451 425 451c232 0 363 -169 363 -369s-108 -298 -208 -298c-56 0 -85 32 -100 64h-1c-33 -25 -81 -52 -133 -52c-88 0 -150 59 -150 175c0 136 72 271 196 271c56 0 97 -24 126 -48h1
l18 36h55l-48 -283c-8 -43 -2 -96 42 -96c59 0 127 67 127 232c0 161 -93 301 -289 301c-217 0 -345 -180 -345 -383c0 -195 115 -338 299 -338c76 0 130 18 167 33zM511 163l38 238c-19 19 -56 32 -87 32c-80 0 -129 -101 -129 -200c0 -64 28 -101 83 -101
c28 0 73 14 95 31z" />
    <glyph glyph-name="A" unicode="A" horiz-adv-x="631" 
d="M362 680l257 -680h-96l-61 170h-293l-62 -170h-95l257 680h93zM316 572h-2l-115 -324h232z" />
    <glyph glyph-name="B" unicode="B" horiz-adv-x="625" 
d="M183 300v-217h158c84 0 136 26 136 108c0 83 -52 109 -137 109h-157zM91 680h223c152 0 229 -56 229 -175c0 -79 -40 -133 -89 -152v-2c73 -23 118 -78 118 -167c0 -115 -80 -184 -221 -184h-260v680zM183 597v-214h124c92 0 141 20 141 107s-45 107 -141 107h-124z" />
    <glyph glyph-name="C" unicode="C" horiz-adv-x="598" 
d="M57 340c0 212 110 355 314 355c59 0 121 -16 181 -44l-25 -73c-57 25 -105 32 -156 32c-153 0 -219 -105 -219 -270s66 -270 219 -270c51 0 99 7 156 32l25 -73c-60 -28 -122 -44 -181 -44c-204 0 -314 143 -314 355z" />
    <glyph glyph-name="D" unicode="D" horiz-adv-x="687" 
d="M91 0v680h188c251 0 348 -120 348 -340s-97 -340 -348 -340h-188zM183 83h83c211 0 266 78 266 257s-55 257 -266 257h-83v-514z" />
    <glyph glyph-name="E" unicode="E" horiz-adv-x="586" 
d="M91 680h433v-83h-341v-209h309v-83h-309v-222h344v-83h-436v680z" />
    <glyph glyph-name="F" unicode="F" horiz-adv-x="567" 
d="M91 680h433v-83h-341v-224h309v-83h-309v-290h-92v680z" />
    <glyph glyph-name="G" unicode="G" horiz-adv-x="661" 
d="M366 339h227v-285c-56 -39 -144 -69 -231 -69c-212 0 -304 149 -304 355c0 205 91 355 313 355c93 0 164 -32 219 -63l-33 -73c-55 29 -125 51 -186 51c-156 0 -218 -102 -218 -270c0 -157 54 -270 209 -270c55 0 102 7 139 30v156l-135 20v63z" />
    <glyph glyph-name="H" unicode="H" horiz-adv-x="703" 
d="M520 0v305h-337v-305h-92v680h92v-292h337v292h92v-680h-92z" />
    <glyph glyph-name="I" unicode="I" horiz-adv-x="274" 
d="M183 680v-680h-92v680h92z" />
    <glyph glyph-name="J" unicode="J" horiz-adv-x="464" 
d="M20 58l46 64c30 -25 58 -52 116 -52c65 0 104 45 104 153v457h92v-464c0 -152 -75 -231 -196 -231c-68 0 -125 36 -162 73z" />
    <glyph glyph-name="K" unicode="K" horiz-adv-x="601" 
d="M185 310h-2v-310h-92v680h92v-334h2l279 334h107v-10l-287 -337l301 -323v-10h-113z" />
    <glyph glyph-name="L" unicode="L" horiz-adv-x="524" 
d="M91 680h92v-597h311v-83h-403v680z" />
    <glyph glyph-name="M" unicode="M" horiz-adv-x="827" 
d="M412 284h2l234 396h88v-680h-92v511h-2l-195 -340h-66l-196 340h-2v-511h-92v680h87z" />
    <glyph glyph-name="N" unicode="N" horiz-adv-x="712" 
d="M527 145h2v535h92v-680h-95l-341 535h-2v-535h-92v680h94z" />
    <glyph glyph-name="O" unicode="O" horiz-adv-x="719" 
d="M153 340c0 -152 49 -270 207 -270c159 0 206 118 206 270s-47 270 -206 270c-158 0 -207 -118 -207 -270zM661 340c0 -201 -86 -355 -301 -355s-302 154 -302 355s87 355 302 355s301 -154 301 -355z" />
    <glyph glyph-name="P" unicode="P" horiz-adv-x="593" 
d="M183 0h-92v680h241c152 0 220 -79 220 -209s-71 -209 -220 -209h-149v-262zM183 597v-252h141c95 0 133 50 133 126s-38 126 -133 126h-141z" />
    <glyph glyph-name="Q" unicode="Q" horiz-adv-x="719" 
d="M661 340c0 -149 -47 -273 -158 -326l158 -78l-40 -80l-238 130c-7 -1 -15 -1 -23 -1c-215 0 -302 154 -302 355s87 355 302 355s301 -154 301 -355zM153 340c0 -152 49 -270 207 -270c159 0 206 118 206 270s-47 270 -206 270c-158 0 -207 -118 -207 -270z" />
    <glyph glyph-name="R" unicode="R" horiz-adv-x="642" 
d="M183 0h-92v680h256c139 0 224 -66 224 -194c0 -108 -63 -170 -163 -189l204 -281v-16h-100l-207 292h-122v-292zM183 375h159c87 0 134 38 134 111s-47 111 -134 111h-159v-222z" />
    <glyph glyph-name="S" unicode="S" horiz-adv-x="536" 
d="M46 59l41 73c48 -37 106 -62 178 -62c76 0 127 33 127 109c0 61 -30 84 -111 114l-62 22c-100 35 -158 95 -158 184c0 113 82 196 222 196c70 0 147 -30 189 -56l-37 -74c-48 27 -100 45 -152 45c-85 0 -127 -44 -127 -104c0 -48 19 -78 90 -103l66 -23
c112 -40 175 -96 175 -195c0 -116 -89 -200 -222 -200c-96 0 -167 36 -219 74z" />
    <glyph glyph-name="T" unicode="T" horiz-adv-x="553" 
d="M32 680h489v-83h-198v-597h-92v597h-199v83z" />
    <glyph glyph-name="U" unicode="U" horiz-adv-x="694" 
d="M84 680h92v-421c0 -115 52 -189 171 -189s170 74 170 189v421h92v-431c0 -162 -81 -264 -262 -264c-183 0 -263 102 -263 265v430z" />
    <glyph glyph-name="V" unicode="V" horiz-adv-x="628" 
d="M614 680v-10l-254 -670h-93l-253 670v10h96l203 -569h2l202 569h97z" />
    <glyph glyph-name="W" unicode="W" horiz-adv-x="977" 
d="M951 680v-10l-196 -670h-94l-172 568h-2l-171 -568h-94l-197 670v10h96l149 -552h2l167 552h98l167 -552h2l149 552h96z" />
    <glyph glyph-name="X" unicode="X" horiz-adv-x="588" 
d="M29 680h99l165 -277h2l166 277h99v-10l-208 -330l208 -330v-10h-99l-166 276h-2l-165 -276h-99v10l207 330l-207 330v10z" />
    <glyph glyph-name="Y" unicode="Y" horiz-adv-x="560" 
d="M9 680h99l171 -306h2l174 306h98v-10l-227 -383v-287h-92v287l-225 383v10z" />
    <glyph glyph-name="Z" unicode="Z" horiz-adv-x="552" 
d="M60 680h442v-74l-346 -521v-2h346v-83h-460v74l345 521v2h-327v83z" />
    <glyph glyph-name="bracketleft" unicode="[" horiz-adv-x="331" 
d="M82 700h212v-54l-120 -23v-744l120 -23v-54h-212v898z" />
    <glyph glyph-name="backslash" unicode="\" horiz-adv-x="403" 
d="M372 0h-83l-258 670v10h83l258 -670v-10z" />
    <glyph glyph-name="bracketright" unicode="]" horiz-adv-x="332" 
d="M37 700h213v-898h-213v54l121 23v744l-121 23v54z" />
    <glyph glyph-name="asciicircum" unicode="^" horiz-adv-x="506" 
d="M468 382v-10h-83l-128 238h-4l-129 -238h-83v10l180 318h67z" />
    <glyph glyph-name="underscore" unicode="_" horiz-adv-x="493" 
d="M421 -94h-349v74h349v-74z" />
    <glyph glyph-name="grave" unicode="`" 
d="M214 700v10h98l64 -121v-10h-77z" />
    <glyph glyph-name="a" unicode="a" horiz-adv-x="520" 
d="M346 218h-63c-114 0 -150 -30 -150 -78c0 -52 30 -76 83 -76c45 0 95 16 130 41v113zM363 43h-2c-44 -36 -99 -58 -163 -58c-89 0 -157 53 -157 149c0 117 96 154 228 154h77v25c0 69 -31 105 -108 105c-47 0 -101 -19 -138 -42l-34 68c43 31 105 53 174 53
c125 0 196 -65 196 -186v-218c0 -17 3 -26 28 -26h27v-71c-15 -4 -30 -8 -49 -8c-47 0 -68 22 -79 55z" />
    <glyph glyph-name="b" unicode="b" horiz-adv-x="573" 
d="M166 371v-260c32 -28 82 -47 130 -47c101 0 135 80 135 177s-34 177 -135 177c-48 0 -98 -19 -130 -47zM76 700h90v-252h2c35 25 77 49 152 49c141 0 203 -116 203 -256s-62 -256 -203 -256c-74 0 -131 34 -167 59h-2l-11 -44h-64v700z" />
    <glyph glyph-name="c" unicode="c" horiz-adv-x="481" 
d="M49 241c0 151 86 256 237 256c51 0 110 -16 151 -35l-23 -70c-29 12 -80 26 -127 26c-101 0 -146 -88 -146 -177s45 -177 146 -177c47 0 98 14 127 26l23 -70c-41 -19 -100 -35 -151 -35c-151 0 -237 105 -237 256z" />
    <glyph glyph-name="d" unicode="d" horiz-adv-x="573" 
d="M407 111v260c-31 28 -82 47 -130 47c-102 0 -135 -80 -135 -177s33 -177 135 -177c48 0 99 19 130 47zM407 700h90v-700h-64l-10 44h-2c-35 -25 -94 -59 -168 -59c-142 0 -203 116 -203 256s61 256 203 256c73 0 117 -24 152 -49h2v252z" />
    <glyph glyph-name="e" unicode="e" horiz-adv-x="537" 
d="M485 212h-345c0 -88 61 -150 153 -150c67 0 109 20 144 43l35 -68c-43 -28 -103 -52 -187 -52c-165 0 -236 119 -236 258c0 131 75 254 227 254s215 -100 215 -208c0 -25 -3 -60 -6 -77zM140 284h263c1 7 1 14 1 21c0 67 -45 115 -128 115c-81 0 -131 -56 -136 -136z" />
    <glyph glyph-name="f" unicode="f" horiz-adv-x="363" 
d="M204 0h-90v408h-86v54l86 20v66c0 111 54 157 154 157c20 0 49 -3 68 -6v-80c-15 3 -41 7 -60 7c-48 0 -72 -16 -72 -71v-73h132v-74h-132v-408z" />
    <glyph glyph-name="g" unicode="g" horiz-adv-x="573" 
d="M407 115v256c-32 28 -83 47 -131 47c-102 0 -134 -78 -134 -175s32 -175 134 -175c48 0 99 19 131 47zM497 482v-484c0 -126 -82 -211 -220 -211c-69 0 -127 16 -175 36l24 71c43 -17 96 -28 151 -28c80 0 130 37 130 121v51h-2c-35 -25 -76 -49 -151 -49
c-141 0 -204 114 -204 254s63 254 204 254c74 0 132 -34 165 -59h2l12 44h64z" />
    <glyph glyph-name="h" unicode="h" horiz-adv-x="570" 
d="M499 0h-90v295c0 83 -35 123 -108 123c-51 0 -108 -28 -135 -47v-371h-90v700h90v-252h2c30 19 86 49 155 49c108 0 176 -63 176 -184v-313z" />
    <glyph glyph-name="i" unicode="i" horiz-adv-x="242" 
d="M166 0h-90v482h90v-482zM64 634c0 35 22 56 57 56c36 0 58 -21 58 -56s-22 -57 -58 -57c-35 0 -57 22 -57 57z" />
    <glyph glyph-name="j" unicode="j" horiz-adv-x="242" 
d="M76 482h90v-540c0 -99 -47 -155 -143 -155c-19 0 -49 3 -69 7v77c17 -3 44 -5 60 -5c43 0 62 20 62 73v543zM64 634c0 35 22 56 57 56c36 0 58 -21 58 -56s-22 -57 -58 -57c-35 0 -57 22 -57 57z" />
    <glyph glyph-name="k" unicode="k" horiz-adv-x="501" 
d="M168 223h-2v-223h-90v700h90v-442h2l198 224h106v-7l-211 -232l219 -235v-8h-108z" />
    <glyph glyph-name="l" unicode="l" horiz-adv-x="265" 
d="M238 67v-71c-15 -4 -36 -8 -59 -8c-72 0 -102 42 -102 111v601h90v-607c0 -17 3 -26 28 -26h43z" />
    <glyph glyph-name="m" unicode="m" horiz-adv-x="891" 
d="M76 482h61l11 -44h2c31 21 95 59 171 59c71 0 114 -22 142 -65h3c36 26 97 65 176 65c117 0 178 -63 178 -184v-313h-90v295c0 83 -25 123 -109 123c-51 0 -100 -30 -133 -57c3 -15 5 -31 5 -48v-313h-90v295c0 83 -20 123 -103 123c-56 0 -103 -28 -134 -47v-371h-90
v482z" />
    <glyph glyph-name="n" unicode="n" horiz-adv-x="570" 
d="M76 482h64l11 -44h2c28 21 100 59 170 59c108 0 176 -63 176 -184v-313h-90v295c0 83 -35 123 -108 123c-51 0 -108 -28 -135 -47v-371h-90v482z" />
    <glyph glyph-name="o" unicode="o" horiz-adv-x="574" 
d="M141 241c0 -100 37 -177 144 -177c108 0 148 77 148 177s-40 177 -148 177c-107 0 -144 -77 -144 -177zM525 241c0 -140 -69 -256 -240 -256c-169 0 -236 116 -236 256s67 256 236 256c171 0 240 -116 240 -256z" />
    <glyph glyph-name="p" unicode="p" horiz-adv-x="573" 
d="M166 371v-260c31 -28 83 -47 131 -47c102 0 134 80 134 177s-32 177 -134 177c-48 0 -100 -19 -131 -47zM76 482h63l11 -44h2c35 25 94 59 169 59c142 0 202 -116 202 -256s-60 -256 -202 -256c-75 0 -118 24 -153 49h-2v-232h-90v680z" />
    <glyph glyph-name="q" unicode="q" horiz-adv-x="573" 
d="M407 111v260c-31 28 -83 47 -131 47c-102 0 -134 -80 -134 -177s32 -177 134 -177c48 0 100 19 131 47zM497 482v-680h-90v232h-2c-35 -25 -78 -49 -153 -49c-142 0 -202 116 -202 256s60 256 202 256c75 0 134 -35 169 -59h2l11 44h63z" />
    <glyph glyph-name="r" unicode="r" horiz-adv-x="358" 
d="M76 482h64l11 -52h2c32 40 78 67 134 67c19 0 39 -3 52 -7l-13 -81c-15 3 -34 5 -49 5c-63 0 -88 -29 -111 -70v-344h-90v482z" />
    <glyph glyph-name="s" unicode="s" horiz-adv-x="450" 
d="M43 31l32 72c41 -25 87 -41 142 -41c67 0 99 24 99 68c0 35 -21 52 -72 67l-58 16c-83 24 -134 60 -134 137c0 88 67 147 179 147c67 0 116 -13 165 -34l-28 -73c-43 20 -89 30 -132 30c-65 0 -94 -24 -94 -67c0 -32 16 -48 71 -63l57 -15c83 -21 136 -64 136 -143
c0 -89 -68 -147 -181 -147c-83 0 -133 18 -182 46z" />
    <glyph glyph-name="t" unicode="t" horiz-adv-x="365" 
d="M113 594h90v-112h129v-74h-129v-287c0 -40 20 -57 53 -57c27 0 60 8 75 12v-77c-19 -5 -55 -14 -95 -14c-80 0 -123 42 -123 119v304h-86v54l86 20v112z" />
    <glyph glyph-name="u" unicode="u" horiz-adv-x="563" 
d="M71 482h90v-295c0 -83 29 -123 104 -123c50 0 104 28 132 47v371h90v-482h-64l-11 44h-2c-29 -21 -98 -59 -167 -59c-108 0 -172 63 -172 184v313z" />
    <glyph glyph-name="v" unicode="v" horiz-adv-x="504" 
d="M483 482v-10l-188 -472h-86l-188 472v10h90l140 -375h2l141 375h89z" />
    <glyph glyph-name="w" unicode="w" horiz-adv-x="818" 
d="M792 482v-10l-164 -472h-87l-131 374h-2l-131 -374h-87l-164 472v10h91l119 -365h2l125 365h92l126 -365h2l118 365h91z" />
    <glyph glyph-name="x" unicode="x" horiz-adv-x="496" 
d="M249 187h-2l-124 -187h-93v10l161 231l-161 231v10h93l124 -188h2l123 188h94v-10l-161 -231l161 -231v-10h-94z" />
    <glyph glyph-name="y" unicode="y" horiz-adv-x="505" 
d="M482 482v-10l-202 -536c-39 -103 -91 -149 -167 -149c-27 0 -58 6 -77 10v76c20 -3 46 -7 69 -7c43 0 67 23 86 75l23 64l-194 467v10h90l143 -375h3l137 375h89z" />
    <glyph glyph-name="z" unicode="z" horiz-adv-x="450" 
d="M54 482h349v-52l-249 -354v-2h249v-74h-363v52l249 354v2h-235v74z" />
    <glyph glyph-name="braceleft" unicode="{" horiz-adv-x="337" 
d="M37 213v76c52 0 78 20 78 73v188c0 90 25 150 164 150h19v-54c-76 0 -92 -23 -92 -97v-179c0 -69 -30 -103 -78 -118v-2c48 -15 78 -49 78 -118v-179c0 -75 16 -97 92 -97v-54h-19c-139 0 -164 60 -164 150v188c0 53 -26 73 -78 73z" />
    <glyph glyph-name="bar" unicode="|" horiz-adv-x="236" 
d="M154 700v-898h-72v898h72z" />
    <glyph glyph-name="braceright" unicode="}" horiz-adv-x="338" 
d="M301 289v-76c-52 0 -78 -20 -78 -73v-188c0 -90 -25 -150 -165 -150h-19v54c77 0 93 22 93 97v179c0 69 30 103 77 118v2c-47 15 -77 49 -77 118v179c0 74 -16 97 -93 97v54h19c140 0 165 -60 165 -150v-188c0 -53 26 -73 78 -73z" />
    <glyph glyph-name="asciitilde" unicode="~" horiz-adv-x="532" 
d="M98 225l-36 49c21 35 62 60 122 60c64 0 116 -51 171 -51c31 0 54 9 79 34l36 -50c-33 -44 -74 -58 -121 -58c-59 0 -118 51 -167 51c-27 0 -56 -6 -84 -35z" />
    <glyph glyph-name="uni00A0" unicode="&#xa0;" horiz-adv-x="251" 
 />
    <glyph glyph-name="exclamdown" unicode="&#xa1;" horiz-adv-x="247" 
d="M78 -27l17 299h58l17 -299v-171h-92v171zM187 432c0 -39 -25 -65 -64 -65s-63 26 -63 65s24 65 63 65s64 -26 64 -65z" />
    <glyph glyph-name="cent" unicode="&#xa2;" 
d="M367 578v-83c43 -4 88 -18 123 -33l-23 -70c-24 9 -61 20 -100 24v-351c39 4 76 14 100 25l23 -70c-35 -16 -80 -29 -123 -33v-83h-72v84c-124 18 -193 116 -193 253c0 135 69 235 193 253v84h72zM194 241c0 -74 32 -150 101 -171v341c-69 -21 -101 -96 -101 -170z" />
    <glyph glyph-name="sterling" unicode="&#xa3;" 
d="M433 296h-182c4 -37 7 -70 7 -94c0 -60 -30 -97 -57 -117v-2h306v-83h-422v71c23 18 78 49 78 122c0 31 -4 66 -8 103h-80v74h71c-5 44 -9 89 -9 130c0 127 80 195 201 195c57 0 114 -18 171 -46l-26 -74c-57 25 -96 35 -145 35c-58 0 -106 -31 -106 -111
c0 -35 5 -81 10 -129h191v-74z" />
    <glyph glyph-name="currency" unicode="&#xa4;" horiz-adv-x="599" 
d="M474 270c0 -36 -8 -69 -24 -100l98 -95l-53 -53l-94 93c-29 -20 -66 -30 -110 -30c-40 0 -73 8 -99 24l-85 -85l-53 53l85 85c-19 31 -27 68 -27 108c0 41 9 76 27 106l-87 88l53 53l86 -87c27 17 61 25 100 25c45 0 82 -10 111 -31l91 92l53 -53l-95 -94
c15 -31 23 -64 23 -99zM195 270c0 -60 32 -108 96 -108c68 0 101 48 101 108s-33 108 -101 108c-64 0 -96 -48 -96 -108z" />
    <glyph glyph-name="yen" unicode="&#xa5;" 
d="M522 141h-182v-141h-92v141h-181v74h181v92h-181v74h137l-166 289v10h99l156 -286h2l159 286h98v-10l-167 -289h137v-74h-182v-92h182v-74z" />
    <glyph glyph-name="brokenbar" unicode="&#xa6;" horiz-adv-x="242" 
d="M85 134h72v-332h-72v332zM157 368h-72v332h72v-332z" />
    <glyph glyph-name="section" unicode="&#xa7;" horiz-adv-x="551" 
d="M331 317l-109 46c-40 -19 -60 -50 -60 -89c0 -29 17 -58 69 -81l109 -46c35 19 59 48 59 89c0 35 -25 62 -68 81zM410 116v-2c64 -39 83 -75 83 -126c0 -107 -80 -167 -220 -167c-95 0 -156 25 -217 60l40 82c49 -31 106 -57 177 -57c75 0 125 20 125 79
c0 35 -28 51 -88 76l-108 45c-89 37 -135 83 -135 151c0 64 37 109 85 136v3c-51 27 -85 66 -85 127c0 96 70 172 221 172c72 0 131 -16 186 -44l-36 -79c-51 24 -90 38 -150 38c-84 0 -126 -32 -126 -79c0 -35 22 -50 94 -82l106 -47c75 -33 131 -81 131 -148
c0 -68 -45 -111 -83 -138z" />
    <glyph glyph-name="dieresis" unicode="&#xa8;" 
d="M137 634c0 35 22 56 57 56c36 0 58 -21 58 -56s-22 -57 -58 -57c-35 0 -57 22 -57 57zM336 634c0 35 22 56 57 56c36 0 58 -21 58 -56s-22 -57 -58 -57c-35 0 -57 22 -57 57z" />
    <glyph glyph-name="copyright" unicode="&#xa9;" horiz-adv-x="822" 
d="M56 340c0 201 154 355 355 355s355 -154 355 -355s-154 -355 -355 -355s-355 154 -355 355zM112 340c0 -172 127 -302 299 -302s299 130 299 302s-127 302 -299 302s-299 -130 -299 -302zM227 340c0 117 64 195 185 195c35 0 73 -8 108 -24l-19 -56c-33 15 -58 19 -89 19
c-73 0 -112 -53 -112 -134s39 -134 112 -134c31 0 56 4 89 19l19 -56c-35 -16 -73 -24 -108 -24c-121 0 -185 78 -185 195z" />
    <glyph glyph-name="ordfeminine" unicode="&#xaa;" horiz-adv-x="426" 
d="M267 482h-41c-60 0 -80 -14 -80 -41c0 -26 16 -39 47 -39c27 0 54 10 74 23v57zM342 350h-56l-9 27h-1c-25 -19 -60 -36 -100 -36c-64 0 -104 36 -104 95c0 71 57 98 144 98h51v13c0 44 -26 52 -61 52c-32 0 -68 -8 -96 -23l-21 57c31 17 73 30 120 30
c85 0 133 -45 133 -122v-191zM342 208h-265v69h265v-69z" />
    <glyph glyph-name="guillemotleft" unicode="&#xab;" horiz-adv-x="505" 
d="M43 264v12l155 209l58 -38l-122 -177l122 -177l-58 -38zM240 264v12l155 209l58 -38l-122 -177l122 -177l-58 -38z" />
    <glyph glyph-name="logicalnot" unicode="&#xac;" 
d="M458 106v127h-403v74h477v-201h-74z" />
    <glyph glyph-name="uni00AD" unicode="&#xad;" horiz-adv-x="409" 
d="M337 233h-265v74h265v-74z" />
    <glyph glyph-name="registered" unicode="&#xae;" horiz-adv-x="568" 
d="M56 561c0 130 99 229 228 229s228 -99 228 -229c0 -129 -99 -228 -228 -228s-228 99 -228 228zM103 561c0 -104 77 -183 181 -183s181 79 181 183s-77 184 -181 184s-181 -80 -181 -184zM245 455h-47v218h93c51 0 77 -25 77 -65c0 -33 -16 -58 -49 -65l63 -83v-5h-51
l-61 85h-25v-85zM245 580h39c25 0 37 5 37 28c0 20 -12 25 -37 25h-39v-53z" />
    <glyph glyph-name="macron" unicode="&#xaf;" 
d="M427 597h-265v74h265v-74z" />
    <glyph glyph-name="degree" unicode="&#xb0;" horiz-adv-x="426" 
d="M129 544c0 -51 34 -85 85 -85s85 34 85 85c0 49 -34 82 -85 82s-85 -33 -85 -82zM53 544c0 93 66 151 161 151s159 -58 159 -151c0 -95 -64 -154 -159 -154c-96 0 -161 59 -161 154z" />
    <glyph glyph-name="plusminus" unicode="&#xb1;" 
d="M332 621v-194h201v-74h-201v-175h-77v175h-199v74h199v194h77zM56 74h477v-74h-477v74z" />
    <glyph glyph-name="twosuperior" unicode="&#xb2;" horiz-adv-x="313" 
d="M133 523v-1h145v-60h-246v51l134 117c23 19 35 39 35 64c0 39 -27 53 -56 53c-32 0 -55 -18 -76 -37l-38 48c22 19 57 50 120 50c68 0 123 -40 123 -108c0 -49 -27 -81 -56 -105z" />
    <glyph glyph-name="threesuperior" unicode="&#xb3;" horiz-adv-x="313" 
d="M79 602v60h60c43 0 57 18 57 42c0 28 -17 43 -56 43c-27 0 -61 -6 -86 -17l-20 55c29 15 69 23 109 23c80 0 128 -37 128 -94c0 -43 -29 -68 -54 -75v-1c36 -12 61 -40 61 -85c0 -60 -47 -99 -140 -99c-49 0 -84 11 -113 26l19 57c27 -13 58 -22 93 -22c40 0 69 12 69 47
c0 29 -22 40 -67 40h-60z" />
    <glyph glyph-name="acute" unicode="&#xb4;" 
d="M376 710v-10l-85 -121h-77v10l64 121h98z" />
    <glyph glyph-name="mu" unicode="&#xb5;" horiz-adv-x="562" 
d="M170 -198h-90v680h90v-320c0 -65 32 -98 104 -98c50 0 104 28 132 47v371h90v-482h-64l-11 44h-2c-29 -21 -98 -59 -167 -59c-31 0 -63 12 -82 36v-219z" />
    <glyph glyph-name="paragraph" unicode="&#xb6;" horiz-adv-x="536" 
d="M170 -198v614c-77 0 -140 46 -140 131c0 86 63 133 140 133h335v-70h-94v-808h-72v808h-96v-808h-73z" />
    <glyph glyph-name="periodcentered" unicode="&#xb7;" horiz-adv-x="264" 
d="M68 290c0 39 25 65 64 65s64 -26 64 -65s-25 -65 -64 -65s-64 26 -64 65z" />
    <glyph glyph-name="cedilla" unicode="&#xb8;" 
d="M252 -83l-6 10l29 80h68l-23 -55c43 -7 71 -31 71 -72c0 -68 -50 -93 -118 -93c-32 0 -60 7 -75 14l14 55c13 -5 32 -11 53 -11c31 0 48 8 48 35c0 29 -26 37 -61 37z" />
    <glyph glyph-name="onesuperior" unicode="&#xb9;" horiz-adv-x="248" 
d="M31 681h-9v63l122 56h52v-338h-71v261h-1z" />
    <glyph glyph-name="ordmasculine" unicode="&#xba;" horiz-adv-x="437" 
d="M136 502c0 -63 27 -93 82 -93c56 0 84 30 84 93c0 61 -28 92 -84 92c-55 0 -82 -31 -82 -92zM379 502c0 -88 -50 -161 -161 -161c-108 0 -159 73 -159 161s51 161 159 161c111 0 161 -73 161 -161zM351 208h-265v69h265v-69z" />
    <glyph glyph-name="guillemotright" unicode="&#xbb;" horiz-adv-x="505" 
d="M265 276v-12l-155 -209l-58 38l122 177l-122 177l58 38zM462 276v-12l-155 -209l-58 38l122 177l-122 177l58 38z" />
    <glyph glyph-name="onequarter" unicode="&#xbc;" horiz-adv-x="694" 
d="M150 0h-76v10l447 670h76v-10zM535 131v114h71v-114h41v-59h-41v-72h-71v72h-172v50l90 216h70l-84 -206v-1h96zM50 561h-9v63l122 56h52v-338h-71v261h-1z" />
    <glyph glyph-name="onehalf" unicode="&#xbd;" horiz-adv-x="708" 
d="M513 61v-1h145v-60h-246v51l134 117c23 19 35 39 35 64c0 39 -27 53 -56 53c-32 0 -55 -18 -76 -37l-38 48c22 19 57 50 120 50c68 0 123 -40 123 -108c0 -49 -27 -81 -56 -105zM150 0h-76v10l447 670h76v-10zM50 561h-9v63l122 56h52v-338h-71v261h-1z" />
    <glyph glyph-name="threequarters" unicode="&#xbe;" horiz-adv-x="744" 
d="M200 0h-76v10l447 670h76v-10zM585 131v114h71v-114h41v-59h-41v-72h-71v72h-172v50l90 216h70l-84 -206v-1h96zM98 479v60h60c43 0 57 18 57 42c0 28 -17 43 -56 43c-27 0 -61 -6 -86 -17l-20 55c29 15 69 23 109 23c80 0 128 -37 128 -94c0 -43 -29 -68 -54 -75v-1
c36 -12 61 -40 61 -85c0 -60 -47 -99 -140 -99c-49 0 -84 11 -113 26l19 57c27 -13 58 -22 93 -22c40 0 69 12 69 47c0 29 -22 40 -67 40h-60z" />
    <glyph glyph-name="questiondown" unicode="&#xbf;" horiz-adv-x="457" 
d="M214 272h71l1 -138c-91 -35 -152 -70 -152 -153c0 -58 41 -109 112 -109c56 0 106 25 145 54l40 -66c-39 -31 -108 -73 -185 -73c-126 0 -207 76 -207 194c0 107 86 166 163 201zM315 432c0 -39 -25 -65 -64 -65s-63 26 -63 65s24 65 63 65s64 -26 64 -65z" />
    <glyph glyph-name="Agrave" unicode="&#xc0;" horiz-adv-x="631" 
d="M362 680l257 -680h-96l-61 170h-293l-62 -170h-95l257 680h93zM316 572h-2l-115 -324h232zM208 873v10h98l54 -121v-10h-77z" />
    <glyph glyph-name="Aacute" unicode="&#xc1;" horiz-adv-x="631" 
d="M362 680l257 -680h-96l-61 170h-293l-62 -170h-95l257 680h93zM316 572h-2l-115 -324h232zM424 883v-10l-75 -121h-77v10l54 121h98z" />
    <glyph glyph-name="Acircumflex" unicode="&#xc2;" horiz-adv-x="631" 
d="M362 680l257 -680h-96l-61 170h-293l-62 -170h-95l257 680h93zM316 572h-2l-115 -324h232zM366 883l94 -121v-10h-82l-63 71l-63 -71h-82v10l94 121h102z" />
    <glyph glyph-name="Atilde" unicode="&#xc3;" horiz-adv-x="631" 
d="M362 680l257 -680h-96l-61 170h-293l-62 -170h-95l257 680h93zM316 572h-2l-115 -324h232zM189 767l-27 50c19 27 47 57 90 57s90 -40 130 -40c23 0 42 12 59 35l27 -50c-24 -33 -51 -57 -90 -57c-44 0 -88 40 -131 40c-21 0 -42 -14 -58 -35z" />
    <glyph glyph-name="Adieresis" unicode="&#xc4;" horiz-adv-x="631" 
d="M362 680l257 -680h-96l-61 170h-293l-62 -170h-95l257 680h93zM316 572h-2l-115 -324h232zM148 816c0 35 22 56 57 56c36 0 58 -21 58 -56s-22 -57 -58 -57c-35 0 -57 22 -57 57zM367 816c0 35 22 56 57 56c36 0 58 -21 58 -56s-22 -57 -58 -57c-35 0 -57 22 -57 57z" />
    <glyph glyph-name="Aring" unicode="&#xc5;" horiz-adv-x="631" 
d="M214 721c0 60 42 93 102 93s101 -33 101 -93c0 -36 -14 -64 -41 -79l243 -642h-96l-61 170h-293l-62 -170h-95l243 642c-27 16 -41 43 -41 79zM316 572h-2l-115 -324h232zM273 721c0 -27 16 -40 43 -40s43 13 43 40s-16 39 -43 39s-43 -12 -43 -39z" />
    <glyph glyph-name="AE" unicode="&#xc6;" horiz-adv-x="920" 
d="M-9 0v10l409 670h458v-83h-341v-209h309v-83h-309v-222h344v-83h-436v170h-234l-102 -170h-98zM425 568h-2l-187 -320h189v320z" />
    <glyph glyph-name="Ccedilla" unicode="&#xc7;" horiz-adv-x="599" 
d="M303 -83l-6 10l22 62c-170 21 -261 159 -261 351c0 212 110 355 314 355c59 0 121 -16 181 -44l-25 -73c-57 25 -105 32 -156 32c-153 0 -219 -105 -219 -270s66 -270 219 -270c51 0 99 7 156 32l25 -73c-56 -27 -113 -41 -168 -44l-14 -33c43 -7 71 -31 71 -72
c0 -68 -50 -93 -118 -93c-32 0 -60 7 -75 14l14 55c13 -5 32 -11 53 -11c31 0 48 8 48 35c0 29 -26 37 -61 37z" />
    <glyph glyph-name="Egrave" unicode="&#xc8;" horiz-adv-x="586" 
d="M91 680h433v-83h-341v-209h309v-83h-309v-222h344v-83h-436v680zM200 873v10h98l54 -121v-10h-77z" />
    <glyph glyph-name="Eacute" unicode="&#xc9;" horiz-adv-x="586" 
d="M91 680h433v-83h-341v-209h309v-83h-309v-222h344v-83h-436v680zM422 883v-10l-75 -121h-77v10l54 121h98z" />
    <glyph glyph-name="Ecircumflex" unicode="&#xca;" horiz-adv-x="586" 
d="M91 680h433v-83h-341v-209h309v-83h-309v-222h344v-83h-436v680zM367 883l94 -121v-10h-82l-63 71l-63 -71h-82v10l94 121h102z" />
    <glyph glyph-name="Edieresis" unicode="&#xcb;" horiz-adv-x="586" 
d="M91 680h433v-83h-341v-209h309v-83h-309v-222h344v-83h-436v680zM140 816c0 35 22 56 57 56c36 0 58 -21 58 -56s-22 -57 -58 -57c-35 0 -57 22 -57 57zM359 816c0 35 22 56 57 56c36 0 58 -21 58 -56s-22 -57 -58 -57c-35 0 -57 22 -57 57z" />
    <glyph glyph-name="Igrave" unicode="&#xcc;" horiz-adv-x="274" 
d="M183 680v-680h-92v680h92zM27 873v10h98l54 -121v-10h-77z" />
    <glyph glyph-name="Iacute" unicode="&#xcd;" horiz-adv-x="274" 
d="M183 680v-680h-92v680h92zM250 883v-10l-75 -121h-77v10l54 121h98z" />
    <glyph glyph-name="Icircumflex" unicode="&#xce;" horiz-adv-x="274" 
d="M183 680v-680h-92v680h92zM185 883l94 -121v-10h-82l-63 71l-63 -71h-82v10l94 121h102z" />
    <glyph glyph-name="Idieresis" unicode="&#xcf;" horiz-adv-x="274" 
d="M183 680v-680h-92v680h92zM-32 816c0 35 22 56 57 56c36 0 58 -21 58 -56s-22 -57 -58 -57c-35 0 -57 22 -57 57zM187 816c0 35 22 56 57 56c36 0 58 -21 58 -56s-22 -57 -58 -57c-35 0 -57 22 -57 57z" />
    <glyph glyph-name="Eth" unicode="&#xd0;" horiz-adv-x="688" 
d="M92 0v294h-49v83h49v303h188c251 0 348 -120 348 -340s-97 -340 -348 -340h-188zM184 83h83c211 0 266 78 266 257s-55 257 -266 257h-83v-220h164v-83h-164v-211z" />
    <glyph glyph-name="Ntilde" unicode="&#xd1;" horiz-adv-x="712" 
d="M527 145h2v535h92v-680h-95l-341 535h-2v-535h-92v680h94zM229 767l-27 50c19 27 47 57 90 57s90 -40 130 -40c23 0 42 12 59 35l27 -50c-24 -33 -51 -57 -90 -57c-44 0 -88 40 -131 40c-21 0 -42 -14 -58 -35z" />
    <glyph glyph-name="Ograve" unicode="&#xd2;" horiz-adv-x="719" 
d="M153 340c0 -152 49 -270 207 -270c159 0 206 118 206 270s-47 270 -206 270c-158 0 -207 -118 -207 -270zM661 340c0 -201 -86 -355 -301 -355s-302 154 -302 355s87 355 302 355s301 -154 301 -355zM258 873v10h98l54 -121v-10h-77z" />
    <glyph glyph-name="Oacute" unicode="&#xd3;" horiz-adv-x="719" 
d="M153 340c0 -152 49 -270 207 -270c159 0 206 118 206 270s-47 270 -206 270c-158 0 -207 -118 -207 -270zM661 340c0 -201 -86 -355 -301 -355s-302 154 -302 355s87 355 302 355s301 -154 301 -355zM472 883v-10l-75 -121h-77v10l54 121h98z" />
    <glyph glyph-name="Ocircumflex" unicode="&#xd4;" horiz-adv-x="719" 
d="M153 340c0 -152 49 -270 207 -270c159 0 206 118 206 270s-47 270 -206 270c-158 0 -207 -118 -207 -270zM661 340c0 -201 -86 -355 -301 -355s-302 154 -302 355s87 355 302 355s301 -154 301 -355zM416 883l94 -121v-10h-82l-63 71l-63 -71h-82v10l94 121h102z" />
    <glyph glyph-name="Otilde" unicode="&#xd5;" horiz-adv-x="719" 
d="M153 340c0 -152 49 -270 207 -270c159 0 206 118 206 270s-47 270 -206 270c-158 0 -207 -118 -207 -270zM661 340c0 -201 -86 -355 -301 -355s-302 154 -302 355s87 355 302 355s301 -154 301 -355zM238 767l-27 50c19 27 47 57 90 57s90 -40 130 -40c23 0 42 12 59 35
l27 -50c-24 -33 -51 -57 -90 -57c-44 0 -88 40 -131 40c-21 0 -42 -14 -58 -35z" />
    <glyph glyph-name="Odieresis" unicode="&#xd6;" horiz-adv-x="719" 
d="M153 340c0 -152 49 -270 207 -270c159 0 206 118 206 270s-47 270 -206 270c-158 0 -207 -118 -207 -270zM661 340c0 -201 -86 -355 -301 -355s-302 154 -302 355s87 355 302 355s301 -154 301 -355zM197 816c0 35 22 56 57 56c36 0 58 -21 58 -56s-22 -57 -58 -57
c-35 0 -57 22 -57 57zM416 816c0 35 22 56 57 56c36 0 58 -21 58 -56s-22 -57 -58 -57c-35 0 -57 22 -57 57z" />
    <glyph glyph-name="multiply" unicode="&#xd7;" 
d="M129 487l165 -166l165 165l52 -52l-165 -165l167 -166l-52 -52l-166 166l-164 -163l-52 52l163 163l-165 166z" />
    <glyph glyph-name="Oslash" unicode="&#xd8;" horiz-adv-x="719" 
d="M156 -27l-58 37l42 63c-57 65 -82 159 -82 267c0 201 87 355 302 355c68 0 123 -16 166 -43l39 57l57 -39l-43 -63c57 -64 82 -159 82 -267c0 -201 -86 -355 -301 -355c-69 0 -124 15 -168 43zM566 340c0 73 -10 139 -41 187l-283 -425c31 -21 67 -32 118 -32
c159 0 206 118 206 270zM153 340c0 -73 11 -138 40 -186l284 424c-29 20 -68 32 -117 32c-158 0 -207 -118 -207 -270z" />
    <glyph glyph-name="Ugrave" unicode="&#xd9;" horiz-adv-x="694" 
d="M84 680h92v-421c0 -115 52 -189 171 -189s170 74 170 189v421h92v-431c0 -162 -81 -264 -262 -264c-183 0 -263 102 -263 265v430zM236 873v10h98l54 -121v-10h-77z" />
    <glyph glyph-name="Uacute" unicode="&#xda;" horiz-adv-x="694" 
d="M84 680h92v-421c0 -115 52 -189 171 -189s170 74 170 189v421h92v-431c0 -162 -81 -264 -262 -264c-183 0 -263 102 -263 265v430zM453 883v-10l-75 -121h-77v10l54 121h98z" />
    <glyph glyph-name="Ucircumflex" unicode="&#xdb;" horiz-adv-x="694" 
d="M84 680h92v-421c0 -115 52 -189 171 -189s170 74 170 189v421h92v-431c0 -162 -81 -264 -262 -264c-183 0 -263 102 -263 265v430zM396 883l94 -121v-10h-82l-63 71l-63 -71h-82v10l94 121h102z" />
    <glyph glyph-name="Udieresis" unicode="&#xdc;" horiz-adv-x="694" 
d="M84 680h92v-421c0 -115 52 -189 171 -189s170 74 170 189v421h92v-431c0 -162 -81 -264 -262 -264c-183 0 -263 102 -263 265v430zM178 816c0 35 22 56 57 56c36 0 58 -21 58 -56s-22 -57 -58 -57c-35 0 -57 22 -57 57zM397 816c0 35 22 56 57 56c36 0 58 -21 58 -56
s-22 -57 -58 -57c-35 0 -57 22 -57 57z" />
    <glyph glyph-name="Yacute" unicode="&#xdd;" horiz-adv-x="560" 
d="M9 680h99l171 -306h2l174 306h98v-10l-227 -383v-287h-92v287l-225 383v10zM392 883v-10l-75 -121h-77v10l54 121h98z" />
    <glyph glyph-name="Thorn" unicode="&#xde;" horiz-adv-x="599" 
d="M183 0h-92v680h92v-123h149c152 0 220 -79 220 -209s-71 -209 -220 -209h-149v-139zM183 474v-252h141c95 0 133 50 133 126s-38 126 -133 126h-141z" />
    <glyph glyph-name="germandbls" unicode="&#xdf;" horiz-adv-x="600" 
d="M76 0v475c0 152 86 230 210 230c131 0 210 -86 210 -190c0 -81 -46 -116 -88 -137v-2c68 -19 145 -74 145 -178c0 -145 -95 -213 -238 -213c-19 0 -39 0 -50 3v78c15 -1 30 -2 50 -2c93 0 146 41 146 134c0 79 -46 134 -157 134h-16v74h21c67 0 95 39 95 103
c0 67 -39 117 -115 117c-84 0 -121 -47 -121 -158v-468h-92z" />
    <glyph glyph-name="agrave" unicode="&#xe0;" horiz-adv-x="520" 
d="M346 218h-63c-114 0 -150 -30 -150 -78c0 -52 30 -76 83 -76c45 0 95 16 130 41v113zM363 43h-2c-44 -36 -99 -58 -163 -58c-89 0 -157 53 -157 149c0 117 96 154 228 154h77v25c0 69 -31 105 -108 105c-47 0 -101 -19 -138 -42l-34 68c43 31 105 53 174 53
c125 0 196 -65 196 -186v-218c0 -17 3 -26 28 -26h27v-71c-15 -4 -30 -8 -49 -8c-47 0 -68 22 -79 55zM155 700v10h98l64 -121v-10h-77z" />
    <glyph glyph-name="aacute" unicode="&#xe1;" horiz-adv-x="520" 
d="M346 218h-63c-114 0 -150 -30 -150 -78c0 -52 30 -76 83 -76c45 0 95 16 130 41v113zM363 43h-2c-44 -36 -99 -58 -163 -58c-89 0 -157 53 -157 149c0 117 96 154 228 154h77v25c0 69 -31 105 -108 105c-47 0 -101 -19 -138 -42l-34 68c43 31 105 53 174 53
c125 0 196 -65 196 -186v-218c0 -17 3 -26 28 -26h27v-71c-15 -4 -30 -8 -49 -8c-47 0 -68 22 -79 55zM396 710v-10l-85 -121h-77v10l64 121h98z" />
    <glyph glyph-name="acircumflex" unicode="&#xe2;" horiz-adv-x="520" 
d="M346 218h-63c-114 0 -150 -30 -150 -78c0 -52 30 -76 83 -76c45 0 95 16 130 41v113zM363 43h-2c-44 -36 -99 -58 -163 -58c-89 0 -157 53 -157 149c0 117 96 154 228 154h77v25c0 69 -31 105 -108 105c-47 0 -101 -19 -138 -42l-34 68c43 31 105 53 174 53
c125 0 196 -65 196 -186v-218c0 -17 3 -26 28 -26h27v-71c-15 -4 -30 -8 -49 -8c-47 0 -68 22 -79 55zM321 710l94 -121v-10h-82l-63 74l-63 -74h-82v10l94 121h102z" />
    <glyph glyph-name="atilde" unicode="&#xe3;" horiz-adv-x="520" 
d="M346 218h-63c-114 0 -150 -30 -150 -78c0 -52 30 -76 83 -76c45 0 95 16 130 41v113zM363 43h-2c-44 -36 -99 -58 -163 -58c-89 0 -157 53 -157 149c0 117 96 154 228 154h77v25c0 69 -31 105 -108 105c-47 0 -101 -19 -138 -42l-34 68c43 31 105 53 174 53
c125 0 196 -65 196 -186v-218c0 -17 3 -26 28 -26h27v-71c-15 -4 -30 -8 -49 -8c-47 0 -68 22 -79 55zM144 584l-27 50c19 27 47 57 90 57s90 -40 130 -40c23 0 42 12 59 35l27 -50c-24 -33 -51 -57 -90 -57c-44 0 -88 40 -131 40c-21 0 -42 -14 -58 -35z" />
    <glyph glyph-name="adieresis" unicode="&#xe4;" horiz-adv-x="520" 
d="M346 218h-63c-114 0 -150 -30 -150 -78c0 -52 30 -76 83 -76c45 0 95 16 130 41v113zM363 43h-2c-44 -36 -99 -58 -163 -58c-89 0 -157 53 -157 149c0 117 96 154 228 154h77v25c0 69 -31 105 -108 105c-47 0 -101 -19 -138 -42l-34 68c43 31 105 53 174 53
c125 0 196 -65 196 -186v-218c0 -17 3 -26 28 -26h27v-71c-15 -4 -30 -8 -49 -8c-47 0 -68 22 -79 55zM118 634c0 35 22 56 57 56c36 0 58 -21 58 -56s-22 -57 -58 -57c-35 0 -57 22 -57 57zM317 634c0 35 22 56 57 56c36 0 58 -21 58 -56s-22 -57 -58 -57
c-35 0 -57 22 -57 57z" />
    <glyph glyph-name="aring" unicode="&#xe5;" horiz-adv-x="520" 
d="M346 218h-63c-114 0 -150 -30 -150 -78c0 -52 30 -76 83 -76c45 0 95 16 130 41v113zM363 43h-2c-44 -36 -99 -58 -163 -58c-89 0 -157 53 -157 149c0 117 96 154 228 154h77v25c0 69 -31 105 -108 105c-47 0 -101 -19 -138 -42l-34 68c43 31 105 53 174 53
c125 0 196 -65 196 -186v-218c0 -17 3 -26 28 -26h27v-71c-15 -4 -30 -8 -49 -8c-47 0 -68 22 -79 55zM228 638c0 -27 16 -40 43 -40s43 13 43 40s-16 39 -43 39s-43 -12 -43 -39zM169 638c0 60 42 93 102 93s101 -33 101 -93s-41 -94 -101 -94s-102 34 -102 94z" />
    <glyph glyph-name="ae" unicode="&#xe6;" horiz-adv-x="823" 
d="M771 212h-328c0 -88 51 -149 144 -149c65 0 101 20 136 43l35 -69c-43 -28 -95 -52 -179 -52c-87 0 -144 43 -181 103c-39 -60 -105 -103 -200 -103c-89 0 -157 53 -157 149c0 116 91 152 222 152h92v27c0 69 -40 105 -116 105c-47 0 -101 -18 -138 -41l-33 67
c43 31 104 53 173 53c77 0 139 -26 170 -73c31 36 87 73 162 73c152 0 204 -100 204 -208c0 -25 -3 -60 -6 -77zM443 284h246c1 7 1 14 1 21c0 67 -34 115 -117 115c-81 0 -125 -56 -130 -136zM356 212h-79c-115 0 -149 -24 -149 -72c0 -52 35 -76 88 -76
c63 0 140 48 140 148z" />
    <glyph glyph-name="ccedilla" unicode="&#xe7;" horiz-adv-x="482" 
d="M223 -83l-6 10l22 62c-121 19 -189 118 -189 252c0 151 86 256 237 256c51 0 110 -16 151 -35l-23 -70c-29 12 -80 26 -127 26c-101 0 -146 -88 -146 -177s45 -177 146 -177c47 0 98 14 127 26l23 -70c-37 -17 -86 -31 -133 -34l-14 -34c43 -7 71 -31 71 -72
c0 -68 -50 -93 -118 -93c-32 0 -60 7 -75 14l14 55c13 -5 32 -11 53 -11c31 0 48 8 48 35c0 29 -26 37 -61 37z" />
    <glyph glyph-name="egrave" unicode="&#xe8;" horiz-adv-x="537" 
d="M485 212h-345c0 -88 61 -150 153 -150c67 0 109 20 144 43l35 -68c-43 -28 -103 -52 -187 -52c-165 0 -236 119 -236 258c0 131 75 254 227 254s215 -100 215 -208c0 -25 -3 -60 -6 -77zM140 284h263c1 7 1 14 1 21c0 67 -45 115 -128 115c-81 0 -131 -56 -136 -136z
M169 700v10h98l64 -121v-10h-77z" />
    <glyph glyph-name="eacute" unicode="&#xe9;" horiz-adv-x="537" 
d="M485 212h-345c0 -88 61 -150 153 -150c67 0 109 20 144 43l35 -68c-43 -28 -103 -52 -187 -52c-165 0 -236 119 -236 258c0 131 75 254 227 254s215 -100 215 -208c0 -25 -3 -60 -6 -77zM140 284h263c1 7 1 14 1 21c0 67 -45 115 -128 115c-81 0 -131 -56 -136 -136z
M405 710v-10l-85 -121h-77v10l64 121h98z" />
    <glyph glyph-name="ecircumflex" unicode="&#xea;" horiz-adv-x="537" 
d="M485 212h-345c0 -88 61 -150 153 -150c67 0 109 20 144 43l35 -68c-43 -28 -103 -52 -187 -52c-165 0 -236 119 -236 258c0 131 75 254 227 254s215 -100 215 -208c0 -25 -3 -60 -6 -77zM140 284h263c1 7 1 14 1 21c0 67 -45 115 -128 115c-81 0 -131 -56 -136 -136z
M333 710l94 -121v-10h-82l-63 74l-63 -74h-82v10l94 121h102z" />
    <glyph glyph-name="edieresis" unicode="&#xeb;" horiz-adv-x="537" 
d="M485 212h-345c0 -88 61 -150 153 -150c67 0 109 20 144 43l35 -68c-43 -28 -103 -52 -187 -52c-165 0 -236 119 -236 258c0 131 75 254 227 254s215 -100 215 -208c0 -25 -3 -60 -6 -77zM140 284h263c1 7 1 14 1 21c0 67 -45 115 -128 115c-81 0 -131 -56 -136 -136z
M125 634c0 35 22 56 57 56c36 0 58 -21 58 -56s-22 -57 -58 -57c-35 0 -57 22 -57 57zM324 634c0 35 22 56 57 56c36 0 58 -21 58 -56s-22 -57 -58 -57c-35 0 -57 22 -57 57z" />
    <glyph glyph-name="igrave" unicode="&#xec;" horiz-adv-x="242" 
d="M166 0h-90v482h90v-482zM1 700v10h98l64 -121v-10h-77z" />
    <glyph glyph-name="iacute" unicode="&#xed;" horiz-adv-x="242" 
d="M166 0h-90v482h90v-482zM242 710v-10l-85 -121h-77v10l64 121h98z" />
    <glyph glyph-name="icircumflex" unicode="&#xee;" horiz-adv-x="242" 
d="M166 0h-90v482h90v-482zM172 710l94 -121v-10h-82l-63 74l-63 -74h-82v10l94 121h102z" />
    <glyph glyph-name="idieresis" unicode="&#xef;" horiz-adv-x="242" 
d="M166 0h-90v482h90v-482zM-36 634c0 35 22 56 57 56c36 0 58 -21 58 -56s-22 -57 -58 -57c-35 0 -57 22 -57 57zM163 634c0 35 22 56 57 56c36 0 58 -21 58 -56s-22 -57 -58 -57c-35 0 -57 22 -57 57z" />
    <glyph glyph-name="eth" unicode="&#xf0;" horiz-adv-x="586" 
d="M459 601l-72 -18c82 -103 149 -219 149 -339c0 -152 -88 -259 -244 -259c-154 0 -243 108 -243 248c0 146 89 242 220 242c44 0 100 -22 127 -41l2 2c-20 39 -54 87 -89 124l-106 -28l-21 59l76 20c-25 27 -58 59 -83 79v10h103c19 -19 42 -45 61 -65l99 26zM141 233
c0 -99 62 -163 151 -163c92 0 152 63 152 163c0 101 -60 157 -152 157c-89 0 -151 -56 -151 -157z" />
    <glyph glyph-name="ntilde" unicode="&#xf1;" horiz-adv-x="570" 
d="M76 482h64l11 -44h2c28 21 100 59 170 59c108 0 176 -63 176 -184v-313h-90v295c0 83 -35 123 -108 123c-51 0 -108 -28 -135 -47v-371h-90v482zM168 584l-27 50c19 27 47 57 90 57s90 -40 130 -40c23 0 42 12 59 35l27 -50c-24 -33 -51 -57 -90 -57
c-44 0 -88 40 -131 40c-21 0 -42 -14 -58 -35z" />
    <glyph glyph-name="ograve" unicode="&#xf2;" horiz-adv-x="574" 
d="M141 241c0 -100 37 -177 144 -177c108 0 148 77 148 177s-40 177 -148 177c-107 0 -144 -77 -144 -177zM525 241c0 -140 -69 -256 -240 -256c-169 0 -236 116 -236 256s67 256 236 256c171 0 240 -116 240 -256zM169 700v10h98l64 -121v-10h-77z" />
    <glyph glyph-name="oacute" unicode="&#xf3;" horiz-adv-x="574" 
d="M141 241c0 -100 37 -177 144 -177c108 0 148 77 148 177s-40 177 -148 177c-107 0 -144 -77 -144 -177zM525 241c0 -140 -69 -256 -240 -256c-169 0 -236 116 -236 256s67 256 236 256c171 0 240 -116 240 -256zM407 710v-10l-85 -121h-77v10l64 121h98z" />
    <glyph glyph-name="ocircumflex" unicode="&#xf4;" horiz-adv-x="574" 
d="M141 241c0 -100 37 -177 144 -177c108 0 148 77 148 177s-40 177 -148 177c-107 0 -144 -77 -144 -177zM525 241c0 -140 -69 -256 -240 -256c-169 0 -236 116 -236 256s67 256 236 256c171 0 240 -116 240 -256zM337 710l94 -121v-10h-82l-63 74l-63 -74h-82v10l94 121
h102z" />
    <glyph glyph-name="otilde" unicode="&#xf5;" horiz-adv-x="574" 
d="M141 241c0 -100 37 -177 144 -177c108 0 148 77 148 177s-40 177 -148 177c-107 0 -144 -77 -144 -177zM525 241c0 -140 -69 -256 -240 -256c-169 0 -236 116 -236 256s67 256 236 256c171 0 240 -116 240 -256zM160 584l-27 50c19 27 47 57 90 57s90 -40 130 -40
c23 0 42 12 59 35l27 -50c-24 -33 -51 -57 -90 -57c-44 0 -88 40 -131 40c-21 0 -42 -14 -58 -35z" />
    <glyph glyph-name="odieresis" unicode="&#xf6;" horiz-adv-x="574" 
d="M141 241c0 -100 37 -177 144 -177c108 0 148 77 148 177s-40 177 -148 177c-107 0 -144 -77 -144 -177zM525 241c0 -140 -69 -256 -240 -256c-169 0 -236 116 -236 256s67 256 236 256c171 0 240 -116 240 -256zM129 634c0 35 22 56 57 56c36 0 58 -21 58 -56
s-22 -57 -58 -57c-35 0 -57 22 -57 57zM328 634c0 35 22 56 57 56c36 0 58 -21 58 -56s-22 -57 -58 -57c-35 0 -57 22 -57 57z" />
    <glyph glyph-name="divide" unicode="&#xf7;" 
d="M56 307h477v-74h-477v74zM229 70c0 39 25 65 64 65s64 -26 64 -65s-25 -65 -64 -65s-64 26 -64 65zM229 470c0 39 25 65 64 65s64 -26 64 -65s-25 -65 -64 -65s-64 26 -64 65z" />
    <glyph glyph-name="oslash" unicode="&#xf8;" horiz-adv-x="574" 
d="M124 -31l-52 45l34 44c-40 47 -57 111 -57 183c0 140 67 256 236 256c55 0 98 -12 133 -33l34 46l55 -43l-37 -48c39 -47 55 -109 55 -178c0 -140 -69 -256 -240 -256c-51 0 -93 10 -126 29zM433 241c0 39 -5 74 -20 103l-203 -263c21 -11 46 -17 75 -17
c108 0 148 77 148 177zM141 241c0 -43 6 -78 22 -109l204 265c-21 13 -49 21 -82 21c-107 0 -144 -77 -144 -177z" />
    <glyph glyph-name="ugrave" unicode="&#xf9;" horiz-adv-x="563" 
d="M71 482h90v-295c0 -83 29 -123 104 -123c50 0 104 28 132 47v371h90v-482h-64l-11 44h-2c-29 -21 -98 -59 -167 -59c-108 0 -172 63 -172 184v313zM163 700v10h98l64 -121v-10h-77z" />
    <glyph glyph-name="uacute" unicode="&#xfa;" horiz-adv-x="563" 
d="M71 482h90v-295c0 -83 29 -123 104 -123c50 0 104 28 132 47v371h90v-482h-64l-11 44h-2c-29 -21 -98 -59 -167 -59c-108 0 -172 63 -172 184v313zM404 710v-10l-85 -121h-77v10l64 121h98z" />
    <glyph glyph-name="ucircumflex" unicode="&#xfb;" horiz-adv-x="563" 
d="M71 482h90v-295c0 -83 29 -123 104 -123c50 0 104 28 132 47v371h90v-482h-64l-11 44h-2c-29 -21 -98 -59 -167 -59c-108 0 -172 63 -172 184v313zM332 710l94 -121v-10h-82l-63 74l-63 -74h-82v10l94 121h102z" />
    <glyph glyph-name="udieresis" unicode="&#xfc;" horiz-adv-x="563" 
d="M71 482h90v-295c0 -83 29 -123 104 -123c50 0 104 28 132 47v371h90v-482h-64l-11 44h-2c-29 -21 -98 -59 -167 -59c-108 0 -172 63 -172 184v313zM124 634c0 35 22 56 57 56c36 0 58 -21 58 -56s-22 -57 -58 -57c-35 0 -57 22 -57 57zM323 634c0 35 22 56 57 56
c36 0 58 -21 58 -56s-22 -57 -58 -57c-35 0 -57 22 -57 57z" />
    <glyph glyph-name="yacute" unicode="&#xfd;" horiz-adv-x="505" 
d="M482 482v-10l-202 -536c-39 -103 -91 -149 -167 -149c-27 0 -58 6 -77 10v76c20 -3 46 -7 69 -7c43 0 67 23 86 75l23 64l-194 467v10h90l143 -375h3l137 375h89zM382 710v-10l-85 -121h-77v10l64 121h98z" />
    <glyph glyph-name="thorn" unicode="&#xfe;" horiz-adv-x="573" 
d="M166 371v-260c31 -28 83 -47 131 -47c102 0 134 80 134 177s-34 177 -135 177c-48 0 -98 -19 -130 -47zM76 -198v898h90v-252h2c35 25 77 49 152 49c141 0 203 -116 203 -256s-60 -256 -202 -256c-75 0 -118 24 -153 49h-2v-232h-90z" />
    <glyph glyph-name="ydieresis" unicode="&#xff;" horiz-adv-x="505" 
d="M482 482v-10l-202 -536c-39 -103 -91 -149 -167 -149c-27 0 -58 6 -77 10v76c20 -3 46 -7 69 -7c43 0 67 23 86 75l23 64l-194 467v10h90l143 -375h3l137 375h89zM97 634c0 35 22 56 57 56c36 0 58 -21 58 -56s-22 -57 -58 -57c-35 0 -57 22 -57 57zM296 634
c0 35 22 56 57 56c36 0 58 -21 58 -56s-22 -57 -58 -57c-35 0 -57 22 -57 57z" />
    <glyph glyph-name="Amacron" unicode="&#x100;" horiz-adv-x="631" 
d="M362 680l257 -680h-96l-61 170h-293l-62 -170h-95l257 680h93zM316 572h-2l-115 -324h232zM448 777h-265v74h265v-74z" />
    <glyph glyph-name="amacron" unicode="&#x101;" horiz-adv-x="520" 
d="M346 218h-63c-114 0 -150 -30 -150 -78c0 -52 30 -76 83 -76c45 0 95 16 130 41v113zM363 43h-2c-44 -36 -99 -58 -163 -58c-89 0 -157 53 -157 149c0 117 96 154 228 154h77v25c0 69 -31 105 -108 105c-47 0 -101 -19 -138 -42l-34 68c43 31 105 53 174 53
c125 0 196 -65 196 -186v-218c0 -17 3 -26 28 -26h27v-71c-15 -4 -30 -8 -49 -8c-47 0 -68 22 -79 55zM403 597h-265v74h265v-74z" />
    <glyph glyph-name="Abreve" unicode="&#x102;" horiz-adv-x="631" 
d="M362 680l257 -680h-96l-61 170h-293l-62 -170h-95l257 680h93zM316 572h-2l-115 -324h232zM315 838c45 0 89 7 120 32l30 -42c-32 -45 -85 -65 -150 -65c-64 0 -117 20 -149 65l30 42c31 -25 75 -32 119 -32z" />
    <glyph glyph-name="abreve" unicode="&#x103;" horiz-adv-x="520" 
d="M346 218h-63c-114 0 -150 -30 -150 -78c0 -52 30 -76 83 -76c45 0 95 16 130 41v113zM363 43h-2c-44 -36 -99 -58 -163 -58c-89 0 -157 53 -157 149c0 117 96 154 228 154h77v25c0 69 -31 105 -108 105c-47 0 -101 -19 -138 -42l-34 68c43 31 105 53 174 53
c125 0 196 -65 196 -186v-218c0 -17 3 -26 28 -26h27v-71c-15 -4 -30 -8 -49 -8c-47 0 -68 22 -79 55zM270 654c45 0 89 7 120 32l30 -42c-32 -45 -85 -65 -150 -65c-64 0 -117 20 -149 65l30 42c31 -25 75 -32 119 -32z" />
    <glyph glyph-name="Aogonek" unicode="&#x104;" horiz-adv-x="631" 
d="M544 -213c-51 0 -101 27 -101 95c0 48 33 86 80 118l-61 170h-293l-62 -170h-95l257 680h93l257 -680c-72 -32 -100 -66 -100 -101c0 -28 16 -43 45 -43c25 0 44 12 59 21l8 -62c-19 -13 -51 -28 -87 -28zM316 572h-2l-115 -324h232z" />
    <glyph glyph-name="aogonek" unicode="&#x105;" horiz-adv-x="520" 
d="M346 218h-63c-114 0 -150 -30 -150 -78c0 -52 30 -76 83 -76c45 0 95 16 130 41v113zM386 1c-11 9 -19 23 -23 40h-2c-44 -33 -99 -56 -163 -56c-89 0 -157 53 -157 149c0 117 96 154 228 154h77v25c0 69 -31 105 -108 105c-47 0 -101 -19 -138 -42l-34 68
c43 31 105 53 174 53c125 0 196 -65 196 -186v-221c0 -17 3 -26 28 -26h27v-66c-59 -32 -110 -63 -110 -99c0 -29 15 -43 45 -43c25 0 44 12 59 21l8 -62c-19 -13 -51 -28 -87 -28c-51 0 -101 27 -101 95c0 51 34 84 81 119z" />
    <glyph glyph-name="Cacute" unicode="&#x106;" horiz-adv-x="598" 
d="M57 340c0 212 110 355 314 355c59 0 121 -16 181 -44l-25 -73c-57 25 -105 32 -156 32c-153 0 -219 -105 -219 -270s66 -270 219 -270c51 0 99 7 156 32l25 -73c-60 -28 -122 -44 -181 -44c-204 0 -314 143 -314 355zM462 883v-10l-75 -121h-77v10l54 121h98z" />
    <glyph glyph-name="cacute" unicode="&#x107;" horiz-adv-x="481" 
d="M49 241c0 151 86 256 237 256c51 0 110 -16 151 -35l-23 -70c-29 12 -80 26 -127 26c-101 0 -146 -88 -146 -177s45 -177 146 -177c47 0 98 14 127 26l23 -70c-41 -19 -100 -35 -151 -35c-151 0 -237 105 -237 256zM399 710v-10l-85 -121h-77v10l64 121h98z" />
    <glyph glyph-name="Ccircumflex" unicode="&#x108;" horiz-adv-x="598" 
d="M57 340c0 212 110 355 314 355c59 0 121 -16 181 -44l-25 -73c-57 25 -105 32 -156 32c-153 0 -219 -105 -219 -270s66 -270 219 -270c51 0 99 7 156 32l25 -73c-60 -28 -122 -44 -181 -44c-204 0 -314 143 -314 355zM410 883l94 -121v-10h-82l-63 71l-63 -71h-82v10
l94 121h102z" />
    <glyph glyph-name="ccircumflex" unicode="&#x109;" horiz-adv-x="481" 
d="M49 241c0 151 86 256 237 256c51 0 110 -16 151 -35l-23 -70c-29 12 -80 26 -127 26c-101 0 -146 -88 -146 -177s45 -177 146 -177c47 0 98 14 127 26l23 -70c-41 -19 -100 -35 -151 -35c-151 0 -237 105 -237 256zM325 710l94 -121v-10h-82l-63 74l-63 -74h-82v10
l94 121h102z" />
    <glyph glyph-name="Cdotaccent" unicode="&#x10a;" horiz-adv-x="598" 
d="M57 340c0 212 110 355 314 355c59 0 121 -16 181 -44l-25 -73c-57 25 -105 32 -156 32c-153 0 -219 -105 -219 -270s66 -270 219 -270c51 0 99 7 156 32l25 -73c-60 -28 -122 -44 -181 -44c-204 0 -314 143 -314 355zM300 816c0 35 22 56 57 56c36 0 58 -21 58 -56
s-22 -57 -58 -57c-35 0 -57 22 -57 57z" />
    <glyph glyph-name="cdotaccent" unicode="&#x10b;" horiz-adv-x="481" 
d="M49 241c0 151 86 256 237 256c51 0 110 -16 151 -35l-23 -70c-29 12 -80 26 -127 26c-101 0 -146 -88 -146 -177s45 -177 146 -177c47 0 98 14 127 26l23 -70c-41 -19 -100 -35 -151 -35c-151 0 -237 105 -237 256zM218 634c0 35 22 56 57 56c36 0 58 -21 58 -56
s-22 -57 -58 -57c-35 0 -57 22 -57 57z" />
    <glyph glyph-name="Ccaron" unicode="&#x10c;" horiz-adv-x="598" 
d="M57 340c0 212 110 355 314 355c59 0 121 -16 181 -44l-25 -73c-57 25 -105 32 -156 32c-153 0 -219 -105 -219 -270s66 -270 219 -270c51 0 99 7 156 32l25 -73c-60 -28 -122 -44 -181 -44c-204 0 -314 143 -314 355zM301 752l-94 121v10h82l63 -71l63 71h82v-10
l-94 -121h-102z" />
    <glyph glyph-name="ccaron" unicode="&#x10d;" horiz-adv-x="481" 
d="M49 241c0 151 86 256 237 256c51 0 110 -16 151 -35l-23 -70c-29 12 -80 26 -127 26c-101 0 -146 -88 -146 -177s45 -177 146 -177c47 0 98 14 127 26l23 -70c-41 -19 -100 -35 -151 -35c-151 0 -237 105 -237 256zM224 579l-94 121v10h82l63 -74l63 74h82v-10l-94 -121
h-102z" />
    <glyph glyph-name="Dcaron" unicode="&#x10e;" horiz-adv-x="687" 
d="M91 0v680h188c251 0 348 -120 348 -340s-97 -340 -348 -340h-188zM183 83h83c211 0 266 78 266 257s-55 257 -266 257h-83v-514zM276 752l-94 121v10h82l63 -71l63 71h82v-10l-94 -121h-102z" />
    <glyph glyph-name="dcaron" unicode="&#x10f;" horiz-adv-x="573" 
d="M407 111v260c-31 28 -82 47 -130 47c-102 0 -135 -80 -135 -177s33 -177 135 -177c48 0 99 19 130 47zM407 700h90v-700h-64l-10 44h-2c-35 -25 -94 -59 -168 -59c-142 0 -203 116 -203 256s61 256 203 256c73 0 117 -24 152 -49h2v252zM537 529v10l20 141h93v-10
l-42 -141h-71z" />
    <glyph glyph-name="Dcroat" unicode="&#x110;" horiz-adv-x="688" 
d="M92 0v294h-49v83h49v303h188c251 0 348 -120 348 -340s-97 -340 -348 -340h-188zM184 83h83c211 0 266 78 266 257s-55 257 -266 257h-83v-220h164v-83h-164v-211z" />
    <glyph glyph-name="dcroat" unicode="&#x111;" horiz-adv-x="573" 
d="M560 556h-63v-556h-64l-10 44h-2c-35 -25 -94 -59 -168 -59c-142 0 -203 116 -203 256s61 256 203 256c73 0 117 -24 152 -49h2v108h-112v74h112v70h90v-70h63v-74zM407 111v260c-31 28 -82 47 -130 47c-102 0 -135 -80 -135 -177s33 -177 135 -177c48 0 99 19 130 47z
" />
    <glyph glyph-name="Emacron" unicode="&#x112;" horiz-adv-x="586" 
d="M91 680h433v-83h-341v-209h309v-83h-309v-222h344v-83h-436v680zM448 777h-265v74h265v-74z" />
    <glyph glyph-name="emacron" unicode="&#x113;" horiz-adv-x="537" 
d="M485 212h-345c0 -88 61 -150 153 -150c67 0 109 20 144 43l35 -68c-43 -28 -103 -52 -187 -52c-165 0 -236 119 -236 258c0 131 75 254 227 254s215 -100 215 -208c0 -25 -3 -60 -6 -77zM140 284h263c1 7 1 14 1 21c0 67 -45 115 -128 115c-81 0 -131 -56 -136 -136z
M415 597h-265v74h265v-74z" />
    <glyph glyph-name="Ebreve" unicode="&#x114;" horiz-adv-x="586" 
d="M91 680h433v-83h-341v-209h309v-83h-309v-222h344v-83h-436v680zM312 838c45 0 89 7 120 32l30 -42c-32 -45 -85 -65 -150 -65c-64 0 -117 20 -149 65l30 42c31 -25 75 -32 119 -32z" />
    <glyph glyph-name="ebreve" unicode="&#x115;" horiz-adv-x="537" 
d="M485 212h-345c0 -88 61 -150 153 -150c67 0 109 20 144 43l35 -68c-43 -28 -103 -52 -187 -52c-165 0 -236 119 -236 258c0 131 75 254 227 254s215 -100 215 -208c0 -25 -3 -60 -6 -77zM140 284h263c1 7 1 14 1 21c0 67 -45 115 -128 115c-81 0 -131 -56 -136 -136z
M288 654c45 0 89 7 120 32l30 -42c-32 -45 -85 -65 -150 -65c-64 0 -117 20 -149 65l30 42c31 -25 75 -32 119 -32z" />
    <glyph glyph-name="Edotaccent" unicode="&#x116;" horiz-adv-x="586" 
d="M91 680h433v-83h-341v-209h309v-83h-309v-222h344v-83h-436v680zM258 816c0 35 22 56 57 56c36 0 58 -21 58 -56s-22 -57 -58 -57c-35 0 -57 22 -57 57z" />
    <glyph glyph-name="edotaccent" unicode="&#x117;" horiz-adv-x="537" 
d="M485 212h-345c0 -88 61 -150 153 -150c67 0 109 20 144 43l35 -68c-43 -28 -103 -52 -187 -52c-165 0 -236 119 -236 258c0 131 75 254 227 254s215 -100 215 -208c0 -25 -3 -60 -6 -77zM140 284h263c1 7 1 14 1 21c0 67 -45 115 -128 115c-81 0 -131 -56 -136 -136z
M225 634c0 35 22 56 57 56c36 0 58 -21 58 -56s-22 -57 -58 -57c-35 0 -57 22 -57 57z" />
    <glyph glyph-name="Eogonek" unicode="&#x118;" horiz-adv-x="586" 
d="M458 -213c-51 0 -101 27 -101 95c0 47 33 86 79 118h-345v680h433v-83h-341v-209h309v-83h-309v-222h344v-83c-61 -35 -94 -66 -94 -101c0 -28 16 -43 45 -43c25 0 44 12 59 21l8 -62c-19 -13 -51 -28 -87 -28z" />
    <glyph glyph-name="eogonek" unicode="&#x119;" horiz-adv-x="537" 
d="M318 -15v2c-11 -1 -22 -2 -33 -2c-165 0 -236 119 -236 258c0 131 75 254 227 254s215 -100 215 -208c0 -25 -3 -60 -6 -77h-345c0 -88 61 -150 153 -150c67 0 109 20 144 43l35 -68c-7 -5 -13 -8 -22 -13c-85 -48 -102 -90 -102 -125c0 -29 15 -43 45 -43
c25 0 44 12 59 21l8 -62c-19 -13 -51 -28 -87 -28c-51 0 -101 27 -101 95c0 35 13 72 46 103zM140 284h263c1 7 1 14 1 21c0 67 -45 115 -128 115c-81 0 -131 -56 -136 -136z" />
    <glyph glyph-name="Ecaron" unicode="&#x11a;" horiz-adv-x="586" 
d="M91 680h433v-83h-341v-209h309v-83h-309v-222h344v-83h-436v680zM263 752l-94 121v10h82l63 -71l63 71h82v-10l-94 -121h-102z" />
    <glyph glyph-name="ecaron" unicode="&#x11b;" horiz-adv-x="537" 
d="M485 212h-345c0 -88 61 -150 153 -150c67 0 109 20 144 43l35 -68c-43 -28 -103 -52 -187 -52c-165 0 -236 119 -236 258c0 131 75 254 227 254s215 -100 215 -208c0 -25 -3 -60 -6 -77zM140 284h263c1 7 1 14 1 21c0 67 -45 115 -128 115c-81 0 -131 -56 -136 -136z
M231 579l-94 121v10h82l63 -74l63 74h82v-10l-94 -121h-102z" />
    <glyph glyph-name="Gcircumflex" unicode="&#x11c;" horiz-adv-x="661" 
d="M366 339h227v-285c-56 -39 -144 -69 -231 -69c-212 0 -304 149 -304 355c0 205 91 355 313 355c93 0 164 -32 219 -63l-33 -73c-55 29 -125 51 -186 51c-156 0 -218 -102 -218 -270c0 -157 54 -270 209 -270c55 0 102 7 139 30v156l-135 20v63zM409 883l94 -121v-10h-82
l-63 71l-63 -71h-82v10l94 121h102z" />
    <glyph glyph-name="gcircumflex" unicode="&#x11d;" horiz-adv-x="573" 
d="M407 115v256c-32 28 -83 47 -131 47c-102 0 -134 -78 -134 -175s32 -175 134 -175c48 0 99 19 131 47zM497 482v-484c0 -126 -82 -211 -220 -211c-69 0 -127 16 -175 36l24 71c43 -17 96 -28 151 -28c80 0 130 37 130 121v51h-2c-35 -25 -76 -49 -151 -49
c-141 0 -204 114 -204 254s63 254 204 254c74 0 132 -34 165 -59h2l12 44h64zM347 710l94 -121v-10h-82l-63 74l-63 -74h-82v10l94 121h102z" />
    <glyph glyph-name="Gbreve" unicode="&#x11e;" horiz-adv-x="661" 
d="M366 339h227v-285c-56 -39 -144 -69 -231 -69c-212 0 -304 149 -304 355c0 205 91 355 313 355c93 0 164 -32 219 -63l-33 -73c-55 29 -125 51 -186 51c-156 0 -218 -102 -218 -270c0 -157 54 -270 209 -270c55 0 102 7 139 30v156l-135 20v63zM360 838c45 0 89 7 120 32
l30 -42c-32 -45 -85 -65 -150 -65c-64 0 -117 20 -149 65l30 42c31 -25 75 -32 119 -32z" />
    <glyph glyph-name="gbreve" unicode="&#x11f;" horiz-adv-x="573" 
d="M407 115v256c-32 28 -83 47 -131 47c-102 0 -134 -78 -134 -175s32 -175 134 -175c48 0 99 19 131 47zM497 482v-484c0 -126 -82 -211 -220 -211c-69 0 -127 16 -175 36l24 71c43 -17 96 -28 151 -28c80 0 130 37 130 121v51h-2c-35 -25 -76 -49 -151 -49
c-141 0 -204 114 -204 254s63 254 204 254c74 0 132 -34 165 -59h2l12 44h64zM300 654c45 0 89 7 120 32l30 -42c-32 -45 -85 -65 -150 -65c-64 0 -117 20 -149 65l30 42c31 -25 75 -32 119 -32z" />
    <glyph glyph-name="Gdotaccent" unicode="&#x120;" horiz-adv-x="661" 
d="M366 339h227v-285c-56 -39 -144 -69 -231 -69c-212 0 -304 149 -304 355c0 205 91 355 313 355c93 0 164 -32 219 -63l-33 -73c-55 29 -125 51 -186 51c-156 0 -218 -102 -218 -270c0 -157 54 -270 209 -270c55 0 102 7 139 30v156l-135 20v63zM301 816c0 35 22 56 57 56
c36 0 58 -21 58 -56s-22 -57 -58 -57c-35 0 -57 22 -57 57z" />
    <glyph glyph-name="gdotaccent" unicode="&#x121;" horiz-adv-x="573" 
d="M407 115v256c-32 28 -83 47 -131 47c-102 0 -134 -78 -134 -175s32 -175 134 -175c48 0 99 19 131 47zM497 482v-484c0 -126 -82 -211 -220 -211c-69 0 -127 16 -175 36l24 71c43 -17 96 -28 151 -28c80 0 130 37 130 121v51h-2c-35 -25 -76 -49 -151 -49
c-141 0 -204 114 -204 254s63 254 204 254c74 0 132 -34 165 -59h2l12 44h64zM239 634c0 35 22 56 57 56c36 0 58 -21 58 -56s-22 -57 -58 -57c-35 0 -57 22 -57 57z" />
    <glyph glyph-name="Gcommaaccent" unicode="&#x122;" horiz-adv-x="661" 
d="M366 339h227v-285c-56 -39 -144 -69 -231 -69c-212 0 -304 149 -304 355c0 205 91 355 313 355c93 0 164 -32 219 -63l-33 -73c-55 29 -125 51 -186 51c-156 0 -218 -102 -218 -270c0 -157 54 -270 209 -270c55 0 102 7 139 30v156l-135 20v63zM293 -218v10l20 141h93
v-10l-42 -141h-71z" />
    <glyph glyph-name="gcommaaccent" unicode="&#x123;" horiz-adv-x="573" 
d="M407 115v256c-32 28 -83 47 -131 47c-102 0 -134 -78 -134 -175s32 -175 134 -175c48 0 99 19 131 47zM497 482v-484c0 -126 -82 -211 -220 -211c-69 0 -127 16 -175 36l24 71c43 -17 96 -28 151 -28c80 0 130 37 130 121v51h-2c-35 -25 -76 -49 -151 -49
c-141 0 -204 114 -204 254s63 254 204 254c74 0 132 -34 165 -59h2l12 44h64zM364 720v-10l-20 -141h-93v10l42 141h71z" />
    <glyph glyph-name="Hcircumflex" unicode="&#x124;" horiz-adv-x="703" 
d="M520 0v305h-337v-305h-92v680h92v-292h337v292h92v-680h-92zM406 883l94 -121v-10h-82l-63 71l-63 -71h-82v10l94 121h102z" />
    <glyph glyph-name="hcircumflex" unicode="&#x125;" horiz-adv-x="570" 
d="M499 0h-90v295c0 83 -35 123 -108 123c-51 0 -108 -28 -135 -47v-371h-90v700h90v-252h2c30 19 86 49 155 49c108 0 176 -63 176 -184v-313zM347 883l94 -121v-10h-82l-63 71l-63 -71h-82v10l94 121h102z" />
    <glyph glyph-name="Hbar" unicode="&#x126;" horiz-adv-x="707" 
d="M522 0v305h-337v-305h-92v508h-50v83h50v89h92v-89h337v89h92v-89h50v-83h-50v-508h-92zM185 388h337v120h-337v-120z" />
    <glyph glyph-name="hbar" unicode="&#x127;" horiz-adv-x="570" 
d="M279 557h-113v-109h2c30 19 86 49 155 49c108 0 176 -63 176 -184v-313h-90v295c0 83 -35 123 -108 123c-51 0 -108 -28 -135 -47v-371h-90v557h-62v74h62v69h90v-69h113v-74z" />
    <glyph glyph-name="Itilde" unicode="&#x128;" horiz-adv-x="274" 
d="M183 680v-680h-92v680h92zM10 767l-27 50c19 27 47 57 90 57s90 -40 130 -40c23 0 42 12 59 35l27 -50c-24 -33 -51 -57 -90 -57c-44 0 -88 40 -131 40c-21 0 -42 -14 -58 -35z" />
    <glyph glyph-name="itilde" unicode="&#x129;" horiz-adv-x="242" 
d="M166 0h-90v482h90v-482zM-5 584l-27 50c19 27 47 57 90 57s90 -40 130 -40c23 0 42 12 59 35l27 -50c-24 -33 -51 -57 -90 -57c-44 0 -88 40 -131 40c-21 0 -42 -14 -58 -35z" />
    <glyph glyph-name="Imacron" unicode="&#x12a;" horiz-adv-x="274" 
d="M183 680v-680h-92v680h92zM268 777h-265v74h265v-74z" />
    <glyph glyph-name="imacron" unicode="&#x12b;" horiz-adv-x="242" 
d="M166 0h-90v482h90v-482zM254 597h-265v74h265v-74z" />
    <glyph glyph-name="Ibreve" unicode="&#x12c;" horiz-adv-x="274" 
d="M183 680v-680h-92v680h92zM134 838c45 0 89 7 120 32l30 -42c-32 -45 -85 -65 -150 -65c-64 0 -117 20 -149 65l30 42c31 -25 75 -32 119 -32z" />
    <glyph glyph-name="ibreve" unicode="&#x12d;" horiz-adv-x="242" 
d="M166 0h-90v482h90v-482zM121 654c45 0 89 7 120 32l30 -42c-32 -45 -85 -65 -150 -65c-64 0 -117 20 -149 65l30 42c31 -25 75 -32 119 -32z" />
    <glyph glyph-name="Iogonek" unicode="&#x12e;" horiz-adv-x="274" 
d="M112 -213c-51 0 -101 27 -101 95c0 48 33 86 80 118v680h92v-680c-64 -32 -96 -66 -96 -101c0 -28 16 -43 45 -43c25 0 44 12 59 21l8 -62c-19 -13 -51 -28 -87 -28z" />
    <glyph glyph-name="iogonek" unicode="&#x12f;" horiz-adv-x="242" 
d="M93 -213c-51 0 -101 27 -101 95c0 51 35 88 84 121v479h90v-482c-71 -35 -98 -66 -98 -101c0 -28 16 -43 45 -43c25 0 44 12 59 21l8 -62c-19 -13 -51 -28 -87 -28zM64 634c0 35 22 56 57 56c36 0 58 -21 58 -56s-22 -57 -58 -57c-35 0 -57 22 -57 57z" />
    <glyph glyph-name="Idotaccent" unicode="&#x130;" horiz-adv-x="274" 
d="M183 680v-680h-92v680h92zM79 816c0 35 22 56 57 56c36 0 58 -21 58 -56s-22 -57 -58 -57c-35 0 -57 22 -57 57z" />
    <glyph glyph-name="dotlessi" unicode="&#x131;" horiz-adv-x="242" 
d="M166 0h-90v482h90v-482z" />
    <glyph glyph-name="IJ" unicode="&#x132;" horiz-adv-x="738" 
d="M183 680v-680h-92v680h92zM294 58l46 64c30 -25 58 -52 116 -52c65 0 104 45 104 153v457h92v-464c0 -152 -75 -231 -196 -231c-68 0 -125 36 -162 73z" />
    <glyph glyph-name="ij" unicode="&#x133;" horiz-adv-x="484" 
d="M166 0h-90v482h90v-482zM64 634c0 35 22 56 57 56c36 0 58 -21 58 -56s-22 -57 -58 -57c-35 0 -57 22 -57 57zM318 482h90v-540c0 -99 -47 -155 -143 -155c-19 0 -49 3 -69 7v77c17 -3 44 -5 60 -5c43 0 62 20 62 73v543zM306 634c0 35 22 56 57 56c36 0 58 -21 58 -56
s-22 -57 -58 -57c-35 0 -57 22 -57 57z" />
    <glyph glyph-name="Jcircumflex" unicode="&#x134;" horiz-adv-x="464" 
d="M20 58l46 64c30 -25 58 -52 116 -52c65 0 104 45 104 153v457h92v-464c0 -152 -75 -231 -196 -231c-68 0 -125 36 -162 73zM385 883l94 -121v-10h-82l-63 71l-63 -71h-82v10l94 121h102z" />
    <glyph glyph-name="jcircumflex" unicode="&#x135;" horiz-adv-x="242" 
d="M76 482h90v-540c0 -99 -47 -155 -143 -155c-19 0 -49 3 -69 7v77c17 -3 44 -5 60 -5c43 0 62 20 62 73v543zM170 710l94 -121v-10h-82l-63 74l-63 -74h-82v10l94 121h102z" />
    <glyph glyph-name="Kcommaaccent" unicode="&#x136;" horiz-adv-x="601" 
d="M185 310h-2v-310h-92v680h92v-334h2l279 334h107v-10l-287 -337l301 -323v-10h-113zM247 -218v10l20 141h93v-10l-42 -141h-71z" />
    <glyph glyph-name="kcommaaccent" unicode="&#x137;" horiz-adv-x="501" 
d="M168 223h-2v-223h-90v700h90v-442h2l198 224h106v-7l-211 -232l219 -235v-8h-108zM183 -218v10l20 141h93v-10l-42 -141h-71z" />
    <glyph glyph-name="kgreenlandic" unicode="&#x138;" horiz-adv-x="501" 
d="M167 217h-2v-217h-89v482h89v-234h2l201 234h102v-7l-210 -238l221 -230v-7h-107z" />
    <glyph glyph-name="Lacute" unicode="&#x139;" horiz-adv-x="524" 
d="M91 680h92v-597h311v-83h-403v680zM249 883v-10l-75 -121h-77v10l54 121h98z" />
    <glyph glyph-name="lacute" unicode="&#x13a;" horiz-adv-x="265" 
d="M238 67v-71c-15 -4 -36 -8 -59 -8c-72 0 -102 42 -102 111v601h90v-607c0 -17 3 -26 28 -26h43zM235 883v-10l-75 -121h-77v10l54 121h98z" />
    <glyph glyph-name="Lcommaaccent" unicode="&#x13b;" horiz-adv-x="524" 
d="M91 680h92v-597h311v-83h-403v680zM231 -218v10l20 141h93v-10l-42 -141h-71z" />
    <glyph glyph-name="lcommaaccent" unicode="&#x13c;" horiz-adv-x="265" 
d="M238 67v-71c-15 -4 -36 -8 -59 -8c-72 0 -102 42 -102 111v601h90v-607c0 -17 3 -26 28 -26h43zM90 -218v10l20 141h93v-10l-42 -141h-71z" />
    <glyph glyph-name="Lcaron" unicode="&#x13d;" horiz-adv-x="524" 
d="M91 680h92v-597h311v-83h-403v680zM289 529v10l20 141h93v-10l-42 -141h-71z" />
    <glyph glyph-name="lcaron" unicode="&#x13e;" horiz-adv-x="260" 
d="M238 67v-71c-15 -4 -36 -8 -59 -8c-72 0 -102 42 -102 111v601h90v-607c0 -17 3 -26 28 -26h43zM211 529v10l20 141h93v-10l-42 -141h-71z" />
    <glyph glyph-name="Ldot" unicode="&#x13f;" horiz-adv-x="525" 
d="M91 680h92v-597h311v-83h-403v680zM323 352c0 39 25 65 64 65s64 -26 64 -65s-25 -65 -64 -65s-64 26 -64 65z" />
    <glyph glyph-name="ldot" unicode="&#x140;" horiz-adv-x="356" 
d="M238 67v-71c-15 -4 -36 -8 -59 -8c-72 0 -102 42 -102 111v601h90v-607c0 -17 3 -26 28 -26h43zM240 352c0 39 25 65 64 65s64 -26 64 -65s-25 -65 -64 -65s-64 26 -64 65z" />
    <glyph glyph-name="Lslash" unicode="&#x141;" horiz-adv-x="538" 
d="M105 680h92v-263l107 59h10v-83l-117 -65v-245h311v-83h-403v277l-63 -34h-10v83l73 40v314z" />
    <glyph glyph-name="lslash" unicode="&#x142;" horiz-adv-x="319" 
d="M268 67v-71c-15 -4 -36 -8 -59 -8c-72 0 -102 42 -102 111v174l-73 -40h-10v83l83 45v339h90v-290l87 48h10v-83l-97 -53v-229c0 -17 3 -26 28 -26h43z" />
    <glyph glyph-name="Nacute" unicode="&#x143;" horiz-adv-x="712" 
d="M527 145h2v535h92v-680h-95l-341 535h-2v-535h-92v680h94zM458 883v-10l-75 -121h-77v10l54 121h98z" />
    <glyph glyph-name="nacute" unicode="&#x144;" horiz-adv-x="570" 
d="M76 482h64l11 -44h2c28 21 100 59 170 59c108 0 176 -63 176 -184v-313h-90v295c0 83 -35 123 -108 123c-51 0 -108 -28 -135 -47v-371h-90v482zM412 710v-10l-85 -121h-77v10l64 121h98z" />
    <glyph glyph-name="Ncommaaccent" unicode="&#x145;" horiz-adv-x="712" 
d="M527 145h2v535h92v-680h-95l-341 535h-2v-535h-92v680h94zM289 -218v10l20 141h93v-10l-42 -141h-71z" />
    <glyph glyph-name="ncommaaccent" unicode="&#x146;" horiz-adv-x="570" 
d="M76 482h64l11 -44h2c28 21 100 59 170 59c108 0 176 -63 176 -184v-313h-90v295c0 83 -35 123 -108 123c-51 0 -108 -28 -135 -47v-371h-90v482zM217 -218v10l20 141h93v-10l-42 -141h-71z" />
    <glyph glyph-name="Ncaron" unicode="&#x147;" horiz-adv-x="712" 
d="M527 145h2v535h92v-680h-95l-341 535h-2v-535h-92v680h94zM305 752l-94 121v10h82l63 -71l63 71h82v-10l-94 -121h-102z" />
    <glyph glyph-name="ncaron" unicode="&#x148;" horiz-adv-x="570" 
d="M76 482h64l11 -44h2c28 21 100 59 170 59c108 0 176 -63 176 -184v-313h-90v295c0 83 -35 123 -108 123c-51 0 -108 -28 -135 -47v-371h-90v482zM241 579l-94 121v10h82l63 -74l63 74h82v-10l-94 -121h-102z" />
    <glyph glyph-name="napostrophe" unicode="&#x149;" horiz-adv-x="570" 
d="M76 482h64l11 -44h2c28 21 100 59 170 59c108 0 176 -63 176 -184v-313h-90v295c0 83 -35 123 -108 123c-51 0 -108 -28 -135 -47v-371h-90v482zM-8 529v10l20 141h93v-10l-42 -141h-71z" />
    <glyph glyph-name="Eng" unicode="&#x14a;" horiz-adv-x="712" 
d="M527 152h2v528h92v-738c0 -99 -47 -155 -143 -155c-19 0 -49 3 -69 7v83c17 -3 44 -5 60 -5c43 0 60 14 60 67v61l-344 535h-2v-535h-92v680h94z" />
    <glyph glyph-name="eng" unicode="&#x14b;" horiz-adv-x="570" 
d="M76 482h64l11 -44h2c28 21 100 59 170 59c108 0 176 -63 176 -184v-371c0 -99 -47 -155 -143 -155c-19 0 -49 3 -69 7v77c17 -3 44 -5 60 -5c43 0 62 20 62 73v356c0 83 -35 123 -108 123c-51 0 -108 -28 -135 -47v-371h-90v482z" />
    <glyph glyph-name="Omacron" unicode="&#x14c;" horiz-adv-x="719" 
d="M153 340c0 -152 49 -270 207 -270c159 0 206 118 206 270s-47 270 -206 270c-158 0 -207 -118 -207 -270zM661 340c0 -201 -86 -355 -301 -355s-302 154 -302 355s87 355 302 355s301 -154 301 -355zM498 777h-265v74h265v-74z" />
    <glyph glyph-name="omacron" unicode="&#x14d;" horiz-adv-x="574" 
d="M141 241c0 -100 37 -177 144 -177c108 0 148 77 148 177s-40 177 -148 177c-107 0 -144 -77 -144 -177zM525 241c0 -140 -69 -256 -240 -256c-169 0 -236 116 -236 256s67 256 236 256c171 0 240 -116 240 -256zM420 597h-265v74h265v-74z" />
    <glyph glyph-name="Obreve" unicode="&#x14e;" horiz-adv-x="719" 
d="M153 340c0 -152 49 -270 207 -270c159 0 206 118 206 270s-47 270 -206 270c-158 0 -207 -118 -207 -270zM661 340c0 -201 -86 -355 -301 -355s-302 154 -302 355s87 355 302 355s301 -154 301 -355zM364 838c45 0 89 7 120 32l30 -42c-32 -45 -85 -65 -150 -65
c-64 0 -117 20 -149 65l30 42c31 -25 75 -32 119 -32z" />
    <glyph glyph-name="obreve" unicode="&#x14f;" horiz-adv-x="574" 
d="M141 241c0 -100 37 -177 144 -177c108 0 148 77 148 177s-40 177 -148 177c-107 0 -144 -77 -144 -177zM525 241c0 -140 -69 -256 -240 -256c-169 0 -236 116 -236 256s67 256 236 256c171 0 240 -116 240 -256zM286 654c45 0 89 7 120 32l30 -42
c-32 -45 -85 -65 -150 -65c-64 0 -117 20 -149 65l30 42c31 -25 75 -32 119 -32z" />
    <glyph glyph-name="Ohungarumlaut" unicode="&#x150;" horiz-adv-x="719" 
d="M153 340c0 -152 49 -270 207 -270c159 0 206 118 206 270s-47 270 -206 270c-158 0 -207 -118 -207 -270zM661 340c0 -201 -86 -355 -301 -355s-302 154 -302 355s87 355 302 355s301 -154 301 -355zM403 883v-10l-85 -121h-77v10l64 121h98zM571 883v-10l-85 -121h-77
v10l64 121h98z" />
    <glyph glyph-name="ohungarumlaut" unicode="&#x151;" horiz-adv-x="574" 
d="M141 241c0 -100 37 -177 144 -177c108 0 148 77 148 177s-40 177 -148 177c-107 0 -144 -77 -144 -177zM525 241c0 -140 -69 -256 -240 -256c-169 0 -236 116 -236 256s67 256 236 256c171 0 240 -116 240 -256zM338 710v-10l-85 -121h-77v10l64 121h98zM506 710v-10
l-85 -121h-77v10l64 121h98z" />
    <glyph glyph-name="OE" unicode="&#x152;" horiz-adv-x="959" 
d="M360 695c39 0 75 -5 106 -15h431v-83h-341v-209h309v-83h-309v-222h344v-83h-434c-31 -11 -67 -15 -106 -15c-215 0 -302 154 -302 355s87 355 302 355zM360 70c43 0 76 5 104 17v505c-28 12 -61 18 -104 18c-158 0 -207 -118 -207 -270s49 -270 207 -270z" />
    <glyph glyph-name="oe" unicode="&#x153;" horiz-adv-x="922" 
d="M870 212h-345c0 -87 61 -149 153 -149c67 0 109 20 144 43l35 -69c-43 -28 -103 -52 -187 -52c-91 0 -151 39 -190 95c-39 -56 -100 -95 -195 -95c-169 0 -236 116 -236 256s67 256 236 256c95 0 156 -40 195 -96c39 55 97 96 181 96c152 0 215 -100 215 -208
c0 -25 -3 -60 -6 -77zM141 241c0 -100 37 -177 144 -177c108 0 148 77 148 177s-40 177 -148 177c-107 0 -144 -77 -144 -177zM525 284h263c1 7 1 14 1 21c0 67 -45 115 -128 115c-81 0 -131 -56 -136 -136z" />
    <glyph glyph-name="Racute" unicode="&#x154;" horiz-adv-x="642" 
d="M183 0h-92v680h256c139 0 224 -66 224 -194c0 -108 -63 -170 -163 -189l204 -281v-16h-100l-207 292h-122v-292zM183 375h159c87 0 134 38 134 111s-47 111 -134 111h-159v-222zM412 883v-10l-75 -121h-77v10l54 121h98z" />
    <glyph glyph-name="racute" unicode="&#x155;" horiz-adv-x="358" 
d="M76 482h64l11 -52h2c32 40 78 67 134 67c19 0 39 -3 52 -7l-13 -81c-15 3 -34 5 -49 5c-63 0 -88 -29 -111 -70v-344h-90v482zM312 710v-10l-85 -121h-77v10l64 121h98z" />
    <glyph glyph-name="Rcommaaccent" unicode="&#x156;" horiz-adv-x="642" 
d="M183 0h-92v680h256c139 0 224 -66 224 -194c0 -108 -63 -170 -163 -189l204 -281v-16h-100l-207 292h-122v-292zM183 375h159c87 0 134 38 134 111s-47 111 -134 111h-159v-222zM249 -218v10l20 141h93v-10l-42 -141h-71z" />
    <glyph glyph-name="rcommaaccent" unicode="&#x157;" horiz-adv-x="358" 
d="M76 482h64l11 -52h2c32 40 78 67 134 67c19 0 39 -3 52 -7l-13 -81c-15 3 -34 5 -49 5c-63 0 -88 -29 -111 -70v-344h-90v482zM53 -218v10l20 141h93v-10l-42 -141h-71z" />
    <glyph glyph-name="Rcaron" unicode="&#x158;" horiz-adv-x="642" 
d="M183 0h-92v680h256c139 0 224 -66 224 -194c0 -108 -63 -170 -163 -189l204 -281v-16h-100l-207 292h-122v-292zM183 375h159c87 0 134 38 134 111s-47 111 -134 111h-159v-222zM245 752l-94 121v10h82l63 -71l63 71h82v-10l-94 -121h-102z" />
    <glyph glyph-name="rcaron" unicode="&#x159;" horiz-adv-x="358" 
d="M76 482h64l11 -52h2c32 40 78 67 134 67c19 0 39 -3 52 -7l-13 -81c-15 3 -34 5 -49 5c-63 0 -88 -29 -111 -70v-344h-90v482zM152 579l-94 121v10h82l63 -74l63 74h82v-10l-94 -121h-102z" />
    <glyph glyph-name="Sacute" unicode="&#x15a;" horiz-adv-x="536" 
d="M46 59l41 73c48 -37 106 -62 178 -62c76 0 127 33 127 109c0 61 -30 84 -111 114l-62 22c-100 35 -158 95 -158 184c0 113 82 196 222 196c70 0 147 -30 189 -56l-37 -74c-48 27 -100 45 -152 45c-85 0 -127 -44 -127 -104c0 -48 19 -78 90 -103l66 -23
c112 -40 175 -96 175 -195c0 -116 -89 -200 -222 -200c-96 0 -167 36 -219 74zM383 883v-10l-75 -121h-77v10l54 121h98z" />
    <glyph glyph-name="sacute" unicode="&#x15b;" horiz-adv-x="450" 
d="M43 31l32 72c41 -25 87 -41 142 -41c67 0 99 24 99 68c0 35 -21 52 -72 67l-58 16c-83 24 -134 60 -134 137c0 88 67 147 179 147c67 0 116 -13 165 -34l-28 -73c-43 20 -89 30 -132 30c-65 0 -94 -24 -94 -67c0 -32 16 -48 71 -63l57 -15c83 -21 136 -64 136 -143
c0 -89 -68 -147 -181 -147c-83 0 -133 18 -182 46zM349 710v-10l-85 -121h-77v10l64 121h98z" />
    <glyph glyph-name="Scircumflex" unicode="&#x15c;" horiz-adv-x="536" 
d="M46 59l41 73c48 -37 106 -62 178 -62c76 0 127 33 127 109c0 61 -30 84 -111 114l-62 22c-100 35 -158 95 -158 184c0 113 82 196 222 196c70 0 147 -30 189 -56l-37 -74c-48 27 -100 45 -152 45c-85 0 -127 -44 -127 -104c0 -48 19 -78 90 -103l66 -23
c112 -40 175 -96 175 -195c0 -116 -89 -200 -222 -200c-96 0 -167 36 -219 74zM325 883l94 -121v-10h-82l-63 71l-63 -71h-82v10l94 121h102z" />
    <glyph glyph-name="scircumflex" unicode="&#x15d;" horiz-adv-x="450" 
d="M43 31l32 72c41 -25 87 -41 142 -41c67 0 99 24 99 68c0 35 -21 52 -72 67l-58 16c-83 24 -134 60 -134 137c0 88 67 147 179 147c67 0 116 -13 165 -34l-28 -73c-43 20 -89 30 -132 30c-65 0 -94 -24 -94 -67c0 -32 16 -48 71 -63l57 -15c83 -21 136 -64 136 -143
c0 -89 -68 -147 -181 -147c-83 0 -133 18 -182 46zM283 710l94 -121v-10h-82l-63 74l-63 -74h-82v10l94 121h102z" />
    <glyph glyph-name="Scedilla" unicode="&#x15e;" horiz-adv-x="537" 
d="M214 -83l-6 10l21 60c-79 7 -138 39 -183 72l41 73c48 -37 106 -62 178 -62c76 0 127 33 127 109c0 61 -30 84 -111 114l-62 22c-100 35 -158 95 -158 184c0 113 82 196 222 196c70 0 147 -30 189 -56l-37 -74c-48 27 -100 45 -152 45c-85 0 -127 -44 -127 -104
c0 -48 19 -78 90 -103l66 -23c112 -40 175 -96 175 -195c0 -107 -75 -187 -191 -198l-14 -35c43 -7 71 -31 71 -72c0 -68 -50 -93 -118 -93c-32 0 -60 7 -75 14l14 55c13 -5 32 -11 53 -11c31 0 48 8 48 35c0 29 -26 37 -61 37z" />
    <glyph glyph-name="scedilla" unicode="&#x15f;" horiz-adv-x="451" 
d="M176 -83l-6 10l21 59c-64 5 -105 21 -148 45l32 72c41 -25 87 -41 142 -41c67 0 99 24 99 68c0 35 -21 52 -72 67l-58 16c-83 24 -134 60 -134 137c0 88 67 147 179 147c67 0 116 -13 165 -34l-28 -73c-43 20 -89 30 -132 30c-65 0 -94 -24 -94 -67c0 -32 16 -48 71 -63
l57 -15c83 -21 136 -64 136 -143c0 -80 -55 -134 -148 -145l-14 -35c43 -7 71 -31 71 -72c0 -68 -50 -93 -118 -93c-32 0 -60 7 -75 14l14 55c13 -5 32 -11 53 -11c31 0 48 8 48 35c0 29 -26 37 -61 37z" />
    <glyph glyph-name="Scaron" unicode="&#x160;" horiz-adv-x="536" 
d="M46 59l41 73c48 -37 106 -62 178 -62c76 0 127 33 127 109c0 61 -30 84 -111 114l-62 22c-100 35 -158 95 -158 184c0 113 82 196 222 196c70 0 147 -30 189 -56l-37 -74c-48 27 -100 45 -152 45c-85 0 -127 -44 -127 -104c0 -48 19 -78 90 -103l66 -23
c112 -40 175 -96 175 -195c0 -116 -89 -200 -222 -200c-96 0 -167 36 -219 74zM226 752l-94 121v10h82l63 -71l63 71h82v-10l-94 -121h-102z" />
    <glyph glyph-name="scaron" unicode="&#x161;" horiz-adv-x="450" 
d="M43 31l32 72c41 -25 87 -41 142 -41c67 0 99 24 99 68c0 35 -21 52 -72 67l-58 16c-83 24 -134 60 -134 137c0 88 67 147 179 147c67 0 116 -13 165 -34l-28 -73c-43 20 -89 30 -132 30c-65 0 -94 -24 -94 -67c0 -32 16 -48 71 -63l57 -15c83 -21 136 -64 136 -143
c0 -89 -68 -147 -181 -147c-83 0 -133 18 -182 46zM174 579l-94 121v10h82l63 -74l63 74h82v-10l-94 -121h-102z" />
    <glyph glyph-name="Tcommaaccent" unicode="&#x162;" horiz-adv-x="553" 
d="M221 -83l-6 10l28 73h-12v597h-199v83h489v-83h-198v-597h-12l-22 -48c43 -7 71 -31 71 -72c0 -68 -50 -93 -118 -93c-32 0 -60 7 -75 14l14 55c13 -5 32 -11 53 -11c31 0 48 8 48 35c0 29 -26 37 -61 37z" />
    <glyph glyph-name="tcommaaccent" unicode="&#x163;" horiz-adv-x="367" 
d="M162 -83l-6 10l24 68c-55 20 -66 64 -66 139v274h-86v54l86 20v112h90v-112h129v-74h-129v-287c0 -40 20 -57 53 -57c27 0 60 8 75 12v-77c-19 -5 -55 -14 -88 -14l-14 -33c43 -7 71 -31 71 -72c0 -68 -50 -93 -118 -93c-32 0 -60 7 -75 14l14 55c13 -5 32 -11 53 -11
c29 0 48 8 48 35c0 29 -26 37 -61 37z" />
    <glyph glyph-name="Tcaron" unicode="&#x164;" horiz-adv-x="553" 
d="M32 680h489v-83h-198v-597h-92v597h-199v83zM225 752l-94 121v10h82l63 -71l63 71h82v-10l-94 -121h-102z" />
    <glyph glyph-name="tcaron" unicode="&#x165;" horiz-adv-x="365" 
d="M113 594h90v-112h129v-74h-129v-287c0 -40 20 -57 53 -57c27 0 60 8 75 12v-77c-19 -5 -55 -14 -95 -14c-80 0 -123 42 -123 119v304h-86v54l86 20v112zM286 529v10l20 141h93v-10l-42 -141h-71z" />
    <glyph glyph-name="Tbar" unicode="&#x166;" horiz-adv-x="553" 
d="M450 324h-127v-324h-92v324h-126v83h126v190h-199v83h489v-83h-198v-190h127v-83z" />
    <glyph glyph-name="tbar" unicode="&#x167;" horiz-adv-x="369" 
d="M308 234h-102v-113c0 -40 20 -57 53 -57c27 0 60 8 75 12v-77c-19 -5 -55 -14 -95 -14c-80 0 -123 42 -123 119v130h-73v74h73v100h-86v54l86 20v112h90v-112h129v-74h-129v-100h102v-74z" />
    <glyph glyph-name="Utilde" unicode="&#x168;" horiz-adv-x="694" 
d="M84 680h92v-421c0 -115 52 -189 171 -189s170 74 170 189v421h92v-431c0 -162 -81 -264 -262 -264c-183 0 -263 102 -263 265v430zM220 767l-27 50c19 27 47 57 90 57s90 -40 130 -40c23 0 42 12 59 35l27 -50c-24 -33 -51 -57 -90 -57c-44 0 -88 40 -131 40
c-21 0 -42 -14 -58 -35z" />
    <glyph glyph-name="utilde" unicode="&#x169;" horiz-adv-x="563" 
d="M71 482h90v-295c0 -83 29 -123 104 -123c50 0 104 28 132 47v371h90v-482h-64l-11 44h-2c-29 -21 -98 -59 -167 -59c-108 0 -172 63 -172 184v313zM155 584l-27 50c19 27 47 57 90 57s90 -40 130 -40c23 0 42 12 59 35l27 -50c-24 -33 -51 -57 -90 -57
c-44 0 -88 40 -131 40c-21 0 -42 -14 -58 -35z" />
    <glyph glyph-name="Umacron" unicode="&#x16a;" horiz-adv-x="694" 
d="M84 680h92v-421c0 -115 52 -189 171 -189s170 74 170 189v421h92v-431c0 -162 -81 -264 -262 -264c-183 0 -263 102 -263 265v430zM479 777h-265v74h265v-74z" />
    <glyph glyph-name="umacron" unicode="&#x16b;" horiz-adv-x="563" 
d="M71 482h90v-295c0 -83 29 -123 104 -123c50 0 104 28 132 47v371h90v-482h-64l-11 44h-2c-29 -21 -98 -59 -167 -59c-108 0 -172 63 -172 184v313zM414 597h-265v74h265v-74z" />
    <glyph glyph-name="Ubreve" unicode="&#x16c;" horiz-adv-x="694" 
d="M84 680h92v-421c0 -115 52 -189 171 -189s170 74 170 189v421h92v-431c0 -162 -81 -264 -262 -264c-183 0 -263 102 -263 265v430zM345 838c45 0 89 7 120 32l30 -42c-32 -45 -85 -65 -150 -65c-64 0 -117 20 -149 65l30 42c31 -25 75 -32 119 -32z" />
    <glyph glyph-name="ubreve" unicode="&#x16d;" horiz-adv-x="563" 
d="M71 482h90v-295c0 -83 29 -123 104 -123c50 0 104 28 132 47v371h90v-482h-64l-11 44h-2c-29 -21 -98 -59 -167 -59c-108 0 -172 63 -172 184v313zM283 654c45 0 89 7 120 32l30 -42c-32 -45 -85 -65 -150 -65c-64 0 -117 20 -149 65l30 42c31 -25 75 -32 119 -32z" />
    <glyph glyph-name="Uring" unicode="&#x16e;" horiz-adv-x="694" 
d="M84 680h92v-421c0 -115 52 -189 171 -189s170 74 170 189v421h92v-431c0 -162 -81 -264 -262 -264c-183 0 -263 102 -263 265v430zM304 828c0 -27 16 -40 43 -40s43 13 43 40s-16 39 -43 39s-43 -12 -43 -39zM245 828c0 60 42 93 102 93s101 -33 101 -93
s-41 -94 -101 -94s-102 34 -102 94z" />
    <glyph glyph-name="uring" unicode="&#x16f;" horiz-adv-x="563" 
d="M71 482h90v-295c0 -83 29 -123 104 -123c50 0 104 28 132 47v371h90v-482h-64l-11 44h-2c-29 -21 -98 -59 -167 -59c-108 0 -172 63 -172 184v313zM239 638c0 -27 16 -40 43 -40s43 13 43 40s-16 39 -43 39s-43 -12 -43 -39zM180 638c0 60 42 93 102 93s101 -33 101 -93
s-41 -94 -101 -94s-102 34 -102 94z" />
    <glyph glyph-name="Uhungarumlaut" unicode="&#x170;" horiz-adv-x="694" 
d="M84 680h92v-421c0 -115 52 -189 171 -189s170 74 170 189v421h92v-431c0 -162 -81 -264 -262 -264c-183 0 -263 102 -263 265v430zM382 883v-10l-85 -121h-77v10l64 121h98zM550 883v-10l-85 -121h-77v10l64 121h98z" />
    <glyph glyph-name="uhungarumlaut" unicode="&#x171;" horiz-adv-x="563" 
d="M71 482h90v-295c0 -83 29 -123 104 -123c50 0 104 28 132 47v371h90v-482h-64l-11 44h-2c-29 -21 -98 -59 -167 -59c-108 0 -172 63 -172 184v313zM321 710v-10l-85 -121h-77v10l64 121h98zM489 710v-10l-85 -121h-77v10l64 121h98z" />
    <glyph glyph-name="Uogonek" unicode="&#x172;" horiz-adv-x="695" 
d="M361 -213c-52 0 -102 27 -102 95c0 49 20 82 51 105c-156 13 -225 111 -225 263v430h92v-421c0 -115 52 -189 171 -189s170 74 170 189v421h92v-431c0 -147 -66 -242 -210 -261c-36 -5 -65 -37 -65 -82c0 -33 15 -50 46 -50c24 0 43 12 58 21l9 -62
c-19 -13 -51 -28 -87 -28z" />
    <glyph glyph-name="uogonek" unicode="&#x173;" horiz-adv-x="563" 
d="M418 -213c-51 0 -101 27 -101 95c0 57 44 96 102 133l-7 29h-2c-29 -21 -98 -59 -167 -59c-108 0 -172 63 -172 184v313h90v-295c0 -83 29 -123 104 -123c50 0 104 28 132 47v371h90v-482c-64 -32 -94 -66 -94 -101c0 -29 15 -43 45 -43c25 0 44 12 59 21l8 -62
c-19 -13 -51 -28 -87 -28z" />
    <glyph glyph-name="Wcircumflex" unicode="&#x174;" horiz-adv-x="977" 
d="M951 680v-10l-196 -670h-94l-172 568h-2l-171 -568h-94l-197 670v10h96l149 -552h2l167 552h98l167 -552h2l149 552h96zM539 883l94 -121v-10h-82l-63 71l-63 -71h-82v10l94 121h102z" />
    <glyph glyph-name="wcircumflex" unicode="&#x175;" horiz-adv-x="818" 
d="M792 482v-10l-164 -472h-87l-131 374h-2l-131 -374h-87l-164 472v10h91l119 -365h2l125 365h92l126 -365h2l118 365h91zM460 710l94 -121v-10h-82l-63 74l-63 -74h-82v10l94 121h102z" />
    <glyph glyph-name="Ycircumflex" unicode="&#x176;" horiz-adv-x="560" 
d="M9 680h99l171 -306h2l174 306h98v-10l-227 -383v-287h-92v287l-225 383v10zM331 883l94 -121v-10h-82l-63 71l-63 -71h-82v10l94 121h102z" />
    <glyph glyph-name="ycircumflex" unicode="&#x177;" horiz-adv-x="505" 
d="M482 482v-10l-202 -536c-39 -103 -91 -149 -167 -149c-27 0 -58 6 -77 10v76c20 -3 46 -7 69 -7c43 0 67 23 86 75l23 64l-194 467v10h90l143 -375h3l137 375h89zM305 710l94 -121v-10h-82l-63 74l-63 -74h-82v10l94 121h102z" />
    <glyph glyph-name="Ydieresis" unicode="&#x178;" horiz-adv-x="560" 
d="M9 680h99l171 -306h2l174 306h98v-10l-227 -383v-287h-92v287l-225 383v10zM113 816c0 35 22 56 57 56c36 0 58 -21 58 -56s-22 -57 -58 -57c-35 0 -57 22 -57 57zM332 816c0 35 22 56 57 56c36 0 58 -21 58 -56s-22 -57 -58 -57c-35 0 -57 22 -57 57z" />
    <glyph glyph-name="Zacute" unicode="&#x179;" horiz-adv-x="552" 
d="M60 680h442v-74l-346 -521v-2h346v-83h-460v74l345 521v2h-327v83zM382 883v-10l-75 -121h-77v10l54 121h98z" />
    <glyph glyph-name="zacute" unicode="&#x17a;" horiz-adv-x="450" 
d="M54 482h349v-52l-249 -354v-2h249v-74h-363v52l249 354v2h-235v74zM351 710v-10l-85 -121h-77v10l64 121h98z" />
    <glyph glyph-name="Zdotaccent" unicode="&#x17b;" horiz-adv-x="552" 
d="M60 680h442v-74l-346 -521v-2h346v-83h-460v74l345 521v2h-327v83zM227 816c0 35 22 56 57 56c36 0 58 -21 58 -56s-22 -57 -58 -57c-35 0 -57 22 -57 57z" />
    <glyph glyph-name="zdotaccent" unicode="&#x17c;" horiz-adv-x="450" 
d="M54 482h349v-52l-249 -354v-2h249v-74h-363v52l249 354v2h-235v74zM175 634c0 35 22 56 57 56c36 0 58 -21 58 -56s-22 -57 -58 -57c-35 0 -57 22 -57 57z" />
    <glyph glyph-name="Zcaron" unicode="&#x17d;" horiz-adv-x="552" 
d="M60 680h442v-74l-346 -521v-2h346v-83h-460v74l345 521v2h-327v83zM232 752l-94 121v10h82l63 -71l63 71h82v-10l-94 -121h-102z" />
    <glyph glyph-name="zcaron" unicode="&#x17e;" horiz-adv-x="450" 
d="M54 482h349v-52l-249 -354v-2h249v-74h-363v52l249 354v2h-235v74zM181 579l-94 121v10h82l63 -74l63 74h82v-10l-94 -121h-102z" />
    <glyph glyph-name="florin" unicode="&#x192;" 
d="M258 296h-102l13 74h102l29 168c20 112 77 157 177 157c20 0 48 -3 67 -6l-9 -80c-15 3 -40 7 -59 7c-48 0 -74 -16 -85 -71l-30 -175h122l-13 -74h-122l-63 -352c-19 -112 -75 -157 -175 -157c-20 0 -50 3 -67 6l9 80c13 -3 40 -7 59 -7c47 0 74 16 83 71z" />
    <glyph glyph-name="Aringacute" unicode="&#x1fa;" horiz-adv-x="631" 
d="M214 721c0 60 42 93 102 93s101 -33 101 -93c0 -36 -14 -64 -41 -79l243 -642h-96l-61 170h-293l-62 -170h-95l243 642c-27 16 -41 43 -41 79zM316 572h-2l-115 -324h232zM273 721c0 -27 16 -40 43 -40s43 13 43 40s-16 39 -43 39s-43 -12 -43 -39zM429 961v-8l-75 -98
h-76v8l53 98h98z" />
    <glyph glyph-name="aringacute" unicode="&#x1fb;" horiz-adv-x="520" 
d="M234 616c0 -27 16 -35 43 -35s43 8 43 35s-16 34 -43 34s-43 -7 -43 -34zM175 616c0 60 42 88 102 88s101 -28 101 -88s-41 -89 -101 -89s-102 29 -102 89zM390 841v-8l-75 -98h-76v8l53 98h98zM346 218h-63c-114 0 -150 -30 -150 -78c0 -52 30 -76 83 -76
c45 0 95 16 130 41v113zM363 43h-2c-44 -36 -99 -58 -163 -58c-89 0 -157 53 -157 149c0 117 96 154 228 154h77v25c0 69 -31 105 -108 105c-47 0 -101 -19 -138 -42l-34 68c43 31 105 53 174 53c125 0 196 -65 196 -186v-218c0 -17 3 -26 28 -26h27v-71
c-15 -4 -30 -8 -49 -8c-47 0 -68 22 -79 55z" />
    <glyph glyph-name="AEacute" unicode="&#x1fc;" horiz-adv-x="920" 
d="M-9 0v10l409 670h458v-83h-341v-209h309v-83h-309v-222h344v-83h-436v170h-234l-102 -170h-98zM425 568h-2l-187 -320h189v320zM727 883v-10l-75 -121h-77v10l54 121h98z" />
    <glyph glyph-name="aeacute" unicode="&#x1fd;" horiz-adv-x="823" 
d="M771 212h-328c0 -88 51 -149 144 -149c65 0 101 20 136 43l35 -69c-43 -28 -95 -52 -179 -52c-87 0 -144 43 -181 103c-39 -60 -105 -103 -200 -103c-89 0 -157 53 -157 149c0 116 91 152 222 152h92v27c0 69 -40 105 -116 105c-47 0 -101 -18 -138 -41l-33 67
c43 31 104 53 173 53c77 0 139 -26 170 -73c31 36 87 73 162 73c152 0 204 -100 204 -208c0 -25 -3 -60 -6 -77zM443 284h246c1 7 1 14 1 21c0 67 -34 115 -117 115c-81 0 -125 -56 -130 -136zM356 212h-79c-115 0 -149 -24 -149 -72c0 -52 35 -76 88 -76
c63 0 140 48 140 148zM540 710v-10l-85 -121h-77v10l64 121h98z" />
    <glyph glyph-name="Oslashacute" unicode="&#x1fe;" horiz-adv-x="719" 
d="M156 -27l-58 37l42 63c-57 65 -82 159 -82 267c0 201 87 355 302 355c68 0 123 -16 166 -43l39 57l57 -39l-43 -63c57 -64 82 -159 82 -267c0 -201 -86 -355 -301 -355c-69 0 -124 15 -168 43zM566 340c0 73 -10 139 -41 187l-283 -425c31 -21 67 -32 118 -32
c159 0 206 118 206 270zM153 340c0 -73 11 -138 40 -186l284 424c-29 20 -68 32 -117 32c-158 0 -207 -118 -207 -270zM472 883v-10l-75 -121h-77v10l54 121h98z" />
    <glyph glyph-name="oslashacute" unicode="&#x1ff;" horiz-adv-x="574" 
d="M124 -31l-52 45l34 44c-40 47 -57 111 -57 183c0 140 67 256 236 256c55 0 98 -12 133 -33l34 46l55 -43l-37 -48c39 -47 55 -109 55 -178c0 -140 -69 -256 -240 -256c-51 0 -93 10 -126 29zM433 241c0 39 -5 74 -20 103l-203 -263c21 -11 46 -17 75 -17
c108 0 148 77 148 177zM141 241c0 -43 6 -78 22 -109l204 265c-21 13 -49 21 -82 21c-107 0 -144 -77 -144 -177zM407 710v-10l-85 -121h-77v10l64 121h98z" />
    <glyph glyph-name="Scommaaccent" unicode="&#x218;" horiz-adv-x="536" 
d="M46 59l41 73c48 -37 106 -62 178 -62c76 0 127 33 127 109c0 61 -30 84 -111 114l-62 22c-100 35 -158 95 -158 184c0 113 82 196 222 196c70 0 147 -30 189 -56l-37 -74c-48 27 -100 45 -152 45c-85 0 -127 -44 -127 -104c0 -48 19 -78 90 -103l66 -23
c112 -40 175 -96 175 -195c0 -116 -89 -200 -222 -200c-96 0 -167 36 -219 74zM198 -218v10l20 141h93v-10l-42 -141h-71z" />
    <glyph glyph-name="scommaaccent" unicode="&#x219;" horiz-adv-x="450" 
d="M43 31l32 72c41 -25 87 -41 142 -41c67 0 99 24 99 68c0 35 -21 52 -72 67l-58 16c-83 24 -134 60 -134 137c0 88 67 147 179 147c67 0 116 -13 165 -34l-28 -73c-43 20 -89 30 -132 30c-65 0 -94 -24 -94 -67c0 -32 16 -48 71 -63l57 -15c83 -21 136 -64 136 -143
c0 -89 -68 -147 -181 -147c-83 0 -133 18 -182 46zM164 -218v10l20 141h93v-10l-42 -141h-71z" />
    <glyph glyph-name="uni021A" unicode="&#x21a;" horiz-adv-x="553" 
d="M32 680h489v-83h-198v-597h-92v597h-199v83zM209 -218v10l20 141h93v-10l-42 -141h-71z" />
    <glyph glyph-name="uni021B" unicode="&#x21b;" horiz-adv-x="365" 
d="M113 594h90v-112h129v-74h-129v-287c0 -40 20 -57 53 -57c27 0 60 8 75 12v-77c-19 -5 -55 -14 -95 -14c-80 0 -123 42 -123 119v304h-86v54l86 20v112zM139 -218v10l20 141h93v-10l-42 -141h-71z" />
    <glyph glyph-name="dotlessj" unicode="&#x237;" horiz-adv-x="242" 
d="M76 482h90v-540c0 -99 -47 -155 -143 -155c-19 0 -49 3 -69 7v77c17 -3 44 -5 60 -5c43 0 62 20 62 73v543z" />
    <glyph glyph-name="circumflex" unicode="&#x2c6;" 
d="M346 710l94 -121v-10h-82l-63 74l-63 -74h-82v10l94 121h102z" />
    <glyph glyph-name="caron" unicode="&#x2c7;" 
d="M244 579l-94 121v10h82l63 -74l63 74h82v-10l-94 -121h-102z" />
    <glyph glyph-name="uni02C9" unicode="&#x2c9;" 
d="M427 607h-265v74h265v-74z" />
    <glyph glyph-name="breve" unicode="&#x2d8;" 
d="M294 654c45 0 89 7 120 32l30 -42c-32 -45 -85 -65 -150 -65c-64 0 -117 20 -149 65l30 42c31 -25 75 -32 119 -32z" />
    <glyph glyph-name="dotaccent" unicode="&#x2d9;" 
d="M237 634c0 35 22 56 57 56c36 0 58 -21 58 -56s-22 -57 -58 -57c-35 0 -57 22 -57 57z" />
    <glyph glyph-name="ring" unicode="&#x2da;" 
d="M252 638c0 -27 16 -40 43 -40s43 13 43 40s-16 39 -43 39s-43 -12 -43 -39zM193 638c0 60 42 93 102 93s101 -33 101 -93s-41 -94 -101 -94s-102 34 -102 94z" />
    <glyph glyph-name="ogonek" unicode="&#x2db;" 
d="M301 -213c-51 0 -101 27 -101 95c0 65 61 109 133 152l36 -30c-56 -37 -93 -70 -93 -105c0 -28 16 -43 45 -43c25 0 44 12 59 21l8 -62c-19 -13 -51 -28 -87 -28z" />
    <glyph glyph-name="tilde" unicode="&#x2dc;" 
d="M169 584l-27 50c19 27 47 57 90 57s90 -40 130 -40c23 0 42 12 59 35l27 -50c-24 -33 -51 -57 -90 -57c-44 0 -88 40 -131 40c-21 0 -42 -14 -58 -35z" />
    <glyph glyph-name="hungarumlaut" unicode="&#x2dd;" 
d="M292 710v-10l-85 -121h-77v10l64 121h98zM460 710v-10l-85 -121h-77v10l64 121h98z" />
    <glyph glyph-name="tonos" unicode="&#x384;" 
d="M390 710v-10l-50 -141h-69v10l29 141h90z" />
    <glyph glyph-name="dieresistonos" unicode="&#x385;" 
d="M119 614c0 35 22 56 57 56c36 0 58 -21 58 -56s-22 -57 -58 -57c-35 0 -57 22 -57 57zM406 614c0 35 22 56 57 56c36 0 58 -21 58 -56s-22 -57 -58 -57c-35 0 -57 22 -57 57zM386 710v-10l-45 -151h-72v10l24 151h93z" />
    <glyph glyph-name="Alphatonos" unicode="&#x386;" horiz-adv-x="655" 
d="M386 680l257 -680h-96l-61 170h-293l-62 -170h-95l257 680h93zM340 572h-2l-115 -324h232zM180 680v-10l-45 -141h-70v10l24 141h91z" />
    <glyph glyph-name="anoteleia" unicode="&#x387;" horiz-adv-x="264" 
d="M68 290c0 39 25 65 64 65s64 -26 64 -65s-25 -65 -64 -65s-64 26 -64 65z" />
    <glyph glyph-name="Epsilontonos" unicode="&#x388;" horiz-adv-x="687" 
d="M192 680h433v-83h-341v-209h309v-83h-309v-222h344v-83h-436v680zM132 680v-10l-45 -141h-70v10l24 141h91z" />
    <glyph glyph-name="Etatonos" unicode="&#x389;" horiz-adv-x="804" 
d="M621 0v305h-337v-305h-92v680h92v-292h337v292h92v-680h-92zM132 680v-10l-45 -141h-70v10l24 141h91z" />
    <glyph glyph-name="Iotatonos" unicode="&#x38a;" horiz-adv-x="375" 
d="M284 680v-680h-92v680h92zM132 680v-10l-45 -141h-70v10l24 141h91z" />
    <glyph glyph-name="Omicrontonos" unicode="&#x38c;" horiz-adv-x="796" 
d="M230 340c0 -152 49 -270 207 -270c159 0 206 118 206 270s-47 270 -206 270c-158 0 -207 -118 -207 -270zM738 340c0 -201 -86 -355 -301 -355s-302 154 -302 355s87 355 302 355s301 -154 301 -355zM138 680v-10l-45 -141h-70v10l24 141h91z" />
    <glyph glyph-name="Upsilontonos" unicode="&#x38e;" horiz-adv-x="743" 
d="M192 680h99l171 -306h2l174 306h98v-10l-227 -383v-287h-92v287l-225 383v10zM144 680v-10l-45 -141h-70v10l24 141h91z" />
    <glyph glyph-name="Omegatonos" unicode="&#x38f;" horiz-adv-x="810" 
d="M147 0v83h135c-73 54 -139 150 -139 292c0 156 87 320 302 320s301 -164 301 -320c0 -142 -66 -238 -139 -292h135v-83h-243v79c93 64 152 147 152 291c0 121 -47 240 -206 240c-158 0 -207 -118 -207 -240c0 -142 59 -227 152 -291v-79h-243zM140 680v-10l-45 -141h-70
v10l24 141h91z" />
    <glyph glyph-name="iotadieresistonos" unicode="&#x390;" horiz-adv-x="271" 
d="M77 482h90v-364c0 -43 16 -54 44 -54c13 0 32 3 40 6v-77c-19 -5 -47 -8 -68 -8c-64 0 -106 37 -106 125v372zM-59 614c0 35 22 56 57 56c36 0 58 -21 58 -56s-22 -57 -58 -57c-35 0 -57 22 -57 57zM228 614c0 35 22 56 57 56c36 0 58 -21 58 -56s-22 -57 -58 -57
c-35 0 -57 22 -57 57zM208 710v-10l-45 -151h-72v10l24 151h93z" />
    <glyph glyph-name="Alpha" unicode="&#x391;" horiz-adv-x="631" 
d="M362 680l257 -680h-96l-61 170h-293l-62 -170h-95l257 680h93zM316 572h-2l-115 -324h232z" />
    <glyph glyph-name="Beta" unicode="&#x392;" horiz-adv-x="625" 
d="M183 300v-217h158c84 0 136 26 136 108c0 83 -52 109 -137 109h-157zM91 680h223c152 0 229 -56 229 -175c0 -79 -40 -133 -89 -152v-2c73 -23 118 -78 118 -167c0 -115 -80 -184 -221 -184h-260v680zM183 597v-214h124c92 0 141 20 141 107s-45 107 -141 107h-124z" />
    <glyph glyph-name="Gamma" unicode="&#x393;" horiz-adv-x="524" 
d="M183 0h-92v680h403v-83h-311v-597z" />
    <glyph glyph-name="uni0394" unicode="&#x394;" horiz-adv-x="631" 
d="M617 5v-5h-603v5l255 675h93zM316 572h-2l-178 -489h359z" />
    <glyph glyph-name="Epsilon" unicode="&#x395;" horiz-adv-x="586" 
d="M91 680h433v-83h-341v-209h309v-83h-309v-222h344v-83h-436v680z" />
    <glyph glyph-name="Zeta" unicode="&#x396;" horiz-adv-x="552" 
d="M60 680h442v-74l-346 -521v-2h346v-83h-460v74l345 521v2h-327v83z" />
    <glyph glyph-name="Eta" unicode="&#x397;" horiz-adv-x="703" 
d="M520 0v305h-337v-305h-92v680h92v-292h337v292h92v-680h-92z" />
    <glyph glyph-name="Theta" unicode="&#x398;" horiz-adv-x="719" 
d="M482 305h-245v83h245v-83zM153 340c0 -152 49 -270 207 -270c159 0 206 118 206 270s-47 270 -206 270c-158 0 -207 -118 -207 -270zM661 340c0 -201 -86 -355 -301 -355s-302 154 -302 355s87 355 302 355s301 -154 301 -355z" />
    <glyph glyph-name="Iota" unicode="&#x399;" horiz-adv-x="274" 
d="M183 680v-680h-92v680h92z" />
    <glyph glyph-name="Kappa" unicode="&#x39a;" horiz-adv-x="601" 
d="M185 310h-2v-310h-92v680h92v-334h2l279 334h107v-10l-287 -337l301 -323v-10h-113z" />
    <glyph glyph-name="Lambda" unicode="&#x39b;" horiz-adv-x="619" 
d="M308 553l-200 -553h-95l250 680h93l250 -680h-96l-200 553h-2z" />
    <glyph glyph-name="Mu" unicode="&#x39c;" horiz-adv-x="827" 
d="M412 284h2l234 396h88v-680h-92v511h-2l-195 -340h-66l-196 340h-2v-511h-92v680h87z" />
    <glyph glyph-name="Nu" unicode="&#x39d;" horiz-adv-x="712" 
d="M527 145h2v535h92v-680h-95l-341 535h-2v-535h-92v680h94z" />
    <glyph glyph-name="Xi" unicode="&#x39e;" horiz-adv-x="581" 
d="M63 91h456v-91h-456v91zM484 301h-386v91h386v-91zM516 589h-453v91h453v-91z" />
    <glyph glyph-name="Omicron" unicode="&#x39f;" horiz-adv-x="719" 
d="M153 340c0 -152 49 -270 207 -270c159 0 206 118 206 270s-47 270 -206 270c-158 0 -207 -118 -207 -270zM661 340c0 -201 -86 -355 -301 -355s-302 154 -302 355s87 355 302 355s301 -154 301 -355z" />
    <glyph glyph-name="Pi" unicode="&#x3a0;" horiz-adv-x="703" 
d="M520 0v597h-337v-597h-92v680h521v-680h-92z" />
    <glyph glyph-name="Rho" unicode="&#x3a1;" horiz-adv-x="593" 
d="M183 0h-92v680h241c152 0 220 -79 220 -209s-71 -209 -220 -209h-149v-262zM183 597v-252h141c95 0 133 50 133 126s-38 126 -133 126h-141z" />
    <glyph glyph-name="Sigma" unicode="&#x3a3;" horiz-adv-x="567" 
d="M42 0v73l188 273l-172 260v74h458v-83h-351l168 -247l-185 -267h368v-83h-474z" />
    <glyph glyph-name="Tau" unicode="&#x3a4;" horiz-adv-x="553" 
d="M32 680h489v-83h-198v-597h-92v597h-199v83z" />
    <glyph glyph-name="Upsilon" unicode="&#x3a5;" horiz-adv-x="560" 
d="M9 680h99l171 -306h2l174 306h98v-10l-227 -383v-287h-92v287l-225 383v10z" />
    <glyph glyph-name="Phi" unicode="&#x3a6;" horiz-adv-x="819" 
d="M452 680v-63c216 -13 306 -128 306 -276s-90 -264 -306 -277v-64h-92v64c-219 13 -297 129 -297 277s78 263 297 276v63h92zM158 341c0 -107 46 -186 202 -197v394c-156 -13 -202 -88 -202 -197zM663 341c0 109 -55 184 -211 197v-394c156 11 211 89 211 197z" />
    <glyph glyph-name="Chi" unicode="&#x3a7;" horiz-adv-x="588" 
d="M29 680h99l165 -277h2l166 277h99v-10l-208 -330l208 -330v-10h-99l-166 276h-2l-165 -276h-99v10l207 330l-207 330v10z" />
    <glyph glyph-name="Psi" unicode="&#x3a8;" horiz-adv-x="723" 
d="M407 680v-440c115 1 164 66 164 179v261h92v-271c0 -160 -79 -253 -256 -254v-155h-92v155c-178 3 -255 93 -255 255v270h92v-261c0 -113 48 -176 163 -179v440h92z" />
    <glyph glyph-name="uni03A9" unicode="&#x3a9;" horiz-adv-x="731" 
d="M68 0v83h135c-73 54 -139 150 -139 292c0 156 87 320 302 320s301 -164 301 -320c0 -142 -66 -238 -139 -292h135v-83h-243v79c93 64 152 147 152 291c0 121 -47 240 -206 240c-158 0 -207 -118 -207 -240c0 -142 59 -227 152 -291v-79h-243z" />
    <glyph glyph-name="Iotadieresis" unicode="&#x3aa;" horiz-adv-x="274" 
d="M183 680v-680h-92v680h92zM-32 816c0 35 22 56 57 56c36 0 58 -21 58 -56s-22 -57 -58 -57c-35 0 -57 22 -57 57zM187 816c0 35 22 56 57 56c36 0 58 -21 58 -56s-22 -57 -58 -57c-35 0 -57 22 -57 57z" />
    <glyph glyph-name="Upsilondieresis" unicode="&#x3ab;" horiz-adv-x="560" 
d="M9 680h99l171 -306h2l174 306h98v-10l-227 -383v-287h-92v287l-225 383v10zM113 816c0 35 22 56 57 56c36 0 58 -21 58 -56s-22 -57 -58 -57c-35 0 -57 22 -57 57zM332 816c0 35 22 56 57 56c36 0 58 -21 58 -56s-22 -57 -58 -57c-35 0 -57 22 -57 57z" />
    <glyph glyph-name="alphatonos" unicode="&#x3ac;" horiz-adv-x="606" 
d="M489 242l70 -242h-90l-31 119h-1c-32 -75 -86 -134 -177 -134c-148 0 -210 116 -210 256s61 256 209 256c92 0 146 -60 178 -134h1l31 119h90zM407 241c-21 93 -72 177 -148 177c-91 0 -117 -80 -117 -177s26 -177 117 -177c76 0 127 84 148 177zM390 710v-10l-50 -141
h-69v10l29 141h90z" />
    <glyph glyph-name="epsilontonos" unicode="&#x3ad;" horiz-adv-x="483" 
d="M369 284v-74h-132c-55 0 -95 -21 -95 -68c0 -56 44 -78 123 -78c60 0 111 9 163 30l21 -72c-45 -23 -105 -37 -184 -37c-136 0 -216 59 -216 145c0 61 30 100 86 119v2c-40 15 -71 51 -71 106c0 83 61 140 196 140c63 0 126 -13 174 -33l-19 -72c-51 16 -100 26 -153 26
c-83 0 -105 -28 -105 -72s45 -62 86 -62h126zM365 710v-10l-50 -141h-69v10l29 141h90z" />
    <glyph glyph-name="etatonos" unicode="&#x3ae;" horiz-adv-x="570" 
d="M76 482h64l11 -44h2c28 21 100 59 170 59c108 0 176 -63 176 -184v-511h-90v493c0 83 -35 123 -108 123c-51 0 -108 -28 -135 -47v-371h-90v482zM401 710v-10l-50 -141h-69v10l29 141h90z" />
    <glyph glyph-name="iotatonos" unicode="&#x3af;" horiz-adv-x="271" 
d="M77 482h90v-364c0 -43 16 -54 44 -54c13 0 32 3 40 6v-77c-19 -5 -47 -8 -68 -8c-64 0 -106 37 -106 125v372zM213 710v-10l-50 -141h-69v10l29 141h90z" />
    <glyph glyph-name="upsilondieresistonos" unicode="&#x3b0;" horiz-adv-x="550" 
d="M159 482v-265c0 -104 44 -153 124 -153c79 0 124 49 124 180c0 76 -25 166 -53 238h97c21 -64 46 -155 46 -238c0 -179 -79 -259 -214 -259c-136 0 -214 74 -214 219v278h90zM348 710v-10l-50 -141h-69v10l29 141h90z" />
    <glyph glyph-name="alpha" unicode="&#x3b1;" horiz-adv-x="606" 
d="M489 242l70 -242h-90l-31 119h-1c-32 -75 -86 -134 -177 -134c-148 0 -210 116 -210 256s61 256 209 256c92 0 146 -60 178 -134h1l31 119h90zM407 241c-21 93 -72 177 -148 177c-91 0 -117 -80 -117 -177s26 -177 117 -177c76 0 127 84 148 177z" />
    <glyph glyph-name="beta" unicode="&#x3b2;" horiz-adv-x="573" 
d="M170 25h-2v-223h-92v688c0 147 72 215 197 215c132 0 200 -81 200 -185c0 -81 -49 -123 -91 -144v-2c68 -19 145 -72 145 -183c0 -127 -98 -206 -219 -206c-63 0 -111 21 -138 40zM168 483v-377c29 -24 70 -42 135 -42c80 0 132 49 132 126c0 88 -45 140 -157 140h-41v74
h46c67 0 98 46 98 110c0 67 -40 112 -105 112c-73 0 -108 -39 -108 -143z" />
    <glyph glyph-name="gamma" unicode="&#x3b3;" horiz-adv-x="503" 
d="M288 -198h-90v203l-176 467v10h90l132 -375h2c72 115 118 245 139 375h89v-10c-25 -145 -90 -300 -186 -469v-201z" />
    <glyph glyph-name="delta" unicode="&#x3b4;" horiz-adv-x="570" 
d="M425 694v-80c-27 7 -66 12 -99 12c-52 0 -83 -17 -83 -59c0 -84 281 -154 281 -350c0 -116 -69 -232 -240 -232c-169 0 -236 114 -236 229c0 117 67 194 170 241c-39 31 -65 65 -65 112c0 92 72 138 175 138c29 0 73 -6 97 -11zM432 217c0 91 -82 141 -157 194
c-68 -37 -135 -101 -135 -197c0 -75 37 -150 144 -150c108 0 148 78 148 153z" />
    <glyph glyph-name="epsilon" unicode="&#x3b5;" horiz-adv-x="483" 
d="M369 284v-74h-132c-55 0 -95 -21 -95 -68c0 -56 44 -78 123 -78c60 0 111 9 163 30l21 -72c-45 -23 -105 -37 -184 -37c-136 0 -216 59 -216 145c0 61 30 100 86 119v2c-40 15 -71 51 -71 106c0 83 61 140 196 140c63 0 126 -13 174 -33l-19 -72c-51 16 -100 26 -153 26
c-83 0 -105 -28 -105 -72s45 -62 86 -62h126z" />
    <glyph glyph-name="zeta" unicode="&#x3b6;" horiz-adv-x="448" 
d="M59 700h372v-61c-217 -257 -297 -353 -297 -436c0 -152 264 -95 264 -252c0 -58 -37 -100 -80 -127l-61 48c16 11 49 38 49 69c0 81 -264 49 -264 260c0 108 99 217 273 423v2h-256v74z" />
    <glyph glyph-name="eta" unicode="&#x3b7;" horiz-adv-x="570" 
d="M76 482h64l11 -44h2c28 21 100 59 170 59c108 0 176 -63 176 -184v-511h-90v493c0 83 -35 123 -108 123c-51 0 -108 -28 -135 -47v-371h-90v482z" />
    <glyph glyph-name="theta" unicode="&#x3b8;" horiz-adv-x="593" 
d="M539 345c0 -219 -67 -360 -241 -360c-176 0 -244 141 -244 360s68 360 244 360c174 0 241 -141 241 -360zM298 626c-109 0 -147 -99 -152 -251h300c-5 152 -39 251 -148 251zM298 64c103 0 143 93 148 237h-299c5 -144 45 -237 151 -237z" />
    <glyph glyph-name="iota" unicode="&#x3b9;" horiz-adv-x="271" 
d="M77 482h90v-364c0 -43 16 -54 44 -54c13 0 32 3 40 6v-77c-19 -5 -47 -8 -68 -8c-64 0 -106 37 -106 125v372z" />
    <glyph glyph-name="kappa" unicode="&#x3ba;" horiz-adv-x="501" 
d="M167 217h-2v-217h-89v482h89v-234h2l201 234h102v-7l-210 -238l221 -230v-7h-107z" />
    <glyph glyph-name="lambda" unicode="&#x3bb;" horiz-adv-x="505" 
d="M482 10v-10h-89l-135 370h-3l-145 -370h-90v10l194 467l-33 91c-13 35 -32 58 -68 58c-15 0 -34 -3 -51 -7v76c20 7 40 10 67 10c75 0 109 -45 133 -113z" />
    <glyph glyph-name="uni03BC" unicode="&#x3bc;" horiz-adv-x="568" 
d="M166 -198h-90v680h90v-320c0 -65 32 -98 104 -98c50 0 104 28 132 47v371h90v-482h-64l-11 44h-2c-29 -21 -98 -59 -167 -59c-31 0 -63 12 -82 36v-219z" />
    <glyph glyph-name="nu" unicode="&#x3bd;" horiz-adv-x="502" 
d="M474 482v-10c-25 -147 -91 -301 -188 -472h-86l-178 472v10h90l130 -375h2c72 115 120 245 141 375h89z" />
    <glyph glyph-name="xi" unicode="&#x3be;" horiz-adv-x="478" 
d="M150 624v2h-100v74h393v-74h-143c-99 0 -141 -57 -141 -120c0 -61 41 -123 140 -123h89v-74h-81c-127 0 -166 -57 -166 -120c0 -150 299 -80 299 -235c0 -60 -39 -102 -84 -130l-61 48c17 11 53 37 53 69c0 81 -299 35 -299 241c0 84 50 144 119 169v2
c-48 19 -101 80 -101 148c0 61 32 99 83 123z" />
    <glyph glyph-name="omicron" unicode="&#x3bf;" horiz-adv-x="574" 
d="M141 241c0 -100 37 -177 144 -177c108 0 148 77 148 177s-40 177 -148 177c-107 0 -144 -77 -144 -177zM525 241c0 -140 -69 -256 -240 -256c-169 0 -236 116 -236 256s67 256 236 256c171 0 240 -116 240 -256z" />
    <glyph glyph-name="pi" unicode="&#x3c0;" horiz-adv-x="576" 
d="M9 482h545v-74h-96v-290c0 -43 16 -54 44 -54c13 0 32 3 40 6v-77c-19 -5 -47 -8 -68 -8c-64 0 -106 37 -106 125v298h-173v-408h-90v408h-96v74z" />
    <glyph glyph-name="rho" unicode="&#x3c1;" horiz-adv-x="568" 
d="M160 261v-150c29 -27 60 -47 120 -47c109 0 147 80 147 177s-37 177 -141 177c-75 0 -126 -46 -126 -157zM160 -198h-92v454c0 175 101 241 218 241c167 0 233 -116 233 -256s-65 -256 -214 -256c-67 0 -116 25 -143 45h-2v-228z" />
    <glyph glyph-name="sigma1" unicode="&#x3c2;" horiz-adv-x="463" 
d="M436 462l-23 -70c-29 12 -80 26 -127 26c-101 0 -146 -88 -146 -177c0 -166 271 -126 271 -287c0 -58 -37 -103 -80 -130l-61 48c16 11 49 38 49 69c0 93 -271 72 -271 300c0 151 86 256 237 256c51 0 110 -16 151 -35z" />
    <glyph glyph-name="sigma" unicode="&#x3c3;" horiz-adv-x="587" 
d="M437 408v-2c61 -36 89 -104 89 -172c0 -137 -69 -249 -240 -249c-169 0 -236 112 -236 249s67 248 236 248h255v-74h-104zM142 234c0 -96 37 -170 144 -170c108 0 148 74 148 170s-40 169 -148 169c-107 0 -144 -73 -144 -169z" />
    <glyph glyph-name="tau" unicode="&#x3c4;" horiz-adv-x="462" 
d="M25 482h405v-74h-169v-287c0 -40 20 -57 53 -57c27 0 60 8 75 12v-77c-19 -5 -55 -14 -95 -14c-80 0 -123 42 -123 119v304h-146v74z" />
    <glyph glyph-name="upsilon" unicode="&#x3c5;" horiz-adv-x="550" 
d="M159 482v-265c0 -104 44 -153 124 -153c79 0 124 49 124 180c0 76 -25 166 -53 238h97c21 -64 46 -155 46 -238c0 -179 -79 -259 -214 -259c-136 0 -214 74 -214 219v278h90z" />
    <glyph glyph-name="phi" unicode="&#x3c6;" horiz-adv-x="681" 
d="M112 482h99c-40 -72 -70 -162 -70 -232c0 -95 36 -176 152 -189v236c0 129 53 200 158 200c127 0 180 -108 180 -240c0 -145 -64 -252 -248 -268v-187h-90v187c-180 13 -242 125 -242 260c0 77 32 169 61 233zM383 289v-227c120 16 156 90 156 194c0 84 -25 162 -88 162
c-59 0 -68 -46 -68 -129z" />
    <glyph glyph-name="chi" unicode="&#x3c7;" horiz-adv-x="505" 
d="M18 482h90l144 -269h3l144 269h90v-10l-182 -330l182 -330v-10h-89l-145 268h-3l-144 -268h-90v10l182 330l-182 330v10z" />
    <glyph glyph-name="psi" unicode="&#x3c8;" horiz-adv-x="697" 
d="M396 700v-638c92 0 159 51 159 182c0 76 -28 166 -60 238h99c24 -64 51 -156 51 -238c0 -179 -104 -256 -249 -256v-186h-90v186c-143 0 -237 72 -237 216v278h90v-265c0 -104 58 -155 147 -155v638h90z" />
    <glyph glyph-name="omega" unicode="&#x3c9;" horiz-adv-x="825" 
d="M598 482h96c47 -63 80 -156 80 -238c0 -179 -75 -259 -203 -259c-72 0 -124 31 -157 95h-2c-35 -64 -87 -95 -158 -95c-128 0 -203 80 -203 259c0 83 32 173 80 238h96v-10c-52 -72 -86 -153 -86 -228c0 -131 42 -180 113 -180c72 0 114 49 114 153v142h90v-142
c0 -104 41 -153 113 -153s113 49 113 180c0 75 -35 156 -86 228v10z" />
    <glyph glyph-name="iotadieresis" unicode="&#x3ca;" horiz-adv-x="271" 
d="M77 482h90v-364c0 -43 16 -54 44 -54c13 0 32 3 40 6v-77c-19 -5 -47 -8 -68 -8c-64 0 -106 37 -106 125v372zM-32 634c0 35 22 56 57 56c36 0 58 -21 58 -56s-22 -57 -58 -57c-35 0 -57 22 -57 57zM167 634c0 35 22 56 57 56c36 0 58 -21 58 -56s-22 -57 -58 -57
c-35 0 -57 22 -57 57z" />
    <glyph glyph-name="upsilondieresis" unicode="&#x3cb;" horiz-adv-x="550" 
d="M159 482v-265c0 -104 44 -153 124 -153c79 0 124 49 124 180c0 76 -25 166 -53 238h97c21 -64 46 -155 46 -238c0 -179 -79 -259 -214 -259c-136 0 -214 74 -214 219v278h90zM116 634c0 35 22 56 57 56c36 0 58 -21 58 -56s-22 -57 -58 -57c-35 0 -57 22 -57 57zM315 634
c0 35 22 56 57 56c36 0 58 -21 58 -56s-22 -57 -58 -57c-35 0 -57 22 -57 57z" />
    <glyph glyph-name="omicrontonos" unicode="&#x3cc;" horiz-adv-x="574" 
d="M141 241c0 -100 37 -177 144 -177c108 0 148 77 148 177s-40 177 -148 177c-107 0 -144 -77 -144 -177zM525 241c0 -140 -69 -256 -240 -256c-169 0 -236 116 -236 256s67 256 236 256c171 0 240 -116 240 -256zM381 710v-10l-50 -141h-69v10l29 141h90z" />
    <glyph glyph-name="upsilontonos" unicode="&#x3cd;" horiz-adv-x="550" 
d="M159 482v-265c0 -104 44 -153 124 -153c79 0 124 49 124 180c0 76 -25 166 -53 238h97c21 -64 46 -155 46 -238c0 -179 -79 -259 -214 -259c-136 0 -214 74 -214 219v278h90zM349 710v-10l-50 -141h-69v10l29 141h90z" />
    <glyph glyph-name="omegatonos" unicode="&#x3ce;" horiz-adv-x="825" 
d="M598 482h96c47 -63 80 -156 80 -238c0 -179 -75 -259 -203 -259c-72 0 -124 31 -157 95h-2c-35 -64 -87 -95 -158 -95c-128 0 -203 80 -203 259c0 83 32 173 80 238h96v-10c-52 -72 -86 -153 -86 -228c0 -131 42 -180 113 -180c72 0 114 49 114 153v142h90v-142
c0 -104 41 -153 113 -153s113 49 113 180c0 75 -35 156 -86 228v10zM513 710v-10l-50 -141h-69v10l29 141h90z" />
    <glyph glyph-name="uni0400" unicode="&#x400;" horiz-adv-x="586" 
d="M91 680h433v-83h-341v-209h309v-83h-309v-222h344v-83h-436v680zM200 873v10h98l54 -121v-10h-77z" />
    <glyph glyph-name="uni0401" unicode="&#x401;" horiz-adv-x="586" 
d="M91 680h433v-83h-341v-209h309v-83h-309v-222h344v-83h-436v680zM140 816c0 35 22 56 57 56c36 0 58 -21 58 -56s-22 -57 -58 -57c-35 0 -57 22 -57 57zM359 816c0 35 22 56 57 56c36 0 58 -21 58 -56s-22 -57 -58 -57c-35 0 -57 22 -57 57z" />
    <glyph glyph-name="uni0402" unicode="&#x402;" horiz-adv-x="694" 
d="M515 -108l-65 51c64 72 111 160 111 246c0 88 -53 137 -138 137c-51 0 -103 -12 -154 -27v-299h-92v597h-148v83h453v-83h-213v-215c47 15 109 27 169 27c136 0 218 -81 218 -220c0 -116 -66 -212 -141 -297z" />
    <glyph glyph-name="uni0403" unicode="&#x403;" horiz-adv-x="554" 
d="M91 680h433v-83h-341v-597h-92v680zM420 883v-10l-75 -121h-77v10l54 121h98z" />
    <glyph glyph-name="uni0404" unicode="&#x404;" horiz-adv-x="596" 
d="M57 340c0 212 110 355 314 355c59 0 121 -16 181 -44l-25 -73c-57 25 -105 32 -156 32c-139 0 -207 -87 -218 -227h299v-83h-299c11 -143 78 -230 218 -230c51 0 99 7 156 32l25 -73c-60 -28 -122 -44 -181 -44c-204 0 -314 143 -314 355z" />
    <glyph glyph-name="uni0405" unicode="&#x405;" horiz-adv-x="536" 
d="M46 59l41 73c48 -37 106 -62 178 -62c76 0 127 33 127 109c0 61 -30 84 -111 114l-62 22c-100 35 -158 95 -158 184c0 113 82 196 222 196c70 0 147 -30 189 -56l-37 -74c-48 27 -100 45 -152 45c-85 0 -127 -44 -127 -104c0 -48 19 -78 90 -103l66 -23
c112 -40 175 -96 175 -195c0 -116 -89 -200 -222 -200c-96 0 -167 36 -219 74z" />
    <glyph glyph-name="uni0406" unicode="&#x406;" horiz-adv-x="274" 
d="M183 680v-680h-92v680h92z" />
    <glyph glyph-name="uni0407" unicode="&#x407;" horiz-adv-x="274" 
d="M183 680v-680h-92v680h92zM-32 816c0 35 22 56 57 56c36 0 58 -21 58 -56s-22 -57 -58 -57c-35 0 -57 22 -57 57zM187 816c0 35 22 56 57 56c36 0 58 -21 58 -56s-22 -57 -58 -57c-35 0 -57 22 -57 57z" />
    <glyph glyph-name="uni0408" unicode="&#x408;" horiz-adv-x="464" 
d="M20 58l46 64c30 -25 58 -52 116 -52c65 0 104 45 104 153v457h92v-464c0 -152 -75 -231 -196 -231c-68 0 -125 36 -162 73z" />
    <glyph glyph-name="uni0409" unicode="&#x409;" horiz-adv-x="972" 
d="M147 680h401v-271h158c143 0 223 -74 223 -205c0 -128 -80 -204 -223 -204h-250v597h-224l-10 -230c-16 -349 -71 -377 -209 -377v83c78 0 108 12 121 294zM548 326v-243h148c84 0 138 33 138 121s-53 122 -138 122h-148z" />
    <glyph glyph-name="uni040A" unicode="&#x40a;" horiz-adv-x="997" 
d="M481 680h92v-271h158c143 0 223 -74 223 -205c0 -128 -80 -204 -223 -204h-250v326h-298v-326h-92v680h92v-271h298v271zM573 326v-243h148c84 0 138 33 138 121s-53 122 -138 122h-148z" />
    <glyph glyph-name="uni040B" unicode="&#x40b;" horiz-adv-x="716" 
d="M660 0h-92v261c0 83 -40 123 -132 123c-60 0 -134 -21 -166 -29v-355h-92v597h-149v83h453v-83h-212v-157c36 11 105 27 185 27c124 0 205 -63 205 -184v-283z" />
    <glyph glyph-name="uni040C" unicode="&#x40c;" horiz-adv-x="601" 
d="M185 310h-2v-310h-92v680h92v-334h2l279 334h107v-10l-287 -337l301 -323v-10h-113zM421 883v-10l-75 -121h-77v10l54 121h98z" />
    <glyph glyph-name="uni040D" unicode="&#x40d;" horiz-adv-x="702" 
d="M183 135h2l322 545h104v-680h-92v545h-2l-321 -545h-105v680h92v-545zM239 873v10h98l54 -121v-10h-77z" />
    <glyph glyph-name="uni040E" unicode="&#x40e;" horiz-adv-x="553" 
d="M542 680v-10l-220 -519c-45 -107 -97 -151 -206 -151h-38v84h29c60 0 93 13 122 80l16 35l-224 471v10h96l173 -380h3l154 380h95zM295 838c45 0 89 7 120 32l30 -42c-32 -45 -85 -65 -150 -65c-64 0 -117 20 -149 65l30 42c31 -25 75 -32 119 -32z" />
    <glyph glyph-name="uni040F" unicode="&#x40f;" horiz-adv-x="693" 
d="M382 -141h-72l-9 141h-210v680h92v-597h327v597h92v-680h-212z" />
    <glyph glyph-name="uni0410" unicode="&#x410;" horiz-adv-x="631" 
d="M362 680l257 -680h-96l-61 170h-293l-62 -170h-95l257 680h93zM316 572h-2l-115 -324h232z" />
    <glyph glyph-name="uni0411" unicode="&#x411;" horiz-adv-x="613" 
d="M91 680h432v-83h-340v-188h158c143 0 223 -74 223 -205c0 -128 -80 -204 -223 -204h-250v680zM183 326v-243h148c84 0 138 33 138 121s-53 122 -138 122h-148z" />
    <glyph glyph-name="uni0412" unicode="&#x412;" horiz-adv-x="625" 
d="M183 300v-217h158c84 0 136 26 136 108c0 83 -52 109 -137 109h-157zM91 680h223c152 0 229 -56 229 -175c0 -79 -40 -133 -89 -152v-2c73 -23 118 -78 118 -167c0 -115 -80 -184 -221 -184h-260v680zM183 597v-214h124c92 0 141 20 141 107s-45 107 -141 107h-124z" />
    <glyph glyph-name="uni0413" unicode="&#x413;" horiz-adv-x="554" 
d="M91 680h433v-83h-341v-597h-92v680z" />
    <glyph glyph-name="uni0414" unicode="&#x414;" horiz-adv-x="689" 
d="M97 -141h-72l-13 224h49c56 69 86 133 97 308l18 289h404v-597h61l-13 -224h-72l-8 141h-443zM164 83h324v514h-227l-15 -212c-13 -173 -34 -246 -82 -302z" />
    <glyph glyph-name="uni0415" unicode="&#x415;" horiz-adv-x="586" 
d="M91 680h433v-83h-341v-209h309v-83h-309v-222h344v-83h-436v680z" />
    <glyph glyph-name="uni0416" unicode="&#x416;" horiz-adv-x="928" 
d="M418 310h-2l-285 -310h-115v10l301 323l-287 337v10h109l277 -334h2v334h92v-334h2l277 334h109v-10l-287 -337l301 -323v-10h-115l-285 310h-2v-310h-92v310z" />
    <glyph glyph-name="uni0417" unicode="&#x417;" horiz-adv-x="546" 
d="M134 305v83h121c89 0 126 50 126 111s-42 111 -126 111c-63 0 -116 -12 -173 -35l-28 75c52 28 130 45 202 45c141 0 220 -74 220 -190c0 -74 -49 -133 -95 -152v-2c65 -25 112 -85 112 -169c0 -119 -102 -197 -244 -197c-88 0 -162 20 -213 51l32 75
c59 -29 115 -41 180 -41c82 0 150 41 150 118c0 65 -34 117 -149 117h-115z" />
    <glyph glyph-name="uni0418" unicode="&#x418;" horiz-adv-x="702" 
d="M183 135h2l322 545h104v-680h-92v545h-2l-321 -545h-105v680h92v-545z" />
    <glyph glyph-name="uni0419" unicode="&#x419;" horiz-adv-x="702" 
d="M360 838c45 0 89 7 120 32l30 -42c-32 -45 -85 -65 -150 -65c-64 0 -117 20 -149 65l30 42c31 -25 75 -32 119 -32zM183 135h2l322 545h104v-680h-92v545h-2l-321 -545h-105v680h92v-545z" />
    <glyph glyph-name="uni041A" unicode="&#x41a;" horiz-adv-x="601" 
d="M185 310h-2v-310h-92v680h92v-334h2l279 334h107v-10l-287 -337l301 -323v-10h-113z" />
    <glyph glyph-name="uni041B" unicode="&#x41b;" horiz-adv-x="679" 
d="M496 0v597h-264l-10 -230c-16 -349 -71 -377 -209 -377v83c78 0 108 12 121 294l13 313h441v-680h-92z" />
    <glyph glyph-name="uni041C" unicode="&#x41c;" horiz-adv-x="827" 
d="M412 284h2l234 396h88v-680h-92v511h-2l-195 -340h-66l-196 340h-2v-511h-92v680h87z" />
    <glyph glyph-name="uni041D" unicode="&#x41d;" horiz-adv-x="703" 
d="M520 0v305h-337v-305h-92v680h92v-292h337v292h92v-680h-92z" />
    <glyph glyph-name="uni041E" unicode="&#x41e;" horiz-adv-x="719" 
d="M153 340c0 -152 49 -270 207 -270c159 0 206 118 206 270s-47 270 -206 270c-158 0 -207 -118 -207 -270zM661 340c0 -201 -86 -355 -301 -355s-302 154 -302 355s87 355 302 355s301 -154 301 -355z" />
    <glyph glyph-name="uni041F" unicode="&#x41f;" horiz-adv-x="703" 
d="M520 0v597h-337v-597h-92v680h521v-680h-92z" />
    <glyph glyph-name="uni0420" unicode="&#x420;" horiz-adv-x="593" 
d="M183 0h-92v680h241c152 0 220 -79 220 -209s-71 -209 -220 -209h-149v-262zM183 597v-252h141c95 0 133 50 133 126s-38 126 -133 126h-141z" />
    <glyph glyph-name="uni0421" unicode="&#x421;" horiz-adv-x="598" 
d="M57 340c0 212 110 355 314 355c59 0 121 -16 181 -44l-25 -73c-57 25 -105 32 -156 32c-153 0 -219 -105 -219 -270s66 -270 219 -270c51 0 99 7 156 32l25 -73c-60 -28 -122 -44 -181 -44c-204 0 -314 143 -314 355z" />
    <glyph glyph-name="uni0422" unicode="&#x422;" horiz-adv-x="553" 
d="M32 680h489v-83h-198v-597h-92v597h-199v83z" />
    <glyph glyph-name="uni0423" unicode="&#x423;" horiz-adv-x="553" 
d="M542 680v-10l-220 -519c-45 -107 -97 -151 -206 -151h-38v84h29c60 0 93 13 122 80l16 35l-224 471v10h96l173 -380h3l154 380h95z" />
    <glyph glyph-name="uni0424" unicode="&#x424;" horiz-adv-x="819" 
d="M452 680v-63c216 -13 306 -128 306 -276s-90 -264 -306 -277v-64h-92v64c-219 13 -297 129 -297 277s78 263 297 276v63h92zM158 341c0 -107 46 -186 202 -197v394c-156 -13 -202 -88 -202 -197zM663 341c0 109 -55 184 -211 197v-394c156 11 211 89 211 197z" />
    <glyph glyph-name="uni0425" unicode="&#x425;" horiz-adv-x="588" 
d="M29 680h99l165 -277h2l166 277h99v-10l-208 -330l208 -330v-10h-99l-166 276h-2l-165 -276h-99v10l207 330l-207 330v10z" />
    <glyph glyph-name="uni0426" unicode="&#x426;" horiz-adv-x="711" 
d="M650 -141h-72l-8 141h-479v680h92v-597h327v597h92v-597h61z" />
    <glyph glyph-name="uni0427" unicode="&#x427;" horiz-adv-x="637" 
d="M64 680h92v-291c0 -83 40 -123 132 -123c60 0 134 21 166 29v385h92v-680h-92v210c-36 -11 -105 -27 -185 -27c-124 0 -205 63 -205 184v313z" />
    <glyph glyph-name="uni0428" unicode="&#x428;" horiz-adv-x="1013" 
d="M922 0h-831v680h92v-597h277v597h93v-597h277v597h92v-680z" />
    <glyph glyph-name="uni0429" unicode="&#x429;" horiz-adv-x="1031" 
d="M970 -141h-72l-8 141h-799v680h92v-597h277v597h93v-597h277v597h92v-597h61z" />
    <glyph glyph-name="uni042A" unicode="&#x42a;" horiz-adv-x="684" 
d="M28 597v83h232v-271h158c143 0 223 -74 223 -205c0 -128 -80 -204 -223 -204h-250v597h-140zM260 326v-243h148c84 0 138 33 138 121s-53 122 -138 122h-148z" />
    <glyph glyph-name="uni042B" unicode="&#x42b;" horiz-adv-x="841" 
d="M750 680v-680h-92v680h92zM91 680h92v-271h158c143 0 223 -74 223 -205c0 -128 -80 -204 -223 -204h-250v680zM183 326v-243h148c84 0 138 33 138 121s-53 122 -138 122h-148z" />
    <glyph glyph-name="uni042C" unicode="&#x42c;" horiz-adv-x="607" 
d="M91 680h92v-271h158c143 0 223 -74 223 -205c0 -128 -80 -204 -223 -204h-250v680zM183 326v-243h148c84 0 138 33 138 121s-53 122 -138 122h-148z" />
    <glyph glyph-name="uni042D" unicode="&#x42d;" horiz-adv-x="598" 
d="M541 340c0 -212 -110 -355 -314 -355c-59 0 -121 16 -181 44l25 73c57 -25 105 -32 156 -32c140 0 207 87 218 230h-299v83h299c-11 140 -79 227 -218 227c-51 0 -99 -7 -156 -32l-25 73c60 28 122 44 181 44c204 0 314 -143 314 -355z" />
    <glyph glyph-name="uni042E" unicode="&#x42e;" horiz-adv-x="991" 
d="M425 340c0 -152 49 -270 207 -270c159 0 206 118 206 270s-47 270 -206 270c-158 0 -207 -118 -207 -270zM933 340c0 -201 -86 -355 -301 -355c-203 0 -293 136 -301 320h-148v-305h-92v680h92v-292h148c13 177 103 307 301 307c215 0 301 -154 301 -355z" />
    <glyph glyph-name="uni042F" unicode="&#x42f;" horiz-adv-x="642" 
d="M551 0h-92v282h-124l-207 -282h-98v16l204 271c-100 19 -163 86 -163 194c0 127 85 199 224 199h256v-680zM300 365h159v232h-159c-87 0 -134 -43 -134 -116s47 -116 134 -116z" />
    <glyph glyph-name="uni0430" unicode="&#x430;" horiz-adv-x="520" 
d="M346 218h-63c-114 0 -150 -30 -150 -78c0 -52 30 -76 83 -76c45 0 95 16 130 41v113zM363 43h-2c-44 -36 -99 -58 -163 -58c-89 0 -157 53 -157 149c0 117 96 154 228 154h77v25c0 69 -31 105 -108 105c-47 0 -101 -19 -138 -42l-34 68c43 31 105 53 174 53
c125 0 196 -65 196 -186v-218c0 -17 3 -26 28 -26h27v-71c-15 -4 -30 -8 -49 -8c-47 0 -68 22 -79 55z" />
    <glyph glyph-name="uni0431" unicode="&#x431;" 
d="M151 378l2 -2c33 37 102 69 170 69c131 0 217 -91 217 -227c0 -131 -86 -233 -240 -233c-156 0 -241 103 -241 282c0 177 2 346 201 407c74 24 200 29 252 39v-84c-53 -8 -161 -12 -231 -36c-101 -37 -127 -106 -130 -215zM448 218c0 92 -59 148 -148 148
c-92 0 -149 -56 -149 -148c0 -89 58 -154 149 -154c89 0 148 65 148 154z" />
    <glyph glyph-name="uni0432" unicode="&#x432;" horiz-adv-x="515" 
d="M165 210v-136h111c64 0 97 21 97 68c0 48 -31 68 -96 68h-112zM76 482h182c121 0 185 -38 185 -129c0 -52 -29 -87 -68 -102v-1c56 -17 91 -54 91 -114c0 -89 -58 -136 -182 -136h-208v482zM165 408v-126h88c66 0 97 14 97 62c0 49 -26 64 -96 64h-89z" />
    <glyph glyph-name="uni0433" unicode="&#x433;" horiz-adv-x="444" 
d="M76 482h342v-74h-253v-408h-89v482z" />
    <glyph glyph-name="uni0434" unicode="&#x434;" horiz-adv-x="569" 
d="M97 -120h-64l-14 196h43c40 46 63 107 68 211l12 195h331v-406h54l-14 -196h-64l-9 120h-335zM161 76h223v332h-162l-9 -123c-8 -107 -20 -169 -52 -209z" />
    <glyph glyph-name="uni0435" unicode="&#x435;" horiz-adv-x="537" 
d="M485 212h-345c0 -88 61 -150 153 -150c67 0 109 20 144 43l35 -68c-43 -28 -103 -52 -187 -52c-165 0 -236 119 -236 258c0 131 75 254 227 254s215 -100 215 -208c0 -25 -3 -60 -6 -77zM140 284h263c1 7 1 14 1 21c0 67 -45 115 -128 115c-81 0 -131 -56 -136 -136z" />
    <glyph glyph-name="uni0436" unicode="&#x436;" horiz-adv-x="761" 
d="M335 217h-1l-207 -217h-107v7l221 230l-211 238v7h103l201 -234h1v234h90v-234h2l201 234h102v-7l-210 -238l221 -230v-7h-107l-207 217h-2v-217h-90v217z" />
    <glyph glyph-name="uni0437" unicode="&#x437;" horiz-adv-x="467" 
d="M112 210v74h120c40 0 82 18 82 62s-23 72 -100 72c-51 0 -98 -10 -146 -26l-19 72c45 20 106 33 166 33c132 0 190 -57 190 -140c0 -55 -28 -91 -67 -106v-2c53 -19 82 -58 82 -119c0 -86 -76 -145 -209 -145c-76 0 -134 14 -177 37l21 72c48 -21 99 -30 156 -30
c76 0 118 22 118 78c0 47 -39 68 -91 68h-126z" />
    <glyph glyph-name="uni0438" unicode="&#x438;" horiz-adv-x="571" 
d="M165 127h2l227 355h101v-482h-89v355h-2l-227 -355h-101v482h89v-355z" />
    <glyph glyph-name="uni0439" unicode="&#x439;" horiz-adv-x="571" 
d="M165 127h2l227 355h101v-482h-89v355h-2l-227 -355h-101v482h89v-355zM290 654c45 0 89 7 120 32l30 -42c-32 -45 -85 -65 -150 -65c-64 0 -117 20 -149 65l30 42c31 -25 75 -32 119 -32z" />
    <glyph glyph-name="uni043A" unicode="&#x43a;" horiz-adv-x="501" 
d="M167 217h-2v-217h-89v482h89v-234h2l201 234h102v-7l-210 -238l221 -230v-7h-107z" />
    <glyph glyph-name="uni043B" unicode="&#x43b;" horiz-adv-x="567" 
d="M402 0v408h-190l-9 -153c-13 -232 -64 -262 -179 -262v77c56 0 87 14 95 189l11 223h361v-482h-89z" />
    <glyph glyph-name="uni043C" unicode="&#x43c;" horiz-adv-x="671" 
d="M334 218h2l173 264h86v-482h-89v327h-2l-135 -206h-68l-134 206h-2v-327h-89v482h86z" />
    <glyph glyph-name="uni043D" unicode="&#x43d;" horiz-adv-x="570" 
d="M405 0v206h-240v-206h-89v482h89v-200h240v200h89v-482h-89z" />
    <glyph glyph-name="uni043E" unicode="&#x43e;" horiz-adv-x="574" 
d="M141 241c0 -100 37 -177 144 -177c108 0 148 77 148 177s-40 177 -148 177c-107 0 -144 -77 -144 -177zM525 241c0 -140 -69 -256 -240 -256c-169 0 -236 116 -236 256s67 256 236 256c171 0 240 -116 240 -256z" />
    <glyph glyph-name="uni043F" unicode="&#x43f;" horiz-adv-x="570" 
d="M405 0v408h-240v-408h-89v482h418v-482h-89z" />
    <glyph glyph-name="uni0440" unicode="&#x440;" horiz-adv-x="573" 
d="M166 371v-260c31 -28 83 -47 131 -47c102 0 134 80 134 177s-32 177 -134 177c-48 0 -100 -19 -131 -47zM76 482h63l11 -44h2c35 25 94 59 169 59c142 0 202 -116 202 -256s-60 -256 -202 -256c-75 0 -118 24 -153 49h-2v-232h-90v680z" />
    <glyph glyph-name="uni0441" unicode="&#x441;" horiz-adv-x="481" 
d="M49 241c0 151 86 256 237 256c51 0 110 -16 151 -35l-23 -70c-29 12 -80 26 -127 26c-101 0 -146 -88 -146 -177s45 -177 146 -177c47 0 98 14 127 26l23 -70c-41 -19 -100 -35 -151 -35c-151 0 -237 105 -237 256z" />
    <glyph glyph-name="uni0442" unicode="&#x442;" horiz-adv-x="443" 
d="M27 482h390v-74h-151v-408h-89v408h-150v74z" />
    <glyph glyph-name="uni0443" unicode="&#x443;" horiz-adv-x="505" 
d="M482 482v-10l-202 -536c-39 -103 -91 -149 -167 -149c-27 0 -58 6 -77 10v76c20 -3 46 -7 69 -7c43 0 67 23 86 75l23 64l-194 467v10h90l143 -375h3l137 375h89z" />
    <glyph glyph-name="uni0444" unicode="&#x444;" horiz-adv-x="856" 
d="M473 383v-284c31 -24 68 -35 116 -35c97 0 124 80 124 177s-27 177 -124 177c-48 0 -85 -11 -116 -35zM383 99v284c-31 24 -68 35 -116 35c-97 0 -124 -80 -124 -177s27 -177 124 -177c48 0 85 11 116 35zM473 458h2c35 23 74 39 138 39c137 0 192 -116 192 -256
s-55 -256 -192 -256c-75 0 -103 16 -138 40h-2v-223h-90v223h-2c-35 -24 -63 -40 -138 -40c-137 0 -192 116 -192 256s55 256 192 256c64 0 103 -16 138 -39h2v242h90v-242z" />
    <glyph glyph-name="uni0445" unicode="&#x445;" horiz-adv-x="496" 
d="M249 187h-2l-124 -187h-93v10l161 231l-161 231v10h93l124 -188h2l123 188h94v-10l-161 -231l161 -231v-10h-94z" />
    <glyph glyph-name="uni0446" unicode="&#x446;" horiz-adv-x="582" 
d="M526 -120h-64l-8 120h-378v482h89v-408h232v408h89v-408h54z" />
    <glyph glyph-name="uni0447" unicode="&#x447;" horiz-adv-x="513" 
d="M52 482h89v-203c0 -47 27 -73 91 -73c45 0 93 11 116 19v257h89v-482h-89v150c-31 -11 -78 -20 -138 -20c-98 0 -158 52 -158 135v217z" />
    <glyph glyph-name="uni0448" unicode="&#x448;" horiz-adv-x="807" 
d="M731 0h-655v482h89v-408h194v408h89v-408h193v408h90v-482z" />
    <glyph glyph-name="uni0449" unicode="&#x449;" horiz-adv-x="827" 
d="M771 -120h-65l-8 120h-622v482h89v-408h194v408h89v-408h193v408h90v-408h54z" />
    <glyph glyph-name="uni044A" unicode="&#x44a;" horiz-adv-x="552" 
d="M29 408v74h193v-181h115c116 0 177 -54 177 -151c0 -96 -61 -150 -177 -150h-204v408h-104zM222 227v-153h107c60 0 93 28 93 76c0 49 -32 77 -93 77h-107z" />
    <glyph glyph-name="uni044B" unicode="&#x44b;" horiz-adv-x="687" 
d="M76 482h89v-181h115c116 0 178 -54 178 -151c0 -96 -62 -150 -178 -150h-204v482zM165 225v-149h108c60 0 92 26 92 74s-32 75 -92 75h-108zM611 0h-90v482h90v-482z" />
    <glyph glyph-name="uni044C" unicode="&#x44c;" horiz-adv-x="496" 
d="M76 482h89v-181h115c116 0 178 -54 178 -151c0 -96 -62 -150 -178 -150h-204v482zM165 225v-149h108c60 0 92 26 92 74s-32 75 -92 75h-108z" />
    <glyph glyph-name="uni044D" unicode="&#x44d;" horiz-adv-x="484" 
d="M436 241c0 -149 -89 -252 -249 -252c-47 0 -97 11 -144 32l24 70c44 -17 80 -24 120 -24c95 0 143 53 154 137h-218v74h218c-11 84 -61 137 -154 137c-40 0 -76 -7 -120 -24l-24 71c47 20 97 31 144 31c160 0 249 -103 249 -252z" />
    <glyph glyph-name="uni044E" unicode="&#x44e;" horiz-adv-x="801" 
d="M752 241c0 -140 -69 -256 -240 -256c-155 0 -224 97 -235 221h-112v-206h-89v482h89v-200h113c11 121 83 215 234 215c171 0 240 -116 240 -256zM368 241c0 -100 37 -177 144 -177c108 0 148 77 148 177s-40 177 -148 177c-107 0 -144 -77 -144 -177z" />
    <glyph glyph-name="uni044F" unicode="&#x44f;" horiz-adv-x="537" 
d="M461 0h-90v181h-86l-158 -181h-95v11l156 176c-80 15 -125 70 -125 145c0 92 65 150 183 150h215v-482zM371 257v149h-120c-60 0 -95 -31 -95 -74s35 -75 95 -75h120z" />
    <glyph glyph-name="uni0450" unicode="&#x450;" horiz-adv-x="537" 
d="M485 212h-345c0 -88 61 -150 153 -150c67 0 109 20 144 43l35 -68c-43 -28 -103 -52 -187 -52c-165 0 -236 119 -236 258c0 131 75 254 227 254s215 -100 215 -208c0 -25 -3 -60 -6 -77zM140 284h263c1 7 1 14 1 21c0 67 -45 115 -128 115c-81 0 -131 -56 -136 -136z
M169 700v10h98l64 -121v-10h-77z" />
    <glyph glyph-name="uni0451" unicode="&#x451;" horiz-adv-x="537" 
d="M485 212h-345c0 -88 61 -150 153 -150c67 0 109 20 144 43l35 -68c-43 -28 -103 -52 -187 -52c-165 0 -236 119 -236 258c0 131 75 254 227 254s215 -100 215 -208c0 -25 -3 -60 -6 -77zM140 284h263c1 7 1 14 1 21c0 67 -45 115 -128 115c-81 0 -131 -56 -136 -136z
M125 634c0 35 22 56 57 56c36 0 58 -21 58 -56s-22 -57 -58 -57c-35 0 -57 22 -57 57zM324 634c0 35 22 56 57 56c36 0 58 -21 58 -56s-22 -57 -58 -57c-35 0 -57 22 -57 57z" />
    <glyph glyph-name="uni0452" unicode="&#x452;" horiz-adv-x="558" 
d="M166 0h-90v557h-62v74h62v69h90v-69h113v-74h-113v-109h2c30 19 86 49 155 49c108 0 178 -63 178 -231c0 -165 -55 -313 -111 -428l-74 35c55 113 93 248 93 393c0 111 -35 152 -108 152c-51 0 -108 -28 -135 -47v-371z" />
    <glyph glyph-name="uni0453" unicode="&#x453;" horiz-adv-x="444" 
d="M76 482h342v-74h-253v-408h-89v482zM373 710v-10l-85 -121h-77v10l64 121h98z" />
    <glyph glyph-name="uni0454" unicode="&#x454;" horiz-adv-x="483" 
d="M49 241c0 149 89 252 249 252c47 0 97 -11 144 -31l-24 -71c-44 17 -80 24 -120 24c-93 0 -143 -53 -154 -137h218v-74h-218c11 -84 59 -137 154 -137c40 0 76 7 120 24l24 -70c-47 -21 -97 -32 -144 -32c-160 0 -249 103 -249 252z" />
    <glyph glyph-name="uni0455" unicode="&#x455;" horiz-adv-x="450" 
d="M43 31l32 72c41 -25 87 -41 142 -41c67 0 99 24 99 68c0 35 -21 52 -72 67l-58 16c-83 24 -134 60 -134 137c0 88 67 147 179 147c67 0 116 -13 165 -34l-28 -73c-43 20 -89 30 -132 30c-65 0 -94 -24 -94 -67c0 -32 16 -48 71 -63l57 -15c83 -21 136 -64 136 -143
c0 -89 -68 -147 -181 -147c-83 0 -133 18 -182 46z" />
    <glyph glyph-name="uni0456" unicode="&#x456;" horiz-adv-x="242" 
d="M166 0h-90v482h90v-482zM64 634c0 35 22 56 57 56c36 0 58 -21 58 -56s-22 -57 -58 -57c-35 0 -57 22 -57 57z" />
    <glyph glyph-name="uni0457" unicode="&#x457;" horiz-adv-x="242" 
d="M166 0h-90v482h90v-482zM-36 634c0 35 22 56 57 56c36 0 58 -21 58 -56s-22 -57 -58 -57c-35 0 -57 22 -57 57zM163 634c0 35 22 56 57 56c36 0 58 -21 58 -56s-22 -57 -58 -57c-35 0 -57 22 -57 57z" />
    <glyph glyph-name="uni0458" unicode="&#x458;" horiz-adv-x="242" 
d="M76 482h90v-540c0 -99 -47 -155 -143 -155c-19 0 -49 3 -69 7v77c17 -3 44 -5 60 -5c43 0 62 20 62 73v543zM64 634c0 35 22 56 57 56c36 0 58 -21 58 -56s-22 -57 -58 -57c-35 0 -57 22 -57 57z" />
    <glyph glyph-name="uni0459" unicode="&#x459;" horiz-adv-x="786" 
d="M130 482h326v-181h115c116 0 177 -54 177 -151c0 -96 -61 -150 -177 -150h-205v408h-154l-9 -153c-13 -232 -64 -262 -179 -262v77c56 0 87 14 95 189zM456 227v-153h107c60 0 92 28 92 76c0 49 -32 77 -92 77h-107z" />
    <glyph glyph-name="uni045A" unicode="&#x45a;" horiz-adv-x="798" 
d="M379 482h89v-181h115c116 0 177 -54 177 -151c0 -96 -61 -150 -177 -150h-204v228h-214v-228h-89v482h89v-181h214v181zM468 228v-154h107c60 0 92 28 92 76s-32 78 -92 78h-107z" />
    <glyph glyph-name="uni045B" unicode="&#x45b;" horiz-adv-x="570" 
d="M279 557h-113v-109h2c30 19 86 49 155 49c108 0 176 -63 176 -184v-313h-90v295c0 83 -35 123 -108 123c-51 0 -108 -28 -135 -47v-371h-90v557h-62v74h62v69h90v-69h113v-74z" />
    <glyph glyph-name="uni045C" unicode="&#x45c;" horiz-adv-x="501" 
d="M167 217h-2v-217h-89v482h89v-234h2l201 234h102v-7l-210 -238l221 -230v-7h-107zM403 710v-10l-85 -121h-77v10l64 121h98z" />
    <glyph glyph-name="uni045D" unicode="&#x45d;" horiz-adv-x="571" 
d="M165 127h2l227 355h101v-482h-89v355h-2l-227 -355h-101v482h89v-355zM171 700v10h98l64 -121v-10h-77z" />
    <glyph glyph-name="uni045E" unicode="&#x45e;" horiz-adv-x="505" 
d="M482 482v-10l-202 -536c-39 -103 -91 -149 -167 -149c-27 0 -58 6 -77 10v76c20 -3 46 -7 69 -7c43 0 67 23 86 75l23 64l-194 467v10h90l143 -375h3l137 375h89zM259 654c45 0 89 7 120 32l30 -42c-32 -45 -85 -65 -150 -65c-64 0 -117 20 -149 65l30 42
c31 -25 75 -32 119 -32z" />
    <glyph glyph-name="uni045F" unicode="&#x45f;" horiz-adv-x="562" 
d="M313 -120h-64l-9 120h-164v482h89v-408h232v408h89v-482h-164z" />
    <glyph glyph-name="uni0462" unicode="&#x462;" horiz-adv-x="700" 
d="M187 680h92v-70h212v-83h-212v-118h158c143 0 223 -74 223 -205c0 -128 -80 -204 -223 -204h-250v527h-149v83h149v70zM279 326v-243h148c84 0 138 33 138 121s-53 122 -138 122h-148z" />
    <glyph glyph-name="uni0463" unicode="&#x463;" horiz-adv-x="549" 
d="M133 701h89v-219h164v-74h-164v-107h115c116 0 178 -54 178 -151c0 -96 -62 -150 -178 -150h-204v408h-104v74h104v219zM222 227v-153h108c60 0 92 28 92 76c0 49 -32 77 -92 77h-108z" />
    <glyph glyph-name="uni0472" unicode="&#x472;" horiz-adv-x="719" 
d="M661 340c0 -201 -86 -355 -301 -355s-302 154 -302 355s87 355 302 355s301 -154 301 -355zM360 70c145 0 197 99 205 232h-411c8 -133 61 -232 206 -232zM360 610c-142 0 -195 -96 -206 -225h410c-8 129 -62 225 -204 225z" />
    <glyph glyph-name="uni0473" unicode="&#x473;" horiz-adv-x="574" 
d="M525 241c0 -140 -69 -256 -240 -256c-169 0 -236 116 -236 256s67 256 236 256c171 0 240 -116 240 -256zM285 64c95 0 137 59 146 140h-288c8 -81 50 -140 142 -140zM285 418c-92 0 -131 -57 -142 -135h287c-11 79 -52 135 -145 135z" />
    <glyph glyph-name="uni0474" unicode="&#x474;" horiz-adv-x="667" 
d="M646 695v-85c-41 0 -63 -9 -82 -60l-203 -550h-93l-253 670v10h96l203 -569h2l167 462c35 93 78 122 163 122z" />
    <glyph glyph-name="uni0475" unicode="&#x475;" horiz-adv-x="545" 
d="M517 493v-78c-31 0 -47 -11 -60 -43l-145 -372h-101l-190 475v7h96l144 -385h2l115 302c27 67 61 94 139 94z" />
    <glyph glyph-name="uni0490" unicode="&#x490;" horiz-adv-x="552" 
d="M441 821h71l12 -224h-341v-597h-92v680h338z" />
    <glyph glyph-name="uni0491" unicode="&#x491;" horiz-adv-x="442" 
d="M336 587h72l10 -179h-253v-408h-89v482h250z" />
    <glyph glyph-name="uni0E3F" unicode="&#xe3f;" 
d="M324 770v-91c119 -9 179 -66 179 -174c0 -79 -36 -133 -80 -152v-2c67 -23 106 -78 106 -167c0 -117 -70 -184 -205 -184v-108h-68v108h-169v680h169v90h68zM433 191c0 80 -38 106 -109 109v-217c71 1 109 28 109 108zM179 300v-217h77v217h-77zM179 597v-214h77v214h-77
zM409 490c0 73 -26 98 -85 105v-211c56 7 85 33 85 106z" />
    <glyph glyph-name="Wgrave" unicode="&#x1e80;" horiz-adv-x="977" 
d="M951 680v-10l-196 -670h-94l-172 568h-2l-171 -568h-94l-197 670v10h96l149 -552h2l167 552h98l167 -552h2l149 552h96zM381 873v10h98l54 -121v-10h-77z" />
    <glyph glyph-name="wgrave" unicode="&#x1e81;" horiz-adv-x="818" 
d="M792 482v-10l-164 -472h-87l-131 374h-2l-131 -374h-87l-164 472v10h91l119 -365h2l125 365h92l126 -365h2l118 365h91zM287 700v10h98l64 -121v-10h-77z" />
    <glyph glyph-name="Wacute" unicode="&#x1e82;" horiz-adv-x="977" 
d="M951 680v-10l-196 -670h-94l-172 568h-2l-171 -568h-94l-197 670v10h96l149 -552h2l167 552h98l167 -552h2l149 552h96zM602 883v-10l-75 -121h-77v10l54 121h98z" />
    <glyph glyph-name="wacute" unicode="&#x1e83;" horiz-adv-x="818" 
d="M792 482v-10l-164 -472h-87l-131 374h-2l-131 -374h-87l-164 472v10h91l119 -365h2l125 365h92l126 -365h2l118 365h91zM527 710v-10l-85 -121h-77v10l64 121h98z" />
    <glyph glyph-name="Wdieresis" unicode="&#x1e84;" horiz-adv-x="977" 
d="M951 680v-10l-196 -670h-94l-172 568h-2l-171 -568h-94l-197 670v10h96l149 -552h2l167 552h98l167 -552h2l149 552h96zM321 816c0 35 22 56 57 56c36 0 58 -21 58 -56s-22 -57 -58 -57c-35 0 -57 22 -57 57zM540 816c0 35 22 56 57 56c36 0 58 -21 58 -56
s-22 -57 -58 -57c-35 0 -57 22 -57 57z" />
    <glyph glyph-name="wdieresis" unicode="&#x1e85;" horiz-adv-x="818" 
d="M792 482v-10l-164 -472h-87l-131 374h-2l-131 -374h-87l-164 472v10h91l119 -365h2l125 365h92l126 -365h2l118 365h91zM252 634c0 35 22 56 57 56c36 0 58 -21 58 -56s-22 -57 -58 -57c-35 0 -57 22 -57 57zM451 634c0 35 22 56 57 56c36 0 58 -21 58 -56
s-22 -57 -58 -57c-35 0 -57 22 -57 57z" />
    <glyph glyph-name="uni1E9E" unicode="&#x1e9e;" horiz-adv-x="664" 
d="M84 0v407c0 173 74 288 252 288c85 0 157 -30 218 -71v-60l-126 -179v-2c116 0 195 -72 195 -191c0 -128 -97 -207 -220 -207c-51 0 -82 3 -117 10v83c33 -5 66 -10 109 -10c85 0 134 56 134 124c0 83 -48 117 -149 117h-57v56l141 209c-35 24 -88 38 -128 38
c-115 0 -160 -72 -160 -205v-407h-92z" />
    <glyph glyph-name="Ygrave" unicode="&#x1ef2;" horiz-adv-x="560" 
d="M9 680h99l171 -306h2l174 306h98v-10l-227 -383v-287h-92v287l-225 383v10zM173 873v10h98l54 -121v-10h-77z" />
    <glyph glyph-name="ygrave" unicode="&#x1ef3;" horiz-adv-x="505" 
d="M482 482v-10l-202 -536c-39 -103 -91 -149 -167 -149c-27 0 -58 6 -77 10v76c20 -3 46 -7 69 -7c43 0 67 23 86 75l23 64l-194 467v10h90l143 -375h3l137 375h89zM132 700v10h98l64 -121v-10h-77z" />
    <glyph glyph-name="endash" unicode="&#x2013;" horiz-adv-x="567" 
d="M495 233h-423v74h423v-74z" />
    <glyph glyph-name="emdash" unicode="&#x2014;" horiz-adv-x="900" 
d="M828 233h-756v74h756v-74z" />
    <glyph glyph-name="quoteleft" unicode="&#x2018;" horiz-adv-x="254" 
d="M199 680v-10l-41 -253h-103v10l73 253h71z" />
    <glyph glyph-name="quoteright" unicode="&#x2019;" horiz-adv-x="249" 
d="M61 417v10l41 253h103v-10l-73 -253h-71z" />
    <glyph glyph-name="quotesinglbase" unicode="&#x201a;" horiz-adv-x="255" 
d="M41 -161v10l41 253h103v-10l-73 -253h-71z" />
    <glyph glyph-name="quotedblleft" unicode="&#x201c;" horiz-adv-x="431" 
d="M376 680v-10l-41 -253h-103v10l73 253h71zM199 680v-10l-41 -253h-103v10l73 253h71z" />
    <glyph glyph-name="quotedblright" unicode="&#x201d;" horiz-adv-x="426" 
d="M61 417v10l41 253h103v-10l-73 -253h-71zM238 417v10l41 253h103v-10l-73 -253h-71z" />
    <glyph glyph-name="quotedblbase" unicode="&#x201e;" horiz-adv-x="432" 
d="M41 -161v10l41 253h103v-10l-73 -253h-71zM218 -161v10l41 253h103v-10l-73 -253h-71z" />
    <glyph glyph-name="dagger" unicode="&#x2020;" horiz-adv-x="469" 
d="M30 482h169v218h72v-218h168v-68h-168v-612h-72v612h-169v68z" />
    <glyph glyph-name="daggerdbl" unicode="&#x2021;" horiz-adv-x="514" 
d="M53 482h169v218h72v-218h167v-68h-167v-326h167v-68h-167v-218h-72v218h-169v68h169v326h-169v68z" />
    <glyph glyph-name="bullet" unicode="&#x2022;" horiz-adv-x="350" 
d="M90 291c0 51 33 86 85 86s85 -35 85 -86s-33 -86 -85 -86s-85 35 -85 86z" />
    <glyph glyph-name="ellipsis" unicode="&#x2026;" horiz-adv-x="702" 
d="M63 50c0 39 25 65 64 65s64 -26 64 -65s-25 -65 -64 -65s-64 26 -64 65zM287 50c0 39 25 65 64 65s64 -26 64 -65s-25 -65 -64 -65s-64 26 -64 65zM511 50c0 39 25 65 64 65s64 -26 64 -65s-25 -65 -64 -65s-64 26 -64 65z" />
    <glyph glyph-name="perthousand" unicode="&#x2030;" horiz-adv-x="1114" 
d="M865 169c0 -79 24 -116 69 -116s69 37 69 116c0 77 -24 116 -69 116c-44 0 -69 -39 -69 -116zM1076 169c0 -101 -49 -177 -142 -177s-142 76 -142 177s49 177 142 177s142 -76 142 -177zM116 509c0 -79 24 -116 69 -116s69 37 69 116c0 77 -24 116 -69 116
c-44 0 -69 -39 -69 -116zM327 509c0 -101 -49 -177 -142 -177s-142 76 -142 177s49 177 142 177s142 -76 142 -177zM523 169c0 -79 24 -116 69 -116s69 37 69 116c0 77 -24 116 -69 116c-44 0 -69 -39 -69 -116zM734 169c0 -101 -49 -177 -142 -177s-142 76 -142 177
s49 177 142 177s142 -76 142 -177zM205 0h-76v10l447 670h76v-10z" />
    <glyph glyph-name="guilsinglleft" unicode="&#x2039;" horiz-adv-x="308" 
d="M43 264v12l155 209l58 -38l-122 -177l122 -177l-58 -38z" />
    <glyph glyph-name="guilsinglright" unicode="&#x203a;" horiz-adv-x="308" 
d="M265 276v-12l-155 -209l-58 38l122 177l-122 177l58 38z" />
    <glyph glyph-name="fraction" unicode="&#x2044;" horiz-adv-x="120" 
d="M-126 0h-76v10l447 670h76v-10z" />
    <glyph glyph-name="zerosuperior" unicode="&#x2070;" horiz-adv-x="350" 
d="M106 631c0 -79 24 -116 69 -116s69 37 69 116c0 77 -24 116 -69 116c-44 0 -69 -39 -69 -116zM317 631c0 -101 -49 -177 -142 -177s-142 76 -142 177s49 177 142 177s142 -76 142 -177z" />
    <glyph glyph-name="foursuperior" unicode="&#x2074;" horiz-adv-x="334" 
d="M194 593v114h71v-114h41v-59h-41v-72h-71v72h-172v50l90 216h70l-84 -206v-1h96z" />
    <glyph glyph-name="fivesuperior" unicode="&#x2075;" horiz-adv-x="305" 
d="M58 614l-10 9l20 177h192v-59h-133l-8 -64h24c76 0 130 -32 130 -108c0 -72 -54 -115 -145 -115c-24 0 -70 6 -104 19l16 60c31 -13 67 -18 90 -18c47 0 69 18 69 54c0 32 -22 47 -65 47c-30 0 -57 -1 -76 -2z" />
    <glyph glyph-name="sixsuperior" unicode="&#x2076;" horiz-adv-x="323" 
d="M231 800v-5l-85 -114v-1c9 3 27 7 43 7c64 0 111 -51 111 -115c0 -62 -46 -118 -134 -118c-91 0 -136 54 -136 118c0 27 8 51 25 78l98 150h78zM227 570c0 36 -24 54 -61 54c-39 0 -62 -18 -62 -54c0 -37 23 -55 62 -55c37 0 61 18 61 55z" />
    <glyph glyph-name="sevensuperior" unicode="&#x2077;" horiz-adv-x="285" 
d="M58 462v5l131 273v1h-166v59h243v-51l-135 -287h-73z" />
    <glyph glyph-name="eightsuperior" unicode="&#x2078;" horiz-adv-x="335" 
d="M168 515c47 0 62 18 62 45c0 28 -15 47 -62 47s-62 -19 -62 -47c0 -27 15 -45 62 -45zM168 808c84 0 121 -38 121 -94c0 -41 -26 -62 -51 -73v-1c37 -15 64 -44 64 -87c0 -60 -45 -99 -134 -99s-135 39 -135 99c0 43 28 72 63 87v1c-24 11 -49 32 -49 73
c0 56 37 94 121 94zM168 667c33 0 50 12 50 39c0 25 -17 41 -50 41c-35 0 -50 -16 -50 -41c0 -27 15 -39 50 -39z" />
    <glyph glyph-name="ninesuperior" unicode="&#x2079;" horiz-adv-x="323" 
d="M93 462v5l83 114v1c-9 -3 -26 -7 -42 -7c-63 0 -111 50 -111 116c0 61 46 117 134 117c91 0 136 -54 136 -117c0 -27 -8 -52 -25 -79l-98 -150h-77zM97 693c0 -36 23 -55 60 -55c39 0 61 19 61 55s-22 54 -61 54c-37 0 -60 -18 -60 -54z" />
    <glyph glyph-name="plussuperior" unicode="&#x207a;" horiz-adv-x="264" 
d="M161 737v-69h70v-59h-70v-70h-59v70h-69v59h69v69h59z" />
    <glyph glyph-name="minussuperior" unicode="&#x207b;" horiz-adv-x="288" 
d="M243 609h-198v59h198v-59z" />
    <glyph glyph-name="parenleftsuperior" unicode="&#x207d;" horiz-adv-x="176" 
d="M29 631c0 96 40 176 77 234l45 -22c-33 -65 -54 -136 -54 -212c0 -77 21 -148 54 -213l-45 -22c-37 57 -77 138 -77 235z" />
    <glyph glyph-name="parenrightsuperior" unicode="&#x207e;" horiz-adv-x="176" 
d="M147 631c0 -97 -40 -178 -77 -235l-45 22c33 65 54 136 54 213c0 76 -21 147 -54 212l45 22c37 -58 77 -138 77 -234z" />
    <glyph glyph-name="zeroinferior" unicode="&#x2080;" horiz-adv-x="350" 
d="M106 49c0 -79 24 -116 69 -116s69 37 69 116c0 77 -24 116 -69 116c-44 0 -69 -39 -69 -116zM317 49c0 -101 -49 -177 -142 -177s-142 76 -142 177s49 177 142 177s142 -76 142 -177z" />
    <glyph glyph-name="oneinferior" unicode="&#x2081;" horiz-adv-x="248" 
d="M31 99h-9v63l122 56h52v-338h-71v261h-1z" />
    <glyph glyph-name="twoinferior" unicode="&#x2082;" horiz-adv-x="313" 
d="M133 -59v-1h145v-60h-246v51l134 117c23 19 35 39 35 64c0 39 -27 53 -56 53c-32 0 -55 -18 -76 -37l-38 48c22 19 57 50 120 50c68 0 123 -40 123 -108c0 -49 -27 -81 -56 -105z" />
    <glyph glyph-name="threeinferior" unicode="&#x2083;" horiz-adv-x="313" 
d="M79 20v60h60c43 0 57 18 57 42c0 28 -17 43 -56 43c-27 0 -61 -6 -86 -17l-20 55c29 15 69 23 109 23c80 0 128 -37 128 -94c0 -43 -29 -68 -54 -75v-1c36 -12 61 -40 61 -85c0 -60 -47 -99 -140 -99c-49 0 -84 11 -113 26l19 57c27 -13 58 -22 93 -22c40 0 69 12 69 47
c0 29 -22 40 -67 40h-60z" />
    <glyph glyph-name="fourinferior" unicode="&#x2084;" horiz-adv-x="334" 
d="M194 11v114h71v-114h41v-59h-41v-72h-71v72h-172v50l90 216h70l-84 -206v-1h96z" />
    <glyph glyph-name="fiveinferior" unicode="&#x2085;" horiz-adv-x="305" 
d="M58 32l-10 9l20 177h192v-59h-133l-8 -64h24c76 0 130 -32 130 -108c0 -72 -54 -115 -145 -115c-24 0 -70 6 -104 19l16 60c31 -13 67 -18 90 -18c47 0 69 18 69 54c0 32 -22 47 -65 47c-30 0 -57 -1 -76 -2z" />
    <glyph glyph-name="sixinferior" unicode="&#x2086;" horiz-adv-x="323" 
d="M231 218v-5l-85 -114v-1c9 3 27 7 43 7c64 0 111 -51 111 -115c0 -62 -46 -118 -134 -118c-91 0 -136 54 -136 118c0 27 8 51 25 78l98 150h78zM227 -12c0 36 -24 54 -61 54c-39 0 -62 -18 -62 -54c0 -37 23 -55 62 -55c37 0 61 18 61 55z" />
    <glyph glyph-name="seveninferior" unicode="&#x2087;" horiz-adv-x="285" 
d="M58 -120v5l131 273v1h-166v59h243v-51l-135 -287h-73z" />
    <glyph glyph-name="eightinferior" unicode="&#x2088;" horiz-adv-x="335" 
d="M168 -67c47 0 62 18 62 45c0 28 -15 47 -62 47s-62 -19 -62 -47c0 -27 15 -45 62 -45zM168 226c84 0 121 -38 121 -94c0 -41 -26 -62 -51 -73v-1c37 -15 64 -44 64 -87c0 -60 -45 -99 -134 -99s-135 39 -135 99c0 43 28 72 63 87v1c-24 11 -49 32 -49 73
c0 56 37 94 121 94zM168 85c33 0 50 12 50 39c0 25 -17 41 -50 41c-35 0 -50 -16 -50 -41c0 -27 15 -39 50 -39z" />
    <glyph glyph-name="nineinferior" unicode="&#x2089;" horiz-adv-x="323" 
d="M93 -120v5l83 114v1c-9 -3 -26 -7 -42 -7c-63 0 -111 50 -111 116c0 61 46 117 134 117c91 0 136 -54 136 -117c0 -27 -8 -52 -25 -79l-98 -150h-77zM97 111c0 -36 23 -55 60 -55c39 0 61 19 61 55s-22 54 -61 54c-37 0 -60 -18 -60 -54z" />
    <glyph glyph-name="parenleftinferior" unicode="&#x208d;" horiz-adv-x="176" 
d="M29 49c0 96 40 176 77 234l45 -22c-33 -65 -54 -136 -54 -212c0 -77 21 -148 54 -213l-45 -22c-37 57 -77 138 -77 235z" />
    <glyph glyph-name="parenrightinferior" unicode="&#x208e;" horiz-adv-x="176" 
d="M147 49c0 -97 -40 -178 -77 -235l-45 22c33 65 54 136 54 213c0 76 -21 147 -54 212l45 22c37 -58 77 -138 77 -234z" />
    <glyph glyph-name="uni20A1" unicode="&#x20a1;" 
d="M491 770l-17 -95c19 -7 37 -15 56 -24l-25 -73c-16 7 -31 13 -46 18l-91 -526c44 0 86 8 137 32l25 -73c-56 -28 -114 -44 -169 -44c-3 0 -6 1 -9 1l-16 -94h-59l18 100c-20 4 -38 10 -57 19l-21 -119h-58l26 152c-77 61 -117 164 -117 296c0 190 84 325 232 351l14 79
h58l-13 -75c21 -1 40 -3 59 -6l15 81h58zM343 609l-88 -510c16 -11 33 -19 56 -24l92 533c-15 1 -27 2 -42 2c-7 0 -11 -1 -18 -1zM164 340c0 -80 13 -143 41 -190l77 446c-81 -35 -118 -125 -118 -256z" />
    <glyph glyph-name="lira" unicode="&#x20a4;" horiz-adv-x="542" 
d="M417 211h-175c-1 -71 -32 -107 -57 -126v-2h306v-83h-422v71c23 18 78 49 78 122v18h-88v74h82c-3 29 -8 60 -11 91h-71v74h64c-1 17 -2 34 -2 50c0 127 80 195 201 195c57 0 114 -18 171 -46l-26 -74c-57 25 -96 35 -145 35c-58 0 -106 -31 -106 -111
c0 -15 -1 -30 2 -49h199v-74h-192l11 -91h181v-74z" />
    <glyph glyph-name="uni20A6" unicode="&#x20a6;" 
d="M567 223h-55v-223h-115l-97 223h-136v-223h-92v223h-49v72h49v73h-49v72h49v240h114l104 -240h130v240h92v-240h55v-72h-55v-73h55v-72zM322 368l32 -73h69l-2 73h-99zM237 368h-77l3 -73h105zM428 125h2l-4 98h-41zM156 555h-2l4 -115h48z" />
    <glyph glyph-name="rupee" unicode="&#x20a8;" 
d="M512 440h-78c-16 -113 -118 -160 -225 -163l256 -261v-16h-100l-284 294v63h110c97 0 137 28 148 83h-268l20 74h246c-15 52 -58 83 -146 83h-120l20 83h441l-20 -74h-145v-2c35 -25 56 -55 64 -90h101z" />
    <glyph glyph-name="uni20AA" unicode="&#x20aa;" horiz-adv-x="717" 
d="M488 184h-92v250c0 135 -19 163 -159 163h-73v-597h-92v680h178c181 0 238 -58 238 -246v-250zM557 680h92v-434c0 -188 -57 -246 -238 -246h-178v496h92v-413h73c140 0 159 28 159 163v434z" />
    <glyph glyph-name="dong" unicode="&#x20ab;" 
d="M532 578h-56v-453h-65l-10 35h-2c-32 -20 -85 -48 -153 -48c-131 0 -189 94 -189 208c0 112 58 206 189 206c68 0 107 -20 138 -39h2v91h-102v71h102v51h90v-51h56v-71zM386 220v199c-28 19 -72 31 -115 31c-91 0 -122 -57 -122 -130c0 -75 31 -131 122 -131
c43 0 87 12 115 31zM476 0h-389v70h389v-70z" />
    <glyph glyph-name="Euro" unicode="&#x20ac;" 
d="M430 218h-223c24 -93 77 -148 177 -148c45 0 92 7 143 32l25 -73c-55 -28 -113 -44 -168 -44c-149 0 -239 89 -270 233h-85l22 74h51c-1 21 -1 33 -1 48c0 13 0 25 1 44h-73l22 74h62c31 145 120 237 271 237c55 0 113 -16 168 -44l-25 -73c-51 24 -98 32 -143 32
c-101 0 -154 -56 -177 -152h287l-21 -74h-278c-3 -17 -2 -31 -2 -44c0 -15 1 -29 2 -48h256z" />
    <glyph glyph-name="uni20AD" unicode="&#x20ad;" 
d="M505 296h-168l213 -286v-10h-114l-209 296h-22v-296h-92v296h-65v74h65v310h92v-310h21l203 310h108v-10l-202 -300h170v-74z" />
    <glyph glyph-name="uni20AE" unicode="&#x20ae;" 
d="M442 328v-72l-99 -36v-220h-92v186l-101 -36v72l101 36v68l-101 -36v72l101 36v199h-199v83h489v-83h-198v-165l99 36v-72l-99 -36v-68z" />
    <glyph glyph-name="uni20B1" unicode="&#x20b1;" 
d="M558 323h-59c-27 -92 -93 -141 -206 -141h-99v-182h-92v323h-58v74h58v65h-58v74h58v144h191c115 0 180 -51 207 -144h58v-74h-46c0 -11 1 -20 1 -31c0 -12 -1 -23 -1 -34h46v-74zM418 431c0 11 0 20 -1 31h-223v-65h222c1 11 2 22 2 34zM194 265h91c53 0 90 19 111 58
h-202v-58zM194 597v-61h204c-21 39 -57 61 -113 61h-91z" />
    <glyph glyph-name="uni20B2" unicode="&#x20b2;" 
d="M336 770v-75c75 -3 138 -33 184 -63l-31 -73c-44 28 -101 48 -153 51v-540c36 1 68 9 95 30v162l-56 14v63h149v-285c-47 -36 -117 -65 -188 -69v-93h-67v97c-147 24 -215 163 -215 351c0 184 64 323 215 350v80h67zM149 340c0 -136 33 -241 120 -265v527
c-85 -27 -120 -121 -120 -262z" />
    <glyph glyph-name="uni20B4" unicode="&#x20b4;" 
d="M530 211h-342c-3 -11 -4 -21 -4 -32c0 -76 46 -109 117 -109c66 0 123 24 169 62l38 -73c-49 -38 -118 -74 -207 -74c-129 0 -203 85 -203 193c0 11 -1 22 2 33h-43v74h80c17 20 39 36 64 51l71 40h-215v74h333c11 15 17 32 17 56c0 60 -45 104 -124 104
c-49 0 -98 -18 -144 -45l-35 74c43 27 115 56 179 56c133 0 209 -83 209 -186c0 -23 -4 -40 -11 -59h49v-74h-107c-16 -13 -32 -22 -51 -33l-106 -58h264v-74z" />
    <glyph glyph-name="uni20B5" unicode="&#x20b5;" 
d="M365 770v-75c52 -1 107 -17 162 -44l-25 -73c-51 24 -93 31 -137 32v-540c44 0 86 8 137 32l25 -73c-55 -27 -110 -43 -162 -44v-93h-70v99c-149 27 -230 161 -230 349s81 320 230 349v81h70zM160 340c0 -140 42 -235 135 -262v524c-93 -27 -135 -122 -135 -262z" />
    <glyph glyph-name="afii61289" unicode="&#x2113;" horiz-adv-x="404" 
d="M353 92l22 -57c-35 -29 -76 -50 -123 -50c-83 0 -113 52 -113 124v138c-17 -14 -48 -40 -81 -62l-35 56c23 15 77 52 116 85v237c0 115 51 152 112 152c68 0 107 -42 107 -121c0 -104 -50 -207 -154 -306v-175c0 -28 7 -64 48 -64c33 0 72 18 101 43zM290 586
c0 43 -13 65 -40 65c-33 0 -46 -31 -46 -91v-184c51 60 86 130 86 210z" />
    <glyph glyph-name="afii61352" unicode="&#x2116;" horiz-adv-x="1081" 
d="M527 145h2v535h92v-680h-95l-341 535h-2v-535h-92v680h94zM788 502c0 -63 27 -93 82 -93c56 0 84 30 84 93c0 61 -28 92 -84 92c-55 0 -82 -31 -82 -92zM1031 502c0 -88 -50 -161 -161 -161c-108 0 -159 73 -159 161s51 161 159 161c111 0 161 -73 161 -161zM1003 208
h-265v69h265v-69z" />
    <glyph glyph-name="uni2117" unicode="&#x2117;" horiz-adv-x="822" 
d="M56 340c0 201 154 355 355 355s355 -154 355 -355s-154 -355 -355 -355s-355 154 -355 355zM112 340c0 -172 127 -302 299 -302s299 130 299 302s-127 302 -299 302s-299 -130 -299 -302zM359 153h-70v374h144c92 0 129 -50 129 -122c0 -71 -38 -122 -129 -122h-74v-130z
M359 467v-124h69c43 0 61 26 61 62c0 37 -18 62 -61 62h-69z" />
    <glyph glyph-name="trademark" unicode="&#x2122;" horiz-adv-x="737" 
d="M63 700h234v-53h-84v-227h-65v227h-85v53zM425 700l79 -138l78 138h74v-280h-64v186h-1l-62 -119h-51l-61 119h-1v-186h-65v280h74z" />
    <glyph glyph-name="Omega" unicode="&#x2126;" horiz-adv-x="733" 
d="M69 0v83h135c-73 54 -139 150 -139 292c0 156 87 320 302 320s301 -164 301 -320c0 -142 -66 -238 -139 -292h135v-83h-243v79c93 64 152 147 152 291c0 121 -47 240 -206 240c-158 0 -207 -118 -207 -240c0 -142 59 -227 152 -291v-79h-243z" />
    <glyph glyph-name="estimated" unicode="&#x212e;" horiz-adv-x="677" 
d="M550 133l37 -27c-63 -87 -135 -121 -242 -121c-172 0 -284 137 -284 305c0 170 112 302 284 302c168 0 282 -120 287 -292l-7 -10h-445v-201c43 -41 101 -62 165 -62c83 0 154 29 205 106zM511 330v161c-47 44 -105 63 -166 63c-64 0 -122 -19 -165 -63v-161h331z" />
    <glyph glyph-name="onethird" unicode="&#x2153;" horiz-adv-x="716" 
d="M150 0h-76v10l447 670h76v-10zM470 140v60h60c43 0 57 18 57 42c0 28 -17 43 -56 43c-27 0 -61 -6 -86 -17l-20 55c29 15 69 23 109 23c80 0 128 -37 128 -94c0 -43 -29 -68 -54 -75v-1c36 -12 61 -40 61 -85c0 -60 -47 -99 -140 -99c-49 0 -84 11 -113 26l19 57
c27 -13 58 -22 93 -22c40 0 69 12 69 47c0 29 -22 40 -67 40h-60zM50 561h-9v63l122 56h52v-338h-71v261h-1z" />
    <glyph glyph-name="twothirds" unicode="&#x2154;" horiz-adv-x="778" 
d="M212 0h-76v10l447 670h76v-10zM532 140v60h60c43 0 57 18 57 42c0 28 -17 43 -56 43c-27 0 -61 -6 -86 -17l-20 55c29 15 69 23 109 23c80 0 128 -37 128 -94c0 -43 -29 -68 -54 -75v-1c36 -12 61 -40 61 -85c0 -60 -47 -99 -140 -99c-49 0 -84 11 -113 26l19 57
c27 -13 58 -22 93 -22c40 0 69 12 69 47c0 29 -22 40 -67 40h-60zM153 401v-1h145v-60h-246v51l134 117c23 19 35 39 35 64c0 39 -27 53 -56 53c-32 0 -55 -18 -76 -37l-38 48c22 19 57 50 120 50c68 0 123 -40 123 -108c0 -49 -27 -81 -56 -105z" />
    <glyph glyph-name="oneeighth" unicode="&#x215b;" horiz-adv-x="719" 
d="M50 561h-9v63l122 56h52v-338h-71v261h-1zM150 0h-76v10l447 670h76v-10zM540 53c47 0 62 18 62 45c0 28 -15 47 -62 47s-62 -19 -62 -47c0 -27 15 -45 62 -45zM540 346c84 0 121 -38 121 -94c0 -41 -26 -62 -51 -73v-1c37 -15 64 -44 64 -87c0 -60 -45 -99 -134 -99
s-135 39 -135 99c0 43 28 72 63 87v1c-24 11 -49 32 -49 73c0 56 37 94 121 94zM540 205c33 0 50 12 50 39c0 25 -17 41 -50 41c-35 0 -50 -16 -50 -41c0 -27 15 -39 50 -39z" />
    <glyph glyph-name="threeeighths" unicode="&#x215c;" horiz-adv-x="769" 
d="M200 0h-76v10l447 670h76v-10zM590 53c47 0 62 18 62 45c0 28 -15 47 -62 47s-62 -19 -62 -47c0 -27 15 -45 62 -45zM590 346c84 0 121 -38 121 -94c0 -41 -26 -62 -51 -73v-1c37 -15 64 -44 64 -87c0 -60 -45 -99 -134 -99s-135 39 -135 99c0 43 28 72 63 87v1
c-24 11 -49 32 -49 73c0 56 37 94 121 94zM590 205c33 0 50 12 50 39c0 25 -17 41 -50 41c-35 0 -50 -16 -50 -41c0 -27 15 -39 50 -39zM98 479v60h60c43 0 57 18 57 42c0 28 -17 43 -56 43c-27 0 -61 -6 -86 -17l-20 55c29 15 69 23 109 23c80 0 128 -37 128 -94
c0 -43 -29 -68 -54 -75v-1c36 -12 61 -40 61 -85c0 -60 -47 -99 -140 -99c-49 0 -84 11 -113 26l19 57c27 -13 58 -22 93 -22c40 0 69 12 69 47c0 29 -22 40 -67 40h-60z" />
    <glyph glyph-name="fiveeighths" unicode="&#x215d;" horiz-adv-x="755" 
d="M186 0h-76v10l447 670h76v-10zM576 53c47 0 62 18 62 45c0 28 -15 47 -62 47s-62 -19 -62 -47c0 -27 15 -45 62 -45zM576 346c84 0 121 -38 121 -94c0 -41 -26 -62 -51 -73v-1c37 -15 64 -44 64 -87c0 -60 -45 -99 -134 -99s-135 39 -135 99c0 43 28 72 63 87v1
c-24 11 -49 32 -49 73c0 56 37 94 121 94zM576 205c33 0 50 12 50 39c0 25 -17 41 -50 41c-35 0 -50 -16 -50 -41c0 -27 15 -39 50 -39zM77 494l-10 9l20 177h192v-59h-133l-8 -64h24c76 0 130 -32 130 -108c0 -72 -54 -115 -145 -115c-24 0 -70 6 -104 19l16 60
c31 -13 67 -18 90 -18c47 0 69 18 69 54c0 32 -22 47 -65 47c-30 0 -57 -1 -76 -2z" />
    <glyph glyph-name="seveneighths" unicode="&#x215e;" horiz-adv-x="711" 
d="M142 0h-76v10l447 670h76v-10zM532 53c47 0 62 18 62 45c0 28 -15 47 -62 47s-62 -19 -62 -47c0 -27 15 -45 62 -45zM532 346c84 0 121 -38 121 -94c0 -41 -26 -62 -51 -73v-1c37 -15 64 -44 64 -87c0 -60 -45 -99 -134 -99s-135 39 -135 99c0 43 28 72 63 87v1
c-24 11 -49 32 -49 73c0 56 37 94 121 94zM532 205c33 0 50 12 50 39c0 25 -17 41 -50 41c-35 0 -50 -16 -50 -41c0 -27 15 -39 50 -39zM82 342v5l131 273v1h-166v59h243v-51l-135 -287h-73z" />
    <glyph glyph-name="arrowleft" unicode="&#x2190;" horiz-adv-x="892" 
d="M40 339l380 380l56 -57l-295 -285h711v-76h-711l295 -286l-56 -56z" />
    <glyph glyph-name="arrowup" unicode="&#x2191;" horiz-adv-x="892" 
d="M465 763l380 -380l-57 -55l-285 294l-1 -710h-75v710l-286 -294l-56 55z" />
    <glyph glyph-name="arrowright" unicode="&#x2192;" horiz-adv-x="892" 
d="M892 339l-380 -380l-57 56l296 286h-711v76h711l-296 285l57 57z" />
    <glyph glyph-name="arrowdown" unicode="&#x2193;" horiz-adv-x="892" 
d="M465 -88l-380 380l56 55l286 -294l1 710h75v-710l285 294l57 -55z" />
    <glyph glyph-name="uni2196" unicode="&#x2196;" horiz-adv-x="896" 
d="M159 662h539v-81l-412 6l503 -503l-54 -52l-501 503l6 -412h-81v539z" />
    <glyph glyph-name="uni2197" unicode="&#x2197;" horiz-adv-x="895" 
d="M804 662v-538h-81l6 412l-501 -503l-53 54l502 501l-412 -7v81h539z" />
    <glyph glyph-name="uni2198" unicode="&#x2198;" horiz-adv-x="895" 
d="M805 18h-539v81l412 -6l-503 501l54 53l501 -502l-6 412h81v-539z" />
    <glyph glyph-name="uni2199" unicode="&#x2199;" horiz-adv-x="896" 
d="M159 18v539h81l-6 -412l501 502l54 -53l-503 -501l412 6v-81h-539z" />
    <glyph glyph-name="partialdiff" unicode="&#x2202;" horiz-adv-x="585" 
d="M156 615l16 85c251 0 354 -160 354 -364c0 -231 -110 -351 -251 -351c-151 0 -232 106 -232 243c0 147 90 245 213 245c75 0 134 -29 166 -61l2 1c-19 164 -130 199 -268 202zM428 317c-24 35 -78 71 -154 71c-80 0 -136 -53 -136 -161c0 -89 53 -157 136 -157
c90 0 154 85 154 247z" />
    <glyph glyph-name="Delta" unicode="&#x2206;" horiz-adv-x="657" 
d="M630 5v-5h-603v5l255 675h93zM329 572h-2l-178 -489h359z" />
    <glyph glyph-name="product" unicode="&#x220f;" horiz-adv-x="695" 
d="M516 -198v815h-337v-815h-92v898h521v-898h-92z" />
    <glyph glyph-name="summation" unicode="&#x2211;" horiz-adv-x="581" 
d="M37 -198v73l258 383l-242 368v74h473v-83h-366l238 -355l-255 -377h398v-83h-504z" />
    <glyph glyph-name="minus" unicode="&#x2212;" 
d="M56 307h477v-74h-477v74z" />
    <glyph glyph-name="uni2215" unicode="&#x2215;" horiz-adv-x="535" 
d="M82 0h-76v10l447 670h76v-10z" />
    <glyph glyph-name="uni2219" unicode="&#x2219;" horiz-adv-x="264" 
d="M68 290c0 39 25 65 64 65s64 -26 64 -65s-25 -65 -64 -65s-64 26 -64 65z" />
    <glyph glyph-name="radical" unicode="&#x221a;" horiz-adv-x="612" 
d="M19 212v10h88l131 -306h2l281 764h83l-315 -878h-91z" />
    <glyph glyph-name="infinity" unicode="&#x221e;" horiz-adv-x="749" 
d="M537 116c-60 0 -103 28 -162 95c-62 -65 -106 -95 -164 -95c-87 0 -152 64 -152 155s65 153 154 153c55 0 97 -29 161 -98c66 71 104 98 163 98c85 0 153 -61 153 -153c0 -91 -65 -155 -153 -155zM537 193c48 0 75 37 75 78c0 43 -27 76 -75 76c-32 0 -61 -19 -112 -76
c52 -57 80 -78 112 -78zM213 193c31 0 63 25 111 78c-49 56 -79 76 -111 76c-49 0 -76 -33 -76 -76s27 -78 76 -78z" />
    <glyph glyph-name="integral" unicode="&#x222b;" horiz-adv-x="524" 
d="M162 -63l106 601c20 112 77 157 177 157c20 0 48 -3 67 -6l-9 -80c-15 3 -40 7 -59 7c-48 0 -74 -16 -85 -71l-106 -601c-20 -112 -75 -157 -175 -157c-20 0 -50 3 -67 6l9 80c13 -3 40 -7 59 -7c47 0 72 16 83 71z" />
    <glyph glyph-name="approxequal" unicode="&#x2248;" 
d="M106 334l-36 49c21 35 62 60 122 60c64 0 155 -51 211 -51c31 0 54 9 79 34l36 -50c-33 -44 -74 -58 -121 -58c-59 0 -158 51 -207 51c-27 0 -56 -6 -84 -35zM106 117l-36 49c21 35 62 60 122 60c64 0 155 -51 211 -51c31 0 54 9 79 34l36 -50c-33 -44 -74 -58 -121 -58
c-59 0 -158 51 -207 51c-27 0 -56 -6 -84 -35z" />
    <glyph glyph-name="notequal" unicode="&#x2260;" 
d="M232 0h-79v10l45 116h-122v74h150l55 143h-205v74h234l48 124h78v-10l-44 -114h121v-74h-149l-55 -143h204v-74h-233z" />
    <glyph glyph-name="lessequal" unicode="&#x2264;" 
d="M527 155h-9l-468 201v69l468 201h9v-84l-381 -150v-3l381 -150v-84zM50 74h477v-74h-477v74z" />
    <glyph glyph-name="greaterequal" unicode="&#x2265;" 
d="M72 155h-9v84l381 150v3l-381 150v84h9l468 -201v-69zM63 74h477v-74h-477v74z" />
    <glyph glyph-name="lozenge" unicode="&#x25ca;" horiz-adv-x="557" 
d="M251 0l-222 327l219 353h57l223 -333l-218 -347h-59zM283 85l153 257l-161 252l-154 -264z" />
    <glyph glyph-name="whitecircle" unicode="&#x25cb;" horiz-adv-x="800" 
d="M60 341c0 192 147 339 339 339c193 0 341 -147 341 -339c0 -193 -148 -341 -341 -341c-192 0 -339 148 -339 341zM125 341c0 -157 118 -277 274 -277s275 120 275 277c0 156 -119 275 -275 275s-274 -119 -274 -275z" />
    <glyph glyph-name="blackcircle" unicode="&#x25cf;" horiz-adv-x="800" 
d="M60 340c0 194 146 340 340 340c193 0 340 -146 340 -340c0 -193 -147 -340 -340 -340c-194 0 -340 147 -340 340z" />
    <glyph glyph-name="uni25DC" unicode="&#x25dc;" horiz-adv-x="339" 
d="M339 680v-64c-156 0 -274 -119 -274 -275h-65c0 192 147 339 339 339z" />
    <glyph glyph-name="uni25DD" unicode="&#x25dd;" horiz-adv-x="341" 
d="M0 616v64c193 0 341 -147 341 -339h-66c0 156 -119 275 -275 275z" />
    <glyph glyph-name="uni25DE" unicode="&#x25de;" horiz-adv-x="341" 
d="M0 0v64c156 0 275 120 275 277h66c0 -193 -148 -341 -341 -341z" />
    <glyph glyph-name="uni25DF" unicode="&#x25df;" horiz-adv-x="339" 
d="M339 64v-64c-192 0 -339 148 -339 341h65c0 -157 118 -277 274 -277z" />
    <glyph glyph-name="commaaccent" unicode="&#xf6c3;" 
d="M238 -218v10l20 141h93v-10l-42 -141h-71z" />
    <glyph glyph-name="commainferior" unicode="&#xf6e1;" horiz-adv-x="191" 
d="M25 -221v10l28 180h97v-9l-58 -181h-67z" />
    <glyph glyph-name="commasuperior" unicode="&#xf6e2;" horiz-adv-x="191" 
d="M25 361v10l28 180h97v-9l-58 -181h-67z" />
    <glyph glyph-name="hypheninferior" unicode="&#xf6e5;" horiz-adv-x="248" 
d="M203 27h-158v59h158v-59z" />
    <glyph glyph-name="hyphensuperior" unicode="&#xf6e6;" horiz-adv-x="248" 
d="M203 609h-158v59h158v-59z" />
    <glyph glyph-name="periodinferior" unicode="&#xf6e7;" horiz-adv-x="180" 
d="M37 -75c0 32 21 54 53 54s52 -22 52 -54c0 -31 -20 -53 -52 -53s-53 22 -53 53z" />
    <glyph glyph-name="periodsuperior" unicode="&#xf6e8;" horiz-adv-x="180" 
d="M37 507c0 32 21 54 53 54s52 -22 52 -54c0 -31 -20 -53 -52 -53s-53 22 -53 53z" />
    <glyph glyph-name="uniF8FF" unicode="&#xf8ff;" horiz-adv-x="585" 
d="M86 0v680h413v-680h-413zM144 58h297v564h-297v-564z" />
    <glyph glyph-name="fi" unicode="&#xfb01;" horiz-adv-x="605" 
d="M530 0h-90v408h-236v-408h-90v408h-86v54l86 20v66c0 111 54 157 154 157c20 0 49 -3 68 -6v-80c-15 3 -41 7 -60 7c-48 0 -72 -16 -72 -71v-73h326v-482zM428 624c0 35 22 56 57 56c36 0 58 -21 58 -56s-22 -57 -58 -57c-35 0 -57 22 -57 57z" />
    <glyph glyph-name="fl" unicode="&#xfb02;" horiz-adv-x="629" 
d="M204 0h-90v408h-86v54l86 20v66c0 111 54 157 154 157c20 0 49 -3 68 -6v-80c-15 3 -41 7 -60 7c-48 0 -72 -16 -72 -71v-73h132v-74h-132v-408zM602 67v-71c-15 -4 -36 -8 -59 -8c-72 0 -102 42 -102 111v601h90v-607c0 -17 3 -26 28 -26h43z" />
    <glyph glyph-name="zero.lf" horiz-adv-x="640" 
d="M157 340c0 -169 39 -270 164 -270s162 101 162 270s-37 270 -162 270s-164 -101 -164 -270zM578 340c0 -218 -74 -355 -257 -355c-184 0 -259 137 -259 355s75 355 259 355c183 0 257 -137 257 -355z" />
    <glyph glyph-name="one.lf" horiz-adv-x="382" 
d="M46 523h-13v81l182 76h76v-680h-92v583h-2z" />
    <glyph glyph-name="two.lf" horiz-adv-x="552" 
d="M181 85v-2h313v-83h-442v73l252 251c45 45 88 91 88 158c0 72 -50 128 -135 128c-79 0 -123 -28 -164 -64l-43 64c40 35 103 85 207 85c131 0 230 -85 230 -213c0 -88 -45 -146 -108 -206z" />
    <glyph glyph-name="three.lf" horiz-adv-x="560" 
d="M141 305v83h121c89 0 126 50 126 111s-42 111 -126 111c-63 0 -116 -12 -173 -35l-28 75c52 27 130 45 201 45c141 0 221 -74 221 -190c0 -74 -49 -133 -95 -152v-2c65 -25 112 -85 112 -169c0 -119 -102 -197 -244 -197c-88 0 -162 20 -213 51l32 75
c59 -29 115 -41 180 -41c82 0 150 41 150 118c0 65 -34 117 -149 117h-115z" />
    <glyph glyph-name="four.lf" horiz-adv-x="600" 
d="M367 227v253h92v-253h100v-83h-100v-144h-92v144h-334v70l208 466h93l-199 -451v-2h232z" />
    <glyph glyph-name="five.lf" horiz-adv-x="546" 
d="M94 328l-9 11l42 341h341v-83h-267l-23 -181c19 1 45 2 70 2c145 0 245 -61 245 -211c0 -146 -108 -222 -264 -222c-59 0 -141 19 -188 40l24 80c53 -23 108 -35 164 -35c102 0 169 39 169 137c0 82 -47 126 -162 126c-42 0 -102 -2 -142 -5z" />
    <glyph glyph-name="six.lf" horiz-adv-x="574" 
d="M375 680v-10l-168 -251l2 -2c19 15 61 28 105 28c131 0 220 -91 220 -227c0 -131 -89 -233 -243 -233c-156 0 -244 102 -244 233c0 64 22 130 55 183l174 279h99zM439 218c0 92 -59 142 -148 142c-92 0 -149 -50 -149 -142c0 -89 57 -148 149 -148c89 0 148 59 148 148z
" />
    <glyph glyph-name="seven.lf" horiz-adv-x="498" 
d="M129 0v10l239 585v2h-337v83h437v-70l-242 -610h-97z" />
    <glyph glyph-name="eight.lf" horiz-adv-x="609" 
d="M305 70c104 0 151 50 151 122s-47 122 -151 122c-108 0 -152 -50 -152 -122s48 -122 152 -122zM305 695c152 0 220 -82 220 -190c0 -79 -44 -123 -88 -146v-2c65 -29 114 -89 114 -170c0 -117 -82 -202 -246 -202s-247 85 -247 202c0 81 50 141 115 170v2
c-44 23 -89 67 -89 146c0 108 68 190 221 190zM305 397c83 0 125 38 125 106s-42 107 -125 107c-84 0 -126 -39 -126 -107s42 -106 126 -106z" />
    <glyph glyph-name="nine.lf" horiz-adv-x="573" 
d="M199 0v10l168 251l-2 2c-19 -15 -61 -28 -105 -28c-131 0 -220 91 -220 227c0 131 89 233 243 233c156 0 244 -102 244 -233c0 -64 -22 -131 -55 -183l-174 -279h-99zM135 462c0 -92 59 -142 148 -142c92 0 149 50 149 142c0 89 -57 148 -149 148
c-89 0 -148 -59 -148 -148z" />
    <glyph glyph-name="a.alt" horiz-adv-x="506" 
d="M345 218h-63c-114 0 -150 -30 -150 -78c0 -52 30 -76 83 -76c45 0 95 16 130 41v113zM435 0h-64l-10 44h-2c-44 -33 -98 -59 -162 -59c-89 0 -157 53 -157 149c0 117 96 154 228 154h77v25c0 69 -30 105 -107 105c-47 0 -96 -18 -133 -41l-33 67c43 31 99 53 168 53
c125 0 195 -65 195 -186v-311z" />
    <glyph glyph-name="agrave.alt" horiz-adv-x="506" 
d="M345 218h-63c-114 0 -150 -30 -150 -78c0 -52 30 -76 83 -76c45 0 95 16 130 41v113zM435 0h-64l-10 44h-2c-44 -33 -98 -59 -162 -59c-89 0 -157 53 -157 149c0 117 96 154 228 154h77v25c0 69 -30 105 -107 105c-47 0 -96 -18 -133 -41l-33 67c43 31 99 53 168 53
c125 0 195 -65 195 -186v-311zM135 700v10h98l64 -121v-10h-77z" />
    <glyph glyph-name="aacute.alt" horiz-adv-x="506" 
d="M345 218h-63c-114 0 -150 -30 -150 -78c0 -52 30 -76 83 -76c45 0 95 16 130 41v113zM435 0h-64l-10 44h-2c-44 -33 -98 -59 -162 -59c-89 0 -157 53 -157 149c0 117 96 154 228 154h77v25c0 69 -30 105 -107 105c-47 0 -96 -18 -133 -41l-33 67c43 31 99 53 168 53
c125 0 195 -65 195 -186v-311zM377 710v-10l-85 -121h-77v10l64 121h98z" />
    <glyph glyph-name="acircumflex.alt" horiz-adv-x="506" 
d="M345 218h-63c-114 0 -150 -30 -150 -78c0 -52 30 -76 83 -76c45 0 95 16 130 41v113zM435 0h-64l-10 44h-2c-44 -33 -98 -59 -162 -59c-89 0 -157 53 -157 149c0 117 96 154 228 154h77v25c0 69 -30 105 -107 105c-47 0 -96 -18 -133 -41l-33 67c43 31 99 53 168 53
c125 0 195 -65 195 -186v-311zM306 710l94 -121v-10h-82l-63 74l-63 -74h-82v10l94 121h102z" />
    <glyph glyph-name="atilde.alt" horiz-adv-x="506" 
d="M345 218h-63c-114 0 -150 -30 -150 -78c0 -52 30 -76 83 -76c45 0 95 16 130 41v113zM435 0h-64l-10 44h-2c-44 -33 -98 -59 -162 -59c-89 0 -157 53 -157 149c0 117 96 154 228 154h77v25c0 69 -30 105 -107 105c-47 0 -96 -18 -133 -41l-33 67c43 31 99 53 168 53
c125 0 195 -65 195 -186v-311zM130 584l-27 50c19 27 47 57 90 57s90 -40 130 -40c23 0 42 12 59 35l27 -50c-24 -33 -51 -57 -90 -57c-44 0 -88 40 -131 40c-21 0 -42 -14 -58 -35z" />
    <glyph glyph-name="adieresis.alt" horiz-adv-x="506" 
d="M345 218h-63c-114 0 -150 -30 -150 -78c0 -52 30 -76 83 -76c45 0 95 16 130 41v113zM435 0h-64l-10 44h-2c-44 -33 -98 -59 -162 -59c-89 0 -157 53 -157 149c0 117 96 154 228 154h77v25c0 69 -30 105 -107 105c-47 0 -96 -18 -133 -41l-33 67c43 31 99 53 168 53
c125 0 195 -65 195 -186v-311zM99 634c0 35 22 56 57 56c36 0 58 -21 58 -56s-22 -57 -58 -57c-35 0 -57 22 -57 57zM298 634c0 35 22 56 57 56c36 0 58 -21 58 -56s-22 -57 -58 -57c-35 0 -57 22 -57 57z" />
    <glyph glyph-name="aring.alt" horiz-adv-x="506" 
d="M345 218h-63c-114 0 -150 -30 -150 -78c0 -52 30 -76 83 -76c45 0 95 16 130 41v113zM435 0h-64l-10 44h-2c-44 -33 -98 -59 -162 -59c-89 0 -157 53 -157 149c0 117 96 154 228 154h77v25c0 69 -30 105 -107 105c-47 0 -96 -18 -133 -41l-33 67c43 31 99 53 168 53
c125 0 195 -65 195 -186v-311zM214 638c0 -27 16 -40 43 -40s43 13 43 40s-16 39 -43 39s-43 -12 -43 -39zM155 638c0 60 42 93 102 93s101 -33 101 -93s-41 -94 -101 -94s-102 34 -102 94z" />
    <glyph glyph-name="amacron.alt" horiz-adv-x="506" 
d="M345 218h-63c-114 0 -150 -30 -150 -78c0 -52 30 -76 83 -76c45 0 95 16 130 41v113zM435 0h-64l-10 44h-2c-44 -33 -98 -59 -162 -59c-89 0 -157 53 -157 149c0 117 96 154 228 154h77v25c0 69 -30 105 -107 105c-47 0 -96 -18 -133 -41l-33 67c43 31 99 53 168 53
c125 0 195 -65 195 -186v-311zM389 597h-265v74h265v-74z" />
    <glyph glyph-name="abreve.alt" horiz-adv-x="506" 
d="M345 218h-63c-114 0 -150 -30 -150 -78c0 -52 30 -76 83 -76c45 0 95 16 130 41v113zM435 0h-64l-10 44h-2c-44 -33 -98 -59 -162 -59c-89 0 -157 53 -157 149c0 117 96 154 228 154h77v25c0 69 -30 105 -107 105c-47 0 -96 -18 -133 -41l-33 67c43 31 99 53 168 53
c125 0 195 -65 195 -186v-311zM256 654c45 0 89 7 120 32l30 -42c-32 -45 -85 -65 -150 -65c-64 0 -117 20 -149 65l30 42c31 -25 75 -32 119 -32z" />
    <glyph glyph-name="aogonek.alt" horiz-adv-x="506" 
d="M366 -213c-51 0 -101 27 -101 95c0 56 43 97 102 133l-6 29h-2c-44 -33 -98 -59 -162 -59c-89 0 -157 53 -157 149c0 117 96 154 228 154h77v25c0 69 -30 105 -107 105c-47 0 -96 -18 -133 -41l-33 67c43 31 99 53 168 53c125 0 195 -65 195 -186v-311
c-65 -35 -94 -66 -94 -101c0 -28 16 -43 45 -43c25 0 44 12 59 21l8 -62c-19 -13 -51 -28 -87 -28zM345 218h-63c-114 0 -150 -30 -150 -78c0 -52 30 -76 83 -76c45 0 95 16 130 41v113z" />
    <glyph glyph-name="aringacute.alt" horiz-adv-x="506" 
d="M224 616c0 -27 16 -35 43 -35s43 8 43 35s-16 34 -43 34s-43 -7 -43 -34zM165 616c0 60 42 88 102 88s101 -28 101 -88s-41 -89 -101 -89s-102 29 -102 89zM345 218h-63c-114 0 -150 -30 -150 -78c0 -52 30 -76 83 -76c45 0 95 16 130 41v113zM435 0h-64l-10 44h-2
c-44 -33 -98 -59 -162 -59c-89 0 -157 53 -157 149c0 117 96 154 228 154h77v25c0 69 -30 105 -107 105c-47 0 -96 -18 -133 -41l-33 67c43 31 99 53 168 53c125 0 195 -65 195 -186v-311zM376 841v-8l-75 -98h-76v8l53 98h98z" />
    <glyph glyph-name="uni0444.alt" horiz-adv-x="674" 
d="M50 241c0 130 60 236 240 252v207h90v-207c183 -16 244 -123 244 -252s-61 -236 -244 -252v-187h-90v187c-180 13 -240 122 -240 252zM142 241c0 -88 31 -176 148 -189v377c-117 -13 -148 -99 -148 -188zM532 241c0 89 -31 172 -152 188v-376c121 16 152 99 152 188z" />
    <glyph glyph-name="Euro.alt" horiz-adv-x="611" 
d="M445 218h-223c24 -93 77 -148 177 -148c45 0 92 7 143 32l25 -73c-55 -28 -113 -44 -168 -44c-149 0 -239 89 -270 233h-83v74h71c-1 21 -1 33 -1 48c0 13 0 25 1 44h-71v74h82c31 145 120 237 271 237c55 0 113 -16 168 -44l-25 -73c-51 24 -98 32 -143 32
c-101 0 -154 -56 -177 -152h223v-74h-235c-3 -17 -2 -31 -2 -44c0 -15 1 -29 2 -48h235v-74z" />
    <glyph glyph-name="rupee.alt" 
d="M514 440h-78c-16 -113 -118 -160 -225 -163l256 -261v-16h-100l-284 294v63h110c97 0 137 28 148 83h-259v74h257c-15 52 -58 83 -146 83h-111v83h432v-74h-145v-2c35 -25 56 -55 64 -90h81v-74z" />
    <glyph glyph-name="registered.alt" horiz-adv-x="822" 
d="M56 340c0 201 154 355 355 355s355 -154 355 -355s-154 -355 -355 -355s-355 154 -355 355zM112 340c0 -172 127 -302 299 -302s299 130 299 302s-127 302 -299 302s-299 -130 -299 -302zM335 153h-70v374h158c88 0 132 -39 132 -111c0 -59 -31 -95 -88 -108l110 -146v-9
h-77l-108 151h-57v-151zM335 363h84c40 0 63 16 63 53s-23 51 -63 51h-84v-104z" />
    <glyph glyph-name="uniEA04" unicode="&#xea04;" horiz-adv-x="1000" 
d="M69 -96v861h861v-861h-861zM598 305v-195h98v469h-98v-192h-195v192h-98v-469h98v195h195z" />
    <glyph glyph-name="uniEA05" unicode="&#xea05;" horiz-adv-x="1000" 
d="M69 -96v861h861v-861h-861zM295 344c0 -147 82 -245 229 -245c44 0 91 11 135 30l-27 78c-40 -19 -69 -24 -108 -24c-76 0 -126 66 -126 161c0 96 49 161 126 161c39 0 68 -5 108 -24l27 78c-44 20 -91 30 -135 30c-147 0 -229 -99 -229 -245z" />
    <glyph glyph-name="uniEA06" unicode="&#xea06;" horiz-adv-x="1000" 
d="M69 -96v861h861v-861h-861zM361 222l-30 -78c41 -24 99 -45 167 -45c100 0 170 58 170 150c0 72 -43 108 -131 137l-50 16c-39 12 -49 29 -49 53c0 32 21 51 68 51c35 0 77 -9 114 -28l28 78c-47 24 -98 33 -141 33c-108 0 -169 -56 -169 -144c0 -59 26 -104 113 -132
l51 -16c51 -16 66 -30 66 -59c0 -37 -24 -56 -73 -56c-48 0 -103 19 -134 40z" />
    <glyph glyph-name="uniEA01" unicode="&#xea01;" horiz-adv-x="1000" 
d="M69 -96v861h861v-861h-861zM142 -23h715v715h-715v-715zM598 110v195h-195v-195h-98v469h98v-192h195v192h98v-469h-98z" />
    <glyph glyph-name="uniEA02" unicode="&#xea02;" horiz-adv-x="1000" 
d="M69 -96v861h861v-861h-861zM142 -23h715v715h-715v-715zM295 344c0 146 82 245 229 245c44 0 91 -10 135 -30l-27 -78c-40 19 -69 24 -108 24c-77 0 -126 -65 -126 -161c0 -95 50 -161 126 -161c39 0 68 5 108 24l27 -78c-44 -19 -91 -30 -135 -30
c-147 0 -229 98 -229 245z" />
    <glyph glyph-name="uniEA03" unicode="&#xea03;" horiz-adv-x="1000" 
d="M69 -96v861h861v-861h-861zM142 -23h715v715h-715v-715zM331 144l30 78c31 -21 86 -40 134 -40c49 0 73 19 73 56c0 29 -15 43 -66 59l-51 16c-87 28 -113 73 -113 132c0 88 61 144 169 144c43 0 94 -9 141 -33l-28 -78c-37 19 -79 28 -114 28c-47 0 -68 -19 -68 -51
c0 -24 10 -41 49 -53l50 -16c88 -29 131 -65 131 -137c0 -92 -70 -150 -170 -150c-68 0 -126 21 -167 45z" />
    <glyph glyph-name="guillemotleft.case" horiz-adv-x="526" 
d="M51 335v12l155 209l58 -38l-122 -177l122 -177l-58 -38zM248 335v12l155 209l58 -38l-122 -177l122 -177l-58 -38z" />
    <glyph glyph-name="bracketleft.case" horiz-adv-x="340" 
d="M87 790h212v-54l-120 -23v-744l120 -23v-54h-212v898z" />
    <glyph glyph-name="guilsinglright.case" horiz-adv-x="329" 
d="M278 347v-12l-155 -209l-58 38l122 177l-122 177l58 38z" />
    <glyph glyph-name="bar.case" horiz-adv-x="246" 
d="M159 790v-898h-72v898h72z" />
    <glyph glyph-name="periodcentered.case" horiz-adv-x="274" 
d="M73 341c0 39 25 65 64 65s64 -26 64 -65s-25 -65 -64 -65s-64 26 -64 65z" />
    <glyph glyph-name="bullet.case" horiz-adv-x="346" 
d="M88 340c0 51 33 86 85 86s85 -35 85 -86s-33 -86 -85 -86s-85 35 -85 86z" />
    <glyph glyph-name="emdash.case" horiz-adv-x="908" 
d="M832 304h-756v74h756v-74z" />
    <glyph glyph-name="bracketright.case" horiz-adv-x="341" 
d="M41 790h213v-898h-213v54l121 23v744l-121 23v54z" />
    <glyph glyph-name="endash.case" horiz-adv-x="575" 
d="M499 304h-423v74h423v-74z" />
    <glyph glyph-name="hyphen.case" horiz-adv-x="417" 
d="M341 304h-265v74h265v-74z" />
    <glyph glyph-name="guillemotright.case" horiz-adv-x="526" 
d="M278 347v-12l-155 -209l-58 38l122 177l-122 177l58 38zM475 347v-12l-155 -209l-58 38l122 177l-122 177l58 38z" />
    <glyph glyph-name="parenleft.case" horiz-adv-x="292" 
d="M56 341c0 194 56 346 125 465l65 -30c-64 -133 -95 -279 -95 -436s31 -303 95 -436l-65 -30c-69 119 -125 270 -125 467z" />
    <glyph glyph-name="guilsinglleft.case" horiz-adv-x="329" 
d="M51 335v12l155 209l58 -38l-122 -177l122 -177l-58 -38z" />
    <glyph glyph-name="braceright.case" horiz-adv-x="342" 
d="M305 379v-76c-52 0 -78 -20 -78 -73v-188c0 -90 -25 -150 -165 -150h-19v54c77 0 93 22 93 97v179c0 69 30 103 77 118v2c-47 15 -77 49 -77 118v179c0 74 -16 97 -93 97v54h19c140 0 165 -60 165 -150v-188c0 -53 26 -73 78 -73z" />
    <glyph glyph-name="braceleft.case" horiz-adv-x="341" 
d="M37 303v76c52 0 78 20 78 73v188c0 90 25 150 164 150h19v-54c-76 0 -92 -23 -92 -97v-179c0 -69 -30 -103 -78 -118v-2c48 -15 78 -49 78 -118v-179c0 -75 16 -97 92 -97v-54h-19c-139 0 -164 60 -164 150v188c0 53 -26 73 -78 73z" />
    <glyph glyph-name="parenright.case" horiz-adv-x="292" 
d="M236 341c0 -198 -57 -347 -126 -467l-64 30c64 133 95 279 95 436s-31 303 -95 436l64 30c69 -119 126 -270 126 -465z" />
    <glyph glyph-name="minus.case" horiz-adv-x="800" 
d="M609 299h-418v74h418v-74z" />
    <glyph glyph-name="zero.num" horiz-adv-x="350" 
d="M106 511c0 -79 24 -116 69 -116s69 37 69 116c0 77 -24 116 -69 116c-44 0 -69 -39 -69 -116zM317 511c0 -101 -49 -177 -142 -177s-142 76 -142 177s49 177 142 177s142 -76 142 -177z" />
    <glyph glyph-name="one.num" horiz-adv-x="248" 
d="M31 561h-9v63l122 56h52v-338h-71v261h-1z" />
    <glyph glyph-name="two.num" horiz-adv-x="313" 
d="M133 403v-1h145v-60h-246v51l134 117c23 19 35 39 35 64c0 39 -27 53 -56 53c-32 0 -55 -18 -76 -37l-38 48c22 19 57 50 120 50c68 0 123 -40 123 -108c0 -49 -27 -81 -56 -105z" />
    <glyph glyph-name="three.num" horiz-adv-x="313" 
d="M79 482v60h60c43 0 57 18 57 42c0 28 -17 43 -56 43c-27 0 -61 -6 -86 -17l-20 55c29 15 69 23 109 23c80 0 128 -37 128 -94c0 -43 -29 -68 -54 -75v-1c36 -12 61 -40 61 -85c0 -60 -47 -99 -140 -99c-49 0 -84 11 -113 26l19 57c27 -13 58 -22 93 -22c40 0 69 12 69 47
c0 29 -22 40 -67 40h-60z" />
    <glyph glyph-name="four.num" horiz-adv-x="334" 
d="M194 473v114h71v-114h41v-59h-41v-72h-71v72h-172v50l90 216h70l-84 -206v-1h96z" />
    <glyph glyph-name="five.num" horiz-adv-x="305" 
d="M58 494l-10 9l20 177h192v-59h-133l-8 -64h24c76 0 130 -32 130 -108c0 -72 -54 -115 -145 -115c-24 0 -70 6 -104 19l16 60c31 -13 67 -18 90 -18c47 0 69 18 69 54c0 32 -22 47 -65 47c-30 0 -57 -1 -76 -2z" />
    <glyph glyph-name="six.num" horiz-adv-x="323" 
d="M231 680v-5l-85 -114v-1c9 3 27 7 43 7c64 0 111 -51 111 -115c0 -62 -46 -118 -134 -118c-91 0 -136 54 -136 118c0 27 8 51 25 78l98 150h78zM227 450c0 36 -24 54 -61 54c-39 0 -62 -18 -62 -54c0 -37 23 -55 62 -55c37 0 61 18 61 55z" />
    <glyph glyph-name="seven.num" horiz-adv-x="285" 
d="M58 342v5l131 273v1h-166v59h243v-51l-135 -287h-73z" />
    <glyph glyph-name="eight.num" horiz-adv-x="335" 
d="M168 395c47 0 62 18 62 45c0 28 -15 47 -62 47s-62 -19 -62 -47c0 -27 15 -45 62 -45zM168 688c84 0 121 -38 121 -94c0 -41 -26 -62 -51 -73v-1c37 -15 64 -44 64 -87c0 -60 -45 -99 -134 -99s-135 39 -135 99c0 43 28 72 63 87v1c-24 11 -49 32 -49 73
c0 56 37 94 121 94zM168 547c33 0 50 12 50 39c0 25 -17 41 -50 41c-35 0 -50 -16 -50 -41c0 -27 15 -39 50 -39z" />
    <glyph glyph-name="nine.num" horiz-adv-x="323" 
d="M93 342v5l83 114v1c-9 -3 -26 -7 -42 -7c-63 0 -111 50 -111 116c0 61 46 117 134 117c91 0 136 -54 136 -117c0 -27 -8 -52 -25 -79l-98 -150h-77zM97 573c0 -36 23 -55 60 -55c39 0 61 19 61 55s-22 54 -61 54c-37 0 -60 -18 -60 -54z" />
    <glyph glyph-name="comma.num" horiz-adv-x="191" 
d="M25 241v10l28 180h97v-9l-58 -181h-67z" />
    <glyph glyph-name="plus.num" horiz-adv-x="264" 
d="M161 617v-69h70v-59h-70v-70h-59v70h-69v59h69v69h59z" />
    <glyph glyph-name="hyphen.num" horiz-adv-x="248" 
d="M203 489h-158v59h158v-59z" />
    <glyph glyph-name="minus.num" horiz-adv-x="288" 
d="M243 489h-198v59h198v-59z" />
    <glyph glyph-name="parenleft.num" horiz-adv-x="176" 
d="M29 511c0 96 40 176 77 234l45 -22c-33 -65 -54 -136 -54 -212c0 -77 21 -148 54 -213l-45 -22c-37 57 -77 138 -77 235z" />
    <glyph glyph-name="period.num" horiz-adv-x="180" 
d="M37 387c0 32 21 54 53 54s52 -22 52 -54c0 -31 -20 -53 -52 -53s-53 22 -53 53z" />
    <glyph glyph-name="parenright.num" horiz-adv-x="176" 
d="M147 511c0 -97 -40 -178 -77 -235l-45 22c33 65 54 136 54 213c0 76 -21 147 -54 212l45 22c37 -58 77 -138 77 -234z" />
    <glyph glyph-name="zero.denom" horiz-adv-x="350" 
d="M106 169c0 -79 24 -116 69 -116s69 37 69 116c0 77 -24 116 -69 116c-44 0 -69 -39 -69 -116zM317 169c0 -101 -49 -177 -142 -177s-142 76 -142 177s49 177 142 177s142 -76 142 -177z" />
    <glyph glyph-name="one.denom" horiz-adv-x="248" 
d="M31 219h-9v63l122 56h52v-338h-71v261h-1z" />
    <glyph glyph-name="two.denom" horiz-adv-x="313" 
d="M133 61v-1h145v-60h-246v51l134 117c23 19 35 39 35 64c0 39 -27 53 -56 53c-32 0 -55 -18 -76 -37l-38 48c22 19 57 50 120 50c68 0 123 -40 123 -108c0 -49 -27 -81 -56 -105z" />
    <glyph glyph-name="three.denom" horiz-adv-x="313" 
d="M79 140v60h60c43 0 57 18 57 42c0 28 -17 43 -56 43c-27 0 -61 -6 -86 -17l-20 55c29 15 69 23 109 23c80 0 128 -37 128 -94c0 -43 -29 -68 -54 -75v-1c36 -12 61 -40 61 -85c0 -60 -47 -99 -140 -99c-49 0 -84 11 -113 26l19 57c27 -13 58 -22 93 -22c40 0 69 12 69 47
c0 29 -22 40 -67 40h-60z" />
    <glyph glyph-name="four.denom" horiz-adv-x="334" 
d="M194 131v114h71v-114h41v-59h-41v-72h-71v72h-172v50l90 216h70l-84 -206v-1h96z" />
    <glyph glyph-name="five.denom" horiz-adv-x="305" 
d="M58 152l-10 9l20 177h192v-59h-133l-8 -64h24c76 0 130 -32 130 -108c0 -72 -54 -115 -145 -115c-24 0 -70 6 -104 19l16 60c31 -13 67 -18 90 -18c47 0 69 18 69 54c0 32 -22 47 -65 47c-30 0 -57 -1 -76 -2z" />
    <glyph glyph-name="six.denom" horiz-adv-x="323" 
d="M231 338v-5l-85 -114v-1c9 3 27 7 43 7c64 0 111 -51 111 -115c0 -62 -46 -118 -134 -118c-91 0 -136 54 -136 118c0 27 8 51 25 78l98 150h78zM227 108c0 36 -24 54 -61 54c-39 0 -62 -18 -62 -54c0 -37 23 -55 62 -55c37 0 61 18 61 55z" />
    <glyph glyph-name="seven.denom" horiz-adv-x="285" 
d="M58 0v5l131 273v1h-166v59h243v-51l-135 -287h-73z" />
    <glyph glyph-name="eight.denom" horiz-adv-x="335" 
d="M168 53c47 0 62 18 62 45c0 28 -15 47 -62 47s-62 -19 -62 -47c0 -27 15 -45 62 -45zM168 346c84 0 121 -38 121 -94c0 -41 -26 -62 -51 -73v-1c37 -15 64 -44 64 -87c0 -60 -45 -99 -134 -99s-135 39 -135 99c0 43 28 72 63 87v1c-24 11 -49 32 -49 73
c0 56 37 94 121 94zM168 205c33 0 50 12 50 39c0 25 -17 41 -50 41c-35 0 -50 -16 -50 -41c0 -27 15 -39 50 -39z" />
    <glyph glyph-name="nine.denom" horiz-adv-x="323" 
d="M93 0v5l83 114v1c-9 -3 -26 -7 -42 -7c-63 0 -111 50 -111 116c0 61 46 117 134 117c91 0 136 -54 136 -117c0 -27 -8 -52 -25 -79l-98 -150h-77zM97 231c0 -36 23 -55 60 -55c39 0 61 19 61 55s-22 54 -61 54c-37 0 -60 -18 -60 -54z" />
    <glyph glyph-name="comma.denom" horiz-adv-x="191" 
d="M25 -101v10l28 180h97v-9l-58 -181h-67z" />
    <glyph glyph-name="plus.denom" horiz-adv-x="264" 
d="M161 275v-69h70v-59h-70v-70h-59v70h-69v59h69v69h59z" />
    <glyph glyph-name="parenright.denom" horiz-adv-x="176" 
d="M147 169c0 -97 -40 -178 -77 -235l-45 22c33 65 54 136 54 213c0 76 -21 147 -54 212l45 22c37 -58 77 -138 77 -234z" />
    <glyph glyph-name="hyphen.denom" horiz-adv-x="248" 
d="M203 147h-158v59h158v-59z" />
    <glyph glyph-name="minus.denom" horiz-adv-x="288" 
d="M243 147h-198v59h198v-59z" />
    <glyph glyph-name="parenleft.denom" horiz-adv-x="176" 
d="M29 169c0 96 40 176 77 234l45 -22c-33 -65 -54 -136 -54 -212c0 -77 21 -148 54 -213l-45 -22c-37 57 -77 138 -77 235z" />
    <glyph glyph-name="period.denom" horiz-adv-x="180" 
d="M37 45c0 32 21 54 53 54s52 -22 52 -54c0 -31 -20 -53 -52 -53s-53 22 -53 53z" />
    <glyph glyph-name="minusinferior" horiz-adv-x="288" 
d="M243 27h-198v59h198v-59z" />
    <glyph glyph-name="plusinferior" horiz-adv-x="264" 
d="M161 155v-69h70v-59h-70v-70h-59v70h-69v59h69v69h59z" />
    <glyph glyph-name="commaaccent.alt" 
d="M351 720v-10l-20 -141h-93v10l42 141h71z" />
    <glyph glyph-name="caron.alt" 
d="M238 529v10l20 141h93v-10l-42 -141h-71z" />
    <glyph glyph-name="commaaccent.cap" 
d="M238 -218v10l20 141h93v-10l-42 -141h-71z" />
    <glyph glyph-name="grave.cap" 
d="M219 873v10h98l54 -121v-10h-77z" />
    <glyph glyph-name="acute.cap" 
d="M371 883v-10l-75 -121h-77v10l54 121h98z" />
    <glyph glyph-name="circumflex.cap" 
d="M346 883l94 -121v-10h-82l-63 71l-63 -71h-82v10l94 121h102z" />
    <glyph glyph-name="caron.cap" 
d="M244 752l-94 121v10h82l63 -71l63 71h82v-10l-94 -121h-102z" />
    <glyph glyph-name="tilde.cap" 
d="M169 767l-27 50c19 27 47 57 90 57s90 -40 130 -40c23 0 42 12 59 35l27 -50c-24 -33 -51 -57 -90 -57c-44 0 -88 40 -131 40c-21 0 -42 -14 -58 -35z" />
    <glyph glyph-name="dieresis.cap" 
d="M128 816c0 35 22 56 57 56c36 0 58 -21 58 -56s-22 -57 -58 -57c-35 0 -57 22 -57 57zM347 816c0 35 22 56 57 56c36 0 58 -21 58 -56s-22 -57 -58 -57c-35 0 -57 22 -57 57z" />
    <glyph glyph-name="macron.cap" 
d="M427 777h-265v74h265v-74z" />
    <glyph glyph-name="tonos.cap" 
d="M368 680v-10l-45 -141h-70v10l24 141h91z" />
    <glyph glyph-name="breve.cap" 
d="M294 838c45 0 89 7 120 32l30 -42c-32 -45 -85 -65 -150 -65c-64 0 -117 20 -149 65l30 42c31 -25 75 -32 119 -32z" />
    <glyph glyph-name="ring.cap" 
d="M252 828c0 -27 16 -40 43 -40s43 13 43 40s-16 39 -43 39s-43 -12 -43 -39zM193 828c0 60 42 93 102 93s101 -33 101 -93s-41 -94 -101 -94s-102 34 -102 94z" />
    <glyph glyph-name="hungarumlaut.cap" 
d="M292 883v-10l-85 -121h-77v10l64 121h98zM460 883v-10l-85 -121h-77v10l64 121h98z" />
    <glyph glyph-name="dotaccent.cap" 
d="M237 816c0 35 22 56 57 56c36 0 58 -21 58 -56s-22 -57 -58 -57c-35 0 -57 22 -57 57z" />
    </font>
</defs>
</svg>
